<?xml version="1.0" encoding="UTF-8" standalone="no"?>
<!DOCTYPE score-partwise PUBLIC "-//Recordare//DTD MusicXML 3.1 Partwise//EN" "http://www.musicxml.org/dtds/partwise.dtd">
<score-partwise version="3.1">
  <movement-title>DANH JÊSUS</movement-title>
  <identification>
    <creator type="composer">A.R. Reinagle, 1836.</creator>
    <creator type="lyricist">John Newton, 1779.</creator>
    <rights>©</rights>
    <encoding>
      <software>Finale v26.3 for Windows</software>
      <encoding-date>2021-09-06</encoding-date>
      <supports attribute="new-system" element="print" type="yes" value="yes"/>
      <supports attribute="new-page" element="print" type="yes" value="yes"/>
      <supports element="accidental" type="yes"/>
      <supports element="beam" type="yes"/>
      <supports element="stem" type="yes"/>
    </encoding>
  </identification>
  <defaults>
    <scaling>
      <millimeters>7.2319</millimeters>
      <tenths>40</tenths>
    </scaling>
    <page-layout>
      <page-height>1643</page-height>
      <page-width>1161</page-width>
      <page-margins type="both">
        <left-margin>70</left-margin>
        <right-margin>70</right-margin>
        <top-margin>70</top-margin>
        <bottom-margin>70</bottom-margin>
      </page-margins>
    </page-layout>
    <system-layout>
      <system-margins>
        <left-margin>0</left-margin>
        <right-margin>0</right-margin>
      </system-margins>
      <system-distance>111</system-distance>
      <top-system-distance>72</top-system-distance>
    </system-layout>
    <staff-layout>
      <staff-distance>93</staff-distance>
    </staff-layout>
    <appearance>
      <line-width type="stem">1.1784</line-width>
      <line-width type="beam">5</line-width>
      <line-width type="staff">1.1784</line-width>
      <line-width type="light barline">1.1784</line-width>
      <line-width type="heavy barline">5</line-width>
      <line-width type="leger">1.1784</line-width>
      <line-width type="ending">1.1784</line-width>
      <line-width type="wedge">0.7487</line-width>
      <line-width type="enclosure">1.1784</line-width>
      <line-width type="tuplet bracket">0.7487</line-width>
      <note-size type="grace">60</note-size>
      <note-size type="cue">60</note-size>
      <distance type="hyphen">120</distance>
      <distance type="beam">7.5</distance>
    </appearance>
    <music-font font-family="Maestro,engraved" font-size="20.5"/>
    <word-font font-family="Myriad Pro" font-size="10.25"/>
    <lyric-font font-family="Myriad Pro" font-size="12"/>
  </defaults>
  <credit page="1">
    <credit-type>title</credit-type>
    <credit-words default-x="581" default-y="1544" font-size="22" font-weight="bold" justify="center" valign="top">DANH JÊSUS</credit-words>
  </credit>
  <credit page="1">
    <credit-type>composer</credit-type>
    <credit-words default-x="1091" default-y="638" font-size="12" justify="right" valign="bottom">A.R. Reinagle, 1836.</credit-words>
  </credit>
  <credit page="1">
    <credit-type>lyricist</credit-type>
    <credit-words default-x="70" default-y="638" font-size="12" valign="bottom">Dịch lời của John Newton, 1779.</credit-words>
  </credit>
  <credit page="1">
    <credit-words default-x="70" default-y="1544" font-size="22" font-weight="bold" valign="top">14</credit-words>
  </credit>
  <part-list>
    <part-group number="1" type="start">
      <group-symbol default-x="-5">bracket</group-symbol>
      <group-barline>no</group-barline>
    </part-group>
    <score-part id="P1">
      <part-name print-object="no">MusicXML Part</part-name>
      <score-instrument id="P1-I1">
        <instrument-name>SmartMusic SoftSynth</instrument-name>
        <instrument-sound>voice.soprano</instrument-sound>
        <virtual-instrument/>
      </score-instrument>
      <midi-device>SmartMusic SoftSynth</midi-device>
      <midi-instrument id="P1-I1">
        <midi-channel>1</midi-channel>
        <midi-bank>15489</midi-bank>
        <midi-program>22</midi-program>
        <volume>80</volume>
        <pan>-70</pan>
      </midi-instrument>
    </score-part>
    <score-part id="P2">
      <part-name print-object="no">MusicXML Part</part-name>
      <score-instrument id="P2-I2">
        <instrument-name>SmartMusic SoftSynth</instrument-name>
        <instrument-sound>voice.bass</instrument-sound>
        <virtual-instrument/>
      </score-instrument>
      <midi-device>SmartMusic SoftSynth</midi-device>
      <midi-instrument id="P2-I2">
        <midi-channel>2</midi-channel>
        <midi-bank>15489</midi-bank>
        <midi-program>22</midi-program>
        <volume>80</volume>
        <pan>80</pan>
      </midi-instrument>
    </score-part>
    <part-group number="1" type="stop"/>
  </part-list>
  <!--=========================================================-->
  <part id="P1">
    <?SmartMusic maxVoice=1?>
    <measure number="1" width="178">
      <print>
        <system-layout>
          <top-system-distance>156</top-system-distance>
        </system-layout>
        <measure-numbering>none</measure-numbering>
      </print>
      <attributes>
        <divisions>2</divisions>
        <key>
          <fifths>-3</fifths>
          <mode>major</mode>
        </key>
        <time>
          <beats>4</beats>
          <beat-type>2</beat-type>
        </time>
        <clef>
          <sign>G</sign>
          <line>2</line>
        </clef>
      </attributes>
      <sound tempo="104"/>
      <note default-x="134">
        <pitch>
          <step>E</step>
          <alter>-1</alter>
          <octave>4</octave>
        </pitch>
        <duration>4</duration>
        <voice>1</voice>
        <type>half</type>
        <stem default-y="15">up</stem>
        <lyric default-y="-95" number="1" relative-x="-10">
          <syllabic>single</syllabic>
          <text>1.Khi</text>
        </lyric>
        <lyric default-y="-124" number="2" relative-x="-10">
          <syllabic>single</syllabic>
          <text>2.Danh</text>
        </lyric>
        <lyric default-y="-152" number="3" relative-x="-10">
          <syllabic>single</syllabic>
          <text>3.Danh</text>
        </lyric>
        <lyric default-y="-181" number="4" relative-x="-10">
          <syllabic>begin</syllabic>
          <text>4.Jê</text>
        </lyric>
        <lyric default-y="-209" number="5" relative-x="-10">
          <syllabic>single</syllabic>
          <text>5.Dầu</text>
        </lyric>
      </note>
      <note default-x="134">
        <chord/>
        <pitch>
          <step>B</step>
          <alter>-1</alter>
          <octave>4</octave>
        </pitch>
        <duration>4</duration>
        <voice>1</voice>
        <type>half</type>
        <stem>up</stem>
      </note>
    </measure>
    <!--=======================================================-->
    <measure number="2" width="229">
      <harmony default-y="25" font-family="VNI-Helve-Condense" font-size="13.7">
        <root>
          <root-step>E</root-step>
          <root-alter>-1</root-alter>
        </root>
        <kind halign="center" text="">major</kind>
      </harmony>
      <note default-x="14">
        <pitch>
          <step>G</step>
          <octave>4</octave>
        </pitch>
        <duration>4</duration>
        <voice>1</voice>
        <type>half</type>
        <stem default-y="23.5">up</stem>
        <lyric default-y="-95" number="1">
          <syllabic>single</syllabic>
          <text>các</text>
        </lyric>
        <lyric default-y="-124" number="2">
          <syllabic>single</syllabic>
          <text>cấp</text>
        </lyric>
        <lyric default-y="-152" number="3">
          <syllabic>single</syllabic>
          <text>chí</text>
        </lyric>
        <lyric default-y="-181" number="4">
          <syllabic>end</syllabic>
          <text>sus</text>
        </lyric>
        <lyric default-y="-209" number="5">
          <syllabic>single</syllabic>
          <text>sắp</text>
        </lyric>
      </note>
      <note default-x="14">
        <chord/>
        <pitch>
          <step>E</step>
          <alter>-1</alter>
          <octave>5</octave>
        </pitch>
        <duration>4</duration>
        <voice>1</voice>
        <type>half</type>
        <stem>up</stem>
      </note>
      <note default-x="59">
        <pitch>
          <step>G</step>
          <octave>4</octave>
        </pitch>
        <duration>4</duration>
        <voice>1</voice>
        <type>half</type>
        <stem default-y="18.5">up</stem>
        <lyric default-y="-95" number="1">
          <syllabic>single</syllabic>
          <text>giáo</text>
        </lyric>
        <lyric default-y="-124" number="2">
          <syllabic>single</syllabic>
          <text>cứu</text>
        </lyric>
        <lyric default-y="-152" number="3">
          <syllabic>single</syllabic>
          <text>ái,</text>
        </lyric>
        <lyric default-y="-181" number="4">
          <syllabic>single</syllabic>
          <text>hỡi,</text>
        </lyric>
        <lyric default-y="-209" number="5">
          <syllabic>single</syllabic>
          <text>tắt</text>
        </lyric>
      </note>
      <note default-x="59">
        <chord/>
        <pitch>
          <step>D</step>
          <octave>5</octave>
        </pitch>
        <duration>4</duration>
        <voice>1</voice>
        <type>half</type>
        <stem>up</stem>
      </note>
      <harmony default-y="25" font-family="VNI-Helve-Condense" font-size="13.7">
        <root>
          <root-step>A</root-step>
          <root-alter>-1</root-alter>
        </root>
        <kind halign="center" text="">major</kind>
      </harmony>
      <note default-x="112">
        <pitch>
          <step>E</step>
          <alter>-1</alter>
          <octave>4</octave>
        </pitch>
        <duration>4</duration>
        <voice>1</voice>
        <type>half</type>
        <stem default-y="14">up</stem>
        <lyric default-y="-95" number="1">
          <syllabic>single</syllabic>
          <text>hữu</text>
        </lyric>
        <lyric default-y="-124" number="2">
          <syllabic>single</syllabic>
          <text>kẻ</text>
        </lyric>
        <lyric default-y="-152" number="3">
          <syllabic>single</syllabic>
          <text>ấy</text>
        </lyric>
        <lyric default-y="-181" number="4">
          <syllabic>single</syllabic>
          <text>Chúa</text>
        </lyric>
        <lyric default-y="-209" number="5">
          <syllabic>single</syllabic>
          <text>hơi,</text>
        </lyric>
      </note>
      <note default-x="112">
        <chord/>
        <pitch>
          <step>C</step>
          <octave>5</octave>
        </pitch>
        <duration>4</duration>
        <voice>1</voice>
        <type>half</type>
        <stem>up</stem>
      </note>
      <note default-x="179">
        <pitch>
          <step>E</step>
          <alter>-1</alter>
          <octave>4</octave>
        </pitch>
        <duration>4</duration>
        <voice>1</voice>
        <type>half</type>
        <stem default-y="15">up</stem>
        <lyric default-y="-95" number="1">
          <syllabic>single</syllabic>
          <text>nghe</text>
        </lyric>
        <lyric default-y="-124" number="2">
          <syllabic>single</syllabic>
          <text>thương</text>
        </lyric>
        <lyric default-y="-152" number="3">
          <syllabic>single</syllabic>
          <text>khiên</text>
        </lyric>
        <lyric default-y="-181" number="4">
          <syllabic>single</syllabic>
          <text>tôi,</text>
        </lyric>
        <lyric default-y="-209" number="5">
          <syllabic>single</syllabic>
          <text>vui</text>
        </lyric>
      </note>
      <note default-x="179">
        <chord/>
        <pitch>
          <step>B</step>
          <alter>-1</alter>
          <octave>4</octave>
        </pitch>
        <duration>4</duration>
        <voice>1</voice>
        <type>half</type>
        <stem>up</stem>
      </note>
    </measure>
    <!--=======================================================-->
    <measure number="3" width="234">
      <harmony default-y="25" font-family="VNI-Helve-Condense" font-size="13.7">
        <root>
          <root-step>B</root-step>
          <root-alter>-1</root-alter>
        </root>
        <kind halign="center" text="m">minor</kind>
      </harmony>
      <note default-x="14">
        <pitch>
          <step>F</step>
          <octave>4</octave>
        </pitch>
        <duration>4</duration>
        <voice>1</voice>
        <type>half</type>
        <stem default-y="15">up</stem>
        <lyric default-y="-95" number="1" relative-x="5">
          <syllabic>single</syllabic>
          <text>danh</text>
        </lyric>
        <lyric default-y="-124" number="2">
          <syllabic>single</syllabic>
          <text>tâm</text>
        </lyric>
        <lyric default-y="-152" number="3">
          <syllabic>single</syllabic>
          <text>che</text>
        </lyric>
        <lyric default-y="-181" number="4">
          <syllabic>single</syllabic>
          <text>Vua,</text>
        </lyric>
        <lyric default-y="-209" number="5">
          <syllabic>single</syllabic>
          <text>rao</text>
        </lyric>
      </note>
      <note default-x="14">
        <chord/>
        <pitch>
          <step>B</step>
          <alter>-1</alter>
          <octave>4</octave>
        </pitch>
        <duration>4</duration>
        <voice>1</voice>
        <type>half</type>
        <stem>up</stem>
      </note>
      <note default-x="72">
        <pitch>
          <step>D</step>
          <octave>4</octave>
        </pitch>
        <duration>4</duration>
        <voice>1</voice>
        <type>half</type>
        <stem default-y="10">up</stem>
        <lyric default-y="-95" number="1">
          <syllabic>begin</syllabic>
          <text>Jê</text>
        </lyric>
        <lyric default-y="-124" number="2">
          <syllabic>single</syllabic>
          <text>lao</text>
        </lyric>
        <lyric default-y="-152" number="3">
          <syllabic>single</syllabic>
          <text>thân</text>
        </lyric>
        <lyric default-y="-181" number="4">
          <syllabic>single</syllabic>
          <text>bạn</text>
        </lyric>
        <lyric default-y="-209" number="5">
          <syllabic>single</syllabic>
          <text>Con</text>
        </lyric>
      </note>
      <note default-x="72">
        <chord/>
        <pitch>
          <step>A</step>
          <alter>-1</alter>
          <octave>4</octave>
        </pitch>
        <duration>4</duration>
        <voice>1</voice>
        <type>half</type>
        <stem>up</stem>
      </note>
      <harmony default-y="25" font-family="VNI-Helve-Condense" font-size="13.7">
        <root>
          <root-step>E</root-step>
          <root-alter>-1</root-alter>
        </root>
        <kind halign="center" text="">major</kind>
      </harmony>
      <note default-x="127">
        <pitch>
          <step>E</step>
          <alter>-1</alter>
          <octave>4</octave>
        </pitch>
        <duration>4</duration>
        <voice>1</voice>
        <type>half</type>
        <stem default-y="5">up</stem>
        <lyric default-y="-95" number="1">
          <syllabic>end</syllabic>
          <text>sus,</text>
        </lyric>
        <lyric default-y="-124" number="2">
          <syllabic>single</syllabic>
          <text>thần,</text>
        </lyric>
        <lyric default-y="-152" number="3">
          <syllabic>single</syllabic>
          <text>mình,</text>
        </lyric>
        <lyric default-y="-181" number="4">
          <syllabic>single</syllabic>
          <text>hiền,</text>
        </lyric>
        <lyric default-y="-209" number="5">
          <syllabic>single</syllabic>
          <text>Trời</text>
        </lyric>
      </note>
      <note default-x="127">
        <chord/>
        <pitch>
          <step>G</step>
          <octave>4</octave>
        </pitch>
        <duration>4</duration>
        <voice>1</voice>
        <type>half</type>
        <stem>up</stem>
      </note>
      <note default-x="191">
        <pitch>
          <step>E</step>
          <alter>-1</alter>
          <octave>4</octave>
        </pitch>
        <duration>4</duration>
        <voice>1</voice>
        <type>half</type>
        <stem default-y="5">up</stem>
        <lyric default-y="-95" number="1">
          <syllabic>single</syllabic>
          <text>Xiết</text>
        </lyric>
        <lyric default-y="-124" number="2">
          <syllabic>single</syllabic>
          <text>Rối</text>
        </lyric>
        <lyric default-y="-152" number="3">
          <syllabic>single</syllabic>
          <text>Chỗ</text>
        </lyric>
        <lyric default-y="-181" number="4">
          <syllabic>single</syllabic>
          <text>Chính</text>
        </lyric>
        <lyric default-y="-209" number="5">
          <syllabic>single</syllabic>
          <text>Chí</text>
        </lyric>
      </note>
      <note default-x="191">
        <chord/>
        <pitch>
          <step>G</step>
          <octave>4</octave>
        </pitch>
        <duration>4</duration>
        <voice>1</voice>
        <type>half</type>
        <stem>up</stem>
      </note>
    </measure>
    <!--=======================================================-->
    <measure number="4" width="253">
      <harmony default-y="25" font-family="VNI-Helve-Condense" font-size="13.7">
        <root>
          <root-step>F</root-step>
        </root>
        <kind halign="center" text="m">minor</kind>
      </harmony>
      <note default-x="16">
        <pitch>
          <step>C</step>
          <octave>4</octave>
        </pitch>
        <duration>4</duration>
        <voice>1</voice>
        <type>half</type>
        <stem default-y="0">up</stem>
        <lyric default-y="-95" number="1">
          <syllabic>single</syllabic>
          <text>bao</text>
        </lyric>
        <lyric default-y="-124" number="2">
          <syllabic>single</syllabic>
          <text>ren</text>
        </lyric>
        <lyric default-y="-152" number="3" relative-x="10">
          <syllabic>single</syllabic>
          <text>nương</text>
        </lyric>
        <lyric default-y="-181" number="4">
          <syllabic>single</syllabic>
          <text>Cha</text>
        </lyric>
        <lyric default-y="-209" number="5">
          <syllabic>single</syllabic>
          <text>công,</text>
        </lyric>
      </note>
      <note default-x="16">
        <chord/>
        <pitch>
          <step>F</step>
          <octave>4</octave>
        </pitch>
        <duration>4</duration>
        <voice>1</voice>
        <type>half</type>
        <stem>up</stem>
      </note>
      <note default-x="92">
        <pitch>
          <step>B</step>
          <alter>-1</alter>
          <octave>3</octave>
        </pitch>
        <duration>4</duration>
        <voice>1</voice>
        <type>half</type>
        <stem default-y="-5">up</stem>
        <lyric default-y="-95" number="1">
          <syllabic>single</syllabic>
          <text>đẹp</text>
        </lyric>
        <lyric default-y="-124" number="2">
          <syllabic>single</syllabic>
          <text>thành</text>
        </lyric>
        <lyric default-y="-152" number="3">
          <syllabic>single</syllabic>
          <text>cậy,</text>
        </lyric>
        <lyric default-y="-181" number="4">
          <syllabic>single</syllabic>
          <text>là</text>
        </lyric>
        <lyric default-y="-209" number="5">
          <syllabic>single</syllabic>
          <text>toàn</text>
        </lyric>
      </note>
      <note default-x="92">
        <chord/>
        <pitch>
          <step>E</step>
          <alter>-1</alter>
          <octave>4</octave>
        </pitch>
        <duration>4</duration>
        <voice>1</voice>
        <type>half</type>
        <stem>up</stem>
      </note>
      <harmony default-y="25" font-family="VNI-Helve-Condense" font-size="13.7">
        <root>
          <root-step>D</root-step>
          <root-alter>-1</root-alter>
        </root>
        <kind halign="center" text="">major</kind>
      </harmony>
      <note default-x="154">
        <pitch>
          <step>D</step>
          <octave>4</octave>
        </pitch>
        <duration>4</duration>
        <voice>1</voice>
        <type>half</type>
        <stem default-y="10">up</stem>
        <lyric default-y="-95" number="1">
          <syllabic>single</syllabic>
          <text>đẽ</text>
        </lyric>
        <lyric default-y="-124" number="2">
          <syllabic>single</syllabic>
          <text>tĩnh</text>
        </lyric>
        <lyric default-y="-152" number="3">
          <syllabic>single</syllabic>
          <text>Đá</text>
        </lyric>
        <lyric default-y="-181" number="4">
          <syllabic>single</syllabic>
          <text>Đấng</text>
        </lyric>
        <lyric default-y="-209" number="5">
          <syllabic>single</syllabic>
          <text>ái</text>
        </lyric>
      </note>
      <note default-x="154">
        <chord/>
        <pitch>
          <step>A</step>
          <alter>-1</alter>
          <octave>4</octave>
        </pitch>
        <duration>4</duration>
        <voice>1</voice>
        <type>half</type>
        <stem>up</stem>
      </note>
      <harmony default-y="25" font-family="VNI-Helve-Condense" font-size="13.7">
        <root>
          <root-step>E</root-step>
          <root-alter>-1</root-alter>
        </root>
        <kind halign="center" text="">major</kind>
      </harmony>
      <note default-x="212">
        <pitch>
          <step>E</step>
          <alter>-1</alter>
          <octave>4</octave>
        </pitch>
        <duration>4</duration>
        <voice>1</voice>
        <type>half</type>
        <stem default-y="5">up</stem>
        <lyric default-y="-95" number="1">
          <syllabic>single</syllabic>
          <text>êm</text>
        </lyric>
        <lyric default-y="-124" number="2">
          <syllabic>single</syllabic>
          <text>an</text>
        </lyric>
        <lyric default-y="-152" number="3">
          <syllabic>single</syllabic>
          <text>xây</text>
        </lyric>
        <lyric default-y="-181" number="4">
          <syllabic>single</syllabic>
          <text>chăn</text>
        </lyric>
        <lyric default-y="-209" number="5">
          <syllabic>single</syllabic>
          <text>tuyệt</text>
        </lyric>
      </note>
      <note default-x="212">
        <chord/>
        <pitch>
          <step>G</step>
          <octave>4</octave>
        </pitch>
        <duration>4</duration>
        <voice>1</voice>
        <type>half</type>
        <stem>up</stem>
      </note>
    </measure>
    <!--=======================================================-->
    <measure number="5" width="127">
      <harmony default-y="25" font-family="VNI-Helve-Condense" font-size="13.7">
        <root>
          <root-step>B</root-step>
          <root-alter>-1</root-alter>
        </root>
        <kind halign="center" text="m">minor</kind>
      </harmony>
      <note default-x="20">
        <pitch>
          <step>D</step>
          <octave>4</octave>
        </pitch>
        <duration>12</duration>
        <voice>1</voice>
        <type>whole</type>
        <dot/>
        <lyric default-y="-95" number="1">
          <syllabic>single</syllabic>
          <text>đềm!</text>
        </lyric>
        <lyric default-y="-124" number="2">
          <syllabic>single</syllabic>
          <text>liền;</text>
        </lyric>
        <lyric default-y="-152" number="3">
          <syllabic>single</syllabic>
          <text>nền;</text>
        </lyric>
        <lyric default-y="-181" number="4">
          <syllabic>single</syllabic>
          <text>chiên;</text>
        </lyric>
        <lyric default-y="-209" number="5">
          <syllabic>single</syllabic>
          <text>vời;</text>
        </lyric>
      </note>
      <note default-x="20">
        <chord/>
        <pitch>
          <step>F</step>
          <octave>4</octave>
        </pitch>
        <duration>12</duration>
        <voice>1</voice>
        <type>whole</type>
        <dot/>
      </note>
      <harmony default-y="25" font-family="VNI-Helve-Condense" font-size="13.7">
        <root>
          <root-step>E</root-step>
          <root-alter>-1</root-alter>
        </root>
        <kind halign="center" text="7">dominant</kind>
      </harmony>
      <note default-x="81">
        <pitch>
          <step>E</step>
          <alter>-1</alter>
          <octave>4</octave>
        </pitch>
        <duration>4</duration>
        <voice>1</voice>
        <type>half</type>
        <stem default-y="5">up</stem>
        <lyric default-y="-95" number="1" relative-x="14">
          <syllabic>single</syllabic>
          <text>Buồn</text>
        </lyric>
        <lyric default-y="-124" number="2" relative-x="14">
          <syllabic>single</syllabic>
          <text>Là</text>
        </lyric>
        <lyric default-y="-152" number="3" relative-x="14">
          <syllabic>single</syllabic>
          <text>Là</text>
        </lyric>
        <lyric default-y="-181" number="4" relative-x="14">
          <syllabic>single</syllabic>
          <text>Đường</text>
        </lyric>
        <lyric default-y="-209" number="5" relative-x="14">
          <syllabic>single</syllabic>
          <text>Kìa,</text>
        </lyric>
      </note>
      <note default-x="81">
        <chord/>
        <pitch>
          <step>G</step>
          <octave>4</octave>
        </pitch>
        <duration>4</duration>
        <voice>1</voice>
        <type>half</type>
        <stem>up</stem>
      </note>
    </measure>
    <!--=======================================================-->
    <measure number="6" width="232">
      <harmony default-y="25" font-family="VNI-Helve-Condense" font-size="13.7">
        <root>
          <root-step>A</root-step>
          <root-alter>-1</root-alter>
        </root>
        <kind halign="center" text="">major</kind>
      </harmony>
      <note default-x="14">
        <pitch>
          <step>E</step>
          <alter>-1</alter>
          <octave>4</octave>
        </pitch>
        <duration>4</duration>
        <voice>1</voice>
        <type>half</type>
        <stem default-y="10">up</stem>
        <lyric default-y="-95" number="1">
          <syllabic>single</syllabic>
          <text>lo</text>
        </lyric>
        <lyric default-y="-124" number="2">
          <syllabic>begin</syllabic>
          <text>ma</text>
        </lyric>
        <lyric default-y="-152" number="3">
          <syllabic>single</syllabic>
          <text>kho</text>
        </lyric>
        <lyric default-y="-181" number="4">
          <syllabic>single</syllabic>
          <text>đi,</text>
        </lyric>
        <lyric default-y="-209" number="5" relative-x="5">
          <syllabic>single</syllabic>
          <text>danh</text>
        </lyric>
      </note>
      <note default-x="14">
        <chord/>
        <pitch>
          <step>A</step>
          <alter>-1</alter>
          <octave>4</octave>
        </pitch>
        <duration>4</duration>
        <voice>1</voice>
        <type>half</type>
        <stem>up</stem>
      </note>
      <harmony default-y="25" font-family="VNI-Helve-Condense" font-size="13.7">
        <root>
          <root-step>E</root-step>
          <root-alter>-1</root-alter>
        </root>
        <kind halign="center" text="">major</kind>
      </harmony>
      <note default-x="78">
        <pitch>
          <step>E</step>
          <alter>-1</alter>
          <octave>4</octave>
        </pitch>
        <duration>4</duration>
        <voice>1</voice>
        <type>half</type>
        <stem default-y="5">up</stem>
        <lyric default-y="-95" number="1">
          <syllabic>single</syllabic>
          <text>vụt</text>
        </lyric>
        <lyric default-y="-124" number="2">
          <syllabic>end</syllabic>
          <text>na</text>
        </lyric>
        <lyric default-y="-152" number="3">
          <syllabic>single</syllabic>
          <text>vàng</text>
        </lyric>
        <lyric default-y="-181" number="4">
          <syllabic>single</syllabic>
          <text>Sự</text>
        </lyric>
        <lyric default-y="-209" number="5">
          <syllabic>single</syllabic>
          <text>diệu</text>
        </lyric>
      </note>
      <note default-x="78">
        <chord/>
        <pitch>
          <step>G</step>
          <octave>4</octave>
        </pitch>
        <duration>4</duration>
        <voice>1</voice>
        <type>half</type>
        <stem>up</stem>
      </note>
      <harmony default-y="25" font-family="VNI-Helve-Condense" font-size="13.7">
        <root>
          <root-step>A</root-step>
          <root-alter>-1</root-alter>
        </root>
        <kind halign="center" text="">major</kind>
      </harmony>
      <note default-x="136">
        <pitch>
          <step>E</step>
          <alter>-1</alter>
          <octave>4</octave>
        </pitch>
        <duration>4</duration>
        <voice>1</voice>
        <type>half</type>
        <stem default-y="13.5">up</stem>
        <lyric default-y="-95" number="1">
          <syllabic>single</syllabic>
          <text>biến,</text>
        </lyric>
        <lyric default-y="-124" number="2">
          <syllabic>single</syllabic>
          <text>cấp</text>
        </lyric>
        <lyric default-y="-152" number="3">
          <syllabic>single</syllabic>
          <text>chứa</text>
        </lyric>
        <lyric default-y="-181" number="4">
          <syllabic>single</syllabic>
          <text>sống,</text>
        </lyric>
        <lyric default-y="-209" number="5">
          <syllabic>single</syllabic>
          <text>bấy</text>
        </lyric>
      </note>
      <note default-x="136">
        <chord/>
        <pitch>
          <step>C</step>
          <octave>5</octave>
        </pitch>
        <duration>4</duration>
        <voice>1</voice>
        <type>half</type>
        <stem>up</stem>
      </note>
      <harmony default-y="25" font-family="VNI-Helve-Condense" font-size="13.7">
        <root>
          <root-step>E</root-step>
          <root-alter>-1</root-alter>
        </root>
        <kind halign="center" text="">major</kind>
      </harmony>
      <note default-x="194">
        <pitch>
          <step>E</step>
          <alter>-1</alter>
          <octave>4</octave>
        </pitch>
        <duration>4</duration>
        <voice>1</voice>
        <type>half</type>
        <stem default-y="15">up</stem>
        <lyric default-y="-95" number="1">
          <syllabic>single</syllabic>
          <text>đau</text>
        </lyric>
        <lyric default-y="-124" number="2">
          <syllabic>single</syllabic>
          <text>cho</text>
        </lyric>
        <lyric default-y="-152" number="3">
          <syllabic>single</syllabic>
          <text>bao</text>
        </lyric>
        <lyric default-y="-181" number="4">
          <syllabic>single</syllabic>
          <text>Tiên</text>
        </lyric>
        <lyric default-y="-209" number="5">
          <syllabic>single</syllabic>
          <text>đưa</text>
        </lyric>
      </note>
      <note default-x="194">
        <chord/>
        <pitch>
          <step>B</step>
          <alter>-1</alter>
          <octave>4</octave>
        </pitch>
        <duration>4</duration>
        <voice>1</voice>
        <type>half</type>
        <stem>up</stem>
      </note>
    </measure>
    <!--=======================================================-->
    <measure number="7" width="254">
      <harmony default-y="25" font-family="VNI-Helve-Condense" font-size="13.7">
        <root>
          <root-step>B</root-step>
          <root-alter>-1</root-alter>
        </root>
        <kind halign="center" text="7">dominant</kind>
      </harmony>
      <note default-x="29">
        <pitch>
          <step>C</step>
          <octave>4</octave>
        </pitch>
        <duration>4</duration>
        <voice>1</voice>
        <type>half</type>
        <stem default-y="15">up</stem>
        <lyric default-y="-95" number="1">
          <syllabic>single</syllabic>
          <text>thương</text>
        </lyric>
        <lyric default-y="-124" number="2">
          <syllabic>single</syllabic>
          <text>ai</text>
        </lyric>
        <lyric default-y="-152" number="3">
          <syllabic>single</syllabic>
          <text>nhiêu</text>
        </lyric>
        <lyric default-y="-181" number="4">
          <syllabic>single</syllabic>
          <text>tri,</text>
        </lyric>
        <lyric default-y="-209" number="5">
          <syllabic>single</syllabic>
          <text>tôi</text>
        </lyric>
      </note>
      <note default-x="29">
        <chord/>
        <pitch>
          <step>B</step>
          <alter>-1</alter>
          <octave>4</octave>
        </pitch>
        <duration>4</duration>
        <voice>1</voice>
        <type>half</type>
        <stem>up</stem>
      </note>
      <note default-x="95">
        <pitch>
          <step>D</step>
          <octave>4</octave>
        </pitch>
        <duration>4</duration>
        <voice>1</voice>
        <type>half</type>
        <stem default-y="10">up</stem>
        <lyric default-y="-95" number="1">
          <syllabic>single</syllabic>
          <text>tiêu</text>
        </lyric>
        <lyric default-y="-124" number="2">
          <syllabic>single</syllabic>
          <text>cơ</text>
        </lyric>
        <lyric default-y="-152" number="3">
          <syllabic>single</syllabic>
          <text>ơn</text>
        </lyric>
        <lyric default-y="-181" number="4">
          <syllabic>single</syllabic>
          <text>Cuối</text>
        </lyric>
        <lyric default-y="-209" number="5">
          <syllabic>single</syllabic>
          <text>qua</text>
        </lyric>
      </note>
      <note default-x="95">
        <chord/>
        <pitch>
          <step>A</step>
          <alter>-1</alter>
          <octave>4</octave>
        </pitch>
        <duration>4</duration>
        <voice>1</voice>
        <type>half</type>
        <stem>up</stem>
      </note>
      <harmony default-y="25" font-family="VNI-Helve-Condense" font-size="13.7">
        <root>
          <root-step>C</root-step>
        </root>
        <kind halign="center" text="m">minor</kind>
      </harmony>
      <note default-x="149">
        <pitch>
          <step>E</step>
          <alter>-1</alter>
          <octave>4</octave>
        </pitch>
        <duration>4</duration>
        <voice>1</voice>
        <type>half</type>
        <stem default-y="5">up</stem>
        <lyric default-y="-95" number="1">
          <syllabic>single</syllabic>
          <text>trừ,</text>
        </lyric>
        <lyric default-y="-124" number="2">
          <syllabic>single</syllabic>
          <text>bần,</text>
        </lyric>
        <lyric default-y="-152" number="3">
          <syllabic>single</syllabic>
          <text>lành,</text>
        </lyric>
        <lyric default-y="-181" number="4">
          <syllabic>single</syllabic>
          <text>cùng,</text>
        </lyric>
        <lyric default-y="-209" number="5">
          <syllabic>single</syllabic>
          <text>đời,</text>
        </lyric>
      </note>
      <note default-x="149">
        <chord/>
        <pitch>
          <step>G</step>
          <octave>4</octave>
        </pitch>
        <duration>4</duration>
        <voice>1</voice>
        <type>half</type>
        <stem>up</stem>
      </note>
      <note default-x="212">
        <pitch>
          <step>C</step>
          <octave>4</octave>
        </pitch>
        <duration>4</duration>
        <voice>1</voice>
        <type>half</type>
        <stem default-y="-5">up</stem>
        <lyric default-y="-95" number="1">
          <syllabic>single</syllabic>
          <text>Làn</text>
        </lyric>
        <lyric default-y="-124" number="2">
          <syllabic>single</syllabic>
          <text>Hằng</text>
        </lyric>
        <lyric default-y="-152" number="3">
          <syllabic>single</syllabic>
          <text>Đầy</text>
        </lyric>
        <lyric default-y="-181" number="4">
          <syllabic>single</syllabic>
          <text>Nhận</text>
        </lyric>
        <lyric default-y="-209" number="5">
          <syllabic>single</syllabic>
          <text>Hồn</text>
        </lyric>
      </note>
      <note default-x="212">
        <chord/>
        <pitch>
          <step>E</step>
          <alter>-1</alter>
          <octave>4</octave>
        </pitch>
        <duration>4</duration>
        <voice>1</voice>
        <type>half</type>
        <stem>up</stem>
      </note>
    </measure>
    <!--=======================================================-->
    <measure number="8" width="256">
      <harmony default-y="25" font-family="VNI-Helve-Condense" font-size="13.7">
        <root>
          <root-step>E</root-step>
          <root-alter>-1</root-alter>
        </root>
        <kind halign="center" text="">major</kind>
        <bass>
          <bass-step>G</bass-step>
        </bass>
      </harmony>
      <note default-x="14">
        <pitch>
          <step>E</step>
          <alter>-1</alter>
          <octave>4</octave>
        </pitch>
        <duration>4</duration>
        <voice>1</voice>
        <type>half</type>
        <stem default-y="5">up</stem>
        <lyric default-y="-95" number="1" relative-x="4">
          <syllabic>single</syllabic>
          <text>sóng</text>
        </lyric>
        <lyric default-y="-124" number="2" relative-x="3">
          <syllabic>single</syllabic>
          <text>giúp</text>
        </lyric>
        <lyric default-y="-152" number="3">
          <syllabic>single</syllabic>
          <text>dẫy</text>
        </lyric>
        <lyric default-y="-181" number="4">
          <syllabic>single</syllabic>
          <text>lấy</text>
        </lyric>
        <lyric default-y="-209" number="5" relative-x="3">
          <syllabic>single</syllabic>
          <text>thỏa</text>
        </lyric>
      </note>
      <note default-x="14">
        <chord/>
        <pitch>
          <step>G</step>
          <octave>4</octave>
        </pitch>
        <duration>4</duration>
        <voice>1</voice>
        <type>half</type>
        <stem>up</stem>
      </note>
      <harmony default-y="25" font-family="VNI-Helve-Condense" font-size="13.7">
        <root>
          <root-step>F</root-step>
        </root>
        <kind halign="center" text="m">minor</kind>
        <bass>
          <bass-step>A</bass-step>
          <bass-alter>-1</bass-alter>
        </bass>
      </harmony>
      <note default-x="83">
        <pitch>
          <step>C</step>
          <octave>4</octave>
        </pitch>
        <duration>4</duration>
        <voice>1</voice>
        <type>half</type>
        <stem default-y="0">up</stem>
        <lyric default-y="-95" number="1">
          <syllabic>single</syllabic>
          <text>kinh</text>
        </lyric>
        <lyric default-y="-124" number="2">
          <syllabic>single</syllabic>
          <text>ai</text>
        </lyric>
        <lyric default-y="-152" number="3">
          <syllabic>single</syllabic>
          <text>phước</text>
        </lyric>
        <lyric default-y="-181" number="4">
          <syllabic>single</syllabic>
          <text>bao</text>
        </lyric>
        <lyric default-y="-209" number="5">
          <syllabic>single</syllabic>
          <text>vui</text>
        </lyric>
      </note>
      <note default-x="83">
        <chord/>
        <pitch>
          <step>F</step>
          <octave>4</octave>
        </pitch>
        <duration>4</duration>
        <voice>1</voice>
        <type>half</type>
        <stem>up</stem>
      </note>
      <harmony default-y="25" font-family="VNI-Helve-Condense" font-size="13.7">
        <root>
          <root-step>E</root-step>
          <root-alter>-1</root-alter>
        </root>
        <kind halign="center" text="">major</kind>
        <bass>
          <bass-step>B</bass-step>
          <bass-alter>-1</bass-alter>
        </bass>
      </harmony>
      <note default-x="150">
        <pitch>
          <step>B</step>
          <alter>-1</alter>
          <octave>3</octave>
        </pitch>
        <duration>4</duration>
        <voice>1</voice>
        <type>half</type>
        <stem default-y="-5">up</stem>
        <lyric default-y="-95" number="1">
          <syllabic>single</syllabic>
          <text>sợ</text>
        </lyric>
        <lyric default-y="-124" number="2">
          <syllabic>single</syllabic>
          <text>mệt</text>
        </lyric>
        <lyric default-y="-152" number="3">
          <syllabic>single</syllabic>
          <text>thật</text>
        </lyric>
        <lyric default-y="-181" number="4">
          <syllabic>single</syllabic>
          <text>lời</text>
        </lyric>
        <lyric default-y="-209" number="5">
          <syllabic>single</syllabic>
          <text>hằng</text>
        </lyric>
      </note>
      <note default-x="150">
        <chord/>
        <pitch>
          <step>E</step>
          <alter>-1</alter>
          <octave>4</octave>
        </pitch>
        <duration>4</duration>
        <voice>1</voice>
        <type>half</type>
        <stem>up</stem>
      </note>
      <harmony default-y="25" font-family="VNI-Helve-Condense" font-size="13.7">
        <root>
          <root-step>B</root-step>
          <root-alter>-1</root-alter>
        </root>
        <kind halign="center" text="7">dominant</kind>
      </harmony>
      <note default-x="210">
        <pitch>
          <step>D</step>
          <octave>4</octave>
        </pitch>
        <duration>4</duration>
        <voice>1</voice>
        <type>half</type>
        <stem default-y="-10">up</stem>
        <lyric default-y="-95" number="1">
          <syllabic>single</syllabic>
          <text>đều</text>
          <extend type="start"/>
        </lyric>
        <lyric default-y="-124" number="2">
          <syllabic>single</syllabic>
          <text>được</text>
          <extend type="start"/>
        </lyric>
        <lyric default-y="-152" number="3">
          <syllabic>single</syllabic>
          <text>từ</text>
          <extend type="start"/>
        </lyric>
        <lyric default-y="-181" number="4">
          <syllabic>single</syllabic>
          <text>ngợi</text>
          <extend type="start"/>
        </lyric>
        <lyric default-y="-209" number="5">
          <syllabic>single</syllabic>
          <text>cười</text>
          <extend type="start"/>
        </lyric>
      </note>
      <backup>
        <duration>4</duration>
      </backup>
      <note default-x="210">
        <pitch>
          <step>B</step>
          <alter>-1</alter>
          <octave>3</octave>
        </pitch>
        <duration>2</duration>
        <voice>2</voice>
        <type>quarter</type>
        <stem default-y="-74">down</stem>
        <notations>
          <slur bezier-x="2" bezier-y="-8" default-x="6" default-y="-64" number="1" placement="below" type="start"/>
        </notations>
      </note>
      <note default-x="234">
        <pitch>
          <step>A</step>
          <alter>-1</alter>
          <octave>3</octave>
        </pitch>
        <duration>2</duration>
        <voice>2</voice>
        <type>quarter</type>
        <stem default-y="-79">down</stem>
        <notations>
          <slur bezier-x="-6" bezier-y="-5" default-x="-5" default-y="-69" number="1" type="stop"/>
        </notations>
        <lyric number="1">
          <extend type="stop"/>
        </lyric>
        <lyric number="2">
          <extend type="stop"/>
        </lyric>
        <lyric number="3">
          <extend type="stop"/>
        </lyric>
        <lyric number="4">
          <extend type="stop"/>
        </lyric>
        <lyric number="5">
          <extend type="stop"/>
        </lyric>
      </note>
    </measure>
    <!--=======================================================-->
    <measure number="9" width="134">
      <harmony default-y="25" font-family="VNI-Helve-Condense" font-size="13.7">
        <root>
          <root-step>E</root-step>
          <root-alter>-1</root-alter>
        </root>
        <kind halign="center" text="">major</kind>
      </harmony>
      <note default-x="18">
        <pitch>
          <step>G</step>
          <octave>3</octave>
        </pitch>
        <duration>12</duration>
        <voice>1</voice>
        <type>whole</type>
        <dot/>
        <lyric default-y="-95" number="1">
          <syllabic>single</syllabic>
          <text>êm.</text>
        </lyric>
        <lyric default-y="-124" number="2">
          <syllabic>single</syllabic>
          <text>yên.</text>
        </lyric>
        <lyric default-y="-152" number="3">
          <syllabic>single</syllabic>
          <text>trên.</text>
        </lyric>
        <lyric default-y="-181" number="4">
          <syllabic>single</syllabic>
          <text>khen.</text>
        </lyric>
        <lyric default-y="-209" number="5">
          <syllabic>single</syllabic>
          <text>tươi.</text>
        </lyric>
      </note>
      <note default-x="18">
        <chord/>
        <pitch>
          <step>E</step>
          <alter>-1</alter>
          <octave>4</octave>
        </pitch>
        <duration>12</duration>
        <voice>1</voice>
        <type>whole</type>
        <dot/>
      </note>
      <barline location="right">
        <bar-style>light-light</bar-style>
      </barline>
    </measure>
  </part>
  <!--=========================================================-->
  <part id="P2">
    <?SmartMusic maxVoice=2?>
    <measure number="1" width="178">
      <print>
        <staff-layout number="1">
          <staff-distance>205</staff-distance>
        </staff-layout>
        <measure-numbering>none</measure-numbering>
      </print>
      <attributes>
        <divisions>2</divisions>
        <key>
          <fifths>-3</fifths>
          <mode>major</mode>
        </key>
        <time>
          <beats>4</beats>
          <beat-type>2</beat-type>
        </time>
        <clef>
          <sign>F</sign>
          <line>4</line>
        </clef>
      </attributes>
      <sound tempo="104"/>
      <note default-x="134">
        <pitch>
          <step>E</step>
          <alter>-1</alter>
          <octave>3</octave>
        </pitch>
        <duration>4</duration>
        <voice>1</voice>
        <type>half</type>
        <stem default-y="-50">down</stem>
      </note>
      <note default-x="134">
        <chord/>
        <pitch>
          <step>G</step>
          <octave>3</octave>
        </pitch>
        <duration>4</duration>
        <voice>1</voice>
        <type>half</type>
        <stem>down</stem>
      </note>
    </measure>
    <!--=======================================================-->
    <measure number="2" width="229">
      <note default-x="14">
        <pitch>
          <step>E</step>
          <alter>-1</alter>
          <octave>3</octave>
        </pitch>
        <duration>4</duration>
        <voice>1</voice>
        <type>half</type>
        <stem default-y="-50">down</stem>
      </note>
      <note default-x="14">
        <chord/>
        <pitch>
          <step>B</step>
          <alter>-1</alter>
          <octave>3</octave>
        </pitch>
        <duration>4</duration>
        <voice>1</voice>
        <type>half</type>
        <stem>down</stem>
      </note>
      <note default-x="59">
        <pitch>
          <step>G</step>
          <octave>3</octave>
        </pitch>
        <duration>4</duration>
        <voice>1</voice>
        <type>half</type>
        <stem default-y="-40">down</stem>
      </note>
      <note default-x="59">
        <chord/>
        <pitch>
          <step>B</step>
          <alter>-1</alter>
          <octave>3</octave>
        </pitch>
        <duration>4</duration>
        <voice>1</voice>
        <type>half</type>
        <stem>down</stem>
      </note>
      <note default-x="112">
        <pitch>
          <step>A</step>
          <alter>-1</alter>
          <octave>3</octave>
        </pitch>
        <duration>4</duration>
        <voice>1</voice>
        <type>half</type>
        <stem>double</stem>
      </note>
      <note default-x="179">
        <pitch>
          <step>G</step>
          <octave>3</octave>
        </pitch>
        <duration>4</duration>
        <voice>1</voice>
        <type>half</type>
        <stem default-y="-40">down</stem>
      </note>
      <note default-x="179">
        <chord/>
        <pitch>
          <step>B</step>
          <alter>-1</alter>
          <octave>3</octave>
        </pitch>
        <duration>4</duration>
        <voice>1</voice>
        <type>half</type>
        <stem>down</stem>
      </note>
    </measure>
    <!--=======================================================-->
    <measure number="3" width="234">
      <note default-x="14">
        <pitch>
          <step>D</step>
          <octave>3</octave>
        </pitch>
        <duration>4</duration>
        <voice>1</voice>
        <type>half</type>
        <stem default-y="-55">down</stem>
      </note>
      <note default-x="14">
        <chord/>
        <pitch>
          <step>B</step>
          <alter>-1</alter>
          <octave>3</octave>
        </pitch>
        <duration>4</duration>
        <voice>1</voice>
        <type>half</type>
        <stem>down</stem>
      </note>
      <note default-x="72">
        <pitch>
          <step>B</step>
          <alter>-1</alter>
          <octave>2</octave>
        </pitch>
        <duration>4</duration>
        <voice>1</voice>
        <type>half</type>
        <stem default-y="-58">down</stem>
      </note>
      <note default-x="72">
        <chord/>
        <pitch>
          <step>B</step>
          <alter>-1</alter>
          <octave>3</octave>
        </pitch>
        <duration>4</duration>
        <voice>1</voice>
        <type>half</type>
        <stem>down</stem>
      </note>
      <note default-x="127">
        <pitch>
          <step>E</step>
          <alter>-1</alter>
          <octave>3</octave>
        </pitch>
        <duration>4</duration>
        <voice>1</voice>
        <type>half</type>
        <stem default-y="-50">down</stem>
      </note>
      <note default-x="127">
        <chord/>
        <pitch>
          <step>B</step>
          <alter>-1</alter>
          <octave>3</octave>
        </pitch>
        <duration>4</duration>
        <voice>1</voice>
        <type>half</type>
        <stem>down</stem>
      </note>
      <note default-x="191">
        <pitch>
          <step>E</step>
          <alter>-1</alter>
          <octave>3</octave>
        </pitch>
        <duration>4</duration>
        <voice>1</voice>
        <type>half</type>
        <stem default-y="-50">down</stem>
      </note>
      <note default-x="191">
        <chord/>
        <pitch>
          <step>B</step>
          <alter>-1</alter>
          <octave>3</octave>
        </pitch>
        <duration>4</duration>
        <voice>1</voice>
        <type>half</type>
        <stem>down</stem>
      </note>
    </measure>
    <!--=======================================================-->
    <measure number="4" width="253">
      <note default-x="16">
        <pitch>
          <step>A</step>
          <alter>-1</alter>
          <octave>3</octave>
        </pitch>
        <duration>4</duration>
        <voice>1</voice>
        <type>half</type>
        <stem>double</stem>
      </note>
      <note default-x="92">
        <pitch>
          <step>G</step>
          <octave>3</octave>
        </pitch>
        <duration>4</duration>
        <voice>1</voice>
        <type>half</type>
        <stem default-y="-40">down</stem>
      </note>
      <note default-x="92">
        <chord/>
        <pitch>
          <step>B</step>
          <alter>-1</alter>
          <octave>3</octave>
        </pitch>
        <duration>4</duration>
        <voice>1</voice>
        <type>half</type>
        <stem>down</stem>
      </note>
      <note default-x="154">
        <pitch>
          <step>F</step>
          <octave>3</octave>
        </pitch>
        <duration>4</duration>
        <voice>1</voice>
        <type>half</type>
        <stem default-y="-45">down</stem>
      </note>
      <note default-x="154">
        <chord/>
        <pitch>
          <step>B</step>
          <alter>-1</alter>
          <octave>3</octave>
        </pitch>
        <duration>4</duration>
        <voice>1</voice>
        <type>half</type>
        <stem>down</stem>
      </note>
      <note default-x="212">
        <pitch>
          <step>E</step>
          <alter>-1</alter>
          <octave>3</octave>
        </pitch>
        <duration>4</duration>
        <voice>1</voice>
        <type>half</type>
        <stem default-y="-50">down</stem>
      </note>
      <note default-x="212">
        <chord/>
        <pitch>
          <step>B</step>
          <alter>-1</alter>
          <octave>3</octave>
        </pitch>
        <duration>4</duration>
        <voice>1</voice>
        <type>half</type>
        <stem>down</stem>
      </note>
    </measure>
    <!--=======================================================-->
    <measure number="5" width="127">
      <note default-x="20">
        <pitch>
          <step>B</step>
          <alter>-1</alter>
          <octave>2</octave>
        </pitch>
        <duration>12</duration>
        <voice>1</voice>
        <type>whole</type>
        <dot/>
      </note>
      <note default-x="20">
        <chord/>
        <pitch>
          <step>B</step>
          <alter>-1</alter>
          <octave>3</octave>
        </pitch>
        <duration>12</duration>
        <voice>1</voice>
        <type>whole</type>
        <dot/>
      </note>
      <note default-x="81">
        <pitch>
          <step>B</step>
          <alter>-1</alter>
          <octave>3</octave>
        </pitch>
        <duration>4</duration>
        <voice>1</voice>
        <type>half</type>
        <stem default-y="34">up</stem>
      </note>
      <backup>
        <duration>4</duration>
      </backup>
      <note default-x="81">
        <pitch>
          <step>E</step>
          <alter>-1</alter>
          <octave>3</octave>
        </pitch>
        <duration>2</duration>
        <voice>3</voice>
        <type>quarter</type>
        <stem default-y="-50">down</stem>
        <notations>
          <slur bezier-x="5" bezier-y="-8" default-x="6" default-y="-43" number="1" placement="below" type="start"/>
        </notations>
      </note>
      <note default-x="112">
        <pitch>
          <step>D</step>
          <alter>-1</alter>
          <octave>3</octave>
        </pitch>
        <duration>2</duration>
        <voice>3</voice>
        <type>quarter</type>
        <accidental>flat</accidental>
        <stem default-y="-55">down</stem>
        <notations>
          <slur bezier-x="-7" bezier-y="-7" default-x="-5" default-y="-45" number="1" type="stop"/>
        </notations>
      </note>
    </measure>
    <!--=======================================================-->
    <measure number="6" width="232">
      <note default-x="14">
        <pitch>
          <step>C</step>
          <octave>3</octave>
        </pitch>
        <duration>4</duration>
        <voice>1</voice>
        <type>half</type>
        <stem default-y="-53">down</stem>
      </note>
      <note default-x="14">
        <chord/>
        <pitch>
          <step>A</step>
          <alter>-1</alter>
          <octave>3</octave>
        </pitch>
        <duration>4</duration>
        <voice>1</voice>
        <type>half</type>
        <stem>down</stem>
      </note>
      <note default-x="78">
        <pitch>
          <step>B</step>
          <alter>-1</alter>
          <octave>2</octave>
        </pitch>
        <duration>4</duration>
        <voice>1</voice>
        <type>half</type>
        <stem default-y="-58">down</stem>
      </note>
      <note default-x="78">
        <chord/>
        <pitch>
          <step>B</step>
          <alter>-1</alter>
          <octave>3</octave>
        </pitch>
        <duration>4</duration>
        <voice>1</voice>
        <type>half</type>
        <stem>down</stem>
      </note>
      <note default-x="136">
        <pitch>
          <step>A</step>
          <alter>-1</alter>
          <octave>2</octave>
        </pitch>
        <duration>4</duration>
        <voice>1</voice>
        <type>half</type>
        <stem default-y="-63.5">down</stem>
      </note>
      <note default-x="136">
        <chord/>
        <pitch>
          <step>E</step>
          <alter>-1</alter>
          <octave>3</octave>
        </pitch>
        <duration>4</duration>
        <voice>1</voice>
        <type>half</type>
        <stem>down</stem>
      </note>
      <note default-x="194">
        <pitch>
          <step>G</step>
          <octave>2</octave>
        </pitch>
        <duration>4</duration>
        <voice>1</voice>
        <type>half</type>
        <stem default-y="-68">down</stem>
      </note>
      <note default-x="194">
        <chord/>
        <pitch>
          <step>E</step>
          <alter>-1</alter>
          <octave>3</octave>
        </pitch>
        <duration>4</duration>
        <voice>1</voice>
        <type>half</type>
        <stem>down</stem>
      </note>
    </measure>
    <!--=======================================================-->
    <measure number="7" width="254">
      <note default-x="29">
        <pitch>
          <step>F</step>
          <octave>2</octave>
        </pitch>
        <duration>4</duration>
        <voice>1</voice>
        <type>half</type>
        <stem default-y="-73">down</stem>
      </note>
      <note default-x="29">
        <chord/>
        <pitch>
          <step>F</step>
          <octave>3</octave>
        </pitch>
        <duration>4</duration>
        <voice>1</voice>
        <type>half</type>
        <stem>down</stem>
      </note>
      <note default-x="95">
        <pitch>
          <step>B</step>
          <alter>-1</alter>
          <octave>2</octave>
        </pitch>
        <duration>4</duration>
        <voice>1</voice>
        <type>half</type>
        <stem default-y="-58">down</stem>
      </note>
      <note default-x="95">
        <chord/>
        <pitch>
          <step>F</step>
          <octave>3</octave>
        </pitch>
        <duration>4</duration>
        <voice>1</voice>
        <type>half</type>
        <stem>down</stem>
      </note>
      <note default-x="149">
        <pitch>
          <step>C</step>
          <octave>3</octave>
        </pitch>
        <duration>4</duration>
        <voice>1</voice>
        <type>half</type>
        <stem default-y="-53">down</stem>
      </note>
      <note default-x="149">
        <chord/>
        <pitch>
          <step>E</step>
          <alter>-1</alter>
          <octave>3</octave>
        </pitch>
        <duration>4</duration>
        <voice>1</voice>
        <type>half</type>
        <stem>down</stem>
      </note>
      <note default-x="212">
        <pitch>
          <step>C</step>
          <octave>3</octave>
        </pitch>
        <duration>4</duration>
        <voice>1</voice>
        <type>half</type>
        <stem default-y="-53">down</stem>
      </note>
      <note default-x="212">
        <chord/>
        <pitch>
          <step>G</step>
          <octave>3</octave>
        </pitch>
        <duration>4</duration>
        <voice>1</voice>
        <type>half</type>
        <stem>down</stem>
      </note>
    </measure>
    <!--=======================================================-->
    <measure number="8" width="256">
      <note default-x="14">
        <pitch>
          <step>G</step>
          <octave>2</octave>
        </pitch>
        <duration>4</duration>
        <voice>1</voice>
        <type>half</type>
        <stem default-y="-68">down</stem>
      </note>
      <note default-x="14">
        <chord/>
        <pitch>
          <step>B</step>
          <alter>-1</alter>
          <octave>3</octave>
        </pitch>
        <duration>4</duration>
        <voice>1</voice>
        <type>half</type>
        <stem>down</stem>
      </note>
      <note default-x="83">
        <pitch>
          <step>A</step>
          <alter>-1</alter>
          <octave>2</octave>
        </pitch>
        <duration>4</duration>
        <voice>1</voice>
        <type>half</type>
        <stem default-y="-63.5">down</stem>
      </note>
      <note default-x="83">
        <chord/>
        <pitch>
          <step>A</step>
          <alter>-1</alter>
          <octave>3</octave>
        </pitch>
        <duration>4</duration>
        <voice>1</voice>
        <type>half</type>
        <stem>down</stem>
      </note>
      <note default-x="150">
        <pitch>
          <step>B</step>
          <alter>-1</alter>
          <octave>2</octave>
        </pitch>
        <duration>4</duration>
        <voice>1</voice>
        <type>half</type>
        <stem default-y="-58">down</stem>
      </note>
      <note default-x="150">
        <chord/>
        <pitch>
          <step>G</step>
          <octave>3</octave>
        </pitch>
        <duration>4</duration>
        <voice>1</voice>
        <type>half</type>
        <stem>down</stem>
      </note>
      <note default-x="210">
        <pitch>
          <step>B</step>
          <alter>-1</alter>
          <octave>2</octave>
        </pitch>
        <duration>4</duration>
        <voice>1</voice>
        <type>half</type>
        <stem default-y="-58">down</stem>
      </note>
      <note default-x="210">
        <chord/>
        <pitch>
          <step>F</step>
          <octave>3</octave>
        </pitch>
        <duration>4</duration>
        <voice>1</voice>
        <type>half</type>
        <stem>down</stem>
      </note>
    </measure>
    <!--=======================================================-->
    <measure number="9" width="134">
      <note default-x="11">
        <pitch>
          <step>E</step>
          <alter>-1</alter>
          <octave>3</octave>
        </pitch>
        <duration>12</duration>
        <voice>1</voice>
        <type>whole</type>
        <dot/>
      </note>
      <backup>
        <duration>12</duration>
      </backup>
      <note default-x="39">
        <pitch>
          <step>E</step>
          <alter>-1</alter>
          <octave>3</octave>
        </pitch>
        <duration>12</duration>
        <voice>2</voice>
        <type>whole</type>
        <dot/>
      </note>
      <barline location="right">
        <bar-style>light-light</bar-style>
      </barline>
    </measure>
  </part>
  <!--=========================================================-->
</score-partwise>
