<?xml version="1.0" encoding="UTF-8" standalone="no"?>
<!DOCTYPE score-partwise PUBLIC "-//Recordare//DTD MusicXML 3.1 Partwise//EN" "http://www.musicxml.org/dtds/partwise.dtd">
<score-partwise version="3.1">
  <movement-title>CHÚA MANG THẬP HÌNH</movement-title>
  <identification>
    <creator type="composer">Tune: Name of Jesus.
E.S. Lorenz, 1901</creator>
    <creator type="lyricist">Lê Đình Tươi, c. 1942.
The Name of Jesus</creator>
    <rights>©</rights>
    <encoding>
      <software>Finale v26.3 for Windows</software>
      <encoding-date>2021-09-06</encoding-date>
      <supports attribute="new-system" element="print" type="yes" value="yes"/>
      <supports attribute="new-page" element="print" type="yes" value="yes"/>
      <supports element="accidental" type="yes"/>
      <supports element="beam" type="yes"/>
      <supports element="stem" type="yes"/>
    </encoding>
  </identification>
  <defaults>
    <scaling>
      <millimeters>7.2319</millimeters>
      <tenths>40</tenths>
    </scaling>
    <page-layout>
      <page-height>1643</page-height>
      <page-width>1161</page-width>
      <page-margins type="both">
        <left-margin>70</left-margin>
        <right-margin>70</right-margin>
        <top-margin>70</top-margin>
        <bottom-margin>70</bottom-margin>
      </page-margins>
    </page-layout>
    <system-layout>
      <system-margins>
        <left-margin>0</left-margin>
        <right-margin>0</right-margin>
      </system-margins>
      <system-distance>111</system-distance>
      <top-system-distance>72</top-system-distance>
    </system-layout>
    <staff-layout>
      <staff-distance>93</staff-distance>
    </staff-layout>
    <appearance>
      <line-width type="stem">1.1784</line-width>
      <line-width type="beam">5</line-width>
      <line-width type="staff">1.1784</line-width>
      <line-width type="light barline">1.1784</line-width>
      <line-width type="heavy barline">5</line-width>
      <line-width type="leger">1.1784</line-width>
      <line-width type="ending">1.1784</line-width>
      <line-width type="wedge">0.7487</line-width>
      <line-width type="enclosure">1.1784</line-width>
      <line-width type="tuplet bracket">0.7487</line-width>
      <note-size type="grace">60</note-size>
      <note-size type="cue">60</note-size>
      <distance type="hyphen">120</distance>
      <distance type="beam">7.5</distance>
    </appearance>
    <music-font font-family="Maestro,engraved" font-size="20.5"/>
    <word-font font-family="Myriad Pro" font-size="10.25"/>
    <lyric-font font-family="Myriad Pro" font-size="12" name="verse"/>
    <lyric-font font-family="Myriad Pro" font-size="12" name="chorus"/>
    <lyric-font font-family="Myriad Pro" font-size="12" font-style="italic" name="section"/>
  </defaults>
  <credit page="1">
    <credit-type>title</credit-type>
    <credit-words default-x="581" default-y="1573" font-size="22" font-weight="bold" justify="center" valign="top">CHÚA MANG THẬP HÌNH</credit-words>
  </credit>
  <credit page="1">
    <credit-type>composer</credit-type>
    <credit-words default-x="1091" default-y="70" font-size="12" justify="right" valign="bottom" xml:space="preserve">Tune: Name of Jesus.
E.S. Lorenz, 1901</credit-words>
  </credit>
  <credit page="1">
    <credit-type>lyricist</credit-type>
    <credit-words default-x="70" default-y="70" font-size="12" valign="bottom" xml:space="preserve">Lê Đình Tươi, c. 1942.
The Name of Jesus</credit-words>
  </credit>
  <credit page="1">
    <credit-words default-x="70" default-y="1573" font-size="22" font-weight="bold" valign="top">100</credit-words>
  </credit>
  <part-list>
    <part-group number="1" type="start">
      <group-symbol default-x="-5">bracket</group-symbol>
      <group-barline>no</group-barline>
    </part-group>
    <score-part id="P1">
      <part-name print-object="no">MusicXML Part</part-name>
      <score-instrument id="P1-I1">
        <instrument-name>SmartMusic SoftSynth</instrument-name>
        <instrument-sound>voice.soprano</instrument-sound>
        <virtual-instrument/>
      </score-instrument>
      <midi-device>SmartMusic SoftSynth</midi-device>
      <midi-instrument id="P1-I1">
        <midi-channel>1</midi-channel>
        <midi-bank>15489</midi-bank>
        <midi-program>22</midi-program>
        <volume>80</volume>
        <pan>-70</pan>
      </midi-instrument>
    </score-part>
    <score-part id="P2">
      <part-name print-object="no">MusicXML Part</part-name>
      <score-instrument id="P2-I2">
        <instrument-name>SmartMusic SoftSynth</instrument-name>
        <instrument-sound>voice.bass</instrument-sound>
        <virtual-instrument/>
      </score-instrument>
      <midi-device>SmartMusic SoftSynth</midi-device>
      <midi-instrument id="P2-I2">
        <midi-channel>2</midi-channel>
        <midi-bank>15489</midi-bank>
        <midi-program>22</midi-program>
        <volume>80</volume>
        <pan>80</pan>
      </midi-instrument>
    </score-part>
    <part-group number="1" type="stop"/>
  </part-list>
  <!--=========================================================-->
  <part id="P1">
    <?SmartMusic maxVoice=1?>
    <measure number="1" width="127">
      <print>
        <system-layout>
          <top-system-distance>156</top-system-distance>
        </system-layout>
        <measure-numbering>none</measure-numbering>
      </print>
      <attributes>
        <divisions>2</divisions>
        <key>
          <fifths>0</fifths>
          <mode>major</mode>
        </key>
        <time>
          <beats>3</beats>
          <beat-type>4</beat-type>
        </time>
        <clef>
          <sign>G</sign>
          <line>2</line>
        </clef>
      </attributes>
      <sound tempo="104"/>
      <note default-x="92">
        <pitch>
          <step>E</step>
          <octave>4</octave>
        </pitch>
        <duration>2</duration>
        <voice>1</voice>
        <type>quarter</type>
        <stem default-y="5">up</stem>
        <lyric default-y="-95" name="verse" number="1" relative-x="-10">
          <syllabic>single</syllabic>
          <text>1.Ôi</text>
        </lyric>
        <lyric default-y="-124" name="verse" number="2" relative-x="-10">
          <syllabic>single</syllabic>
          <text>2.Ôi</text>
        </lyric>
        <lyric default-y="-152" name="verse" number="3" relative-x="-10">
          <syllabic>single</syllabic>
          <text>3.Do</text>
        </lyric>
      </note>
      <note default-x="92">
        <chord/>
        <pitch>
          <step>G</step>
          <octave>4</octave>
        </pitch>
        <duration>2</duration>
        <voice>1</voice>
        <type>quarter</type>
        <stem>up</stem>
      </note>
    </measure>
    <!--=======================================================-->
    <measure number="2" width="240">
      <harmony default-y="40" font-family="VNI-Helve-Condense" font-size="13.7">
        <root>
          <root-step>C</root-step>
        </root>
        <kind halign="center" text="">major</kind>
      </harmony>
      <note default-x="14">
        <pitch>
          <step>E</step>
          <octave>4</octave>
        </pitch>
        <duration>1</duration>
        <voice>1</voice>
        <type>eighth</type>
        <stem default-y="20">up</stem>
        <lyric default-y="-95" name="verse" number="1" relative-x="5">
          <syllabic>single</syllabic>
          <text>Chúa</text>
        </lyric>
        <lyric default-y="-124" name="verse" number="2" relative-x="5">
          <syllabic>single</syllabic>
          <text>Chúa</text>
        </lyric>
        <lyric default-y="-152" name="verse" number="3" relative-x="8">
          <syllabic>single</syllabic>
          <text>huyết</text>
        </lyric>
      </note>
      <note default-x="14">
        <chord/>
        <pitch>
          <step>C</step>
          <octave>5</octave>
        </pitch>
        <duration>1</duration>
        <voice>1</voice>
        <type>eighth</type>
        <stem>up</stem>
      </note>
      <note default-x="84">
        <pitch>
          <step>E</step>
          <octave>4</octave>
        </pitch>
        <duration>1</duration>
        <voice>1</voice>
        <type>eighth</type>
        <stem default-y="15">up</stem>
        <lyric default-y="-95" name="verse" number="1">
          <syllabic>begin</syllabic>
          <text>Jê</text>
        </lyric>
        <lyric default-y="-124" name="verse" number="2">
          <syllabic>single</syllabic>
          <text>chí</text>
        </lyric>
        <lyric default-y="-152" name="verse" number="3">
          <syllabic>single</syllabic>
          <text>Chúa</text>
        </lyric>
      </note>
      <note default-x="84">
        <chord/>
        <pitch>
          <step>B</step>
          <octave>4</octave>
        </pitch>
        <duration>1</duration>
        <voice>1</voice>
        <type>eighth</type>
        <stem>up</stem>
      </note>
      <harmony default-y="40" font-family="VNI-Helve-Condense" font-size="13.7">
        <root>
          <root-step>A</root-step>
        </root>
        <kind halign="center" text="m">minor</kind>
      </harmony>
      <note default-x="141">
        <pitch>
          <step>E</step>
          <octave>4</octave>
        </pitch>
        <duration>3</duration>
        <voice>1</voice>
        <type>quarter</type>
        <dot/>
        <stem default-y="10">up</stem>
        <lyric default-y="-95" name="verse" number="1">
          <syllabic>end</syllabic>
          <text>sus</text>
        </lyric>
        <lyric default-y="-124" name="verse" number="2">
          <syllabic>single</syllabic>
          <text>tôn</text>
        </lyric>
        <lyric default-y="-152" name="verse" number="3">
          <syllabic>single</syllabic>
          <text>tuôn</text>
        </lyric>
      </note>
      <note default-x="141">
        <chord/>
        <pitch>
          <step>A</step>
          <octave>4</octave>
        </pitch>
        <duration>3</duration>
        <voice>1</voice>
        <type>quarter</type>
        <dot/>
        <stem>up</stem>
      </note>
      <note default-x="198">
        <pitch>
          <step>E</step>
          <octave>4</octave>
        </pitch>
        <duration>1</duration>
        <voice>1</voice>
        <type>eighth</type>
        <stem>double</stem>
        <lyric default-y="-95" name="verse" number="1">
          <syllabic>single</syllabic>
          <text>đành</text>
        </lyric>
        <lyric default-y="-124" name="verse" number="2">
          <syllabic>single</syllabic>
          <text>vì</text>
        </lyric>
        <lyric default-y="-152" name="verse" number="3">
          <syllabic>single</syllabic>
          <text>lòng</text>
        </lyric>
      </note>
    </measure>
    <!--=======================================================-->
    <measure number="3" width="231">
      <harmony default-y="40" font-family="VNI-Helve-Condense" font-size="13.7">
        <root>
          <root-step>D</root-step>
        </root>
        <kind halign="center" text="m">minor</kind>
      </harmony>
      <note default-x="14">
        <pitch>
          <step>E</step>
          <octave>4</octave>
        </pitch>
        <duration>1</duration>
        <voice>1</voice>
        <type>eighth</type>
        <stem default-y="5">up</stem>
        <lyric default-y="-95" name="verse" number="1" relative-x="9">
          <syllabic>single</syllabic>
          <text>mang</text>
        </lyric>
        <lyric default-y="-124" name="verse" number="2">
          <syllabic>single</syllabic>
          <text>sao</text>
        </lyric>
        <lyric default-y="-152" name="verse" number="3">
          <syllabic>single</syllabic>
          <text>tôi</text>
        </lyric>
      </note>
      <note default-x="14">
        <chord/>
        <pitch>
          <step>G</step>
          <octave>4</octave>
        </pitch>
        <duration>1</duration>
        <voice>1</voice>
        <type>eighth</type>
        <stem>up</stem>
      </note>
      <note default-x="82">
        <pitch>
          <step>D</step>
          <alter>1</alter>
          <octave>4</octave>
        </pitch>
        <duration>1</duration>
        <voice>1</voice>
        <type>eighth</type>
        <accidental>sharp</accidental>
        <stem default-y="0">up</stem>
        <lyric default-y="-95" name="verse" number="1">
          <syllabic>single</syllabic>
          <text>thập</text>
        </lyric>
        <lyric default-y="-124" name="verse" number="2">
          <syllabic>single</syllabic>
          <text>hạ</text>
        </lyric>
        <lyric default-y="-152" name="verse" number="3">
          <syllabic>single</syllabic>
          <text>sạch</text>
        </lyric>
      </note>
      <note default-x="82">
        <chord/>
        <pitch>
          <step>F</step>
          <alter>1</alter>
          <octave>4</octave>
        </pitch>
        <duration>1</duration>
        <voice>1</voice>
        <type>eighth</type>
        <accidental>sharp</accidental>
        <stem>up</stem>
      </note>
      <note default-x="135">
        <pitch>
          <step>D</step>
          <octave>4</octave>
        </pitch>
        <duration>2</duration>
        <voice>1</voice>
        <type>quarter</type>
        <accidental>natural</accidental>
        <stem default-y="0">up</stem>
        <lyric default-y="-95" name="verse" number="1">
          <syllabic>single</syllabic>
          <text>hình,</text>
        </lyric>
        <lyric default-y="-124" name="verse" number="2">
          <syllabic>single</syllabic>
          <text>mình,</text>
        </lyric>
        <lyric default-y="-152" name="verse" number="3">
          <syllabic>single</syllabic>
          <text>ròng,</text>
        </lyric>
      </note>
      <note default-x="135">
        <chord/>
        <pitch>
          <step>F</step>
          <octave>4</octave>
        </pitch>
        <duration>2</duration>
        <voice>1</voice>
        <type>quarter</type>
        <accidental>natural</accidental>
        <stem>up</stem>
      </note>
      <note default-x="194">
        <pitch>
          <step>F</step>
          <octave>4</octave>
        </pitch>
        <duration>2</duration>
        <voice>1</voice>
        <type>quarter</type>
        <stem default-y="15">up</stem>
        <lyric default-y="-95" name="verse" number="1">
          <syllabic>single</syllabic>
          <text>Vì</text>
        </lyric>
        <lyric default-y="-124" name="verse" number="2">
          <syllabic>single</syllabic>
          <text>Đau</text>
        </lyric>
        <lyric default-y="-152" name="verse" number="3">
          <syllabic>single</syllabic>
          <text>Dạn</text>
        </lyric>
      </note>
      <note default-x="194">
        <chord/>
        <pitch>
          <step>B</step>
          <octave>4</octave>
        </pitch>
        <duration>2</duration>
        <voice>1</voice>
        <type>quarter</type>
        <stem>up</stem>
      </note>
    </measure>
    <!--=======================================================-->
    <measure number="4" width="229">
      <harmony default-y="40" font-family="VNI-Helve-Condense" font-size="13.7">
        <root>
          <root-step>G</root-step>
        </root>
        <kind halign="center" text="7">dominant</kind>
      </harmony>
      <note default-x="14">
        <pitch>
          <step>F</step>
          <octave>4</octave>
        </pitch>
        <duration>1</duration>
        <voice>1</voice>
        <type>eighth</type>
        <stem default-y="25">up</stem>
        <lyric default-y="-95" name="verse" number="1">
          <syllabic>single</syllabic>
          <text>ác</text>
        </lyric>
        <lyric default-y="-124" name="verse" number="2">
          <syllabic>single</syllabic>
          <text>khổ</text>
        </lyric>
        <lyric default-y="-152" name="verse" number="3">
          <syllabic>single</syllabic>
          <text>dĩ</text>
        </lyric>
      </note>
      <note default-x="14">
        <chord/>
        <pitch>
          <step>D</step>
          <octave>5</octave>
        </pitch>
        <duration>1</duration>
        <voice>1</voice>
        <type>eighth</type>
        <stem>up</stem>
      </note>
      <note default-x="73">
        <pitch>
          <step>E</step>
          <octave>4</octave>
        </pitch>
        <duration>1</duration>
        <voice>1</voice>
        <type>eighth</type>
        <stem default-y="20">up</stem>
        <lyric default-y="-95" name="verse" number="1">
          <syllabic>single</syllabic>
          <text>nhân</text>
        </lyric>
        <lyric default-y="-124" name="verse" number="2">
          <syllabic>single</syllabic>
          <text>không</text>
        </lyric>
        <lyric default-y="-152" name="verse" number="3">
          <syllabic>single</syllabic>
          <text>đến</text>
        </lyric>
      </note>
      <note default-x="73">
        <chord/>
        <pitch>
          <step>C</step>
          <octave>5</octave>
        </pitch>
        <duration>1</duration>
        <voice>1</voice>
        <type>eighth</type>
        <stem>up</stem>
      </note>
      <note default-x="131">
        <pitch>
          <step>F</step>
          <octave>4</octave>
        </pitch>
        <duration>3</duration>
        <voice>1</voice>
        <type>quarter</type>
        <dot/>
        <stem default-y="15">up</stem>
        <lyric default-y="-95" name="verse" number="1">
          <syllabic>single</syllabic>
          <text>đây</text>
        </lyric>
        <lyric default-y="-124" name="verse" number="2">
          <syllabic>single</syllabic>
          <text>nao,</text>
        </lyric>
        <lyric default-y="-152" name="verse" number="3">
          <syllabic>single</syllabic>
          <text>nơi</text>
        </lyric>
      </note>
      <note default-x="131">
        <chord/>
        <pitch>
          <step>B</step>
          <octave>4</octave>
        </pitch>
        <duration>3</duration>
        <voice>1</voice>
        <type>quarter</type>
        <dot/>
        <stem>up</stem>
      </note>
      <note default-x="187">
        <pitch>
          <step>F</step>
          <octave>4</octave>
        </pitch>
        <duration>1</duration>
        <voice>1</voice>
        <type>eighth</type>
        <stem>double</stem>
        <lyric default-y="-95" name="verse" number="1">
          <syllabic>single</syllabic>
          <text>Ngài</text>
        </lyric>
        <lyric default-y="-124" name="verse" number="2">
          <syllabic>single</syllabic>
          <text>nhục</text>
        </lyric>
        <lyric default-y="-152" name="verse" number="3">
          <syllabic>single</syllabic>
          <text>hạnh</text>
        </lyric>
      </note>
    </measure>
    <!--=======================================================-->
    <measure number="5" width="194">
      <harmony default-y="40" font-family="VNI-Helve-Condense" font-size="13.7">
        <root>
          <root-step>C</root-step>
        </root>
        <kind halign="center" text="">major</kind>
      </harmony>
      <note default-x="16">
        <pitch>
          <step>F</step>
          <octave>4</octave>
        </pitch>
        <duration>1</duration>
        <voice>1</voice>
        <type>eighth</type>
        <stem default-y="10">up</stem>
        <lyric default-y="-95" name="verse" number="1">
          <syllabic>single</syllabic>
          <text>phải</text>
        </lyric>
        <lyric default-y="-124" name="verse" number="2">
          <syllabic>single</syllabic>
          <text>nhã</text>
        </lyric>
        <lyric default-y="-152" name="verse" number="3" relative-x="12">
          <syllabic>single</syllabic>
          <text>phước</text>
        </lyric>
      </note>
      <note default-x="16">
        <chord/>
        <pitch>
          <step>A</step>
          <octave>4</octave>
        </pitch>
        <duration>1</duration>
        <voice>1</voice>
        <type>eighth</type>
        <stem>up</stem>
      </note>
      <note default-x="88">
        <pitch>
          <step>E</step>
          <octave>4</octave>
        </pitch>
        <duration>1</duration>
        <voice>1</voice>
        <type>eighth</type>
        <stem default-y="5">up</stem>
        <lyric default-y="-95" name="verse" number="1">
          <syllabic>single</syllabic>
          <text>hy</text>
        </lyric>
        <lyric default-y="-124" name="verse" number="2">
          <syllabic>single</syllabic>
          <text>xem</text>
        </lyric>
        <lyric default-y="-152" name="verse" number="3">
          <syllabic>single</syllabic>
          <text>vô</text>
        </lyric>
      </note>
      <note default-x="88">
        <chord/>
        <pitch>
          <step>G</step>
          <octave>4</octave>
        </pitch>
        <duration>1</duration>
        <voice>1</voice>
        <type>eighth</type>
        <stem>up</stem>
      </note>
      <note default-x="145">
        <pitch>
          <step>E</step>
          <octave>4</octave>
        </pitch>
        <duration>2</duration>
        <voice>1</voice>
        <type>quarter</type>
        <stem default-y="5">up</stem>
        <lyric default-y="-95" name="verse" number="1">
          <syllabic>single</syllabic>
          <text>sinh,</text>
        </lyric>
        <lyric default-y="-124" name="verse" number="2">
          <syllabic>single</syllabic>
          <text>khinh,</text>
        </lyric>
        <lyric default-y="-152" name="verse" number="3">
          <syllabic>single</syllabic>
          <text>song,</text>
        </lyric>
      </note>
      <note default-x="145">
        <chord/>
        <pitch>
          <step>G</step>
          <octave>4</octave>
        </pitch>
        <duration>2</duration>
        <voice>1</voice>
        <type>quarter</type>
        <stem>up</stem>
      </note>
      <note default-x="48">
        <pitch>
          <step>E</step>
          <octave>4</octave>
        </pitch>
        <duration>2</duration>
        <voice>1</voice>
        <type>quarter</type>
        <stem default-y="13.5">up</stem>
        <lyric default-y="-95" name="verse" number="1" relative-x="5">
          <syllabic>single</syllabic>
          <text>Đem</text>
        </lyric>
        <lyric default-y="-124" name="verse" number="2" relative-x="5">
          <syllabic>single</syllabic>
          <text>Thập</text>
        </lyric>
        <lyric default-y="-152" name="verse" number="3" relative-x="5">
          <syllabic>single</syllabic>
          <text>Tôi</text>
        </lyric>
      </note>
      <note default-x="48">
        <chord/>
        <pitch>
          <step>C</step>
          <octave>5</octave>
        </pitch>
        <duration>2</duration>
        <voice>1</voice>
        <type>quarter</type>
        <stem>up</stem>
      </note>
    </measure>
    <!--=======================================================-->
    <measure number="6" width="240">
      <note default-x="16">
        <pitch>
          <step>G</step>
          <octave>4</octave>
        </pitch>
        <duration>1</duration>
        <voice>1</voice>
        <type>eighth</type>
        <stem default-y="30">up</stem>
        <lyric default-y="-95" name="verse" number="1">
          <syllabic>single</syllabic>
          <text>đức</text>
        </lyric>
        <lyric default-y="-124" name="verse" number="2">
          <syllabic>single</syllabic>
          <text>giá</text>
        </lyric>
        <lyric default-y="-152" name="verse" number="3">
          <syllabic>single</syllabic>
          <text>hiến</text>
        </lyric>
      </note>
      <note default-x="16">
        <chord/>
        <pitch>
          <step>E</step>
          <octave>5</octave>
        </pitch>
        <duration>1</duration>
        <voice>1</voice>
        <type>eighth</type>
        <stem>up</stem>
      </note>
      <note default-x="69">
        <pitch>
          <step>F</step>
          <octave>4</octave>
        </pitch>
        <duration>1</duration>
        <voice>1</voice>
        <type>eighth</type>
        <stem default-y="25">up</stem>
        <lyric default-y="-95" name="verse" number="1">
          <syllabic>single</syllabic>
          <text>yêu</text>
        </lyric>
        <lyric default-y="-124" name="verse" number="2">
          <syllabic>single</syllabic>
          <text>xưa</text>
        </lyric>
        <lyric default-y="-152" name="verse" number="3">
          <syllabic>single</syllabic>
          <text>thân,</text>
        </lyric>
      </note>
      <note default-x="69">
        <chord/>
        <pitch>
          <step>D</step>
          <octave>5</octave>
        </pitch>
        <duration>1</duration>
        <voice>1</voice>
        <type>eighth</type>
        <stem>up</stem>
      </note>
      <note default-x="139">
        <pitch>
          <step>E</step>
          <octave>4</octave>
        </pitch>
        <duration>3</duration>
        <voice>1</voice>
        <type>quarter</type>
        <dot/>
        <stem default-y="13.5">up</stem>
        <lyric default-y="-95" name="verse" number="1">
          <syllabic>single</syllabic>
          <text>thương,</text>
        </lyric>
        <lyric default-y="-124" name="verse" number="2">
          <syllabic>single</syllabic>
          <text>kia</text>
        </lyric>
        <lyric default-y="-152" name="verse" number="3">
          <syllabic>single</syllabic>
          <text>linh</text>
        </lyric>
      </note>
      <note default-x="139">
        <chord/>
        <pitch>
          <step>C</step>
          <octave>5</octave>
        </pitch>
        <duration>3</duration>
        <voice>1</voice>
        <type>quarter</type>
        <dot/>
        <stem>up</stem>
      </note>
      <note default-x="206">
        <pitch>
          <step>D</step>
          <octave>4</octave>
        </pitch>
        <duration>1</duration>
        <voice>1</voice>
        <type>eighth</type>
        <stem default-y="15">up</stem>
        <lyric default-y="-95" name="verse" number="1">
          <syllabic>single</syllabic>
          <text>ban</text>
        </lyric>
        <lyric default-y="-124" name="verse" number="2">
          <syllabic>single</syllabic>
          <text>vui</text>
        </lyric>
        <lyric default-y="-152" name="verse" number="3">
          <syllabic>single</syllabic>
          <text>cho</text>
        </lyric>
      </note>
      <note default-x="206">
        <chord/>
        <pitch>
          <step>B</step>
          <octave>4</octave>
        </pitch>
        <duration>1</duration>
        <voice>1</voice>
        <type>eighth</type>
        <stem>up</stem>
      </note>
    </measure>
    <!--=======================================================-->
    <measure number="7" width="378">
      <harmony default-y="40" font-family="VNI-Helve-Condense" font-size="13.7">
        <root>
          <root-step>E</root-step>
        </root>
        <kind halign="center" text="7">dominant</kind>
      </harmony>
      <note default-x="26">
        <pitch>
          <step>D</step>
          <octave>4</octave>
        </pitch>
        <duration>1</duration>
        <voice>1</voice>
        <type>eighth</type>
        <stem default-y="15">up</stem>
        <lyric default-y="-95" name="verse" number="1">
          <syllabic>single</syllabic>
          <text>ơn</text>
        </lyric>
        <lyric default-y="-124" name="verse" number="2" relative-x="5">
          <syllabic>single</syllabic>
          <text>dâng</text>
        </lyric>
        <lyric default-y="-152" name="verse" number="3">
          <syllabic>begin</syllabic>
          <text>Jê</text>
        </lyric>
      </note>
      <note default-x="26">
        <chord/>
        <pitch>
          <step>B</step>
          <octave>4</octave>
        </pitch>
        <duration>1</duration>
        <voice>1</voice>
        <type>eighth</type>
        <stem>up</stem>
      </note>
      <note default-x="92">
        <pitch>
          <step>C</step>
          <octave>4</octave>
        </pitch>
        <duration>1</duration>
        <voice>1</voice>
        <type>eighth</type>
        <stem default-y="10">up</stem>
        <lyric default-y="-95" name="verse" number="1">
          <syllabic>single</syllabic>
          <text>hòa</text>
        </lyric>
        <lyric default-y="-124" name="verse" number="2">
          <syllabic>single</syllabic>
          <text>mạng</text>
        </lyric>
        <lyric default-y="-152" name="verse" number="3">
          <syllabic>end</syllabic>
          <text>sus</text>
        </lyric>
      </note>
      <note default-x="92">
        <chord/>
        <pitch>
          <step>A</step>
          <octave>4</octave>
        </pitch>
        <duration>1</duration>
        <voice>1</voice>
        <type>eighth</type>
        <stem>up</stem>
      </note>
      <harmony default-y="40" font-family="VNI-Helve-Condense" font-size="13.7">
        <root>
          <root-step>F</root-step>
        </root>
        <kind halign="center" text="">major</kind>
      </harmony>
      <note default-x="151">
        <pitch>
          <step>F</step>
          <octave>4</octave>
        </pitch>
        <duration>1</duration>
        <voice>1</voice>
        <type>eighth</type>
        <stem default-y="10">up</stem>
        <notations>
          <fermata default-x="-6" default-y="21" type="upright"/>
        </notations>
        <lyric default-y="-95" name="verse" number="1">
          <syllabic>single</syllabic>
          <text>bình,</text>
        </lyric>
        <lyric default-y="-124" name="verse" number="2">
          <syllabic>single</syllabic>
          <text>vàng,</text>
        </lyric>
        <lyric default-y="-152" name="verse" number="3">
          <syllabic>single</syllabic>
          <text>hoài,</text>
        </lyric>
      </note>
      <note default-x="151">
        <chord/>
        <pitch>
          <step>A</step>
          <octave>4</octave>
        </pitch>
        <duration>1</duration>
        <voice>1</voice>
        <type>eighth</type>
        <stem>up</stem>
      </note>
      <note default-x="220">
        <pitch>
          <step>A</step>
          <octave>4</octave>
        </pitch>
        <duration>1</duration>
        <voice>1</voice>
        <type>eighth</type>
        <stem default-y="10">up</stem>
        <lyric default-y="-95" name="verse" number="1">
          <syllabic>single</syllabic>
          <text>Ngợi</text>
        </lyric>
        <lyric default-y="-124" name="verse" number="2">
          <syllabic>single</syllabic>
          <text>Vì</text>
        </lyric>
        <lyric default-y="-152" name="verse" number="3">
          <syllabic>single</syllabic>
          <text>Truyền</text>
        </lyric>
      </note>
      <backup>
        <duration>1</duration>
      </backup>
      <note default-x="220">
        <rest>
          <display-step>C</display-step>
          <display-octave>4</display-octave>
        </rest>
        <duration>1</duration>
        <voice>2</voice>
        <type>eighth</type>
      </note>
      <note default-x="289">
        <pitch>
          <step>B</step>
          <octave>4</octave>
        </pitch>
        <duration>1</duration>
        <voice>1</voice>
        <type>eighth</type>
        <stem default-y="15">up</stem>
        <lyric default-y="-95" name="verse" number="1">
          <syllabic>single</syllabic>
          <text>khen</text>
        </lyric>
        <lyric default-y="-124" name="verse" number="2">
          <syllabic>single</syllabic>
          <text>chuộc</text>
        </lyric>
        <lyric default-y="-152" name="verse" number="3">
          <syllabic>single</syllabic>
          <text>danh</text>
        </lyric>
      </note>
      <backup>
        <duration>1</duration>
      </backup>
      <note default-x="290">
        <rest>
          <display-step>C</display-step>
          <display-octave>4</display-octave>
        </rest>
        <duration>1</duration>
        <voice>2</voice>
        <type>eighth</type>
      </note>
      <note default-x="344">
        <pitch>
          <step>C</step>
          <octave>5</octave>
        </pitch>
        <duration>1</duration>
        <voice>1</voice>
        <type>eighth</type>
        <stem default-y="20">up</stem>
        <lyric default-y="-95" name="verse" number="1">
          <syllabic>begin</syllabic>
          <text>Jê</text>
        </lyric>
        <lyric default-y="-124" name="verse" number="2">
          <syllabic>single</syllabic>
          <text>tôi</text>
        </lyric>
        <lyric default-y="-152" name="verse" number="3">
          <syllabic>single</syllabic>
          <text>tôn</text>
        </lyric>
      </note>
      <backup>
        <duration>1</duration>
      </backup>
      <note default-x="344">
        <pitch>
          <step>F</step>
          <octave>4</octave>
        </pitch>
        <duration>1</duration>
        <voice>2</voice>
        <type>eighth</type>
        <stem default-y="-70">down</stem>
      </note>
    </measure>
    <!--=======================================================-->
    <measure number="8" width="177">
      <harmony default-y="40" font-family="VNI-Helve-Condense" font-size="13.7">
        <root>
          <root-step>D</root-step>
        </root>
        <kind halign="center" text="7">dominant</kind>
      </harmony>
      <note default-x="26">
        <pitch>
          <step>D</step>
          <octave>5</octave>
        </pitch>
        <duration>4</duration>
        <voice>1</voice>
        <type>half</type>
        <stem default-y="18">up</stem>
        <lyric default-y="-95" name="verse" number="1">
          <syllabic>end</syllabic>
          <text>sus,</text>
        </lyric>
        <lyric default-y="-124" name="verse" number="2">
          <syllabic>single</syllabic>
          <text>đây</text>
        </lyric>
        <lyric default-y="-152" name="verse" number="3">
          <syllabic>single</syllabic>
          <text>vinh,</text>
        </lyric>
      </note>
      <backup>
        <duration>4</duration>
      </backup>
      <note default-x="26">
        <pitch>
          <step>F</step>
          <alter>1</alter>
          <octave>4</octave>
        </pitch>
        <duration>1</duration>
        <voice>2</voice>
        <type>eighth</type>
        <accidental>sharp</accidental>
        <stem default-y="-70">down</stem>
      </note>
      <note default-x="62">
        <pitch>
          <step>G</step>
          <octave>4</octave>
        </pitch>
        <duration>1</duration>
        <voice>2</voice>
        <type>eighth</type>
        <stem default-y="-65">down</stem>
      </note>
      <note default-x="91">
        <pitch>
          <step>A</step>
          <octave>4</octave>
        </pitch>
        <duration>2</duration>
        <voice>2</voice>
        <type>quarter</type>
        <stem default-y="-53.5">down</stem>
      </note>
      <note default-x="133">
        <pitch>
          <step>F</step>
          <alter>1</alter>
          <octave>4</octave>
        </pitch>
        <duration>2</duration>
        <voice>1</voice>
        <type>quarter</type>
        <stem default-y="24">up</stem>
        <lyric default-y="-95" name="verse" number="1">
          <syllabic>single</syllabic>
          <text>Chúa</text>
        </lyric>
        <lyric default-y="-124" name="verse" number="2">
          <syllabic>single</syllabic>
          <text>huyết</text>
        </lyric>
        <lyric default-y="-152" name="verse" number="3">
          <syllabic>single</syllabic>
          <text>cứu</text>
        </lyric>
      </note>
      <note default-x="133">
        <chord/>
        <pitch>
          <step>E</step>
          <octave>5</octave>
        </pitch>
        <duration>2</duration>
        <voice>1</voice>
        <type>quarter</type>
        <stem>up</stem>
      </note>
    </measure>
    <!--=======================================================-->
    <measure number="9" width="132">
      <harmony default-y="40" font-family="VNI-Helve-Condense" font-size="13.7">
        <root>
          <root-step>G</root-step>
        </root>
        <kind halign="center" text="7">dominant</kind>
      </harmony>
      <note default-x="14">
        <pitch>
          <step>F</step>
          <octave>4</octave>
        </pitch>
        <duration>2</duration>
        <voice>1</voice>
        <type>quarter</type>
        <stem default-y="18">up</stem>
        <lyric default-y="-95" name="verse" number="1" relative-x="5">
          <syllabic>single</syllabic>
          <text>nhân</text>
        </lyric>
        <lyric default-y="-124" name="verse" number="2" relative-x="3">
          <syllabic>single</syllabic>
          <text>tuôn</text>
        </lyric>
        <lyric default-y="-152" name="verse" number="3" relative-x="5">
          <syllabic>single</syllabic>
          <text>nhân</text>
        </lyric>
      </note>
      <note default-x="14">
        <chord/>
        <pitch>
          <step>D</step>
          <octave>5</octave>
        </pitch>
        <duration>2</duration>
        <voice>1</voice>
        <type>quarter</type>
        <stem>up</stem>
      </note>
      <note default-x="64">
        <pitch>
          <step>G</step>
          <octave>4</octave>
        </pitch>
        <duration>3</duration>
        <voice>1</voice>
        <type>quarter</type>
        <dot relative-x="12"/>
        <stem default-y="5">up</stem>
        <lyric default-y="-95" name="verse" number="1" relative-x="11">
          <syllabic>single</syllabic>
          <text>lành.</text>
        </lyric>
        <lyric default-y="-124" name="verse" number="2" relative-x="13">
          <syllabic>single</syllabic>
          <text>tràn.</text>
        </lyric>
        <lyric default-y="-152" name="verse" number="3" relative-x="11">
          <syllabic>single</syllabic>
          <text>loài.</text>
        </lyric>
      </note>
      <backup>
        <duration>3</duration>
      </backup>
      <note default-x="76">
        <pitch>
          <step>F</step>
          <octave>4</octave>
        </pitch>
        <duration>3</duration>
        <voice>2</voice>
        <type>quarter</type>
        <dot/>
        <stem default-y="-63">down</stem>
      </note>
      <note default-x="107">
        <rest/>
        <duration>1</duration>
        <voice>1</voice>
        <type>eighth</type>
      </note>
      <barline location="right">
        <bar-style>light-light</bar-style>
      </barline>
    </measure>
    <!--=======================================================-->
    <measure number="10" width="308">
      <print new-system="yes">
        <system-layout>
          <system-distance>127</system-distance>
        </system-layout>
      </print>
      <direction placement="above">
        <direction-type>
          <words default-y="38" font-style="italic" relative-x="-14" valign="top">Điệp khúc:</words>
        </direction-type>
      </direction>
      <harmony default-y="40" font-family="VNI-Helve-Condense" font-size="13.7">
        <root>
          <root-step>C</root-step>
        </root>
        <kind halign="center" text="">major</kind>
      </harmony>
      <note default-x="48">
        <pitch>
          <step>E</step>
          <octave>4</octave>
        </pitch>
        <duration>2</duration>
        <voice>1</voice>
        <type>quarter</type>
        <stem default-y="13.5">up</stem>
        <lyric default-y="-86" name="chorus" number="1">
          <syllabic>single</syllabic>
          <text>Cứu</text>
        </lyric>
      </note>
      <note default-x="48">
        <chord/>
        <pitch>
          <step>C</step>
          <octave>5</octave>
        </pitch>
        <duration>2</duration>
        <voice>1</voice>
        <type>quarter</type>
        <stem>up</stem>
      </note>
      <note default-x="128">
        <pitch>
          <step>E</step>
          <octave>4</octave>
        </pitch>
        <duration>2</duration>
        <voice>1</voice>
        <type>quarter</type>
        <stem default-y="5">up</stem>
        <lyric default-y="-86" name="chorus" number="1">
          <syllabic>single</syllabic>
          <text>người,</text>
        </lyric>
      </note>
      <note default-x="128">
        <chord/>
        <pitch>
          <step>G</step>
          <octave>4</octave>
        </pitch>
        <duration>2</duration>
        <voice>1</voice>
        <type>quarter</type>
        <stem>up</stem>
      </note>
      <note default-x="208">
        <pitch>
          <step>F</step>
          <octave>4</octave>
        </pitch>
        <duration>1</duration>
        <voice>1</voice>
        <type>eighth</type>
        <stem default-y="10">up</stem>
        <lyric default-y="-86" name="chorus" number="1">
          <syllabic>single</syllabic>
          <text>Chúa</text>
        </lyric>
      </note>
      <note default-x="208">
        <chord/>
        <pitch>
          <step>A</step>
          <octave>4</octave>
        </pitch>
        <duration>1</duration>
        <voice>1</voice>
        <type>eighth</type>
        <stem>up</stem>
      </note>
      <note default-x="257">
        <pitch>
          <step>E</step>
          <octave>4</octave>
        </pitch>
        <duration>1</duration>
        <voice>1</voice>
        <type>eighth</type>
        <stem default-y="5">up</stem>
        <lyric default-y="-86" name="chorus" number="1">
          <syllabic>single</syllabic>
          <text>vui</text>
        </lyric>
      </note>
      <note default-x="257">
        <chord/>
        <pitch>
          <step>G</step>
          <octave>4</octave>
        </pitch>
        <duration>1</duration>
        <voice>1</voice>
        <type>eighth</type>
        <stem>up</stem>
      </note>
    </measure>
    <!--=======================================================-->
    <measure number="11" width="257">
      <harmony default-y="40" font-family="VNI-Helve-Condense" font-size="13.7">
        <root>
          <root-step>D</root-step>
        </root>
        <kind halign="center" text="m">minor</kind>
      </harmony>
      <note default-x="14">
        <pitch>
          <step>E</step>
          <octave>4</octave>
        </pitch>
        <duration>1</duration>
        <voice>1</voice>
        <type>eighth</type>
        <stem default-y="5">up</stem>
        <lyric default-y="-86" name="chorus" number="1" relative-x="9">
          <syllabic>single</syllabic>
          <text>mang</text>
        </lyric>
      </note>
      <note default-x="14">
        <chord/>
        <pitch>
          <step>G</step>
          <octave>4</octave>
        </pitch>
        <duration>1</duration>
        <voice>1</voice>
        <type>eighth</type>
        <stem>up</stem>
      </note>
      <note default-x="83">
        <pitch>
          <step>D</step>
          <octave>4</octave>
        </pitch>
        <duration>1</duration>
        <voice>1</voice>
        <type>eighth</type>
        <stem default-y="0">up</stem>
        <lyric default-y="-86" name="chorus" number="1">
          <syllabic>single</syllabic>
          <text>thập</text>
        </lyric>
      </note>
      <note default-x="83">
        <chord/>
        <pitch>
          <step>F</step>
          <octave>4</octave>
        </pitch>
        <duration>1</duration>
        <voice>1</voice>
        <type>eighth</type>
        <stem>up</stem>
      </note>
      <note default-x="143">
        <pitch>
          <step>D</step>
          <octave>4</octave>
        </pitch>
        <duration>2</duration>
        <voice>1</voice>
        <type>quarter</type>
        <stem default-y="0">up</stem>
        <lyric default-y="-86" name="chorus" number="1">
          <syllabic>single</syllabic>
          <text>hình,</text>
        </lyric>
      </note>
      <note default-x="143">
        <chord/>
        <pitch>
          <step>F</step>
          <octave>4</octave>
        </pitch>
        <duration>2</duration>
        <voice>1</voice>
        <type>quarter</type>
        <stem>up</stem>
      </note>
      <note default-x="199">
        <rest/>
        <duration>2</duration>
        <voice>1</voice>
        <type>quarter</type>
      </note>
    </measure>
    <!--=======================================================-->
    <measure number="12" width="247">
      <harmony default-y="40" font-family="VNI-Helve-Condense" font-size="13.7">
        <root>
          <root-step>G</root-step>
        </root>
        <kind halign="center" text="7">dominant</kind>
      </harmony>
      <note default-x="14">
        <pitch>
          <step>F</step>
          <octave>4</octave>
        </pitch>
        <duration>2</duration>
        <voice>1</voice>
        <type>quarter</type>
        <stem default-y="18.5">up</stem>
        <lyric default-y="-86" name="chorus" number="1">
          <syllabic>single</syllabic>
          <text>Thế</text>
        </lyric>
      </note>
      <note default-x="14">
        <chord/>
        <pitch>
          <step>D</step>
          <octave>5</octave>
        </pitch>
        <duration>2</duration>
        <voice>1</voice>
        <type>quarter</type>
        <stem>up</stem>
      </note>
      <note default-x="75">
        <pitch>
          <step>F</step>
          <octave>4</octave>
        </pitch>
        <duration>2</duration>
        <voice>1</voice>
        <type>quarter</type>
        <stem default-y="15">up</stem>
        <lyric default-y="-86" name="chorus" number="1">
          <syllabic>single</syllabic>
          <text>tôi,</text>
        </lyric>
      </note>
      <note default-x="75">
        <chord/>
        <pitch>
          <step>B</step>
          <octave>4</octave>
        </pitch>
        <duration>2</duration>
        <voice>1</voice>
        <type>quarter</type>
        <stem>up</stem>
      </note>
      <note default-x="145">
        <pitch>
          <step>F</step>
          <octave>4</octave>
        </pitch>
        <duration>1</duration>
        <voice>1</voice>
        <type>eighth</type>
        <stem default-y="20">up</stem>
        <lyric default-y="-86" name="chorus" number="1">
          <syllabic>single</syllabic>
          <text>Chúa</text>
        </lyric>
      </note>
      <note default-x="145">
        <chord/>
        <pitch>
          <step>C</step>
          <octave>5</octave>
        </pitch>
        <duration>1</duration>
        <voice>1</voice>
        <type>eighth</type>
        <stem>up</stem>
      </note>
      <note default-x="201">
        <pitch>
          <step>F</step>
          <octave>4</octave>
        </pitch>
        <duration>1</duration>
        <voice>1</voice>
        <type>eighth</type>
        <stem default-y="15">up</stem>
        <lyric default-y="-86" name="chorus" number="1">
          <syllabic>single</syllabic>
          <text>cam</text>
        </lyric>
      </note>
      <note default-x="201">
        <chord/>
        <pitch>
          <step>B</step>
          <octave>4</octave>
        </pitch>
        <duration>1</duration>
        <voice>1</voice>
        <type>eighth</type>
        <stem>up</stem>
      </note>
    </measure>
    <!--=======================================================-->
    <measure number="13" width="210">
      <harmony default-y="40" font-family="VNI-Helve-Condense" font-size="13.7">
        <root>
          <root-step>C</root-step>
        </root>
        <kind halign="center" text="">major</kind>
      </harmony>
      <note default-x="16">
        <pitch>
          <step>F</step>
          <octave>4</octave>
        </pitch>
        <duration>1</duration>
        <voice>1</voice>
        <type>eighth</type>
        <stem default-y="10">up</stem>
        <lyric default-y="-86" name="chorus" number="1">
          <syllabic>single</syllabic>
          <text>tâm</text>
        </lyric>
      </note>
      <note default-x="16">
        <chord/>
        <pitch>
          <step>A</step>
          <octave>4</octave>
        </pitch>
        <duration>1</duration>
        <voice>1</voice>
        <type>eighth</type>
        <stem>up</stem>
      </note>
      <note default-x="58">
        <pitch>
          <step>E</step>
          <octave>4</octave>
        </pitch>
        <duration>1</duration>
        <voice>1</voice>
        <type>eighth</type>
        <stem default-y="5">up</stem>
        <lyric default-y="-86" name="chorus" number="1">
          <syllabic>single</syllabic>
          <text>hy</text>
        </lyric>
      </note>
      <note default-x="58">
        <chord/>
        <pitch>
          <step>G</step>
          <octave>4</octave>
        </pitch>
        <duration>1</duration>
        <voice>1</voice>
        <type>eighth</type>
        <stem>up</stem>
      </note>
      <note default-x="100">
        <pitch>
          <step>E</step>
          <octave>4</octave>
        </pitch>
        <duration>2</duration>
        <voice>1</voice>
        <type>quarter</type>
        <stem default-y="5">up</stem>
        <lyric default-y="-86" name="chorus" number="1">
          <syllabic>single</syllabic>
          <text>sinh,</text>
        </lyric>
      </note>
      <note default-x="100">
        <chord/>
        <pitch>
          <step>G</step>
          <octave>4</octave>
        </pitch>
        <duration>2</duration>
        <voice>1</voice>
        <type>quarter</type>
        <stem>up</stem>
      </note>
      <note default-x="154">
        <rest/>
        <duration>2</duration>
        <voice>1</voice>
        <type>quarter</type>
      </note>
    </measure>
    <!--=======================================================-->
    <measure number="14" width="276">
      <print new-system="yes">
        <system-layout>
          <system-distance>127</system-distance>
        </system-layout>
      </print>
      <note default-x="51">
        <pitch>
          <step>G</step>
          <octave>4</octave>
        </pitch>
        <duration>2</duration>
        <voice>1</voice>
        <type>quarter</type>
        <stem default-y="23.5">up</stem>
        <lyric default-y="-95" name="chorus" number="1" relative-x="9">
          <syllabic>single</syllabic>
          <text>Chính</text>
        </lyric>
      </note>
      <note default-x="51">
        <chord/>
        <pitch>
          <step>E</step>
          <octave>5</octave>
        </pitch>
        <duration>2</duration>
        <voice>1</voice>
        <type>quarter</type>
        <stem>up</stem>
      </note>
      <note default-x="120">
        <pitch>
          <step>E</step>
          <octave>4</octave>
        </pitch>
        <duration>2</duration>
        <voice>1</voice>
        <type>quarter</type>
        <stem default-y="13">up</stem>
        <lyric default-y="-95" name="chorus" number="1">
          <syllabic>single</syllabic>
          <text>tôi</text>
        </lyric>
      </note>
      <note default-x="120">
        <chord/>
        <pitch>
          <step>C</step>
          <octave>5</octave>
        </pitch>
        <duration>2</duration>
        <voice>1</voice>
        <type>quarter</type>
        <stem>up</stem>
      </note>
      <note default-x="189">
        <pitch>
          <step>F</step>
          <octave>4</octave>
        </pitch>
        <duration>1</duration>
        <voice>1</voice>
        <type>eighth</type>
        <stem default-y="25">up</stem>
        <lyric default-y="-95" name="chorus" number="1">
          <syllabic>single</syllabic>
          <text>biết</text>
        </lyric>
      </note>
      <note default-x="189">
        <chord/>
        <pitch>
          <step>D</step>
          <octave>5</octave>
        </pitch>
        <duration>1</duration>
        <voice>1</voice>
        <type>eighth</type>
        <stem>up</stem>
      </note>
      <note default-x="238">
        <pitch>
          <step>E</step>
          <octave>4</octave>
        </pitch>
        <duration>1</duration>
        <voice>1</voice>
        <type>eighth</type>
        <stem default-y="20">up</stem>
        <lyric default-y="-95" name="chorus" number="1">
          <syllabic>single</syllabic>
          <text>lấy</text>
        </lyric>
      </note>
      <note default-x="238">
        <chord/>
        <pitch>
          <step>C</step>
          <octave>5</octave>
        </pitch>
        <duration>1</duration>
        <voice>1</voice>
        <type>eighth</type>
        <stem>up</stem>
      </note>
    </measure>
    <!--=======================================================-->
    <measure number="15" width="407">
      <harmony default-y="40" font-family="VNI-Helve-Condense" font-size="13.7">
        <root>
          <root-step>E</root-step>
        </root>
        <kind halign="center" text="7">dominant</kind>
      </harmony>
      <note default-x="26">
        <pitch>
          <step>D</step>
          <octave>4</octave>
        </pitch>
        <duration>1</duration>
        <voice>1</voice>
        <type>eighth</type>
        <stem default-y="15">up</stem>
        <lyric default-y="-95" name="chorus" number="1">
          <syllabic>single</syllabic>
          <text>chi</text>
        </lyric>
      </note>
      <note default-x="26">
        <chord/>
        <pitch>
          <step>B</step>
          <octave>4</octave>
        </pitch>
        <duration>1</duration>
        <voice>1</voice>
        <type>eighth</type>
        <stem>up</stem>
      </note>
      <note default-x="90">
        <pitch>
          <step>C</step>
          <octave>4</octave>
        </pitch>
        <duration>1</duration>
        <voice>1</voice>
        <type>eighth</type>
        <stem default-y="10">up</stem>
        <lyric default-y="-95" name="chorus" number="1">
          <syllabic>single</syllabic>
          <text>đền</text>
        </lyric>
      </note>
      <note default-x="90">
        <chord/>
        <pitch>
          <step>A</step>
          <octave>4</octave>
        </pitch>
        <duration>1</duration>
        <voice>1</voice>
        <type>eighth</type>
        <stem>up</stem>
      </note>
      <harmony default-y="40" font-family="VNI-Helve-Condense" font-size="13.7">
        <root>
          <root-step>F</root-step>
        </root>
        <kind halign="center" text="">major</kind>
      </harmony>
      <note default-x="153">
        <pitch>
          <step>F</step>
          <octave>4</octave>
        </pitch>
        <duration>1</duration>
        <voice>1</voice>
        <type>eighth</type>
        <stem default-y="10">up</stem>
        <notations>
          <fermata default-x="-5" default-y="21" type="upright"/>
        </notations>
        <lyric default-y="-95" name="chorus" number="1">
          <syllabic>single</syllabic>
          <text>bồi</text>
        </lyric>
      </note>
      <note default-x="153">
        <chord/>
        <pitch>
          <step>A</step>
          <octave>4</octave>
        </pitch>
        <duration>1</duration>
        <voice>1</voice>
        <type>eighth</type>
        <stem>up</stem>
      </note>
      <note default-x="216">
        <pitch>
          <step>A</step>
          <octave>4</octave>
        </pitch>
        <duration>1</duration>
        <voice>1</voice>
        <type>eighth</type>
        <stem default-y="10">up</stem>
        <lyric default-y="-95" name="chorus" number="1">
          <syllabic>single</syllabic>
          <text>Tình</text>
        </lyric>
      </note>
      <backup>
        <duration>1</duration>
      </backup>
      <note default-x="216">
        <rest>
          <display-step>C</display-step>
          <display-octave>4</display-octave>
        </rest>
        <duration>1</duration>
        <voice>2</voice>
        <type>eighth</type>
      </note>
      <note default-x="279">
        <pitch>
          <step>B</step>
          <octave>4</octave>
        </pitch>
        <duration>1</duration>
        <voice>1</voice>
        <type>eighth</type>
        <stem default-y="15">up</stem>
        <lyric default-y="-95" name="chorus" number="1">
          <syllabic>single</syllabic>
          <text>yêu</text>
        </lyric>
      </note>
      <backup>
        <duration>1</duration>
      </backup>
      <note default-x="279">
        <rest>
          <display-step>C</display-step>
          <display-octave>4</display-octave>
        </rest>
        <duration>1</duration>
        <voice>2</voice>
        <type>eighth</type>
      </note>
      <note default-x="343">
        <pitch>
          <step>C</step>
          <octave>5</octave>
        </pitch>
        <duration>1</duration>
        <voice>1</voice>
        <type>eighth</type>
        <stem default-y="20">up</stem>
        <lyric default-y="-95" name="chorus" number="1">
          <syllabic>single</syllabic>
          <text>vô</text>
        </lyric>
      </note>
      <backup>
        <duration>1</duration>
      </backup>
      <note default-x="343">
        <pitch>
          <step>A</step>
          <octave>4</octave>
        </pitch>
        <duration>1</duration>
        <voice>2</voice>
        <type>eighth</type>
        <stem default-y="-60">down</stem>
      </note>
    </measure>
    <!--=======================================================-->
    <measure number="16" width="203">
      <harmony default-y="40" font-family="VNI-Helve-Condense" font-size="13.7">
        <root>
          <root-step>C</root-step>
        </root>
        <kind halign="center" text="">major</kind>
        <bass>
          <bass-step>G</bass-step>
        </bass>
      </harmony>
      <note default-x="16">
        <pitch>
          <step>E</step>
          <octave>5</octave>
        </pitch>
        <duration>4</duration>
        <voice>1</voice>
        <type>half</type>
        <stem default-y="23.5">up</stem>
        <lyric default-y="-95" name="chorus" number="1">
          <syllabic>single</syllabic>
          <text>đối,</text>
        </lyric>
      </note>
      <backup>
        <duration>4</duration>
      </backup>
      <note default-x="16">
        <pitch>
          <step>G</step>
          <octave>4</octave>
        </pitch>
        <duration>1</duration>
        <voice>2</voice>
        <type>eighth</type>
        <stem default-y="-65">down</stem>
      </note>
      <note default-x="52">
        <pitch>
          <step>C</step>
          <octave>5</octave>
        </pitch>
        <duration>1</duration>
        <voice>2</voice>
        <type>eighth</type>
        <stem default-y="-50">down</stem>
      </note>
      <note default-x="87">
        <pitch>
          <step>G</step>
          <octave>4</octave>
        </pitch>
        <duration>2</duration>
        <voice>2</voice>
        <type>quarter</type>
        <stem default-y="-58">down</stem>
      </note>
      <note default-x="145">
        <pitch>
          <step>E</step>
          <octave>4</octave>
        </pitch>
        <duration>2</duration>
        <voice>1</voice>
        <type>quarter</type>
        <stem default-y="13">up</stem>
        <lyric default-y="-95" name="chorus" number="1">
          <syllabic>single</syllabic>
          <text>ôi</text>
        </lyric>
      </note>
      <note default-x="145">
        <chord/>
        <pitch>
          <step>C</step>
          <octave>5</octave>
        </pitch>
        <duration>2</duration>
        <voice>1</voice>
        <type>quarter</type>
        <stem>up</stem>
      </note>
    </measure>
    <!--=======================================================-->
    <measure number="17" width="135">
      <harmony default-y="40" font-family="VNI-Helve-Condense" font-size="13.7">
        <root>
          <root-step>G</root-step>
        </root>
        <kind halign="center" text="7">dominant</kind>
      </harmony>
      <note default-x="14">
        <pitch>
          <step>F</step>
          <octave>4</octave>
        </pitch>
        <duration>2</duration>
        <voice>1</voice>
        <type>quarter</type>
        <stem default-y="18">up</stem>
        <notations>
          <fermata default-x="-6" default-y="28" type="upright"/>
        </notations>
        <lyric default-y="-95" name="chorus" number="1" relative-x="5">
          <syllabic>single</syllabic>
          <text>Chúa</text>
        </lyric>
      </note>
      <note default-x="14">
        <chord/>
        <pitch>
          <step>D</step>
          <octave>5</octave>
        </pitch>
        <duration>2</duration>
        <voice>1</voice>
        <type>quarter</type>
        <stem>up</stem>
      </note>
      <harmony default-y="40" font-family="VNI-Helve-Condense" font-size="13.7">
        <root>
          <root-step>C</root-step>
        </root>
        <kind halign="center" text="">major</kind>
      </harmony>
      <note default-x="70">
        <pitch>
          <step>E</step>
          <octave>4</octave>
        </pitch>
        <duration>2</duration>
        <voice>1</voice>
        <type>quarter</type>
        <stem default-y="13">up</stem>
        <lyric default-y="-95" name="chorus" number="1">
          <syllabic>single</syllabic>
          <text>ôi!</text>
        </lyric>
      </note>
      <note default-x="70">
        <chord/>
        <pitch>
          <step>C</step>
          <octave>5</octave>
        </pitch>
        <duration>2</duration>
        <voice>1</voice>
        <type>quarter</type>
        <stem>up</stem>
      </note>
      <barline location="right">
        <bar-style>light-heavy</bar-style>
      </barline>
    </measure>
  </part>
  <!--=========================================================-->
  <part id="P2">
    <?SmartMusic maxVoice=1?>
    <measure number="1" width="127">
      <print>
        <staff-layout number="1">
          <staff-distance>151</staff-distance>
        </staff-layout>
        <measure-numbering>none</measure-numbering>
      </print>
      <attributes>
        <divisions>2</divisions>
        <key>
          <fifths>0</fifths>
          <mode>major</mode>
        </key>
        <time>
          <beats>3</beats>
          <beat-type>4</beat-type>
        </time>
        <clef>
          <sign>F</sign>
          <line>4</line>
        </clef>
      </attributes>
      <sound tempo="104"/>
      <note default-x="92">
        <pitch>
          <step>C</step>
          <octave>3</octave>
        </pitch>
        <duration>2</duration>
        <voice>1</voice>
        <type>quarter</type>
        <stem default-y="-53">down</stem>
      </note>
      <note default-x="92">
        <chord/>
        <pitch>
          <step>G</step>
          <octave>3</octave>
        </pitch>
        <duration>2</duration>
        <voice>1</voice>
        <type>quarter</type>
        <stem>down</stem>
      </note>
    </measure>
    <!--=======================================================-->
    <measure number="2" width="240">
      <note default-x="14">
        <pitch>
          <step>C</step>
          <octave>3</octave>
        </pitch>
        <duration>1</duration>
        <voice>1</voice>
        <type>eighth</type>
        <stem default-y="-60">down</stem>
      </note>
      <note default-x="14">
        <chord/>
        <pitch>
          <step>G</step>
          <octave>3</octave>
        </pitch>
        <duration>1</duration>
        <voice>1</voice>
        <type>eighth</type>
        <stem>down</stem>
      </note>
      <note default-x="84">
        <pitch>
          <step>C</step>
          <octave>3</octave>
        </pitch>
        <duration>1</duration>
        <voice>1</voice>
        <type>eighth</type>
        <stem default-y="-60">down</stem>
      </note>
      <note default-x="84">
        <chord/>
        <pitch>
          <step>G</step>
          <alter>1</alter>
          <octave>3</octave>
        </pitch>
        <duration>1</duration>
        <voice>1</voice>
        <type>eighth</type>
        <accidental>sharp</accidental>
        <stem>down</stem>
      </note>
      <note default-x="141">
        <pitch>
          <step>C</step>
          <octave>3</octave>
        </pitch>
        <duration>3</duration>
        <voice>1</voice>
        <type>quarter</type>
        <dot/>
        <stem default-y="-53">down</stem>
      </note>
      <note default-x="141">
        <chord/>
        <pitch>
          <step>A</step>
          <octave>3</octave>
        </pitch>
        <duration>3</duration>
        <voice>1</voice>
        <type>quarter</type>
        <dot/>
        <stem>down</stem>
      </note>
      <note default-x="198">
        <pitch>
          <step>C</step>
          <octave>3</octave>
        </pitch>
        <duration>1</duration>
        <voice>1</voice>
        <type>eighth</type>
        <stem default-y="-60">down</stem>
      </note>
      <note default-x="198">
        <chord/>
        <pitch>
          <step>A</step>
          <octave>3</octave>
        </pitch>
        <duration>1</duration>
        <voice>1</voice>
        <type>eighth</type>
        <stem>down</stem>
      </note>
    </measure>
    <!--=======================================================-->
    <measure number="3" width="231">
      <note default-x="14">
        <pitch>
          <step>D</step>
          <octave>3</octave>
        </pitch>
        <duration>1</duration>
        <voice>1</voice>
        <type>eighth</type>
        <stem default-y="-55">down</stem>
      </note>
      <note default-x="14">
        <chord/>
        <pitch>
          <step>B</step>
          <octave>3</octave>
        </pitch>
        <duration>1</duration>
        <voice>1</voice>
        <type>eighth</type>
        <stem>down</stem>
      </note>
      <note default-x="82">
        <pitch>
          <step>D</step>
          <octave>3</octave>
        </pitch>
        <duration>1</duration>
        <voice>1</voice>
        <type>eighth</type>
        <stem default-y="-55">down</stem>
      </note>
      <note default-x="82">
        <chord/>
        <pitch>
          <step>B</step>
          <octave>3</octave>
        </pitch>
        <duration>1</duration>
        <voice>1</voice>
        <type>eighth</type>
        <stem>down</stem>
      </note>
      <note default-x="135">
        <pitch>
          <step>D</step>
          <octave>3</octave>
        </pitch>
        <duration>2</duration>
        <voice>1</voice>
        <type>quarter</type>
        <stem default-y="-55">down</stem>
      </note>
      <note default-x="135">
        <chord/>
        <pitch>
          <step>B</step>
          <octave>3</octave>
        </pitch>
        <duration>2</duration>
        <voice>1</voice>
        <type>quarter</type>
        <stem>down</stem>
      </note>
      <note default-x="194">
        <pitch>
          <step>G</step>
          <octave>3</octave>
        </pitch>
        <duration>2</duration>
        <voice>1</voice>
        <type>quarter</type>
        <stem default-y="-40">down</stem>
      </note>
      <note default-x="194">
        <chord/>
        <pitch>
          <step>D</step>
          <octave>4</octave>
        </pitch>
        <duration>2</duration>
        <voice>1</voice>
        <type>quarter</type>
        <stem>down</stem>
      </note>
    </measure>
    <!--=======================================================-->
    <measure number="4" width="229">
      <note default-x="14">
        <pitch>
          <step>G</step>
          <octave>3</octave>
        </pitch>
        <duration>1</duration>
        <voice>1</voice>
        <type>eighth</type>
        <stem default-y="-40">down</stem>
      </note>
      <note default-x="14">
        <chord/>
        <pitch>
          <step>B</step>
          <octave>3</octave>
        </pitch>
        <duration>1</duration>
        <voice>1</voice>
        <type>eighth</type>
        <stem>down</stem>
      </note>
      <note default-x="73">
        <pitch>
          <step>G</step>
          <octave>3</octave>
        </pitch>
        <duration>1</duration>
        <voice>1</voice>
        <type>eighth</type>
        <stem default-y="-40">down</stem>
      </note>
      <note default-x="73">
        <chord/>
        <pitch>
          <step>C</step>
          <octave>4</octave>
        </pitch>
        <duration>1</duration>
        <voice>1</voice>
        <type>eighth</type>
        <stem>down</stem>
      </note>
      <note default-x="131">
        <pitch>
          <step>G</step>
          <octave>3</octave>
        </pitch>
        <duration>3</duration>
        <voice>1</voice>
        <type>quarter</type>
        <dot/>
        <stem default-y="-40">down</stem>
      </note>
      <note default-x="131">
        <chord/>
        <pitch>
          <step>D</step>
          <octave>4</octave>
        </pitch>
        <duration>3</duration>
        <voice>1</voice>
        <type>quarter</type>
        <dot/>
        <stem>down</stem>
      </note>
      <note default-x="187">
        <pitch>
          <step>G</step>
          <octave>3</octave>
        </pitch>
        <duration>1</duration>
        <voice>1</voice>
        <type>eighth</type>
        <stem default-y="-40">down</stem>
      </note>
      <note default-x="187">
        <chord/>
        <pitch>
          <step>B</step>
          <octave>3</octave>
        </pitch>
        <duration>1</duration>
        <voice>1</voice>
        <type>eighth</type>
        <stem>down</stem>
      </note>
    </measure>
    <!--=======================================================-->
    <measure number="5" width="194">
      <note default-x="16">
        <pitch>
          <step>C</step>
          <octave>3</octave>
        </pitch>
        <duration>1</duration>
        <voice>1</voice>
        <type>eighth</type>
        <stem default-y="-60">down</stem>
      </note>
      <note default-x="16">
        <chord/>
        <pitch>
          <step>C</step>
          <octave>4</octave>
        </pitch>
        <duration>1</duration>
        <voice>1</voice>
        <type>eighth</type>
        <stem>down</stem>
      </note>
      <note default-x="88">
        <pitch>
          <step>C</step>
          <octave>3</octave>
        </pitch>
        <duration>1</duration>
        <voice>1</voice>
        <type>eighth</type>
        <stem default-y="-60">down</stem>
      </note>
      <note default-x="88">
        <chord/>
        <pitch>
          <step>C</step>
          <octave>4</octave>
        </pitch>
        <duration>1</duration>
        <voice>1</voice>
        <type>eighth</type>
        <stem>down</stem>
      </note>
      <note default-x="145">
        <pitch>
          <step>C</step>
          <octave>3</octave>
        </pitch>
        <duration>2</duration>
        <voice>1</voice>
        <type>quarter</type>
        <stem default-y="-53">down</stem>
      </note>
      <note default-x="145">
        <chord/>
        <pitch>
          <step>C</step>
          <octave>4</octave>
        </pitch>
        <duration>2</duration>
        <voice>1</voice>
        <type>quarter</type>
        <stem>down</stem>
      </note>
      <note default-x="48">
        <pitch>
          <step>C</step>
          <octave>3</octave>
        </pitch>
        <duration>2</duration>
        <voice>1</voice>
        <type>quarter</type>
        <stem default-y="-53">down</stem>
      </note>
      <note default-x="48">
        <chord/>
        <pitch>
          <step>G</step>
          <octave>3</octave>
        </pitch>
        <duration>2</duration>
        <voice>1</voice>
        <type>quarter</type>
        <stem>down</stem>
      </note>
    </measure>
    <!--=======================================================-->
    <measure number="6" width="240">
      <note default-x="16">
        <pitch>
          <step>C</step>
          <octave>3</octave>
        </pitch>
        <duration>1</duration>
        <voice>1</voice>
        <type>eighth</type>
        <stem default-y="-60">down</stem>
      </note>
      <note default-x="16">
        <chord/>
        <pitch>
          <step>C</step>
          <octave>4</octave>
        </pitch>
        <duration>1</duration>
        <voice>1</voice>
        <type>eighth</type>
        <stem>down</stem>
      </note>
      <note default-x="69">
        <pitch>
          <step>C</step>
          <octave>3</octave>
        </pitch>
        <duration>1</duration>
        <voice>1</voice>
        <type>eighth</type>
        <stem default-y="-60">down</stem>
      </note>
      <note default-x="69">
        <chord/>
        <pitch>
          <step>G</step>
          <octave>3</octave>
        </pitch>
        <duration>1</duration>
        <voice>1</voice>
        <type>eighth</type>
        <stem>down</stem>
      </note>
      <note default-x="139">
        <pitch>
          <step>C</step>
          <octave>3</octave>
        </pitch>
        <duration>3</duration>
        <voice>1</voice>
        <type>quarter</type>
        <dot/>
        <stem default-y="-53">down</stem>
      </note>
      <note default-x="139">
        <chord/>
        <pitch>
          <step>G</step>
          <octave>3</octave>
        </pitch>
        <duration>3</duration>
        <voice>1</voice>
        <type>quarter</type>
        <dot/>
        <stem>down</stem>
      </note>
      <note default-x="206">
        <pitch>
          <step>E</step>
          <octave>3</octave>
        </pitch>
        <duration>1</duration>
        <voice>1</voice>
        <type>eighth</type>
        <stem default-y="-50">down</stem>
      </note>
      <note default-x="206">
        <chord/>
        <pitch>
          <step>G</step>
          <alter>1</alter>
          <octave>3</octave>
        </pitch>
        <duration>1</duration>
        <voice>1</voice>
        <type>eighth</type>
        <accidental>sharp</accidental>
        <stem>down</stem>
      </note>
    </measure>
    <!--=======================================================-->
    <measure number="7" width="378">
      <note default-x="26">
        <pitch>
          <step>G</step>
          <alter>1</alter>
          <octave>3</octave>
        </pitch>
        <duration>1</duration>
        <voice>1</voice>
        <type>eighth</type>
        <accidental>sharp</accidental>
        <stem default-y="30">up</stem>
      </note>
      <backup>
        <duration>1</duration>
      </backup>
      <note default-x="38">
        <pitch>
          <step>F</step>
          <octave>3</octave>
        </pitch>
        <duration>1</duration>
        <voice>2</voice>
        <type>eighth</type>
        <stem default-y="-45">down</stem>
      </note>
      <note default-x="92">
        <pitch>
          <step>F</step>
          <octave>3</octave>
        </pitch>
        <duration>1</duration>
        <voice>1</voice>
        <type>eighth</type>
        <stem default-y="-45">down</stem>
      </note>
      <note default-x="92">
        <chord/>
        <pitch>
          <step>A</step>
          <octave>3</octave>
        </pitch>
        <duration>1</duration>
        <voice>1</voice>
        <type>eighth</type>
        <stem>down</stem>
      </note>
      <note default-x="151">
        <pitch>
          <step>F</step>
          <octave>3</octave>
        </pitch>
        <duration>1</duration>
        <voice>1</voice>
        <type>eighth</type>
        <stem default-y="-45">down</stem>
        <notations>
          <fermata default-x="-6" default-y="25" type="upright"/>
        </notations>
      </note>
      <note default-x="151">
        <chord/>
        <pitch>
          <step>C</step>
          <octave>4</octave>
        </pitch>
        <duration>1</duration>
        <voice>1</voice>
        <type>eighth</type>
        <stem>down</stem>
      </note>
      <note default-x="220">
        <rest/>
        <duration>1</duration>
        <voice>1</voice>
        <type>eighth</type>
      </note>
      <note default-x="290">
        <rest/>
        <duration>1</duration>
        <voice>1</voice>
        <type>eighth</type>
      </note>
      <note default-x="344">
        <pitch>
          <step>F</step>
          <octave>3</octave>
        </pitch>
        <duration>1</duration>
        <voice>1</voice>
        <type>eighth</type>
        <stem default-y="-45">down</stem>
        <lyric default-y="37" name="section" number="1" placement="above">
          <syllabic>single</syllabic>
          <text font-size="10.25" font-style="italic">Ngợi</text>
        </lyric>
      </note>
      <note default-x="344">
        <chord/>
        <pitch>
          <step>A</step>
          <octave>3</octave>
        </pitch>
        <duration>1</duration>
        <voice>1</voice>
        <type>eighth</type>
        <stem>down</stem>
      </note>
    </measure>
    <!--=======================================================-->
    <measure number="8" width="177">
      <note default-x="26">
        <pitch>
          <step>D</step>
          <octave>3</octave>
        </pitch>
        <duration>1</duration>
        <voice>1</voice>
        <type>eighth</type>
        <stem default-y="-55">down</stem>
        <lyric default-y="37" name="section" number="1" placement="above">
          <syllabic>single</syllabic>
          <text font-size="10.25" font-style="italic">khen</text>
        </lyric>
      </note>
      <note default-x="26">
        <chord/>
        <pitch>
          <step>A</step>
          <octave>3</octave>
        </pitch>
        <duration>1</duration>
        <voice>1</voice>
        <type>eighth</type>
        <stem>down</stem>
      </note>
      <note default-x="62">
        <pitch>
          <step>D</step>
          <octave>3</octave>
        </pitch>
        <duration>1</duration>
        <voice>1</voice>
        <type>eighth</type>
        <stem default-y="-55">down</stem>
        <lyric default-y="37" name="section" number="1" placement="above">
          <syllabic>begin</syllabic>
          <text font-size="10.25" font-style="italic">Jê</text>
        </lyric>
      </note>
      <note default-x="62">
        <chord/>
        <pitch>
          <step>B</step>
          <octave>3</octave>
        </pitch>
        <duration>1</duration>
        <voice>1</voice>
        <type>eighth</type>
        <stem>down</stem>
      </note>
      <note default-x="91">
        <pitch>
          <step>D</step>
          <octave>3</octave>
        </pitch>
        <duration>2</duration>
        <voice>1</voice>
        <type>quarter</type>
        <stem default-y="-55">down</stem>
        <lyric default-y="37" name="section" number="1" placement="above">
          <syllabic>end</syllabic>
          <text font-size="10.25" font-style="italic">sus</text>
        </lyric>
      </note>
      <note default-x="91">
        <chord/>
        <pitch>
          <step>C</step>
          <octave>4</octave>
        </pitch>
        <duration>2</duration>
        <voice>1</voice>
        <type>quarter</type>
        <stem>down</stem>
      </note>
      <note default-x="133">
        <pitch>
          <step>D</step>
          <octave>3</octave>
        </pitch>
        <duration>2</duration>
        <voice>1</voice>
        <type>quarter</type>
        <stem default-y="-55">down</stem>
        <lyric default-y="37" name="section" number="1" placement="above">
          <syllabic>single</syllabic>
          <text font-size="10.25" font-style="italic">Chúa</text>
        </lyric>
      </note>
      <note default-x="133">
        <chord/>
        <pitch>
          <step>C</step>
          <octave>4</octave>
        </pitch>
        <duration>2</duration>
        <voice>1</voice>
        <type>quarter</type>
        <stem>down</stem>
      </note>
    </measure>
    <!--=======================================================-->
    <measure number="9" width="132">
      <note default-x="14">
        <pitch>
          <step>G</step>
          <octave>3</octave>
        </pitch>
        <duration>2</duration>
        <voice>1</voice>
        <type>quarter</type>
        <stem default-y="-40">down</stem>
        <lyric default-y="37" name="section" number="1" placement="above">
          <syllabic>single</syllabic>
          <text font-size="10.25" font-style="italic">nhân</text>
        </lyric>
      </note>
      <note default-x="14">
        <chord/>
        <pitch>
          <step>B</step>
          <octave>3</octave>
        </pitch>
        <duration>2</duration>
        <voice>1</voice>
        <type>quarter</type>
        <stem>down</stem>
      </note>
      <note default-x="64">
        <pitch>
          <step>G</step>
          <octave>3</octave>
        </pitch>
        <duration>3</duration>
        <voice>1</voice>
        <type>quarter</type>
        <dot/>
        <stem default-y="-40">down</stem>
        <lyric default-y="37" name="section" number="1" placement="above" relative-x="3">
          <syllabic>single</syllabic>
          <text font-size="10.25" font-style="italic">lành.</text>
        </lyric>
      </note>
      <note default-x="64">
        <chord/>
        <pitch>
          <step>B</step>
          <octave>3</octave>
        </pitch>
        <duration>3</duration>
        <voice>1</voice>
        <type>quarter</type>
        <dot/>
        <stem>down</stem>
      </note>
      <note default-x="107">
        <rest/>
        <duration>1</duration>
        <voice>1</voice>
        <type>eighth</type>
      </note>
      <barline location="right">
        <bar-style>light-light</bar-style>
      </barline>
    </measure>
    <!--=======================================================-->
    <measure number="10" width="308">
      <print new-system="yes">
        <staff-layout number="1">
          <staff-distance>85</staff-distance>
        </staff-layout>
      </print>
      <note default-x="48">
        <pitch>
          <step>C</step>
          <octave>3</octave>
        </pitch>
        <duration>2</duration>
        <voice>1</voice>
        <type>quarter</type>
        <stem default-y="-53">down</stem>
      </note>
      <note default-x="48">
        <chord/>
        <pitch>
          <step>G</step>
          <octave>3</octave>
        </pitch>
        <duration>2</duration>
        <voice>1</voice>
        <type>quarter</type>
        <stem>down</stem>
      </note>
      <note default-x="128">
        <pitch>
          <step>C</step>
          <octave>3</octave>
        </pitch>
        <duration>2</duration>
        <voice>1</voice>
        <type>quarter</type>
        <stem default-y="-53">down</stem>
      </note>
      <note default-x="128">
        <chord/>
        <pitch>
          <step>C</step>
          <octave>4</octave>
        </pitch>
        <duration>2</duration>
        <voice>1</voice>
        <type>quarter</type>
        <stem>down</stem>
      </note>
      <note default-x="208">
        <pitch>
          <step>C</step>
          <octave>3</octave>
        </pitch>
        <duration>1</duration>
        <voice>1</voice>
        <type>eighth</type>
        <stem default-y="-60">down</stem>
      </note>
      <note default-x="208">
        <chord/>
        <pitch>
          <step>C</step>
          <octave>4</octave>
        </pitch>
        <duration>1</duration>
        <voice>1</voice>
        <type>eighth</type>
        <stem>down</stem>
      </note>
      <note default-x="257">
        <pitch>
          <step>C</step>
          <octave>3</octave>
        </pitch>
        <duration>1</duration>
        <voice>1</voice>
        <type>eighth</type>
        <stem default-y="-60">down</stem>
      </note>
      <note default-x="257">
        <chord/>
        <pitch>
          <step>C</step>
          <octave>4</octave>
        </pitch>
        <duration>1</duration>
        <voice>1</voice>
        <type>eighth</type>
        <stem>down</stem>
      </note>
    </measure>
    <!--=======================================================-->
    <measure number="11" width="257">
      <note default-x="14">
        <pitch>
          <step>G</step>
          <octave>3</octave>
        </pitch>
        <duration>1</duration>
        <voice>1</voice>
        <type>eighth</type>
        <stem default-y="-40">down</stem>
      </note>
      <note default-x="14">
        <chord/>
        <pitch>
          <step>B</step>
          <octave>3</octave>
        </pitch>
        <duration>1</duration>
        <voice>1</voice>
        <type>eighth</type>
        <stem>down</stem>
      </note>
      <note default-x="83">
        <pitch>
          <step>G</step>
          <octave>3</octave>
        </pitch>
        <duration>1</duration>
        <voice>1</voice>
        <type>eighth</type>
        <stem default-y="-40">down</stem>
      </note>
      <note default-x="83">
        <chord/>
        <pitch>
          <step>B</step>
          <octave>3</octave>
        </pitch>
        <duration>1</duration>
        <voice>1</voice>
        <type>eighth</type>
        <stem>down</stem>
      </note>
      <note default-x="143">
        <pitch>
          <step>G</step>
          <octave>3</octave>
        </pitch>
        <duration>2</duration>
        <voice>1</voice>
        <type>quarter</type>
        <stem default-y="-40">down</stem>
      </note>
      <note default-x="143">
        <chord/>
        <pitch>
          <step>B</step>
          <octave>3</octave>
        </pitch>
        <duration>2</duration>
        <voice>1</voice>
        <type>quarter</type>
        <stem>down</stem>
      </note>
      <note default-x="199">
        <rest/>
        <duration>2</duration>
        <voice>1</voice>
        <type>quarter</type>
      </note>
    </measure>
    <!--=======================================================-->
    <measure number="12" width="247">
      <note default-x="14">
        <pitch>
          <step>G</step>
          <octave>3</octave>
        </pitch>
        <duration>2</duration>
        <voice>1</voice>
        <type>quarter</type>
        <stem default-y="-40">down</stem>
      </note>
      <note default-x="14">
        <chord/>
        <pitch>
          <step>B</step>
          <octave>3</octave>
        </pitch>
        <duration>2</duration>
        <voice>1</voice>
        <type>quarter</type>
        <stem>down</stem>
      </note>
      <note default-x="75">
        <pitch>
          <step>G</step>
          <octave>3</octave>
        </pitch>
        <duration>2</duration>
        <voice>1</voice>
        <type>quarter</type>
        <stem default-y="-40">down</stem>
      </note>
      <note default-x="75">
        <chord/>
        <pitch>
          <step>D</step>
          <octave>4</octave>
        </pitch>
        <duration>2</duration>
        <voice>1</voice>
        <type>quarter</type>
        <stem>down</stem>
      </note>
      <note default-x="145">
        <pitch>
          <step>G</step>
          <octave>3</octave>
        </pitch>
        <duration>1</duration>
        <voice>1</voice>
        <type>eighth</type>
        <stem default-y="-40">down</stem>
      </note>
      <note default-x="145">
        <chord/>
        <pitch>
          <step>D</step>
          <octave>4</octave>
        </pitch>
        <duration>1</duration>
        <voice>1</voice>
        <type>eighth</type>
        <stem>down</stem>
      </note>
      <note default-x="201">
        <pitch>
          <step>G</step>
          <octave>3</octave>
        </pitch>
        <duration>1</duration>
        <voice>1</voice>
        <type>eighth</type>
        <stem default-y="-40">down</stem>
      </note>
      <note default-x="201">
        <chord/>
        <pitch>
          <step>D</step>
          <octave>4</octave>
        </pitch>
        <duration>1</duration>
        <voice>1</voice>
        <type>eighth</type>
        <stem>down</stem>
      </note>
    </measure>
    <!--=======================================================-->
    <measure number="13" width="210">
      <note default-x="16">
        <pitch>
          <step>C</step>
          <octave>3</octave>
        </pitch>
        <duration>1</duration>
        <voice>1</voice>
        <type>eighth</type>
        <stem default-y="-60">down</stem>
      </note>
      <note default-x="16">
        <chord/>
        <pitch>
          <step>C</step>
          <octave>4</octave>
        </pitch>
        <duration>1</duration>
        <voice>1</voice>
        <type>eighth</type>
        <stem>down</stem>
      </note>
      <note default-x="58">
        <pitch>
          <step>C</step>
          <octave>3</octave>
        </pitch>
        <duration>1</duration>
        <voice>1</voice>
        <type>eighth</type>
        <stem default-y="-60">down</stem>
      </note>
      <note default-x="58">
        <chord/>
        <pitch>
          <step>C</step>
          <octave>4</octave>
        </pitch>
        <duration>1</duration>
        <voice>1</voice>
        <type>eighth</type>
        <stem>down</stem>
      </note>
      <note default-x="100">
        <pitch>
          <step>C</step>
          <octave>3</octave>
        </pitch>
        <duration>2</duration>
        <voice>1</voice>
        <type>quarter</type>
        <stem default-y="-53">down</stem>
      </note>
      <note default-x="100">
        <chord/>
        <pitch>
          <step>C</step>
          <octave>4</octave>
        </pitch>
        <duration>2</duration>
        <voice>1</voice>
        <type>quarter</type>
        <stem>down</stem>
      </note>
      <note default-x="154">
        <rest/>
        <duration>2</duration>
        <voice>1</voice>
        <type>quarter</type>
      </note>
    </measure>
    <!--=======================================================-->
    <measure number="14" width="276">
      <print new-system="yes">
        <staff-layout number="1">
          <staff-distance>120</staff-distance>
        </staff-layout>
      </print>
      <note default-x="51">
        <pitch>
          <step>C</step>
          <octave>3</octave>
        </pitch>
        <duration>2</duration>
        <voice>1</voice>
        <type>quarter</type>
        <stem default-y="-53.5">down</stem>
      </note>
      <note default-x="51">
        <chord/>
        <pitch>
          <step>C</step>
          <octave>4</octave>
        </pitch>
        <duration>2</duration>
        <voice>1</voice>
        <type>quarter</type>
        <stem>down</stem>
      </note>
      <note default-x="120">
        <pitch>
          <step>C</step>
          <octave>3</octave>
        </pitch>
        <duration>2</duration>
        <voice>1</voice>
        <type>quarter</type>
        <stem default-y="-53.5">down</stem>
      </note>
      <note default-x="120">
        <chord/>
        <pitch>
          <step>G</step>
          <octave>3</octave>
        </pitch>
        <duration>2</duration>
        <voice>1</voice>
        <type>quarter</type>
        <stem>down</stem>
      </note>
      <note default-x="189">
        <pitch>
          <step>C</step>
          <octave>3</octave>
        </pitch>
        <duration>1</duration>
        <voice>1</voice>
        <type>eighth</type>
        <stem default-y="-60">down</stem>
      </note>
      <note default-x="189">
        <chord/>
        <pitch>
          <step>G</step>
          <octave>3</octave>
        </pitch>
        <duration>1</duration>
        <voice>1</voice>
        <type>eighth</type>
        <stem>down</stem>
      </note>
      <note default-x="238">
        <pitch>
          <step>C</step>
          <octave>3</octave>
        </pitch>
        <duration>1</duration>
        <voice>1</voice>
        <type>eighth</type>
        <stem default-y="-60">down</stem>
      </note>
      <note default-x="238">
        <chord/>
        <pitch>
          <step>G</step>
          <octave>3</octave>
        </pitch>
        <duration>1</duration>
        <voice>1</voice>
        <type>eighth</type>
        <stem>down</stem>
      </note>
    </measure>
    <!--=======================================================-->
    <measure number="15" width="407">
      <note default-x="26">
        <pitch>
          <step>E</step>
          <octave>3</octave>
        </pitch>
        <duration>1</duration>
        <voice>1</voice>
        <type>eighth</type>
        <stem default-y="-50">down</stem>
      </note>
      <note default-x="26">
        <chord/>
        <pitch>
          <step>G</step>
          <alter>1</alter>
          <octave>3</octave>
        </pitch>
        <duration>1</duration>
        <voice>1</voice>
        <type>eighth</type>
        <accidental>sharp</accidental>
        <stem>down</stem>
      </note>
      <note default-x="90">
        <pitch>
          <step>F</step>
          <octave>3</octave>
        </pitch>
        <duration>1</duration>
        <voice>1</voice>
        <type>eighth</type>
        <stem default-y="-45">down</stem>
      </note>
      <note default-x="90">
        <chord/>
        <pitch>
          <step>A</step>
          <octave>3</octave>
        </pitch>
        <duration>1</duration>
        <voice>1</voice>
        <type>eighth</type>
        <stem>down</stem>
      </note>
      <note default-x="153">
        <pitch>
          <step>F</step>
          <octave>3</octave>
        </pitch>
        <duration>1</duration>
        <voice>1</voice>
        <type>eighth</type>
        <stem default-y="-45">down</stem>
        <notations>
          <fermata default-x="-5" default-y="25" type="upright"/>
        </notations>
      </note>
      <note default-x="153">
        <chord/>
        <pitch>
          <step>C</step>
          <octave>4</octave>
        </pitch>
        <duration>1</duration>
        <voice>1</voice>
        <type>eighth</type>
        <stem>down</stem>
      </note>
      <note default-x="216">
        <rest/>
        <duration>1</duration>
        <voice>1</voice>
        <type>eighth</type>
      </note>
      <note default-x="279">
        <rest/>
        <duration>1</duration>
        <voice>1</voice>
        <type>eighth</type>
      </note>
      <note default-x="343">
        <pitch>
          <step>F</step>
          <octave>3</octave>
        </pitch>
        <duration>1</duration>
        <voice>1</voice>
        <type>eighth</type>
        <stem default-y="-45">down</stem>
        <lyric default-y="37" name="section" number="1" placement="above">
          <syllabic>single</syllabic>
          <text font-size="10.25" font-style="italic">Tình</text>
        </lyric>
      </note>
      <note default-x="343">
        <chord/>
        <pitch>
          <step>C</step>
          <octave>4</octave>
        </pitch>
        <duration>1</duration>
        <voice>1</voice>
        <type>eighth</type>
        <stem>down</stem>
      </note>
    </measure>
    <!--=======================================================-->
    <measure number="16" width="203">
      <note default-x="16">
        <pitch>
          <step>G</step>
          <octave>3</octave>
        </pitch>
        <duration>1</duration>
        <voice>1</voice>
        <type>eighth</type>
        <stem default-y="-40">down</stem>
        <lyric default-y="37" name="section" number="1" placement="above">
          <syllabic>single</syllabic>
          <text font-size="10.25" font-style="italic">yêu</text>
        </lyric>
      </note>
      <note default-x="16">
        <chord/>
        <pitch>
          <step>C</step>
          <octave>4</octave>
        </pitch>
        <duration>1</duration>
        <voice>1</voice>
        <type>eighth</type>
        <stem>down</stem>
      </note>
      <note default-x="52">
        <pitch>
          <step>G</step>
          <octave>3</octave>
        </pitch>
        <duration>1</duration>
        <voice>1</voice>
        <type>eighth</type>
        <stem default-y="-40">down</stem>
        <lyric default-y="37" name="section" number="1" placement="above">
          <syllabic>single</syllabic>
          <text font-size="10.25" font-style="italic">vô</text>
        </lyric>
      </note>
      <note default-x="52">
        <chord/>
        <pitch>
          <step>C</step>
          <octave>4</octave>
        </pitch>
        <duration>1</duration>
        <voice>1</voice>
        <type>eighth</type>
        <stem>down</stem>
      </note>
      <note default-x="87">
        <pitch>
          <step>G</step>
          <octave>3</octave>
        </pitch>
        <duration>2</duration>
        <voice>1</voice>
        <type>quarter</type>
        <stem default-y="-40">down</stem>
        <lyric default-y="37" name="section" number="1" placement="above" relative-x="3">
          <syllabic>single</syllabic>
          <text font-size="10.25" font-style="italic">đối,</text>
        </lyric>
      </note>
      <note default-x="87">
        <chord/>
        <pitch>
          <step>C</step>
          <octave>4</octave>
        </pitch>
        <duration>2</duration>
        <voice>1</voice>
        <type>quarter</type>
        <stem>down</stem>
      </note>
      <note default-x="145">
        <pitch>
          <step>G</step>
          <octave>3</octave>
        </pitch>
        <duration>2</duration>
        <voice>1</voice>
        <type>quarter</type>
        <stem default-y="-40">down</stem>
      </note>
      <note default-x="145">
        <chord/>
        <pitch>
          <step>C</step>
          <octave>4</octave>
        </pitch>
        <duration>2</duration>
        <voice>1</voice>
        <type>quarter</type>
        <stem>down</stem>
      </note>
    </measure>
    <!--=======================================================-->
    <measure number="17" width="135">
      <note default-x="14">
        <pitch>
          <step>G</step>
          <octave>3</octave>
        </pitch>
        <duration>2</duration>
        <voice>1</voice>
        <type>quarter</type>
        <stem default-y="-40">down</stem>
        <notations>
          <fermata default-x="-6" default-y="20" type="upright"/>
        </notations>
      </note>
      <note default-x="14">
        <chord/>
        <pitch>
          <step>B</step>
          <octave>3</octave>
        </pitch>
        <duration>2</duration>
        <voice>1</voice>
        <type>quarter</type>
        <stem>down</stem>
      </note>
      <note default-x="70">
        <pitch>
          <step>C</step>
          <octave>3</octave>
        </pitch>
        <duration>2</duration>
        <voice>1</voice>
        <type>quarter</type>
        <stem default-y="-53.5">down</stem>
      </note>
      <note default-x="70">
        <chord/>
        <pitch>
          <step>C</step>
          <octave>4</octave>
        </pitch>
        <duration>2</duration>
        <voice>1</voice>
        <type>quarter</type>
        <stem>down</stem>
      </note>
      <barline location="right">
        <bar-style>light-heavy</bar-style>
      </barline>
    </measure>
  </part>
  <!--=========================================================-->
</score-partwise>
