<?xml version="1.0" encoding="UTF-8" standalone="no"?>
<!DOCTYPE score-partwise PUBLIC "-//Recordare//DTD MusicXML 3.1 Partwise//EN" "http://www.musicxml.org/dtds/partwise.dtd">
<score-partwise version="3.1">
  <movement-title>SỐNG TRONG LINH QUANG TÁI LÂM</movement-title>
  <identification>
    <creator type="composer">Vô danh.</creator>
    <creator type="lyricist">E. May Grimes.</creator>
    <rights>©</rights>
    <encoding>
      <software>Finale v26.3 for Windows</software>
      <encoding-date>2021-09-07</encoding-date>
      <supports attribute="new-system" element="print" type="yes" value="yes"/>
      <supports attribute="new-page" element="print" type="yes" value="yes"/>
      <supports element="accidental" type="yes"/>
      <supports element="beam" type="yes"/>
      <supports element="stem" type="yes"/>
    </encoding>
  </identification>
  <defaults>
    <scaling>
      <millimeters>7.2319</millimeters>
      <tenths>40</tenths>
    </scaling>
    <page-layout>
      <page-height>1643</page-height>
      <page-width>1161</page-width>
      <page-margins type="both">
        <left-margin>70</left-margin>
        <right-margin>70</right-margin>
        <top-margin>70</top-margin>
        <bottom-margin>70</bottom-margin>
      </page-margins>
    </page-layout>
    <system-layout>
      <system-margins>
        <left-margin>0</left-margin>
        <right-margin>0</right-margin>
      </system-margins>
      <system-distance>133</system-distance>
      <top-system-distance>94</top-system-distance>
    </system-layout>
    <staff-layout>
      <staff-distance>93</staff-distance>
    </staff-layout>
    <appearance>
      <line-width type="stem">1.1784</line-width>
      <line-width type="beam">5</line-width>
      <line-width type="staff">1.1784</line-width>
      <line-width type="light barline">1.1784</line-width>
      <line-width type="heavy barline">5</line-width>
      <line-width type="leger">1.1784</line-width>
      <line-width type="ending">1.1784</line-width>
      <line-width type="wedge">0.7487</line-width>
      <line-width type="enclosure">1.1784</line-width>
      <line-width type="tuplet bracket">0.7487</line-width>
      <note-size type="grace">60</note-size>
      <note-size type="cue">60</note-size>
      <distance type="hyphen">120</distance>
      <distance type="beam">7.5</distance>
    </appearance>
    <music-font font-family="Maestro,engraved" font-size="20.5"/>
    <word-font font-family="Myriad Pro" font-size="10.25"/>
    <lyric-font font-family="Myriad Pro" font-size="12"/>
  </defaults>
  <credit page="1">
    <credit-type>title</credit-type>
    <credit-words default-x="581" default-y="1573" font-size="22" font-weight="bold" justify="center" valign="top">SỐNG TRONG LINH QUANG TÁI LÂM</credit-words>
  </credit>
  <credit page="1">
    <credit-type>composer</credit-type>
    <credit-words default-x="1091" default-y="514" font-size="12" justify="right" valign="bottom">Vô danh.</credit-words>
  </credit>
  <credit page="1">
    <credit-type>lyricist</credit-type>
    <credit-words default-x="70" default-y="514" font-size="12" valign="bottom">Dịch lời của E. May Grimes.</credit-words>
  </credit>
  <credit page="1">
    <credit-words default-x="70" default-y="1573" font-size="22" font-weight="bold" valign="top">131</credit-words>
  </credit>
  <part-list>
    <part-group number="1" type="start">
      <group-symbol default-x="-5">bracket</group-symbol>
      <group-barline>no</group-barline>
    </part-group>
    <score-part id="P1">
      <part-name print-object="no">MusicXML Part</part-name>
      <score-instrument id="P1-I1">
        <instrument-name>SmartMusic SoftSynth</instrument-name>
        <instrument-sound>voice.soprano</instrument-sound>
        <virtual-instrument/>
      </score-instrument>
      <midi-device>SmartMusic SoftSynth</midi-device>
      <midi-instrument id="P1-I1">
        <midi-channel>1</midi-channel>
        <midi-bank>15489</midi-bank>
        <midi-program>22</midi-program>
        <volume>80</volume>
        <pan>-70</pan>
      </midi-instrument>
    </score-part>
    <score-part id="P2">
      <part-name print-object="no">MusicXML Part</part-name>
      <score-instrument id="P2-I2">
        <instrument-name>SmartMusic SoftSynth</instrument-name>
        <instrument-sound>voice.bass</instrument-sound>
        <virtual-instrument/>
      </score-instrument>
      <midi-device>SmartMusic SoftSynth</midi-device>
      <midi-instrument id="P2-I2">
        <midi-channel>2</midi-channel>
        <midi-bank>15489</midi-bank>
        <midi-program>22</midi-program>
        <volume>80</volume>
        <pan>80</pan>
      </midi-instrument>
    </score-part>
    <part-group number="1" type="stop"/>
  </part-list>
  <!--=========================================================-->
  <part id="P1">
    <?SmartMusic maxVoice=1?>
    <measure number="1" width="351">
      <print>
        <system-layout>
          <top-system-distance>156</top-system-distance>
        </system-layout>
        <measure-numbering>none</measure-numbering>
      </print>
      <attributes>
        <divisions>2</divisions>
        <key>
          <fifths>2</fifths>
          <mode>major</mode>
        </key>
        <time symbol="common">
          <beats>4</beats>
          <beat-type>4</beat-type>
        </time>
        <clef>
          <sign>G</sign>
          <line>2</line>
        </clef>
      </attributes>
      <sound tempo="104"/>
      <harmony default-y="40" font-family="VNI-Helve-Condense" font-size="13.7">
        <root>
          <root-step>D</root-step>
        </root>
        <kind halign="center" text="">major</kind>
      </harmony>
      <note default-x="122">
        <pitch>
          <step>A</step>
          <octave>3</octave>
        </pitch>
        <duration>3</duration>
        <voice>1</voice>
        <type>quarter</type>
        <dot/>
        <stem default-y="-10">up</stem>
        <lyric default-y="-95" number="1" relative-x="-4">
          <syllabic>single</syllabic>
          <text>1.Lạy</text>
        </lyric>
        <lyric default-y="-124" number="2" relative-x="-4">
          <syllabic>single</syllabic>
          <text>2.Lòng</text>
        </lyric>
        <lyric default-y="-152" number="3" relative-x="-4">
          <syllabic>single</syllabic>
          <text>3.Vậy,</text>
        </lyric>
        <lyric default-y="-181" number="4" relative-x="-4">
          <syllabic>single</syllabic>
          <text>4.Hằng</text>
        </lyric>
        <lyric default-y="-209" number="5" relative-x="-4">
          <syllabic>single</syllabic>
          <text>5.Dọc</text>
        </lyric>
        <lyric default-y="-237" number="6" relative-x="-4">
          <syllabic>single</syllabic>
          <text>6.Christ</text>
        </lyric>
        <lyric default-y="-266" number="7" relative-x="-4">
          <syllabic>single</syllabic>
          <text>7.Kìa,</text>
        </lyric>
      </note>
      <note default-x="122">
        <chord/>
        <pitch>
          <step>D</step>
          <octave>4</octave>
        </pitch>
        <duration>3</duration>
        <voice>1</voice>
        <type>quarter</type>
        <dot/>
        <stem>up</stem>
      </note>
      <note default-x="187">
        <pitch>
          <step>A</step>
          <octave>3</octave>
        </pitch>
        <duration>1</duration>
        <voice>1</voice>
        <type>eighth</type>
        <stem default-y="-10">up</stem>
        <lyric default-y="-95" number="1">
          <syllabic>begin</syllabic>
          <text>Jê</text>
        </lyric>
        <lyric default-y="-124" number="2">
          <syllabic>single</syllabic>
          <text>nầy</text>
        </lyric>
        <lyric default-y="-152" number="3">
          <syllabic>single</syllabic>
          <text>từ</text>
        </lyric>
        <lyric default-y="-181" number="4">
          <syllabic>single</syllabic>
          <text>làm</text>
        </lyric>
        <lyric default-y="-209" number="5">
          <syllabic>single</syllabic>
          <text>đàng</text>
        </lyric>
        <lyric default-y="-237" number="6">
          <syllabic>single</syllabic>
          <text>gần</text>
        </lyric>
        <lyric default-y="-266" number="7">
          <syllabic>single</syllabic>
          <text>kìa</text>
        </lyric>
      </note>
      <note default-x="187">
        <chord/>
        <pitch>
          <step>D</step>
          <octave>4</octave>
        </pitch>
        <duration>1</duration>
        <voice>1</voice>
        <type>eighth</type>
        <stem>up</stem>
      </note>
      <harmony default-y="40" font-family="VNI-Helve-Condense" font-size="13.7">
        <root>
          <root-step>G</root-step>
        </root>
        <kind halign="center" text="">major</kind>
      </harmony>
      <note default-x="243">
        <pitch>
          <step>D</step>
          <octave>4</octave>
        </pitch>
        <duration>2</duration>
        <voice>1</voice>
        <type>quarter</type>
        <stem default-y="5">up</stem>
        <lyric default-y="-95" number="1">
          <syllabic>end</syllabic>
          <text>sus</text>
        </lyric>
        <lyric default-y="-124" number="2">
          <syllabic>single</syllabic>
          <text>có</text>
        </lyric>
        <lyric default-y="-152" number="3">
          <syllabic>single</syllabic>
          <text>hiển</text>
        </lyric>
        <lyric default-y="-181" number="4" relative-x="3">
          <syllabic>single</syllabic>
          <text>chứng</text>
        </lyric>
        <lyric default-y="-209" number="5">
          <syllabic>single</syllabic>
          <text>đến</text>
        </lyric>
        <lyric default-y="-237" number="6">
          <syllabic>single</syllabic>
          <text>tái</text>
        </lyric>
        <lyric default-y="-266" number="7">
          <syllabic>single</syllabic>
          <text>ánh</text>
        </lyric>
      </note>
      <note default-x="243">
        <chord/>
        <pitch>
          <step>G</step>
          <octave>4</octave>
        </pitch>
        <duration>2</duration>
        <voice>1</voice>
        <type>quarter</type>
        <stem>up</stem>
      </note>
      <note default-x="306">
        <pitch>
          <step>D</step>
          <octave>4</octave>
        </pitch>
        <duration>2</duration>
        <voice>1</voice>
        <type>quarter</type>
        <stem default-y="0">up</stem>
        <lyric default-y="-95" number="1">
          <syllabic>single</syllabic>
          <text>Christ,</text>
        </lyric>
        <lyric default-y="-124" number="2">
          <syllabic>single</syllabic>
          <text>Chúa</text>
        </lyric>
        <lyric default-y="-152" number="3">
          <syllabic>single</syllabic>
          <text>vinh</text>
        </lyric>
        <lyric default-y="-181" number="4">
          <syllabic>single</syllabic>
          <text>linh</text>
        </lyric>
        <lyric default-y="-209" number="5">
          <syllabic>single</syllabic>
          <text>thiên</text>
        </lyric>
        <lyric default-y="-237" number="6">
          <syllabic>single</syllabic>
          <text>lâm!</text>
        </lyric>
        <lyric default-y="-266" number="7">
          <syllabic>single</syllabic>
          <text>tái</text>
        </lyric>
      </note>
      <note default-x="306">
        <chord/>
        <pitch>
          <step>F</step>
          <alter>1</alter>
          <octave>4</octave>
        </pitch>
        <duration>2</duration>
        <voice>1</voice>
        <type>quarter</type>
        <stem>up</stem>
      </note>
    </measure>
    <!--=======================================================-->
    <measure number="2" width="237">
      <harmony default-y="40" font-family="VNI-Helve-Condense" font-size="13.7">
        <root>
          <root-step>A</root-step>
        </root>
        <kind halign="center" text="7">dominant</kind>
      </harmony>
      <note default-x="16">
        <pitch>
          <step>C</step>
          <alter>1</alter>
          <octave>4</octave>
        </pitch>
        <duration>3</duration>
        <voice>1</voice>
        <type>quarter</type>
        <dot/>
        <stem default-y="-5">up</stem>
        <lyric default-y="-95" number="1">
          <syllabic>single</syllabic>
          <text>tôi</text>
        </lyric>
        <lyric default-y="-124" number="2">
          <syllabic>single</syllabic>
          <text>cai</text>
        </lyric>
        <lyric default-y="-152" number="3">
          <syllabic>single</syllabic>
          <text>qua</text>
        </lyric>
        <lyric default-y="-181" number="4" relative-x="9">
          <syllabic>single</syllabic>
          <text>quang</text>
        </lyric>
        <lyric default-y="-209" number="5">
          <syllabic>single</syllabic>
          <text>cung</text>
        </lyric>
        <lyric default-y="-237" number="6" relative-x="6">
          <syllabic>single</syllabic>
          <text>Christ</text>
        </lyric>
        <lyric default-y="-266" number="7">
          <syllabic>single</syllabic>
          <text>lâm</text>
        </lyric>
      </note>
      <note default-x="16">
        <chord/>
        <pitch>
          <step>E</step>
          <octave>4</octave>
        </pitch>
        <duration>3</duration>
        <voice>1</voice>
        <type>quarter</type>
        <dot/>
        <stem>up</stem>
      </note>
      <note default-x="84">
        <pitch>
          <step>C</step>
          <alter>1</alter>
          <octave>4</octave>
        </pitch>
        <duration>1</duration>
        <voice>1</voice>
        <type>eighth</type>
        <stem default-y="0">up</stem>
        <lyric default-y="-95" number="1" relative-x="-3">
          <syllabic>single</syllabic>
          <text>sống</text>
        </lyric>
        <lyric default-y="-124" number="2" relative-x="-3">
          <syllabic>single</syllabic>
          <text>quản</text>
        </lyric>
        <lyric default-y="-152" number="3">
          <syllabic>single</syllabic>
          <text>hiển</text>
        </lyric>
        <lyric default-y="-181" number="4">
          <syllabic>single</syllabic>
          <text>tái</text>
        </lyric>
        <lyric default-y="-209" number="5">
          <syllabic>single</syllabic>
          <text>hát</text>
        </lyric>
        <lyric default-y="-237" number="6">
          <syllabic>single</syllabic>
          <text>sắp</text>
        </lyric>
        <lyric default-y="-266" number="7" relative-x="-7">
          <syllabic>single</syllabic>
          <text>chiếu</text>
        </lyric>
      </note>
      <note default-x="84">
        <chord/>
        <pitch>
          <step>F</step>
          <alter>1</alter>
          <octave>4</octave>
        </pitch>
        <duration>1</duration>
        <voice>1</voice>
        <type>eighth</type>
        <stem>up</stem>
      </note>
      <note default-x="142">
        <pitch>
          <step>C</step>
          <alter>1</alter>
          <octave>4</octave>
        </pitch>
        <duration>2</duration>
        <voice>1</voice>
        <type>quarter</type>
        <stem default-y="-5">up</stem>
        <lyric default-y="-95" number="1" relative-x="-3">
          <syllabic>single</syllabic>
          <text>đêm</text>
        </lyric>
        <lyric default-y="-124" number="2" relative-x="-3">
          <syllabic>single</syllabic>
          <text>đêm</text>
        </lyric>
        <lyric default-y="-152" number="3">
          <syllabic>single</syllabic>
          <text>vinh</text>
        </lyric>
        <lyric default-y="-181" number="4">
          <syllabic>single</syllabic>
          <text>lâm</text>
        </lyric>
        <lyric default-y="-209" number="5">
          <syllabic>single</syllabic>
          <text>vui</text>
        </lyric>
        <lyric default-y="-237" number="6">
          <syllabic>single</syllabic>
          <text>lai</text>
        </lyric>
        <lyric default-y="-266" number="7">
          <syllabic>single</syllabic>
          <text>muôn</text>
        </lyric>
      </note>
      <note default-x="142">
        <chord/>
        <pitch>
          <step>E</step>
          <octave>4</octave>
        </pitch>
        <duration>2</duration>
        <voice>1</voice>
        <type>quarter</type>
        <stem>up</stem>
      </note>
      <note default-x="197">
        <pitch>
          <step>B</step>
          <octave>3</octave>
        </pitch>
        <duration>2</duration>
        <voice>1</voice>
        <type>quarter</type>
        <stem default-y="-10">up</stem>
        <lyric default-y="-95" number="1">
          <syllabic>single</syllabic>
          <text>ngày</text>
        </lyric>
        <lyric default-y="-124" number="2">
          <syllabic>single</syllabic>
          <text>ngày,</text>
        </lyric>
        <lyric default-y="-152" number="3">
          <syllabic>single</syllabic>
          <text>hoài,</text>
        </lyric>
        <lyric default-y="-181" number="4">
          <syllabic>single</syllabic>
          <text>Ngài</text>
        </lyric>
        <lyric default-y="-209" number="5">
          <syllabic>single</syllabic>
          <text>tình,</text>
        </lyric>
        <lyric default-y="-237" number="6">
          <syllabic>single</syllabic>
          <text>hồi!</text>
        </lyric>
        <lyric default-y="-266" number="7">
          <syllabic>single</syllabic>
          <text>loài,</text>
        </lyric>
      </note>
      <note default-x="197">
        <chord/>
        <pitch>
          <step>D</step>
          <octave>4</octave>
        </pitch>
        <duration>2</duration>
        <voice>1</voice>
        <type>quarter</type>
        <stem>up</stem>
      </note>
    </measure>
    <!--=======================================================-->
    <measure number="3" width="246">
      <harmony default-y="40" font-family="VNI-Helve-Condense" font-size="13.7">
        <root>
          <root-step>G</root-step>
        </root>
        <kind halign="center" text="">major</kind>
      </harmony>
      <note default-x="14">
        <pitch>
          <step>D</step>
          <octave>4</octave>
        </pitch>
        <duration>3</duration>
        <voice>1</voice>
        <type>quarter</type>
        <dot/>
        <stem default-y="15">up</stem>
        <lyric default-y="-95" number="1" relative-x="9">
          <syllabic>single</syllabic>
          <text>Trong</text>
        </lyric>
        <lyric default-y="-124" number="2" relative-x="5">
          <syllabic>single</syllabic>
          <text>Phân</text>
        </lyric>
        <lyric default-y="-152" number="3">
          <syllabic>single</syllabic>
          <text>Vui</text>
        </lyric>
        <lyric default-y="-181" number="4">
          <syllabic>single</syllabic>
          <text>Cho</text>
        </lyric>
        <lyric default-y="-209" number="5">
          <syllabic>single</syllabic>
          <text>Vui</text>
        </lyric>
        <lyric default-y="-237" number="6">
          <syllabic>single</syllabic>
          <text>Tân</text>
        </lyric>
        <lyric default-y="-266" number="7">
          <syllabic>single</syllabic>
          <text>Xưa</text>
        </lyric>
      </note>
      <note default-x="14">
        <chord/>
        <pitch>
          <step>B</step>
          <octave>4</octave>
        </pitch>
        <duration>3</duration>
        <voice>1</voice>
        <type>quarter</type>
        <dot/>
        <stem>up</stem>
      </note>
      <note default-x="79">
        <pitch>
          <step>G</step>
          <octave>4</octave>
        </pitch>
        <duration>1</duration>
        <voice>1</voice>
        <type>eighth</type>
        <stem default-y="15">up</stem>
        <lyric default-y="-95" number="1">
          <syllabic>single</syllabic>
          <text>linh</text>
        </lyric>
        <lyric default-y="-124" number="2">
          <syllabic>single</syllabic>
          <text>ly</text>
        </lyric>
        <lyric default-y="-152" number="3">
          <syllabic>single</syllabic>
          <text>trong</text>
        </lyric>
        <lyric default-y="-181" number="4">
          <syllabic>single</syllabic>
          <text>nhân</text>
        </lyric>
        <lyric default-y="-209" number="5">
          <syllabic>single</syllabic>
          <text>trong</text>
        </lyric>
        <lyric default-y="-237" number="6">
          <syllabic>single</syllabic>
          <text>Lang</text>
        </lyric>
        <lyric default-y="-266" number="7" relative-x="3">
          <syllabic>single</syllabic>
          <text>kia</text>
        </lyric>
      </note>
      <note default-x="79">
        <chord/>
        <pitch>
          <step>B</step>
          <octave>4</octave>
        </pitch>
        <duration>1</duration>
        <voice>1</voice>
        <type>eighth</type>
        <stem>up</stem>
      </note>
      <harmony default-y="40" font-family="VNI-Helve-Condense" font-size="13.7">
        <root>
          <root-step>E</root-step>
        </root>
        <kind halign="center" text="7">dominant</kind>
      </harmony>
      <note default-x="139">
        <pitch>
          <step>G</step>
          <alter>1</alter>
          <octave>4</octave>
        </pitch>
        <duration>2</duration>
        <voice>1</voice>
        <type>quarter</type>
        <accidental>sharp</accidental>
        <stem default-y="15">up</stem>
        <lyric default-y="-95" number="1">
          <syllabic>single</syllabic>
          <text>quang</text>
        </lyric>
        <lyric default-y="-124" number="2">
          <syllabic>single</syllabic>
          <text>bao</text>
        </lyric>
        <lyric default-y="-152" number="3">
          <syllabic>single</syllabic>
          <text>linh</text>
        </lyric>
        <lyric default-y="-181" number="4">
          <syllabic>single</syllabic>
          <text>gian</text>
        </lyric>
        <lyric default-y="-209" number="5">
          <syllabic>single</syllabic>
          <text>vinh</text>
        </lyric>
        <lyric default-y="-237" number="6">
          <syllabic>single</syllabic>
          <text>kia</text>
        </lyric>
        <lyric default-y="-266" number="7">
          <syllabic>single</syllabic>
          <text>tin</text>
        </lyric>
      </note>
      <note default-x="139">
        <chord/>
        <pitch>
          <step>B</step>
          <octave>4</octave>
        </pitch>
        <duration>2</duration>
        <voice>1</voice>
        <type>quarter</type>
        <stem>up</stem>
      </note>
      <note default-x="203">
        <pitch>
          <step>G</step>
          <alter>1</alter>
          <octave>4</octave>
        </pitch>
        <duration>2</duration>
        <voice>1</voice>
        <type>quarter</type>
        <stem default-y="15">up</stem>
        <lyric default-y="-95" number="1" relative-x="4">
          <syllabic>single</syllabic>
          <text>Chân</text>
        </lyric>
        <lyric default-y="-124" number="2">
          <syllabic>single</syllabic>
          <text>vui</text>
        </lyric>
        <lyric default-y="-152" number="3">
          <syllabic>single</syllabic>
          <text>quang</text>
        </lyric>
        <lyric default-y="-181" number="4">
          <syllabic>single</syllabic>
          <text>tăm</text>
        </lyric>
        <lyric default-y="-209" number="5">
          <syllabic>single</syllabic>
          <text>quang</text>
        </lyric>
        <lyric default-y="-237" number="6">
          <syllabic>single</syllabic>
          <text>ta</text>
        </lyric>
        <lyric default-y="-266" number="7">
          <syllabic>single</syllabic>
          <text>nay</text>
        </lyric>
      </note>
      <note default-x="203">
        <chord/>
        <pitch>
          <step>B</step>
          <octave>4</octave>
        </pitch>
        <duration>2</duration>
        <voice>1</voice>
        <type>quarter</type>
        <stem>up</stem>
      </note>
    </measure>
    <!--=======================================================-->
    <measure number="4" width="187">
      <note default-x="26">
        <pitch>
          <step>G</step>
          <alter>1</alter>
          <octave>4</octave>
        </pitch>
        <duration>2</duration>
        <voice>1</voice>
        <type>quarter</type>
        <accidental>sharp</accidental>
        <stem default-y="14">up</stem>
        <lyric default-y="-95" number="1">
          <syllabic>single</syllabic>
          <text>Chúa</text>
        </lyric>
        <lyric default-y="-124" number="2">
          <syllabic>single</syllabic>
          <text>thú</text>
        </lyric>
        <lyric default-y="-152" number="3">
          <syllabic>single</syllabic>
          <text>Chúa</text>
        </lyric>
        <lyric default-y="-181" number="4">
          <syllabic>single</syllabic>
          <text>tối</text>
        </lyric>
        <lyric default-y="-209" number="5">
          <syllabic>single</syllabic>
          <text>Chúa</text>
        </lyric>
        <lyric default-y="-237" number="6">
          <syllabic>single</syllabic>
          <text>đi</text>
        </lyric>
        <lyric default-y="-266" number="7">
          <syllabic>single</syllabic>
          <text>mắt</text>
        </lyric>
      </note>
      <note default-x="26">
        <chord/>
        <pitch>
          <step>C</step>
          <alter>1</alter>
          <octave>5</octave>
        </pitch>
        <duration>2</duration>
        <voice>1</voice>
        <type>quarter</type>
        <stem>up</stem>
      </note>
      <note default-x="83">
        <pitch>
          <step>G</step>
          <alter>1</alter>
          <octave>4</octave>
        </pitch>
        <duration>2</duration>
        <voice>1</voice>
        <type>quarter</type>
        <stem default-y="18.5">up</stem>
        <lyric default-y="-95" number="1">
          <syllabic>single</syllabic>
          <text>tái</text>
        </lyric>
        <lyric default-y="-124" number="2">
          <syllabic>single</syllabic>
          <text>thế</text>
        </lyric>
        <lyric default-y="-152" number="3">
          <syllabic>single</syllabic>
          <text>tái</text>
        </lyric>
        <lyric default-y="-181" number="4">
          <syllabic>single</syllabic>
          <text>tử</text>
        </lyric>
        <lyric default-y="-209" number="5">
          <syllabic>single</syllabic>
          <text>tái</text>
        </lyric>
        <lyric default-y="-237" number="6">
          <syllabic>single</syllabic>
          <text>đón</text>
        </lyric>
        <lyric default-y="-266" number="7">
          <syllabic>single</syllabic>
          <text>thấy</text>
        </lyric>
      </note>
      <note default-x="83">
        <chord/>
        <pitch>
          <step>D</step>
          <octave>5</octave>
        </pitch>
        <duration>2</duration>
        <voice>1</voice>
        <type>quarter</type>
        <stem>up</stem>
      </note>
      <harmony default-y="40" font-family="VNI-Helve-Condense" font-size="13.7">
        <root>
          <root-step>A</root-step>
        </root>
        <kind halign="center" text="">major</kind>
      </harmony>
      <note default-x="139">
        <pitch>
          <step>A</step>
          <octave>4</octave>
        </pitch>
        <duration>4</duration>
        <voice>1</voice>
        <type>half</type>
        <stem default-y="-53">down</stem>
        <lyric default-y="-95" number="1">
          <syllabic>single</syllabic>
          <text>lâm,</text>
        </lyric>
        <lyric default-y="-124" number="2">
          <syllabic>single</syllabic>
          <text>gian,</text>
        </lyric>
        <lyric default-y="-152" number="3">
          <syllabic>single</syllabic>
          <text>lai,</text>
        </lyric>
        <lyric default-y="-181" number="4">
          <syllabic>single</syllabic>
          <text>vong;</text>
        </lyric>
        <lyric default-y="-209" number="5">
          <syllabic>single</syllabic>
          <text>lai,</text>
        </lyric>
        <lyric default-y="-237" number="6">
          <syllabic>single</syllabic>
          <text>mau!</text>
        </lyric>
        <lyric default-y="-266" number="7">
          <syllabic>single</syllabic>
          <text>đây,</text>
        </lyric>
      </note>
      <note default-x="139">
        <chord/>
        <pitch>
          <step>C</step>
          <alter>1</alter>
          <octave>5</octave>
        </pitch>
        <duration>4</duration>
        <voice>1</voice>
        <type>half</type>
        <stem>down</stem>
      </note>
    </measure>
    <!--=======================================================-->
    <measure number="5" width="316">
      <print new-system="yes">
        <system-layout>
          <system-distance>127</system-distance>
        </system-layout>
      </print>
      <harmony default-y="40" font-family="VNI-Helve-Condense" font-size="13.7">
        <root>
          <root-step>D</root-step>
        </root>
        <kind halign="center" text="">major</kind>
        <bass>
          <bass-step>F</bass-step>
          <bass-alter>1</bass-alter>
        </bass>
      </harmony>
      <note default-x="78">
        <pitch>
          <step>A</step>
          <octave>4</octave>
        </pitch>
        <duration>3</duration>
        <voice>1</voice>
        <type>quarter</type>
        <dot/>
        <stem default-y="18.5">up</stem>
        <lyric default-y="-95" number="1">
          <syllabic>single</syllabic>
          <text>Đón</text>
        </lyric>
        <lyric default-y="-124" number="2">
          <syllabic>single</syllabic>
          <text>Mắt</text>
        </lyric>
        <lyric default-y="-152" number="3">
          <syllabic>single</syllabic>
          <text>Bước</text>
        </lyric>
        <lyric default-y="-181" number="4">
          <syllabic>single</syllabic>
          <text>Khẩu</text>
        </lyric>
        <lyric default-y="-209" number="5">
          <syllabic>single</syllabic>
          <text>Bước</text>
        </lyric>
        <lyric default-y="-237" number="6">
          <syllabic>single</syllabic>
          <text>Khẩu</text>
        </lyric>
        <lyric default-y="-266" number="7">
          <syllabic>single</syllabic>
          <text>Mắt</text>
        </lyric>
      </note>
      <note default-x="78">
        <chord/>
        <pitch>
          <step>D</step>
          <octave>5</octave>
        </pitch>
        <duration>3</duration>
        <voice>1</voice>
        <type>quarter</type>
        <dot/>
        <stem>up</stem>
      </note>
      <note default-x="142">
        <pitch>
          <step>A</step>
          <octave>4</octave>
        </pitch>
        <duration>1</duration>
        <voice>1</voice>
        <type>eighth</type>
        <stem>double</stem>
        <lyric default-y="-95" number="1">
          <syllabic>single</syllabic>
          <text>chờ</text>
        </lyric>
        <lyric default-y="-124" number="2">
          <syllabic>single</syllabic>
          <text>lòa</text>
        </lyric>
        <lyric default-y="-152" number="3">
          <syllabic>single</syllabic>
          <text>đường</text>
        </lyric>
        <lyric default-y="-181" number="4">
          <syllabic>single</syllabic>
          <text>hiệu</text>
        </lyric>
        <lyric default-y="-209" number="5">
          <syllabic>single</syllabic>
          <text>nhẹ</text>
        </lyric>
        <lyric default-y="-237" number="6">
          <syllabic>single</syllabic>
          <text>hiệu</text>
        </lyric>
        <lyric default-y="-266" number="7">
          <syllabic>single</syllabic>
          <text>nhìn</text>
        </lyric>
      </note>
      <harmony default-y="40" font-family="VNI-Helve-Condense" font-size="13.7">
        <root>
          <root-step>G</root-step>
        </root>
        <kind halign="center" text="">major</kind>
      </harmony>
      <note default-x="211">
        <pitch>
          <step>G</step>
          <octave>4</octave>
        </pitch>
        <duration>2</duration>
        <voice>1</voice>
        <type>quarter</type>
        <stem default-y="13">up</stem>
        <lyric default-y="-95" number="1">
          <syllabic>single</syllabic>
          <text>thức</text>
        </lyric>
        <lyric default-y="-124" number="2">
          <syllabic>single</syllabic>
          <text>bởi</text>
        </lyric>
        <lyric default-y="-152" number="3">
          <syllabic>single</syllabic>
          <text>tiến</text>
        </lyric>
        <lyric default-y="-181" number="4">
          <syllabic>single</syllabic>
          <text>thánh</text>
        </lyric>
        <lyric default-y="-209" number="5">
          <syllabic>single</syllabic>
          <text>giống</text>
        </lyric>
        <lyric default-y="-237" number="6">
          <syllabic>single</syllabic>
          <text>ấy</text>
        </lyric>
        <lyric default-y="-266" number="7">
          <syllabic>single</syllabic>
          <text>mắt,</text>
        </lyric>
      </note>
      <note default-x="211">
        <chord/>
        <pitch>
          <step>C</step>
          <alter>1</alter>
          <octave>5</octave>
        </pitch>
        <duration>2</duration>
        <voice>1</voice>
        <type>quarter</type>
        <stem>up</stem>
      </note>
      <note default-x="272">
        <pitch>
          <step>G</step>
          <octave>4</octave>
        </pitch>
        <duration>2</duration>
        <voice>1</voice>
        <type>quarter</type>
        <stem default-y="15">up</stem>
        <lyric default-y="-95" number="1">
          <syllabic>single</syllabic>
          <text>canh,</text>
        </lyric>
        <lyric default-y="-124" number="2">
          <syllabic>single</syllabic>
          <text>vinh</text>
        </lyric>
        <lyric default-y="-152" number="3">
          <syllabic>single</syllabic>
          <text>lên</text>
        </lyric>
        <lyric default-y="-181" number="4">
          <syllabic>single</syllabic>
          <text>đây</text>
        </lyric>
        <lyric default-y="-209" number="5">
          <syllabic>single</syllabic>
          <text>như</text>
        </lyric>
        <lyric default-y="-237" number="6">
          <syllabic>single</syllabic>
          <text>nên</text>
        </lyric>
        <lyric default-y="-266" number="7">
          <syllabic>single</syllabic>
          <text>tôi</text>
        </lyric>
      </note>
      <note default-x="272">
        <chord/>
        <pitch>
          <step>B</step>
          <octave>4</octave>
        </pitch>
        <duration>2</duration>
        <voice>1</voice>
        <type>quarter</type>
        <stem>up</stem>
      </note>
    </measure>
    <!--=======================================================-->
    <measure number="6" width="256">
      <harmony default-y="40" font-family="VNI-Helve-Condense" font-size="13.7">
        <root>
          <root-step>E</root-step>
        </root>
        <kind halign="center" text="7">dominant</kind>
      </harmony>
      <note default-x="26">
        <pitch>
          <step>G</step>
          <alter>1</alter>
          <octave>4</octave>
        </pitch>
        <duration>3</duration>
        <voice>1</voice>
        <type>quarter</type>
        <dot/>
        <accidental>sharp</accidental>
        <stem default-y="15">up</stem>
        <lyric default-y="-95" number="1">
          <syllabic>single</syllabic>
          <text>công</text>
        </lyric>
        <lyric default-y="-124" number="2">
          <syllabic>single</syllabic>
          <text>quang</text>
        </lyric>
        <lyric default-y="-152" number="3">
          <syllabic>single</syllabic>
          <text>thiên</text>
        </lyric>
        <lyric default-y="-181" number="4">
          <syllabic>single</syllabic>
          <text>ghi</text>
        </lyric>
        <lyric default-y="-209" number="5">
          <syllabic>single</syllabic>
          <text>thâu</text>
        </lyric>
        <lyric default-y="-237" number="6">
          <syllabic>single</syllabic>
          <text>tuyên</text>
        </lyric>
        <lyric default-y="-266" number="7">
          <syllabic>single</syllabic>
          <text>vui</text>
        </lyric>
      </note>
      <note default-x="26">
        <chord/>
        <pitch>
          <step>B</step>
          <octave>4</octave>
        </pitch>
        <duration>3</duration>
        <voice>1</voice>
        <type>quarter</type>
        <dot/>
        <stem>up</stem>
      </note>
      <note default-x="93">
        <pitch>
          <step>G</step>
          <alter>1</alter>
          <octave>4</octave>
        </pitch>
        <duration>1</duration>
        <voice>1</voice>
        <type>eighth</type>
        <stem default-y="20">up</stem>
        <lyric default-y="-95" number="1">
          <syllabic>single</syllabic>
          <text>tác</text>
        </lyric>
        <lyric default-y="-124" number="2">
          <syllabic>single</syllabic>
          <text>tái</text>
        </lyric>
        <lyric default-y="-152" number="3">
          <syllabic>single</syllabic>
          <text>quốc</text>
        </lyric>
        <lyric default-y="-181" number="4">
          <syllabic>single</syllabic>
          <text>ở</text>
        </lyric>
        <lyric default-y="-209" number="5">
          <syllabic>single</syllabic>
          <text>ngắn</text>
        </lyric>
        <lyric default-y="-237" number="6">
          <syllabic>single</syllabic>
          <text>bố</text>
        </lyric>
        <lyric default-y="-266" number="7">
          <syllabic>single</syllabic>
          <text>ngắm</text>
        </lyric>
      </note>
      <note default-x="93">
        <chord/>
        <pitch>
          <step>C</step>
          <alter>1</alter>
          <octave>5</octave>
        </pitch>
        <duration>1</duration>
        <voice>1</voice>
        <type>eighth</type>
        <stem>up</stem>
      </note>
      <note default-x="155">
        <pitch>
          <step>G</step>
          <alter>1</alter>
          <octave>4</octave>
        </pitch>
        <duration>2</duration>
        <voice>1</voice>
        <type>quarter</type>
        <stem default-y="15">up</stem>
        <lyric default-y="-95" number="1">
          <syllabic>single</syllabic>
          <text>vui</text>
        </lyric>
        <lyric default-y="-124" number="2">
          <syllabic>single</syllabic>
          <text>lâm</text>
        </lyric>
        <lyric default-y="-152" number="3">
          <syllabic>single</syllabic>
          <text>thêm</text>
        </lyric>
        <lyric default-y="-181" number="4">
          <syllabic>single</syllabic>
          <text>tâm</text>
        </lyric>
        <lyric default-y="-209" number="5">
          <syllabic>single</syllabic>
          <text>thiên</text>
        </lyric>
        <lyric default-y="-237" number="6">
          <syllabic>single</syllabic>
          <text>ra</text>
        </lyric>
        <lyric default-y="-266" number="7">
          <syllabic>single</syllabic>
          <text>mặt</text>
        </lyric>
      </note>
      <note default-x="155">
        <chord/>
        <pitch>
          <step>B</step>
          <octave>4</octave>
        </pitch>
        <duration>2</duration>
        <voice>1</voice>
        <type>quarter</type>
        <stem>up</stem>
      </note>
      <note default-x="212">
        <pitch>
          <step>E</step>
          <octave>4</octave>
        </pitch>
        <duration>2</duration>
        <voice>1</voice>
        <type>quarter</type>
        <stem default-y="10">up</stem>
        <lyric default-y="-95" number="1" relative-x="3">
          <syllabic>single</syllabic>
          <text>vầy,</text>
        </lyric>
        <lyric default-y="-124" number="2" relative-x="3">
          <syllabic>single</syllabic>
          <text>rày,</text>
        </lyric>
        <lyric default-y="-152" number="3" relative-x="3">
          <syllabic>single</syllabic>
          <text>rọi,</text>
        </lyric>
        <lyric default-y="-181" number="4" relative-x="3">
          <syllabic>single</syllabic>
          <text>hoài,</text>
        </lyric>
        <lyric default-y="-209" number="5" relative-x="3">
          <syllabic>single</syllabic>
          <text>trình,</text>
        </lyric>
        <lyric default-y="-237" number="6" relative-x="3">
          <syllabic>single</syllabic>
          <text>hoài,</text>
        </lyric>
        <lyric default-y="-266" number="7" relative-x="3">
          <syllabic>single</syllabic>
          <text>Ngài,</text>
        </lyric>
      </note>
      <note default-x="212">
        <chord/>
        <pitch>
          <step>A</step>
          <octave>4</octave>
        </pitch>
        <duration>2</duration>
        <voice>1</voice>
        <type>quarter</type>
        <stem>up</stem>
      </note>
    </measure>
    <!--=======================================================-->
    <measure number="7" width="250">
      <harmony default-y="40" font-family="VNI-Helve-Condense" font-size="13.7">
        <root>
          <root-step>D</root-step>
        </root>
        <kind halign="center" text="">major</kind>
        <bass>
          <bass-step>F</bass-step>
          <bass-alter>1</bass-alter>
        </bass>
      </harmony>
      <note default-x="16">
        <pitch>
          <step>A</step>
          <octave>4</octave>
        </pitch>
        <duration>3</duration>
        <voice>1</voice>
        <type>quarter</type>
        <dot/>
        <stem default-y="18.5">up</stem>
        <lyric default-y="-95" number="1" relative-x="5">
          <syllabic>single</syllabic>
          <text>Biết</text>
        </lyric>
        <lyric default-y="-124" number="2" relative-x="5">
          <syllabic>single</syllabic>
          <text>Ước</text>
        </lyric>
        <lyric default-y="-152" number="3" relative-x="5">
          <syllabic>single</syllabic>
          <text>Cứ</text>
        </lyric>
        <lyric default-y="-181" number="4" relative-x="5">
          <syllabic>single</syllabic>
          <text>Lá</text>
        </lyric>
        <lyric default-y="-209" number="5" relative-x="5">
          <syllabic>single</syllabic>
          <text>Hát</text>
        </lyric>
        <lyric default-y="-237" number="6" relative-x="5">
          <syllabic>single</syllabic>
          <text>Chúc</text>
        </lyric>
        <lyric default-y="-266" number="7" relative-x="5">
          <syllabic>single</syllabic>
          <text>Tắm</text>
        </lyric>
      </note>
      <note default-x="16">
        <chord/>
        <pitch>
          <step>D</step>
          <octave>5</octave>
        </pitch>
        <duration>3</duration>
        <voice>1</voice>
        <type>quarter</type>
        <dot/>
        <stem>up</stem>
      </note>
      <note default-x="82">
        <pitch>
          <step>F</step>
          <alter>1</alter>
          <octave>4</octave>
        </pitch>
        <duration>1</duration>
        <voice>1</voice>
        <type>eighth</type>
        <stem default-y="10">up</stem>
        <lyric default-y="-95" number="1">
          <syllabic>single</syllabic>
          <text>ngày</text>
        </lyric>
        <lyric default-y="-124" number="2">
          <syllabic>single</syllabic>
          <text>được</text>
        </lyric>
        <lyric default-y="-152" number="3">
          <syllabic>single</syllabic>
          <text>càng</text>
        </lyric>
        <lyric default-y="-181" number="4">
          <syllabic>single</syllabic>
          <text>cờ</text>
        </lyric>
        <lyric default-y="-209" number="5">
          <syllabic>single</syllabic>
          <text>hoài</text>
        </lyric>
        <lyric default-y="-237" number="6">
          <syllabic>single</syllabic>
          <text>mừng</text>
        </lyric>
        <lyric default-y="-266" number="7">
          <syllabic>single</syllabic>
          <text>gội</text>
        </lyric>
      </note>
      <note default-x="82">
        <chord/>
        <pitch>
          <step>A</step>
          <octave>4</octave>
        </pitch>
        <duration>1</duration>
        <voice>1</voice>
        <type>eighth</type>
        <stem>up</stem>
      </note>
      <harmony default-y="40" font-family="VNI-Helve-Condense" font-size="13.7">
        <root>
          <root-step>G</root-step>
        </root>
        <kind halign="center" text="">major</kind>
      </harmony>
      <note default-x="146">
        <pitch>
          <step>D</step>
          <octave>4</octave>
        </pitch>
        <duration>2</duration>
        <voice>1</voice>
        <type>quarter</type>
        <stem default-y="15">up</stem>
        <lyric default-y="-95" number="1">
          <syllabic>single</syllabic>
          <text>Chúa</text>
        </lyric>
        <lyric default-y="-124" number="2">
          <syllabic>single</syllabic>
          <text>ở</text>
        </lyric>
        <lyric default-y="-152" number="3">
          <syllabic>single</syllabic>
          <text>sáng</text>
        </lyric>
        <lyric default-y="-181" number="4">
          <syllabic>single</syllabic>
          <text>Chúa</text>
        </lyric>
        <lyric default-y="-209" number="5">
          <syllabic>single</syllabic>
          <text>đến</text>
        </lyric>
        <lyric default-y="-237" number="6">
          <syllabic>single</syllabic>
          <text>Đấng</text>
        </lyric>
        <lyric default-y="-266" number="7">
          <syllabic>single</syllabic>
          <text>ánh</text>
        </lyric>
      </note>
      <note default-x="146">
        <chord/>
        <pitch>
          <step>B</step>
          <octave>4</octave>
        </pitch>
        <duration>2</duration>
        <voice>1</voice>
        <type>quarter</type>
        <stem>up</stem>
      </note>
      <note default-x="207">
        <pitch>
          <step>D</step>
          <octave>4</octave>
        </pitch>
        <duration>2</duration>
        <voice>1</voice>
        <type>quarter</type>
        <stem default-y="5">up</stem>
        <lyric default-y="-95" number="1">
          <syllabic>single</syllabic>
          <text>nay</text>
        </lyric>
        <lyric default-y="-124" number="2">
          <syllabic>single</syllabic>
          <text>bên</text>
        </lyric>
        <lyric default-y="-152" number="3">
          <syllabic>single</syllabic>
          <text>soi</text>
        </lyric>
        <lyric default-y="-181" number="4">
          <syllabic>single</syllabic>
          <text>phất</text>
        </lyric>
        <lyric default-y="-209" number="5">
          <syllabic>single</syllabic>
          <text>khi</text>
        </lyric>
        <lyric default-y="-237" number="6">
          <syllabic>single</syllabic>
          <text>Thiên</text>
        </lyric>
        <lyric default-y="-266" number="7">
          <syllabic>single</syllabic>
          <text>vinh</text>
        </lyric>
      </note>
      <note default-x="207">
        <chord/>
        <pitch>
          <step>G</step>
          <octave>4</octave>
        </pitch>
        <duration>2</duration>
        <voice>1</voice>
        <type>quarter</type>
        <stem>up</stem>
      </note>
    </measure>
    <!--=======================================================-->
    <measure number="8" width="198">
      <harmony default-y="40" font-family="VNI-Helve-Condense" font-size="13.7">
        <root>
          <root-step>A</root-step>
        </root>
        <kind halign="center" text="7">dominant</kind>
      </harmony>
      <note default-x="16">
        <pitch>
          <step>C</step>
          <alter>1</alter>
          <octave>4</octave>
        </pitch>
        <duration>2</duration>
        <voice>1</voice>
        <type>quarter</type>
        <stem default-y="-5">up</stem>
        <lyric default-y="-95" number="1" relative-x="9">
          <syllabic>single</syllabic>
          <text>không</text>
        </lyric>
        <lyric default-y="-124" number="2" relative-x="6">
          <syllabic>single</syllabic>
          <text>Christ</text>
        </lyric>
        <lyric default-y="-152" number="3">
          <syllabic>single</syllabic>
          <text>tận</text>
        </lyric>
        <lyric default-y="-181" number="4">
          <syllabic>single</syllabic>
          <text>cao</text>
        </lyric>
        <lyric default-y="-209" number="5" relative-x="4">
          <syllabic>single</syllabic>
          <text>trông</text>
        </lyric>
        <lyric default-y="-237" number="6">
          <syllabic>single</syllabic>
          <text>Phụ</text>
        </lyric>
        <lyric default-y="-266" number="7" relative-x="9">
          <syllabic>single</syllabic>
          <text>quang</text>
        </lyric>
      </note>
      <note default-x="16">
        <chord/>
        <pitch>
          <step>E</step>
          <octave>4</octave>
        </pitch>
        <duration>2</duration>
        <voice>1</voice>
        <type>quarter</type>
        <stem>up</stem>
      </note>
      <note default-x="85">
        <pitch>
          <step>C</step>
          <alter>1</alter>
          <octave>4</octave>
        </pitch>
        <duration>2</duration>
        <voice>1</voice>
        <type>quarter</type>
        <stem default-y="10">up</stem>
        <lyric default-y="-95" number="1">
          <syllabic>single</syllabic>
          <text>trễ</text>
        </lyric>
        <lyric default-y="-124" number="2">
          <syllabic>single</syllabic>
          <text>rỡ</text>
        </lyric>
        <lyric default-y="-152" number="3">
          <syllabic>single</syllabic>
          <text>giữa</text>
        </lyric>
        <lyric default-y="-181" number="4">
          <syllabic>single</syllabic>
          <text>đến</text>
        </lyric>
        <lyric default-y="-209" number="5">
          <syllabic>single</syllabic>
          <text>rõ</text>
        </lyric>
        <lyric default-y="-237" number="6">
          <syllabic>single</syllabic>
          <text>xức</text>
        </lyric>
        <lyric default-y="-266" number="7">
          <syllabic>single</syllabic>
          <text>dẫy</text>
        </lyric>
      </note>
      <note default-x="85">
        <chord/>
        <pitch>
          <step>A</step>
          <octave>4</octave>
        </pitch>
        <duration>2</duration>
        <voice>1</voice>
        <type>quarter</type>
        <stem>up</stem>
      </note>
      <harmony default-y="40" font-family="VNI-Helve-Condense" font-size="13.7">
        <root>
          <root-step>D</root-step>
        </root>
        <kind halign="center" text="">major</kind>
      </harmony>
      <note default-x="142">
        <pitch>
          <step>A</step>
          <octave>3</octave>
        </pitch>
        <duration>4</duration>
        <voice>1</voice>
        <type>half</type>
        <stem default-y="-10">up</stem>
        <lyric default-y="-95" number="1">
          <syllabic>single</syllabic>
          <text>chậm.</text>
        </lyric>
        <lyric default-y="-124" number="2">
          <syllabic>single</syllabic>
          <text>ràng.</text>
        </lyric>
        <lyric default-y="-152" number="3">
          <syllabic>single</syllabic>
          <text>ngày.</text>
        </lyric>
        <lyric default-y="-181" number="4">
          <syllabic>single</syllabic>
          <text>cùng.</text>
        </lyric>
        <lyric default-y="-209" number="5">
          <syllabic>single</syllabic>
          <text>Ngài.</text>
        </lyric>
        <lyric default-y="-237" number="6">
          <syllabic>single</syllabic>
          <text>dầu.</text>
        </lyric>
        <lyric default-y="-266" number="7">
          <syllabic>single</syllabic>
          <text>đầy.</text>
        </lyric>
      </note>
      <note default-x="142">
        <chord/>
        <pitch>
          <step>D</step>
          <octave>4</octave>
        </pitch>
        <duration>4</duration>
        <voice>1</voice>
        <type>half</type>
        <stem>up</stem>
      </note>
      <barline location="right">
        <bar-style>light-heavy</bar-style>
      </barline>
    </measure>
  </part>
  <!--=========================================================-->
  <part id="P2">
    <?SmartMusic maxVoice=1?>
    <measure number="1" width="351">
      <print>
        <staff-layout number="1">
          <staff-distance>275</staff-distance>
        </staff-layout>
        <measure-numbering>none</measure-numbering>
      </print>
      <attributes>
        <divisions>2</divisions>
        <key>
          <fifths>2</fifths>
          <mode>major</mode>
        </key>
        <time symbol="common">
          <beats>4</beats>
          <beat-type>4</beat-type>
        </time>
        <clef>
          <sign>F</sign>
          <line>4</line>
        </clef>
      </attributes>
      <sound tempo="104"/>
      <note default-x="122">
        <pitch>
          <step>D</step>
          <octave>3</octave>
        </pitch>
        <duration>3</duration>
        <voice>1</voice>
        <type>quarter</type>
        <dot/>
        <stem default-y="-55">down</stem>
      </note>
      <note default-x="122">
        <chord/>
        <pitch>
          <step>F</step>
          <alter>1</alter>
          <octave>3</octave>
        </pitch>
        <duration>3</duration>
        <voice>1</voice>
        <type>quarter</type>
        <dot/>
        <stem>down</stem>
      </note>
      <note default-x="187">
        <pitch>
          <step>D</step>
          <octave>3</octave>
        </pitch>
        <duration>1</duration>
        <voice>1</voice>
        <type>eighth</type>
        <stem default-y="-55">down</stem>
      </note>
      <note default-x="187">
        <chord/>
        <pitch>
          <step>F</step>
          <alter>1</alter>
          <octave>3</octave>
        </pitch>
        <duration>1</duration>
        <voice>1</voice>
        <type>eighth</type>
        <stem>down</stem>
      </note>
      <note default-x="243">
        <pitch>
          <step>D</step>
          <octave>3</octave>
        </pitch>
        <duration>2</duration>
        <voice>1</voice>
        <type>quarter</type>
        <stem default-y="-55">down</stem>
      </note>
      <note default-x="243">
        <chord/>
        <pitch>
          <step>B</step>
          <octave>3</octave>
        </pitch>
        <duration>2</duration>
        <voice>1</voice>
        <type>quarter</type>
        <stem>down</stem>
      </note>
      <note default-x="306">
        <pitch>
          <step>D</step>
          <octave>3</octave>
        </pitch>
        <duration>2</duration>
        <voice>1</voice>
        <type>quarter</type>
        <stem default-y="-55">down</stem>
      </note>
      <note default-x="306">
        <chord/>
        <pitch>
          <step>A</step>
          <octave>3</octave>
        </pitch>
        <duration>2</duration>
        <voice>1</voice>
        <type>quarter</type>
        <stem>down</stem>
      </note>
    </measure>
    <!--=======================================================-->
    <measure number="2" width="237">
      <note default-x="16">
        <pitch>
          <step>A</step>
          <octave>2</octave>
        </pitch>
        <duration>3</duration>
        <voice>1</voice>
        <type>quarter</type>
        <dot/>
        <stem default-y="-63">down</stem>
      </note>
      <note default-x="16">
        <chord/>
        <pitch>
          <step>G</step>
          <octave>3</octave>
        </pitch>
        <duration>3</duration>
        <voice>1</voice>
        <type>quarter</type>
        <dot/>
        <stem>down</stem>
      </note>
      <note default-x="84">
        <pitch>
          <step>A</step>
          <octave>2</octave>
        </pitch>
        <duration>1</duration>
        <voice>1</voice>
        <type>eighth</type>
        <stem default-y="-70">down</stem>
      </note>
      <note default-x="84">
        <chord/>
        <pitch>
          <step>A</step>
          <octave>3</octave>
        </pitch>
        <duration>1</duration>
        <voice>1</voice>
        <type>eighth</type>
        <stem>down</stem>
      </note>
      <note default-x="142">
        <pitch>
          <step>A</step>
          <octave>2</octave>
        </pitch>
        <duration>2</duration>
        <voice>1</voice>
        <type>quarter</type>
        <stem default-y="-63">down</stem>
      </note>
      <note default-x="142">
        <chord/>
        <pitch>
          <step>G</step>
          <octave>3</octave>
        </pitch>
        <duration>2</duration>
        <voice>1</voice>
        <type>quarter</type>
        <stem>down</stem>
      </note>
      <note default-x="197">
        <pitch>
          <step>B</step>
          <octave>2</octave>
        </pitch>
        <duration>2</duration>
        <voice>1</voice>
        <type>quarter</type>
        <stem default-y="-58">down</stem>
      </note>
      <note default-x="197">
        <chord/>
        <pitch>
          <step>F</step>
          <alter>1</alter>
          <octave>3</octave>
        </pitch>
        <duration>2</duration>
        <voice>1</voice>
        <type>quarter</type>
        <stem>down</stem>
      </note>
    </measure>
    <!--=======================================================-->
    <measure number="3" width="246">
      <note default-x="14">
        <pitch>
          <step>G</step>
          <octave>3</octave>
        </pitch>
        <duration>3</duration>
        <voice>1</voice>
        <type>quarter</type>
        <dot/>
        <stem>double</stem>
      </note>
      <note default-x="79">
        <pitch>
          <step>G</step>
          <octave>3</octave>
        </pitch>
        <duration>1</duration>
        <voice>1</voice>
        <type>eighth</type>
        <stem default-y="-40">down</stem>
      </note>
      <note default-x="79">
        <chord/>
        <pitch>
          <step>D</step>
          <octave>4</octave>
        </pitch>
        <duration>1</duration>
        <voice>1</voice>
        <type>eighth</type>
        <stem>down</stem>
      </note>
      <note default-x="139">
        <pitch>
          <step>E</step>
          <octave>3</octave>
        </pitch>
        <duration>2</duration>
        <voice>1</voice>
        <type>quarter</type>
        <stem default-y="-50">down</stem>
      </note>
      <note default-x="139">
        <chord/>
        <pitch>
          <step>D</step>
          <octave>4</octave>
        </pitch>
        <duration>2</duration>
        <voice>1</voice>
        <type>quarter</type>
        <stem>down</stem>
      </note>
      <note default-x="203">
        <pitch>
          <step>E</step>
          <octave>3</octave>
        </pitch>
        <duration>2</duration>
        <voice>1</voice>
        <type>quarter</type>
        <stem default-y="-50">down</stem>
      </note>
      <note default-x="203">
        <chord/>
        <pitch>
          <step>D</step>
          <octave>4</octave>
        </pitch>
        <duration>2</duration>
        <voice>1</voice>
        <type>quarter</type>
        <stem>down</stem>
      </note>
    </measure>
    <!--=======================================================-->
    <measure number="4" width="187">
      <note default-x="26">
        <pitch>
          <step>E</step>
          <octave>3</octave>
        </pitch>
        <duration>2</duration>
        <voice>1</voice>
        <type>quarter</type>
        <stem default-y="-50">down</stem>
      </note>
      <note default-x="26">
        <chord/>
        <pitch>
          <step>E</step>
          <octave>4</octave>
        </pitch>
        <duration>2</duration>
        <voice>1</voice>
        <type>quarter</type>
        <stem>down</stem>
      </note>
      <note default-x="83">
        <pitch>
          <step>E</step>
          <octave>3</octave>
        </pitch>
        <duration>2</duration>
        <voice>1</voice>
        <type>quarter</type>
        <stem default-y="-50">down</stem>
      </note>
      <note default-x="83">
        <chord/>
        <pitch>
          <step>E</step>
          <octave>4</octave>
        </pitch>
        <duration>2</duration>
        <voice>1</voice>
        <type>quarter</type>
        <stem>down</stem>
      </note>
      <note default-x="139">
        <pitch>
          <step>E</step>
          <octave>4</octave>
        </pitch>
        <duration>4</duration>
        <voice>1</voice>
        <type>half</type>
        <stem default-y="41">up</stem>
      </note>
      <backup>
        <duration>4</duration>
      </backup>
      <note default-x="139">
        <pitch>
          <step>A</step>
          <octave>3</octave>
        </pitch>
        <duration>2</duration>
        <voice>2</voice>
        <type>quarter</type>
        <stem default-y="-35">down</stem>
        <notations>
          <slur bezier-x="0" bezier-y="-8" default-x="6" default-y="-25" number="1" placement="below" type="start"/>
        </notations>
      </note>
      <note default-x="163">
        <pitch>
          <step>G</step>
          <octave>3</octave>
        </pitch>
        <duration>2</duration>
        <voice>2</voice>
        <type>quarter</type>
        <stem default-y="-40">down</stem>
        <notations>
          <slur bezier-x="-7" bezier-y="-3" default-x="-5" default-y="-33" number="1" type="stop"/>
        </notations>
      </note>
    </measure>
    <!--=======================================================-->
    <measure number="5" width="316">
      <print new-system="yes">
        <staff-layout number="1">
          <staff-distance>275</staff-distance>
        </staff-layout>
      </print>
      <note default-x="78">
        <pitch>
          <step>F</step>
          <alter>1</alter>
          <octave>3</octave>
        </pitch>
        <duration>3</duration>
        <voice>1</voice>
        <type>quarter</type>
        <dot/>
        <stem default-y="-45">down</stem>
      </note>
      <note default-x="78">
        <chord/>
        <pitch>
          <step>D</step>
          <octave>4</octave>
        </pitch>
        <duration>3</duration>
        <voice>1</voice>
        <type>quarter</type>
        <dot/>
        <stem>down</stem>
      </note>
      <note default-x="142">
        <pitch>
          <step>F</step>
          <alter>1</alter>
          <octave>3</octave>
        </pitch>
        <duration>1</duration>
        <voice>1</voice>
        <type>eighth</type>
        <stem default-y="-45">down</stem>
      </note>
      <note default-x="142">
        <chord/>
        <pitch>
          <step>D</step>
          <octave>4</octave>
        </pitch>
        <duration>1</duration>
        <voice>1</voice>
        <type>eighth</type>
        <stem>down</stem>
      </note>
      <note default-x="211">
        <pitch>
          <step>G</step>
          <octave>3</octave>
        </pitch>
        <duration>2</duration>
        <voice>1</voice>
        <type>quarter</type>
        <stem default-y="-40">down</stem>
      </note>
      <note default-x="211">
        <chord/>
        <pitch>
          <step>D</step>
          <octave>4</octave>
        </pitch>
        <duration>2</duration>
        <voice>1</voice>
        <type>quarter</type>
        <stem>down</stem>
      </note>
      <note default-x="272">
        <pitch>
          <step>G</step>
          <octave>3</octave>
        </pitch>
        <duration>2</duration>
        <voice>1</voice>
        <type>quarter</type>
        <stem default-y="-40">down</stem>
      </note>
      <note default-x="272">
        <chord/>
        <pitch>
          <step>D</step>
          <octave>4</octave>
        </pitch>
        <duration>2</duration>
        <voice>1</voice>
        <type>quarter</type>
        <stem>down</stem>
      </note>
    </measure>
    <!--=======================================================-->
    <measure number="6" width="256">
      <note default-x="26">
        <pitch>
          <step>E</step>
          <octave>3</octave>
        </pitch>
        <duration>3</duration>
        <voice>1</voice>
        <type>quarter</type>
        <dot/>
        <stem default-y="-50">down</stem>
      </note>
      <note default-x="26">
        <chord/>
        <pitch>
          <step>D</step>
          <octave>4</octave>
        </pitch>
        <duration>3</duration>
        <voice>1</voice>
        <type>quarter</type>
        <dot/>
        <stem>down</stem>
      </note>
      <note default-x="93">
        <pitch>
          <step>E</step>
          <octave>3</octave>
        </pitch>
        <duration>1</duration>
        <voice>1</voice>
        <type>eighth</type>
        <stem default-y="-50">down</stem>
      </note>
      <note default-x="93">
        <chord/>
        <pitch>
          <step>E</step>
          <octave>4</octave>
        </pitch>
        <duration>1</duration>
        <voice>1</voice>
        <type>eighth</type>
        <stem>down</stem>
      </note>
      <note default-x="155">
        <pitch>
          <step>E</step>
          <octave>3</octave>
        </pitch>
        <duration>2</duration>
        <voice>1</voice>
        <type>quarter</type>
        <stem default-y="-50">down</stem>
      </note>
      <note default-x="155">
        <chord/>
        <pitch>
          <step>D</step>
          <octave>4</octave>
        </pitch>
        <duration>2</duration>
        <voice>1</voice>
        <type>quarter</type>
        <stem>down</stem>
      </note>
      <note default-x="212">
        <pitch>
          <step>C</step>
          <alter>1</alter>
          <octave>4</octave>
        </pitch>
        <duration>2</duration>
        <voice>1</voice>
        <type>quarter</type>
        <stem default-y="38.5">up</stem>
      </note>
      <backup>
        <duration>2</duration>
      </backup>
      <note default-x="212">
        <pitch>
          <step>A</step>
          <octave>3</octave>
        </pitch>
        <duration>1</duration>
        <voice>2</voice>
        <type>eighth</type>
        <stem default-y="-30">down</stem>
        <beam number="1">begin</beam>
      </note>
      <note default-x="234">
        <pitch>
          <step>G</step>
          <octave>3</octave>
        </pitch>
        <duration>1</duration>
        <voice>2</voice>
        <type>eighth</type>
        <stem default-y="-32">down</stem>
        <beam number="1">end</beam>
      </note>
    </measure>
    <!--=======================================================-->
    <measure number="7" width="250">
      <note default-x="16">
        <pitch>
          <step>F</step>
          <alter>1</alter>
          <octave>3</octave>
        </pitch>
        <duration>3</duration>
        <voice>1</voice>
        <type>quarter</type>
        <dot/>
        <stem default-y="-45">down</stem>
      </note>
      <note default-x="16">
        <chord/>
        <pitch>
          <step>D</step>
          <octave>4</octave>
        </pitch>
        <duration>3</duration>
        <voice>1</voice>
        <type>quarter</type>
        <dot/>
        <stem>down</stem>
      </note>
      <note default-x="82">
        <pitch>
          <step>F</step>
          <alter>1</alter>
          <octave>3</octave>
        </pitch>
        <duration>1</duration>
        <voice>1</voice>
        <type>eighth</type>
        <stem default-y="-45">down</stem>
      </note>
      <note default-x="82">
        <chord/>
        <pitch>
          <step>D</step>
          <octave>4</octave>
        </pitch>
        <duration>1</duration>
        <voice>1</voice>
        <type>eighth</type>
        <stem>down</stem>
      </note>
      <note default-x="146">
        <pitch>
          <step>G</step>
          <octave>3</octave>
        </pitch>
        <duration>2</duration>
        <voice>1</voice>
        <type>quarter</type>
        <stem default-y="-40">down</stem>
      </note>
      <note default-x="146">
        <chord/>
        <pitch>
          <step>B</step>
          <octave>3</octave>
        </pitch>
        <duration>2</duration>
        <voice>1</voice>
        <type>quarter</type>
        <stem>down</stem>
      </note>
      <note default-x="207">
        <pitch>
          <step>G</step>
          <octave>3</octave>
        </pitch>
        <duration>2</duration>
        <voice>1</voice>
        <type>quarter</type>
        <stem default-y="-40">down</stem>
      </note>
      <note default-x="207">
        <chord/>
        <pitch>
          <step>B</step>
          <octave>3</octave>
        </pitch>
        <duration>2</duration>
        <voice>1</voice>
        <type>quarter</type>
        <stem>down</stem>
      </note>
    </measure>
    <!--=======================================================-->
    <measure number="8" width="198">
      <note default-x="16">
        <pitch>
          <step>A</step>
          <octave>2</octave>
        </pitch>
        <duration>2</duration>
        <voice>1</voice>
        <type>quarter</type>
        <stem default-y="-63.5">down</stem>
      </note>
      <note default-x="16">
        <chord/>
        <pitch>
          <step>G</step>
          <octave>3</octave>
        </pitch>
        <duration>2</duration>
        <voice>1</voice>
        <type>quarter</type>
        <stem>down</stem>
      </note>
      <note default-x="85">
        <pitch>
          <step>A</step>
          <octave>2</octave>
        </pitch>
        <duration>2</duration>
        <voice>1</voice>
        <type>quarter</type>
        <stem default-y="-63.5">down</stem>
      </note>
      <note default-x="85">
        <chord/>
        <pitch>
          <step>G</step>
          <octave>3</octave>
        </pitch>
        <duration>2</duration>
        <voice>1</voice>
        <type>quarter</type>
        <stem>down</stem>
      </note>
      <note default-x="142">
        <pitch>
          <step>D</step>
          <octave>3</octave>
        </pitch>
        <duration>4</duration>
        <voice>1</voice>
        <type>half</type>
        <stem default-y="-55">down</stem>
      </note>
      <note default-x="142">
        <chord/>
        <pitch>
          <step>F</step>
          <alter>1</alter>
          <octave>3</octave>
        </pitch>
        <duration>4</duration>
        <voice>1</voice>
        <type>half</type>
        <stem>down</stem>
      </note>
      <barline location="right">
        <bar-style>light-heavy</bar-style>
      </barline>
    </measure>
  </part>
  <!--=========================================================-->
</score-partwise>
