<?xml version="1.0" encoding="UTF-8" standalone="no"?>
<!DOCTYPE score-partwise PUBLIC "-//Recordare//DTD MusicXML 3.1 Partwise//EN" "http://www.musicxml.org/dtds/partwise.dtd">
<score-partwise version="3.1">
  <movement-title>XIN THÁNH LINH NGỰ VÀO LÒNG</movement-title>
  <identification>
    <creator type="composer">John P. Hillis, 1904.</creator>
    <creator type="lyricist">G.W. Crofts</creator>
    <rights>©</rights>
    <encoding>
      <software>Finale v26.3 for Windows</software>
      <encoding-date>2021-09-07</encoding-date>
      <supports attribute="new-system" element="print" type="yes" value="yes"/>
      <supports attribute="new-page" element="print" type="yes" value="yes"/>
      <supports element="accidental" type="yes"/>
      <supports element="beam" type="yes"/>
      <supports element="stem" type="yes"/>
    </encoding>
  </identification>
  <defaults>
    <scaling>
      <millimeters>7.2319</millimeters>
      <tenths>40</tenths>
    </scaling>
    <page-layout>
      <page-height>1643</page-height>
      <page-width>1161</page-width>
      <page-margins type="both">
        <left-margin>70</left-margin>
        <right-margin>70</right-margin>
        <top-margin>70</top-margin>
        <bottom-margin>70</bottom-margin>
      </page-margins>
    </page-layout>
    <system-layout>
      <system-margins>
        <left-margin>0</left-margin>
        <right-margin>0</right-margin>
      </system-margins>
      <system-distance>111</system-distance>
      <top-system-distance>72</top-system-distance>
    </system-layout>
    <staff-layout>
      <staff-distance>93</staff-distance>
    </staff-layout>
    <appearance>
      <line-width type="stem">1.1784</line-width>
      <line-width type="beam">5</line-width>
      <line-width type="staff">1.1784</line-width>
      <line-width type="light barline">1.1784</line-width>
      <line-width type="heavy barline">5</line-width>
      <line-width type="leger">1.1784</line-width>
      <line-width type="ending">1.1784</line-width>
      <line-width type="wedge">0.7487</line-width>
      <line-width type="enclosure">1.1784</line-width>
      <line-width type="tuplet bracket">0.7487</line-width>
      <note-size type="grace">60</note-size>
      <note-size type="cue">60</note-size>
      <distance type="hyphen">120</distance>
      <distance type="beam">7.5</distance>
    </appearance>
    <music-font font-family="Maestro,engraved" font-size="20.5"/>
    <word-font font-family="Myriad Pro" font-size="10.25"/>
    <lyric-font font-family="Myriad Pro" font-size="12"/>
  </defaults>
  <credit page="1">
    <credit-type>title</credit-type>
    <credit-words default-x="581" default-y="1573" font-size="22" font-weight="bold" justify="center" valign="top">XIN THÁNH LINH NGỰ VÀO LÒNG</credit-words>
  </credit>
  <credit page="1">
    <credit-type>composer</credit-type>
    <credit-words default-x="1091" default-y="631" font-size="12" justify="right" valign="bottom">John P. Hillis, 1904.</credit-words>
  </credit>
  <credit page="1">
    <credit-type>lyricist</credit-type>
    <credit-words default-x="70" default-y="631" font-size="12" valign="bottom">Dịch lời của G.W. Crofts</credit-words>
  </credit>
  <credit page="1">
    <credit-words default-x="70" default-y="1573" font-size="22" font-weight="bold" valign="top">139</credit-words>
  </credit>
  <part-list>
    <part-group number="1" type="start">
      <group-symbol default-x="-5">bracket</group-symbol>
      <group-barline>no</group-barline>
    </part-group>
    <score-part id="P1">
      <part-name print-object="no">MusicXML Part</part-name>
      <score-instrument id="P1-I1">
        <instrument-name>SmartMusic SoftSynth</instrument-name>
        <instrument-sound>voice.soprano</instrument-sound>
        <virtual-instrument/>
      </score-instrument>
      <midi-device>SmartMusic SoftSynth</midi-device>
      <midi-instrument id="P1-I1">
        <midi-channel>1</midi-channel>
        <midi-bank>15489</midi-bank>
        <midi-program>22</midi-program>
        <volume>80</volume>
        <pan>-70</pan>
      </midi-instrument>
    </score-part>
    <score-part id="P2">
      <part-name print-object="no">MusicXML Part</part-name>
      <score-instrument id="P2-I2">
        <instrument-name>SmartMusic SoftSynth</instrument-name>
        <instrument-sound>voice.bass</instrument-sound>
        <virtual-instrument/>
      </score-instrument>
      <midi-device>SmartMusic SoftSynth</midi-device>
      <midi-instrument id="P2-I2">
        <midi-channel>2</midi-channel>
        <midi-bank>15489</midi-bank>
        <midi-program>22</midi-program>
        <volume>80</volume>
        <pan>80</pan>
      </midi-instrument>
    </score-part>
    <part-group number="1" type="stop"/>
  </part-list>
  <!--=========================================================-->
  <part id="P1">
    <?SmartMusic maxVoice=1?>
    <measure number="1" width="208">
      <print>
        <system-layout>
          <top-system-distance>156</top-system-distance>
        </system-layout>
        <measure-numbering>none</measure-numbering>
      </print>
      <attributes>
        <divisions>2</divisions>
        <key>
          <fifths>0</fifths>
          <mode>major</mode>
        </key>
        <time>
          <beats>3</beats>
          <beat-type>4</beat-type>
        </time>
        <clef>
          <sign>G</sign>
          <line>2</line>
        </clef>
      </attributes>
      <sound tempo="104"/>
      <harmony default-y="40" font-family="VNI-Helve-Condense" font-size="13.7">
        <root>
          <root-step>C</root-step>
        </root>
        <kind halign="center" text="">major</kind>
      </harmony>
      <note default-x="98">
        <pitch>
          <step>E</step>
          <octave>4</octave>
        </pitch>
        <duration>4</duration>
        <voice>1</voice>
        <type>half</type>
        <stem default-y="14">up</stem>
        <lyric default-y="-95" number="1" relative-x="-7">
          <syllabic>single</syllabic>
          <text>1.Chúa</text>
        </lyric>
        <lyric default-y="-124" number="2" relative-x="-7">
          <syllabic>single</syllabic>
          <text>2.Chúa</text>
        </lyric>
        <lyric default-y="-152" number="3" relative-x="-7">
          <syllabic>single</syllabic>
          <text>3.Chúa</text>
        </lyric>
        <lyric default-y="-181" number="4" relative-x="-7">
          <syllabic>single</syllabic>
          <text>4.Chúa</text>
        </lyric>
        <lyric default-y="-209" number="5" relative-x="-7">
          <syllabic>single</syllabic>
          <text>5.Chúa</text>
        </lyric>
      </note>
      <note default-x="98">
        <chord/>
        <pitch>
          <step>C</step>
          <octave>5</octave>
        </pitch>
        <duration>4</duration>
        <voice>1</voice>
        <type>half</type>
        <stem>up</stem>
      </note>
      <note default-x="163">
        <pitch>
          <step>E</step>
          <octave>4</octave>
        </pitch>
        <duration>2</duration>
        <voice>1</voice>
        <type>quarter</type>
        <stem default-y="14">up</stem>
        <lyric default-y="-95" number="1">
          <syllabic>single</syllabic>
          <text>Thánh</text>
        </lyric>
        <lyric default-y="-124" number="2">
          <syllabic>single</syllabic>
          <text>Thánh</text>
        </lyric>
        <lyric default-y="-152" number="3">
          <syllabic>single</syllabic>
          <text>Thánh</text>
        </lyric>
        <lyric default-y="-181" number="4">
          <syllabic>single</syllabic>
          <text>Thánh</text>
        </lyric>
        <lyric default-y="-209" number="5">
          <syllabic>single</syllabic>
          <text>Thánh</text>
        </lyric>
      </note>
      <note default-x="163">
        <chord/>
        <pitch>
          <step>C</step>
          <octave>5</octave>
        </pitch>
        <duration>2</duration>
        <voice>1</voice>
        <type>quarter</type>
        <stem>up</stem>
      </note>
    </measure>
    <!--=======================================================-->
    <measure number="2" width="100">
      <note default-x="16">
        <pitch>
          <step>E</step>
          <octave>4</octave>
        </pitch>
        <duration>4</duration>
        <voice>1</voice>
        <type>half</type>
        <stem default-y="5">up</stem>
        <lyric default-y="-95" number="1">
          <syllabic>single</syllabic>
          <text>Linh,</text>
        </lyric>
        <lyric default-y="-124" number="2">
          <syllabic>single</syllabic>
          <text>Linh,</text>
        </lyric>
        <lyric default-y="-152" number="3">
          <syllabic>single</syllabic>
          <text>Linh,</text>
        </lyric>
        <lyric default-y="-181" number="4">
          <syllabic>single</syllabic>
          <text>Linh,</text>
        </lyric>
        <lyric default-y="-209" number="5">
          <syllabic>single</syllabic>
          <text>Linh</text>
        </lyric>
      </note>
      <note default-x="16">
        <chord/>
        <pitch>
          <step>G</step>
          <octave>4</octave>
        </pitch>
        <duration>4</duration>
        <voice>1</voice>
        <type>half</type>
        <stem>up</stem>
      </note>
      <note default-x="67">
        <pitch>
          <step>E</step>
          <octave>4</octave>
        </pitch>
        <duration>2</duration>
        <voice>1</voice>
        <type>quarter</type>
        <stem default-y="5">up</stem>
        <lyric default-y="-95" number="1">
          <syllabic>single</syllabic>
          <text>tôi</text>
        </lyric>
        <lyric default-y="-124" number="2">
          <syllabic>single</syllabic>
          <text>xin</text>
        </lyric>
        <lyric default-y="-152" number="3">
          <syllabic>single</syllabic>
          <text>tôi</text>
        </lyric>
        <lyric default-y="-181" number="4">
          <syllabic>single</syllabic>
          <text>tôi</text>
        </lyric>
        <lyric default-y="-209" number="5">
          <syllabic>single</syllabic>
          <text>ban</text>
        </lyric>
      </note>
      <note default-x="67">
        <chord/>
        <pitch>
          <step>G</step>
          <octave>4</octave>
        </pitch>
        <duration>2</duration>
        <voice>1</voice>
        <type>quarter</type>
        <stem>up</stem>
      </note>
    </measure>
    <!--=======================================================-->
    <measure number="3" width="125">
      <harmony default-y="40" font-family="VNI-Helve-Condense" font-size="13.7">
        <root>
          <root-step>F</root-step>
        </root>
        <kind halign="center" text="">major</kind>
      </harmony>
      <note default-x="16">
        <pitch>
          <step>F</step>
          <octave>4</octave>
        </pitch>
        <duration>2</duration>
        <voice>1</voice>
        <type>quarter</type>
        <stem default-y="10">up</stem>
        <notations>
          <slur bezier-x="10" bezier-y="6" default-x="18" default-y="3" number="1" orientation="over" type="start"/>
          <slur bezier-x="9" bezier-y="-12" default-x="6" default-y="-45" number="2" placement="below" type="start"/>
        </notations>
        <lyric default-y="-95" number="1">
          <syllabic>single</syllabic>
          <text>cúi</text>
        </lyric>
        <lyric default-y="-124" number="2">
          <syllabic>single</syllabic>
          <text>đến</text>
        </lyric>
        <lyric default-y="-152" number="3" relative-x="6">
          <syllabic>single</syllabic>
          <text>đóng</text>
        </lyric>
        <lyric default-y="-181" number="4">
          <syllabic>single</syllabic>
          <text>ước</text>
        </lyric>
        <lyric default-y="-209" number="5" relative-x="12">
          <syllabic>single</syllabic>
          <text>xuống</text>
        </lyric>
      </note>
      <note default-x="16">
        <chord/>
        <pitch>
          <step>A</step>
          <octave>4</octave>
        </pitch>
        <duration>2</duration>
        <voice>1</voice>
        <type>quarter</type>
        <stem>up</stem>
      </note>
      <note default-x="53">
        <pitch>
          <step>E</step>
          <octave>4</octave>
        </pitch>
        <duration>2</duration>
        <voice>1</voice>
        <type>quarter</type>
        <stem default-y="5">up</stem>
        <notations>
          <slur bezier-x="-5" bezier-y="11" default-x="7" default-y="-5" number="1" type="stop"/>
          <slur bezier-x="-12" bezier-y="-9" default-x="7" default-y="-50" number="2" type="stop"/>
        </notations>
      </note>
      <note default-x="53">
        <chord/>
        <pitch>
          <step>G</step>
          <octave>4</octave>
        </pitch>
        <duration>2</duration>
        <voice>1</voice>
        <type>quarter</type>
        <stem>up</stem>
      </note>
      <note default-x="89">
        <pitch>
          <step>D</step>
          <octave>4</octave>
        </pitch>
        <duration>2</duration>
        <voice>1</voice>
        <type>quarter</type>
        <stem default-y="0">up</stem>
        <lyric default-y="-95" number="1">
          <syllabic>single</syllabic>
          <text>xin</text>
        </lyric>
        <lyric default-y="-124" number="2">
          <syllabic>single</syllabic>
          <text>lòng</text>
        </lyric>
        <lyric default-y="-152" number="3">
          <syllabic>single</syllabic>
          <text>đinh</text>
        </lyric>
        <lyric default-y="-181" number="4">
          <syllabic>single</syllabic>
          <text>lòng</text>
        </lyric>
        <lyric default-y="-209" number="5">
          <syllabic>single</syllabic>
          <text>từ</text>
        </lyric>
      </note>
      <note default-x="89">
        <chord/>
        <pitch>
          <step>F</step>
          <octave>4</octave>
        </pitch>
        <duration>2</duration>
        <voice>1</voice>
        <type>quarter</type>
        <stem>up</stem>
      </note>
    </measure>
    <!--=======================================================-->
    <measure number="4" width="85">
      <harmony default-y="40" font-family="VNI-Helve-Condense" font-size="13.7">
        <root>
          <root-step>C</root-step>
        </root>
        <kind halign="center" text="">major</kind>
      </harmony>
      <note default-x="16">
        <pitch>
          <step>C</step>
          <octave>4</octave>
        </pitch>
        <duration>6</duration>
        <voice>1</voice>
        <type>half</type>
        <dot/>
        <stem default-y="-5">up</stem>
        <lyric default-y="-95" number="1">
          <syllabic>single</syllabic>
          <text>Ngài</text>
        </lyric>
        <lyric default-y="-124" number="2">
          <syllabic>single</syllabic>
          <text>nầy,</text>
        </lyric>
        <lyric default-y="-152" number="3">
          <syllabic>single</syllabic>
          <text>rồi</text>
        </lyric>
        <lyric default-y="-181" number="4">
          <syllabic>single</syllabic>
          <text>nầy</text>
        </lyric>
        <lyric default-y="-209" number="5">
          <syllabic>single</syllabic>
          <text>trời,</text>
        </lyric>
      </note>
      <note default-x="16">
        <chord/>
        <pitch>
          <step>E</step>
          <octave>4</octave>
        </pitch>
        <duration>6</duration>
        <voice>1</voice>
        <type>half</type>
        <dot/>
        <stem>up</stem>
      </note>
    </measure>
    <!--=======================================================-->
    <measure number="5" width="159">
      <note default-x="31">
        <pitch>
          <step>C</step>
          <octave>4</octave>
        </pitch>
        <duration>4</duration>
        <voice>1</voice>
        <type>half</type>
        <stem default-y="-5">up</stem>
        <lyric default-y="-95" number="1">
          <syllabic>single</syllabic>
          <text>Ngự</text>
        </lyric>
        <lyric default-y="-124" number="2">
          <syllabic>single</syllabic>
          <text>Đặt</text>
        </lyric>
        <lyric default-y="-152" number="3">
          <syllabic>single</syllabic>
          <text>Lòng</text>
        </lyric>
        <lyric default-y="-181" number="4">
          <syllabic>single</syllabic>
          <text>Được</text>
        </lyric>
        <lyric default-y="-209" number="5">
          <syllabic>single</syllabic>
          <text>Nguyền</text>
        </lyric>
      </note>
      <note default-x="31">
        <chord/>
        <pitch>
          <step>E</step>
          <octave>4</octave>
        </pitch>
        <duration>4</duration>
        <voice>1</voice>
        <type>half</type>
        <stem>up</stem>
      </note>
      <harmony default-y="40" font-family="VNI-Helve-Condense" font-size="13.7">
        <root>
          <root-step>E</root-step>
        </root>
        <kind halign="center" text="7">dominant</kind>
        <bass>
          <bass-step>B</bass-step>
        </bass>
      </harmony>
      <note default-x="112">
        <pitch>
          <step>E</step>
          <octave>4</octave>
        </pitch>
        <duration>2</duration>
        <voice>1</voice>
        <type>quarter</type>
        <stem default-y="-5">up</stem>
        <lyric default-y="-95" number="1">
          <syllabic>single</syllabic>
          <text>vào</text>
        </lyric>
        <lyric default-y="-124" number="2">
          <syllabic>single</syllabic>
          <text>tội</text>
        </lyric>
        <lyric default-y="-152" number="3" relative-x="-3">
          <syllabic>single</syllabic>
          <text>nguyền</text>
        </lyric>
        <lyric default-y="-181" number="4">
          <syllabic>single</syllabic>
          <text>Ngài</text>
        </lyric>
        <lyric default-y="-209" number="5">
          <syllabic>single</syllabic>
          <text>hằng</text>
        </lyric>
      </note>
      <backup>
        <duration>2</duration>
      </backup>
      <note default-x="123">
        <pitch>
          <step>D</step>
          <octave>4</octave>
        </pitch>
        <duration>2</duration>
        <voice>2</voice>
        <type>quarter</type>
        <stem default-y="-73">down</stem>
      </note>
    </measure>
    <!--=======================================================-->
    <measure number="6" width="107">
      <harmony default-y="40" font-family="VNI-Helve-Condense" font-size="13.7">
        <root>
          <root-step>A</root-step>
        </root>
        <kind halign="center" text="m">minor</kind>
      </harmony>
      <note default-x="16">
        <pitch>
          <step>C</step>
          <octave>4</octave>
        </pitch>
        <duration>4</duration>
        <voice>1</voice>
        <type>half</type>
        <stem default-y="-5">up</stem>
        <lyric default-y="-95" number="1">
          <syllabic>single</syllabic>
          <text>lòng</text>
        </lyric>
        <lyric default-y="-124" number="2">
          <syllabic>single</syllabic>
          <text>vào</text>
        </lyric>
        <lyric default-y="-152" number="3">
          <syllabic>single</syllabic>
          <text>được</text>
        </lyric>
        <lyric default-y="-181" number="4">
          <syllabic>single</syllabic>
          <text>ngự</text>
        </lyric>
        <lyric default-y="-209" number="5">
          <syllabic>single</syllabic>
          <text>ngày</text>
        </lyric>
      </note>
      <note default-x="16">
        <chord/>
        <pitch>
          <step>E</step>
          <octave>4</octave>
        </pitch>
        <duration>4</duration>
        <voice>1</voice>
        <type>half</type>
        <stem>up</stem>
      </note>
      <note default-x="70">
        <pitch>
          <step>E</step>
          <octave>4</octave>
        </pitch>
        <duration>2</duration>
        <voice>1</voice>
        <type>quarter</type>
        <stem>double</stem>
        <lyric default-y="-95" number="1">
          <syllabic>single</syllabic>
          <text>nầy</text>
        </lyric>
        <lyric default-y="-124" number="2">
          <syllabic>single</syllabic>
          <text>thập</text>
        </lyric>
        <lyric default-y="-152" number="3">
          <syllabic>single</syllabic>
          <text>sự</text>
        </lyric>
        <lyric default-y="-181" number="4">
          <syllabic>single</syllabic>
          <text>đầy</text>
        </lyric>
        <lyric default-y="-209" number="5">
          <syllabic>single</syllabic>
          <text>Ngài</text>
        </lyric>
      </note>
    </measure>
    <!--=======================================================-->
    <measure number="7" width="145">
      <harmony default-y="40" font-family="VNI-Helve-Condense" font-size="13.7">
        <root>
          <root-step>D</root-step>
        </root>
        <kind halign="center" text="7">dominant</kind>
      </harmony>
      <note default-x="25">
        <pitch>
          <step>A</step>
          <octave>4</octave>
        </pitch>
        <duration>2</duration>
        <voice>1</voice>
        <type>quarter</type>
        <stem default-y="10">up</stem>
        <notations>
          <slur bezier-x="5" bezier-y="8" default-x="18" default-y="3" number="1" orientation="over" type="start"/>
        </notations>
        <lyric default-y="-95" number="1" relative-x="3">
          <syllabic>single</syllabic>
          <text>cách</text>
        </lyric>
        <lyric default-y="-124" number="2">
          <syllabic>single</syllabic>
          <text>giá</text>
        </lyric>
        <lyric default-y="-152" number="3" relative-x="4">
          <syllabic>single</syllabic>
          <text>sống</text>
        </lyric>
        <lyric default-y="-181" number="4" relative-x="8">
          <syllabic>single</syllabic>
          <text>chính</text>
        </lyric>
        <lyric default-y="-209" number="5">
          <syllabic>single</syllabic>
          <text>ấn</text>
        </lyric>
      </note>
      <backup>
        <duration>2</duration>
      </backup>
      <note default-x="26">
        <pitch>
          <step>F</step>
          <alter>1</alter>
          <octave>4</octave>
        </pitch>
        <duration>4</duration>
        <voice>2</voice>
        <type>half</type>
        <accidental>sharp</accidental>
        <stem default-y="-63.5">down</stem>
      </note>
      <backup>
        <duration>2</duration>
      </backup>
      <note default-x="56">
        <pitch>
          <step>B</step>
          <octave>4</octave>
        </pitch>
        <duration>2</duration>
        <voice>1</voice>
        <type>quarter</type>
        <stem default-y="15">up</stem>
        <notations>
          <slur bezier-x="-7" bezier-y="7" default-x="7" default-y="5" number="1" type="stop"/>
        </notations>
      </note>
      <note default-x="99">
        <pitch>
          <step>F</step>
          <alter>1</alter>
          <octave>4</octave>
        </pitch>
        <duration>2</duration>
        <voice>1</voice>
        <type>quarter</type>
        <stem default-y="14">up</stem>
        <lyric default-y="-95" number="1">
          <syllabic>single</syllabic>
          <text>hiển</text>
        </lyric>
        <lyric default-y="-124" number="2">
          <syllabic>single</syllabic>
          <text>đóng</text>
        </lyric>
        <lyric default-y="-152" number="3">
          <syllabic>single</syllabic>
          <text>Chúa</text>
        </lyric>
        <lyric default-y="-181" number="4">
          <syllabic>single</syllabic>
          <text>bữa</text>
        </lyric>
        <lyric default-y="-209" number="5">
          <syllabic>single</syllabic>
          <text>chứng</text>
        </lyric>
      </note>
      <note default-x="99">
        <chord/>
        <pitch>
          <step>C</step>
          <octave>5</octave>
        </pitch>
        <duration>2</duration>
        <voice>1</voice>
        <type>quarter</type>
        <stem>up</stem>
      </note>
    </measure>
    <!--=======================================================-->
    <measure number="8" width="93">
      <harmony default-y="40" font-family="VNI-Helve-Condense" font-size="13.7">
        <root>
          <root-step>G</root-step>
        </root>
        <kind halign="center" text="7">dominant</kind>
      </harmony>
      <note default-x="25">
        <pitch>
          <step>F</step>
          <octave>4</octave>
        </pitch>
        <duration>6</duration>
        <voice>1</voice>
        <type>half</type>
        <dot/>
        <accidental>natural</accidental>
        <stem default-y="15">up</stem>
        <lyric default-y="-95" number="1">
          <syllabic>single</syllabic>
          <text>oai;</text>
        </lyric>
        <lyric default-y="-124" number="2">
          <syllabic>single</syllabic>
          <text>ngay,</text>
        </lyric>
        <lyric default-y="-152" number="3">
          <syllabic>single</syllabic>
          <text>thôi;</text>
        </lyric>
        <lyric default-y="-181" number="4">
          <syllabic>single</syllabic>
          <text>nay;</text>
        </lyric>
        <lyric default-y="-209" number="5">
          <syllabic>single</syllabic>
          <text>tôi;</text>
        </lyric>
      </note>
      <note default-x="25">
        <chord/>
        <pitch>
          <step>B</step>
          <octave>4</octave>
        </pitch>
        <duration>6</duration>
        <voice>1</voice>
        <type>half</type>
        <dot/>
        <stem>up</stem>
      </note>
    </measure>
    <!--=======================================================-->
    <measure number="9" width="184">
      <print new-system="yes">
        <system-layout>
          <system-distance>127</system-distance>
        </system-layout>
      </print>
      <harmony default-y="40" font-family="VNI-Helve-Condense" font-size="13.7">
        <root>
          <root-step>C</root-step>
        </root>
        <kind halign="center" text="">major</kind>
      </harmony>
      <note default-x="51">
        <pitch>
          <step>G</step>
          <octave>4</octave>
        </pitch>
        <duration>4</duration>
        <voice>1</voice>
        <type>half</type>
        <stem default-y="23.5">up</stem>
        <lyric default-y="-95" number="1" relative-x="10">
          <syllabic>single</syllabic>
          <text>Đáp</text>
        </lyric>
        <lyric default-y="-124" number="2" relative-x="10">
          <syllabic>single</syllabic>
          <text>Quyết</text>
        </lyric>
        <lyric default-y="-152" number="3" relative-x="10">
          <syllabic>single</syllabic>
          <text>Hãy</text>
        </lyric>
        <lyric default-y="-181" number="4" relative-x="10">
          <syllabic>single</syllabic>
          <text>Hãy</text>
        </lyric>
        <lyric default-y="-209" number="5" relative-x="10">
          <syllabic>single</syllabic>
          <text>Cánh</text>
        </lyric>
      </note>
      <note default-x="51">
        <chord/>
        <pitch>
          <step>E</step>
          <octave>5</octave>
        </pitch>
        <duration>4</duration>
        <voice>1</voice>
        <type>half</type>
        <stem>up</stem>
      </note>
      <note default-x="132">
        <pitch>
          <step>F</step>
          <octave>4</octave>
        </pitch>
        <duration>2</duration>
        <voice>1</voice>
        <type>quarter</type>
        <stem default-y="18">up</stem>
        <lyric default-y="-95" number="1">
          <syllabic>single</syllabic>
          <text>xuống</text>
        </lyric>
        <lyric default-y="-124" number="2">
          <syllabic>single</syllabic>
          <text>đóng</text>
        </lyric>
        <lyric default-y="-152" number="3">
          <syllabic>single</syllabic>
          <text>lấy</text>
        </lyric>
        <lyric default-y="-181" number="4">
          <syllabic>single</syllabic>
          <text>đến</text>
        </lyric>
        <lyric default-y="-209" number="5">
          <syllabic>single</syllabic>
          <text>ái</text>
        </lyric>
      </note>
      <note default-x="132">
        <chord/>
        <pitch>
          <step>D</step>
          <octave>5</octave>
        </pitch>
        <duration>2</duration>
        <voice>1</voice>
        <type>quarter</type>
        <stem>up</stem>
      </note>
    </measure>
    <!--=======================================================-->
    <measure number="10" width="126">
      <harmony default-y="40" font-family="VNI-Helve-Condense" font-size="13.7">
        <root>
          <root-step>A</root-step>
        </root>
        <kind halign="center" text="m">minor</kind>
      </harmony>
      <note default-x="14">
        <pitch>
          <step>E</step>
          <octave>4</octave>
        </pitch>
        <duration>4</duration>
        <voice>1</voice>
        <type>half</type>
        <stem default-y="13.5">up</stem>
        <lyric default-y="-95" number="1">
          <syllabic>single</syllabic>
          <text>như</text>
        </lyric>
        <lyric default-y="-124" number="2" relative-x="3">
          <syllabic>single</syllabic>
          <text>đinh</text>
        </lyric>
        <lyric default-y="-152" number="3">
          <syllabic>single</syllabic>
          <text>hơi</text>
        </lyric>
        <lyric default-y="-181" number="4" relative-x="3">
          <syllabic>single</syllabic>
          <text>đem</text>
        </lyric>
        <lyric default-y="-209" number="5" relative-x="6">
          <syllabic>single</syllabic>
          <text>nhơn</text>
        </lyric>
      </note>
      <note default-x="14">
        <chord/>
        <pitch>
          <step>C</step>
          <octave>5</octave>
        </pitch>
        <duration>4</duration>
        <voice>1</voice>
        <type>half</type>
        <stem>up</stem>
      </note>
      <harmony default-y="40" font-family="VNI-Helve-Condense" font-size="13.7">
        <root>
          <root-step>E</root-step>
        </root>
        <kind halign="center" text="7">dominant</kind>
      </harmony>
      <note default-x="82">
        <pitch>
          <step>G</step>
          <alter>1</alter>
          <octave>4</octave>
        </pitch>
        <duration>2</duration>
        <voice>1</voice>
        <type>quarter</type>
        <accidental>sharp</accidental>
        <stem default-y="15">up</stem>
        <lyric default-y="-95" number="1">
          <syllabic>single</syllabic>
          <text>chim</text>
        </lyric>
        <lyric default-y="-124" number="2">
          <syllabic>single</syllabic>
          <text>luôn</text>
        </lyric>
        <lyric default-y="-152" number="3">
          <syllabic>single</syllabic>
          <text>linh</text>
        </lyric>
        <lyric default-y="-181" number="4">
          <syllabic>single</syllabic>
          <text>nhân</text>
        </lyric>
        <lyric default-y="-209" number="5">
          <syllabic>single</syllabic>
          <text>luôn</text>
        </lyric>
      </note>
      <note default-x="82">
        <chord/>
        <pitch>
          <step>B</step>
          <octave>4</octave>
        </pitch>
        <duration>2</duration>
        <voice>1</voice>
        <type>quarter</type>
        <stem>up</stem>
      </note>
    </measure>
    <!--=======================================================-->
    <measure number="11" width="133">
      <harmony default-y="40" font-family="VNI-Helve-Condense" font-size="13.7">
        <root>
          <root-step>F</root-step>
        </root>
        <kind halign="center" text="">major</kind>
      </harmony>
      <note default-x="16">
        <pitch>
          <step>A</step>
          <octave>4</octave>
        </pitch>
        <duration>2</duration>
        <voice>1</voice>
        <type>quarter</type>
        <stem>double</stem>
        <notations>
          <slur bezier-x="7" bezier-y="9" default-x="18" default-y="3" number="1" orientation="over" type="start"/>
          <slur bezier-x="3" bezier-y="-12" default-x="6" default-y="-35" number="2" orientation="under" type="start"/>
        </notations>
        <lyric default-y="-95" number="1">
          <syllabic>single</syllabic>
          <text>bồ</text>
        </lyric>
        <lyric default-y="-124" number="2">
          <syllabic>single</syllabic>
          <text>tội</text>
        </lyric>
        <lyric default-y="-152" number="3">
          <syllabic>single</syllabic>
          <text>đầy</text>
        </lyric>
        <lyric default-y="-181" number="4">
          <syllabic>single</syllabic>
          <text>từ</text>
        </lyric>
        <lyric default-y="-209" number="5">
          <syllabic>single</syllabic>
          <text>đỡ</text>
        </lyric>
      </note>
      <note default-x="52">
        <pitch>
          <step>B</step>
          <octave>4</octave>
        </pitch>
        <duration>2</duration>
        <voice>1</voice>
        <type>quarter</type>
        <stem default-y="15">up</stem>
        <notations>
          <slur bezier-x="-8" bezier-y="8" default-x="7" default-y="5" number="1" type="stop"/>
        </notations>
      </note>
      <backup>
        <duration>2</duration>
      </backup>
      <note default-x="52">
        <pitch>
          <step>G</step>
          <octave>4</octave>
        </pitch>
        <duration>2</duration>
        <voice>2</voice>
        <type>quarter</type>
        <stem default-y="-58">down</stem>
        <notations>
          <slur bezier-x="-12" bezier-y="-4" default-x="-5" default-y="-48" number="2" type="stop"/>
        </notations>
      </note>
      <note default-x="90">
        <pitch>
          <step>F</step>
          <octave>4</octave>
        </pitch>
        <duration>2</duration>
        <voice>1</voice>
        <type>quarter</type>
        <stem default-y="13.5">up</stem>
        <lyric default-y="-95" number="1">
          <syllabic>single</syllabic>
          <text>câu</text>
        </lyric>
        <lyric default-y="-124" number="2">
          <syllabic>single</syllabic>
          <text>tâm</text>
        </lyric>
        <lyric default-y="-152" number="3">
          <syllabic>single</syllabic>
          <text>năng</text>
        </lyric>
        <lyric default-y="-181" number="4">
          <syllabic>single</syllabic>
          <text>dư</text>
        </lyric>
        <lyric default-y="-209" number="5">
          <syllabic>single</syllabic>
          <text>thân</text>
        </lyric>
      </note>
      <note default-x="90">
        <chord/>
        <pitch>
          <step>C</step>
          <octave>5</octave>
        </pitch>
        <duration>2</duration>
        <voice>1</voice>
        <type>quarter</type>
        <stem>up</stem>
      </note>
    </measure>
    <!--=======================================================-->
    <measure number="12" width="94">
      <harmony default-y="40" font-family="VNI-Helve-Condense" font-size="13.7">
        <root>
          <root-step>C</root-step>
        </root>
        <kind halign="center" text="">major</kind>
      </harmony>
      <note default-x="17">
        <pitch>
          <step>E</step>
          <octave>4</octave>
        </pitch>
        <duration>6</duration>
        <voice>1</voice>
        <type>half</type>
        <dot/>
        <stem default-y="5">up</stem>
        <lyric default-y="-95" number="1">
          <syllabic>single</syllabic>
          <text>hiện,</text>
        </lyric>
        <lyric default-y="-124" number="2">
          <syllabic>single</syllabic>
          <text>nầy,</text>
        </lyric>
        <lyric default-y="-152" number="3">
          <syllabic>single</syllabic>
          <text>lực,</text>
        </lyric>
        <lyric default-y="-181" number="4">
          <syllabic>single</syllabic>
          <text>dật,</text>
        </lyric>
        <lyric default-y="-209" number="5">
          <syllabic>single</syllabic>
          <text>nầy;</text>
        </lyric>
      </note>
      <note default-x="17">
        <chord/>
        <pitch>
          <step>G</step>
          <octave>4</octave>
        </pitch>
        <duration>6</duration>
        <voice>1</voice>
        <type>half</type>
        <dot/>
        <stem>up</stem>
      </note>
    </measure>
    <!--=======================================================-->
    <measure number="13" width="132">
      <harmony default-y="40" font-family="VNI-Helve-Condense" font-size="13.7">
        <root>
          <root-step>F</root-step>
        </root>
        <kind halign="center" text="">major</kind>
      </harmony>
      <note default-x="17">
        <pitch>
          <step>F</step>
          <octave>4</octave>
        </pitch>
        <duration>4</duration>
        <voice>1</voice>
        <type>half</type>
        <stem default-y="10">up</stem>
        <lyric default-y="-95" number="1">
          <syllabic>single</syllabic>
          <text>Ở</text>
        </lyric>
        <lyric default-y="-124" number="2">
          <syllabic>single</syllabic>
          <text>Để</text>
        </lyric>
        <lyric default-y="-152" number="3">
          <syllabic>single</syllabic>
          <text>Bứt</text>
        </lyric>
        <lyric default-y="-181" number="4">
          <syllabic>single</syllabic>
          <text>Ước</text>
        </lyric>
        <lyric default-y="-209" number="5">
          <syllabic>single</syllabic>
          <text>Đến</text>
        </lyric>
      </note>
      <note default-x="17">
        <chord/>
        <pitch>
          <step>A</step>
          <octave>4</octave>
        </pitch>
        <duration>4</duration>
        <voice>1</voice>
        <type>half</type>
        <stem>up</stem>
      </note>
      <note default-x="82">
        <pitch>
          <step>F</step>
          <octave>4</octave>
        </pitch>
        <duration>2</duration>
        <voice>1</voice>
        <type>quarter</type>
        <stem default-y="10">up</stem>
        <lyric default-y="-95" number="1">
          <syllabic>single</syllabic>
          <text>mỗi</text>
        </lyric>
        <lyric default-y="-124" number="2">
          <syllabic>single</syllabic>
          <text>tâm</text>
        </lyric>
        <lyric default-y="-152" number="3">
          <syllabic>single</syllabic>
          <text>đứt</text>
        </lyric>
        <lyric default-y="-181" number="4">
          <syllabic>single</syllabic>
          <text>mến</text>
        </lyric>
        <lyric default-y="-209" number="5">
          <syllabic>single</syllabic>
          <text>hưởng</text>
        </lyric>
      </note>
      <note default-x="82">
        <chord/>
        <pitch>
          <step>A</step>
          <octave>4</octave>
        </pitch>
        <duration>2</duration>
        <voice>1</voice>
        <type>quarter</type>
        <stem>up</stem>
      </note>
    </measure>
    <!--=======================================================-->
    <measure number="14" width="118">
      <harmony default-y="40" font-family="VNI-Helve-Condense" font-size="13.7">
        <root>
          <root-step>C</root-step>
        </root>
        <kind halign="center" text="">major</kind>
        <bass>
          <bass-step>G</bass-step>
        </bass>
      </harmony>
      <note default-x="17">
        <pitch>
          <step>E</step>
          <octave>4</octave>
        </pitch>
        <duration>4</duration>
        <voice>1</voice>
        <type>half</type>
        <stem default-y="5">up</stem>
        <lyric default-y="-95" number="1">
          <syllabic>single</syllabic>
          <text>tâm</text>
        </lyric>
        <lyric default-y="-124" number="2">
          <syllabic>single</syllabic>
          <text>linh</text>
        </lyric>
        <lyric default-y="-152" number="3">
          <syllabic>single</syllabic>
          <text>dây</text>
        </lyric>
        <lyric default-y="-181" number="4">
          <syllabic>single</syllabic>
          <text>ơn</text>
        </lyric>
        <lyric default-y="-209" number="5">
          <syllabic>single</syllabic>
          <text>ơn</text>
        </lyric>
      </note>
      <note default-x="17">
        <chord/>
        <pitch>
          <step>G</step>
          <octave>4</octave>
        </pitch>
        <duration>4</duration>
        <voice>1</voice>
        <type>half</type>
        <stem>up</stem>
      </note>
      <note default-x="75">
        <pitch>
          <step>C</step>
          <octave>4</octave>
        </pitch>
        <duration>2</duration>
        <voice>1</voice>
        <type>quarter</type>
        <stem default-y="-5">up</stem>
        <lyric default-y="-95" number="1">
          <syllabic>single</syllabic>
          <text>chờ</text>
        </lyric>
        <lyric default-y="-124" number="2">
          <syllabic>single</syllabic>
          <text>được</text>
        </lyric>
        <lyric default-y="-152" number="3">
          <syllabic>single</syllabic>
          <text>sự</text>
        </lyric>
        <lyric default-y="-181" number="4">
          <syllabic>single</syllabic>
          <text>hiện</text>
        </lyric>
        <lyric default-y="-209" number="5">
          <syllabic>single</syllabic>
          <text>thiên</text>
        </lyric>
      </note>
      <note default-x="75">
        <chord/>
        <pitch>
          <step>E</step>
          <octave>4</octave>
        </pitch>
        <duration>2</duration>
        <voice>1</voice>
        <type>quarter</type>
        <stem>up</stem>
      </note>
    </measure>
    <!--=======================================================-->
    <measure number="15" width="139">
      <harmony default-y="40" font-family="VNI-Helve-Condense" font-size="13.7">
        <root>
          <root-step>G</root-step>
        </root>
        <kind halign="center" text="7">dominant</kind>
      </harmony>
      <note default-x="16">
        <pitch>
          <step>B</step>
          <octave>3</octave>
        </pitch>
        <duration>2</duration>
        <voice>1</voice>
        <type>quarter</type>
        <stem default-y="-10">up</stem>
        <notations>
          <slur bezier-x="7" bezier-y="9" default-x="18" default-y="-17" number="1" orientation="over" type="start"/>
          <slur bezier-x="12" bezier-y="-9" default-x="6" default-y="-65" number="2" placement="below" type="start"/>
        </notations>
        <lyric default-y="-95" number="1">
          <syllabic>single</syllabic>
          <text>đợi</text>
        </lyric>
        <lyric default-y="-124" number="2">
          <syllabic>single</syllabic>
          <text>sạch</text>
        </lyric>
        <lyric default-y="-152" number="3">
          <syllabic>single</syllabic>
          <text>chết</text>
        </lyric>
        <lyric default-y="-181" number="4">
          <syllabic>single</syllabic>
          <text>diện</text>
        </lyric>
        <lyric default-y="-209" number="5" relative-x="3">
          <syllabic>single</syllabic>
          <text>đàng</text>
        </lyric>
      </note>
      <note default-x="16">
        <chord/>
        <pitch>
          <step>D</step>
          <octave>4</octave>
        </pitch>
        <duration>2</duration>
        <voice>1</voice>
        <type>quarter</type>
        <stem>up</stem>
      </note>
      <note default-x="53">
        <pitch>
          <step>C</step>
          <octave>4</octave>
        </pitch>
        <duration>2</duration>
        <voice>1</voice>
        <type>quarter</type>
        <stem default-y="-5">up</stem>
        <notations>
          <slur bezier-x="-9" bezier-y="8" default-x="7" default-y="-15" number="1" type="stop"/>
          <slur bezier-x="-9" bezier-y="-12" default-x="6" default-y="-60" number="2" type="stop"/>
        </notations>
      </note>
      <note default-x="53">
        <chord/>
        <pitch>
          <step>E</step>
          <octave>4</octave>
        </pitch>
        <duration>2</duration>
        <voice>1</voice>
        <type>quarter</type>
        <stem>up</stem>
      </note>
      <note default-x="95">
        <pitch>
          <step>D</step>
          <octave>4</octave>
        </pitch>
        <duration>2</duration>
        <voice>1</voice>
        <type>quarter</type>
        <stem default-y="0">up</stem>
        <lyric default-y="-95" number="1">
          <syllabic>single</syllabic>
          <text>khẩn</text>
        </lyric>
        <lyric default-y="-124" number="2">
          <syllabic>single</syllabic>
          <text>sẽ</text>
        </lyric>
        <lyric default-y="-152" number="3">
          <syllabic>single</syllabic>
          <text>trói</text>
        </lyric>
        <lyric default-y="-181" number="4">
          <syllabic>single</syllabic>
          <text>thơm</text>
        </lyric>
        <lyric default-y="-209" number="5">
          <syllabic>single</syllabic>
          <text>vui</text>
        </lyric>
      </note>
      <note default-x="95">
        <chord/>
        <pitch>
          <step>F</step>
          <octave>4</octave>
        </pitch>
        <duration>2</duration>
        <voice>1</voice>
        <type>quarter</type>
        <stem>up</stem>
      </note>
    </measure>
    <!--=======================================================-->
    <measure number="16" width="95">
      <harmony default-y="40" font-family="VNI-Helve-Condense" font-size="13.7">
        <root>
          <root-step>C</root-step>
        </root>
        <kind halign="center" text="">major</kind>
      </harmony>
      <note default-x="16">
        <pitch>
          <step>C</step>
          <octave>4</octave>
        </pitch>
        <duration>6</duration>
        <voice>1</voice>
        <type>half</type>
        <dot/>
        <stem default-y="-5">up</stem>
        <lyric default-y="-95" number="1" relative-x="15">
          <syllabic>single</syllabic>
          <text>nguyện.</text>
        </lyric>
        <lyric default-y="-124" number="2">
          <syllabic>single</syllabic>
          <text>hoài.</text>
        </lyric>
        <lyric default-y="-152" number="3">
          <syllabic>single</syllabic>
          <text>buộc.</text>
        </lyric>
        <lyric default-y="-181" number="4">
          <syllabic>single</syllabic>
          <text>nực.</text>
        </lyric>
        <lyric default-y="-209" number="5">
          <syllabic>single</syllabic>
          <text>vầy.</text>
        </lyric>
      </note>
      <note default-x="16">
        <chord/>
        <pitch>
          <step>E</step>
          <octave>4</octave>
        </pitch>
        <duration>6</duration>
        <voice>1</voice>
        <type>half</type>
        <dot/>
        <stem>up</stem>
      </note>
      <barline location="right">
        <bar-style>light-heavy</bar-style>
      </barline>
    </measure>
  </part>
  <!--=========================================================-->
  <part id="P2">
    <?SmartMusic maxVoice=1?>
    <measure number="1" width="208">
      <print>
        <staff-layout number="1">
          <staff-distance>214</staff-distance>
        </staff-layout>
        <measure-numbering>none</measure-numbering>
      </print>
      <attributes>
        <divisions>2</divisions>
        <key>
          <fifths>0</fifths>
          <mode>major</mode>
        </key>
        <time>
          <beats>3</beats>
          <beat-type>4</beat-type>
        </time>
        <clef>
          <sign>F</sign>
          <line>4</line>
        </clef>
      </attributes>
      <sound tempo="104"/>
      <note default-x="98">
        <pitch>
          <step>C</step>
          <octave>3</octave>
        </pitch>
        <duration>4</duration>
        <voice>1</voice>
        <type>half</type>
        <stem default-y="-53">down</stem>
      </note>
      <note default-x="98">
        <chord/>
        <pitch>
          <step>G</step>
          <octave>3</octave>
        </pitch>
        <duration>4</duration>
        <voice>1</voice>
        <type>half</type>
        <stem>down</stem>
      </note>
      <note default-x="163">
        <pitch>
          <step>C</step>
          <octave>3</octave>
        </pitch>
        <duration>2</duration>
        <voice>1</voice>
        <type>quarter</type>
        <stem default-y="-53">down</stem>
      </note>
      <note default-x="163">
        <chord/>
        <pitch>
          <step>G</step>
          <octave>3</octave>
        </pitch>
        <duration>2</duration>
        <voice>1</voice>
        <type>quarter</type>
        <stem>down</stem>
      </note>
    </measure>
    <!--=======================================================-->
    <measure number="2" width="100">
      <note default-x="16">
        <pitch>
          <step>C</step>
          <octave>3</octave>
        </pitch>
        <duration>4</duration>
        <voice>1</voice>
        <type>half</type>
        <stem default-y="-53">down</stem>
      </note>
      <note default-x="16">
        <chord/>
        <pitch>
          <step>C</step>
          <octave>4</octave>
        </pitch>
        <duration>4</duration>
        <voice>1</voice>
        <type>half</type>
        <stem>down</stem>
      </note>
      <note default-x="67">
        <pitch>
          <step>C</step>
          <octave>3</octave>
        </pitch>
        <duration>2</duration>
        <voice>1</voice>
        <type>quarter</type>
        <stem default-y="-53">down</stem>
      </note>
      <note default-x="67">
        <chord/>
        <pitch>
          <step>C</step>
          <octave>4</octave>
        </pitch>
        <duration>2</duration>
        <voice>1</voice>
        <type>quarter</type>
        <stem>down</stem>
      </note>
    </measure>
    <!--=======================================================-->
    <measure number="3" width="125">
      <note default-x="16">
        <pitch>
          <step>C</step>
          <octave>4</octave>
        </pitch>
        <duration>4</duration>
        <voice>1</voice>
        <type>half</type>
        <stem default-y="38.5">up</stem>
      </note>
      <backup>
        <duration>4</duration>
      </backup>
      <note default-x="16">
        <pitch>
          <step>F</step>
          <octave>3</octave>
        </pitch>
        <duration>2</duration>
        <voice>2</voice>
        <type>quarter</type>
        <stem default-y="-45">down</stem>
        <notations>
          <slur bezier-x="8" bezier-y="-8" default-x="6" default-y="-35" number="1" placement="below" type="start"/>
        </notations>
      </note>
      <note default-x="53">
        <pitch>
          <step>G</step>
          <octave>3</octave>
        </pitch>
        <duration>2</duration>
        <voice>2</voice>
        <type>quarter</type>
        <stem default-y="-40">down</stem>
        <notations>
          <slur bezier-x="-7" bezier-y="-9" default-x="-5" default-y="-33" number="1" type="stop"/>
        </notations>
      </note>
      <note default-x="89">
        <pitch>
          <step>G</step>
          <octave>3</octave>
        </pitch>
        <duration>2</duration>
        <voice>1</voice>
        <type>quarter</type>
        <stem>double</stem>
      </note>
    </measure>
    <!--=======================================================-->
    <measure number="4" width="85">
      <note default-x="16">
        <pitch>
          <step>C</step>
          <octave>3</octave>
        </pitch>
        <duration>6</duration>
        <voice>1</voice>
        <type>half</type>
        <dot/>
        <stem default-y="-53">down</stem>
      </note>
      <note default-x="16">
        <chord/>
        <pitch>
          <step>G</step>
          <octave>3</octave>
        </pitch>
        <duration>6</duration>
        <voice>1</voice>
        <type>half</type>
        <dot/>
        <stem>down</stem>
      </note>
    </measure>
    <!--=======================================================-->
    <measure number="5" width="159">
      <note default-x="31">
        <pitch>
          <step>C</step>
          <octave>3</octave>
        </pitch>
        <duration>4</duration>
        <voice>1</voice>
        <type>half</type>
        <stem default-y="-53">down</stem>
      </note>
      <note default-x="31">
        <chord/>
        <pitch>
          <step>G</step>
          <octave>3</octave>
        </pitch>
        <duration>4</duration>
        <voice>1</voice>
        <type>half</type>
        <stem>down</stem>
      </note>
      <note default-x="112">
        <pitch>
          <step>B</step>
          <octave>2</octave>
        </pitch>
        <duration>2</duration>
        <voice>1</voice>
        <type>quarter</type>
        <stem default-y="-58.5">down</stem>
      </note>
      <note default-x="112">
        <chord/>
        <pitch>
          <step>G</step>
          <alter>1</alter>
          <octave>3</octave>
        </pitch>
        <duration>2</duration>
        <voice>1</voice>
        <type>quarter</type>
        <accidental>sharp</accidental>
        <stem>down</stem>
      </note>
    </measure>
    <!--=======================================================-->
    <measure number="6" width="107">
      <note default-x="16">
        <pitch>
          <step>A</step>
          <octave>2</octave>
        </pitch>
        <duration>4</duration>
        <voice>1</voice>
        <type>half</type>
        <stem default-y="-63">down</stem>
      </note>
      <note default-x="16">
        <chord/>
        <pitch>
          <step>A</step>
          <octave>3</octave>
        </pitch>
        <duration>4</duration>
        <voice>1</voice>
        <type>half</type>
        <stem>down</stem>
      </note>
      <note default-x="70">
        <pitch>
          <step>A</step>
          <octave>3</octave>
        </pitch>
        <duration>2</duration>
        <voice>1</voice>
        <type>quarter</type>
        <stem default-y="-35">down</stem>
      </note>
      <note default-x="70">
        <chord/>
        <pitch>
          <step>C</step>
          <octave>4</octave>
        </pitch>
        <duration>2</duration>
        <voice>1</voice>
        <type>quarter</type>
        <stem>down</stem>
      </note>
    </measure>
    <!--=======================================================-->
    <measure number="7" width="145">
      <note default-x="25">
        <pitch>
          <step>C</step>
          <octave>4</octave>
        </pitch>
        <duration>2</duration>
        <voice>1</voice>
        <type>quarter</type>
        <stem default-y="38.5">up</stem>
        <notations>
          <slur bezier-x="8" bezier-y="6" default-x="18" default-y="29" number="1" orientation="over" type="start"/>
        </notations>
      </note>
      <backup>
        <duration>2</duration>
      </backup>
      <note default-x="26">
        <pitch>
          <step>D</step>
          <octave>3</octave>
        </pitch>
        <duration>4</duration>
        <voice>2</voice>
        <type>half</type>
        <stem default-y="-55">down</stem>
      </note>
      <backup>
        <duration>2</duration>
      </backup>
      <note default-x="56">
        <pitch>
          <step>B</step>
          <octave>3</octave>
        </pitch>
        <duration>2</duration>
        <voice>1</voice>
        <type>quarter</type>
        <stem default-y="33">up</stem>
        <notations>
          <slur bezier-x="-4" bezier-y="9" default-x="7" default-y="23" number="1" type="stop"/>
        </notations>
      </note>
      <note default-x="99">
        <pitch>
          <step>D</step>
          <octave>3</octave>
        </pitch>
        <duration>2</duration>
        <voice>1</voice>
        <type>quarter</type>
        <stem default-y="-55">down</stem>
      </note>
      <note default-x="99">
        <chord/>
        <pitch>
          <step>A</step>
          <octave>3</octave>
        </pitch>
        <duration>2</duration>
        <voice>1</voice>
        <type>quarter</type>
        <stem>down</stem>
      </note>
    </measure>
    <!--=======================================================-->
    <measure number="8" width="93">
      <note default-x="25">
        <pitch>
          <step>G</step>
          <octave>2</octave>
        </pitch>
        <duration>6</duration>
        <voice>1</voice>
        <type>half</type>
        <dot/>
        <stem default-y="-68">down</stem>
      </note>
      <note default-x="25">
        <chord/>
        <pitch>
          <step>D</step>
          <octave>4</octave>
        </pitch>
        <duration>6</duration>
        <voice>1</voice>
        <type>half</type>
        <dot/>
        <stem>down</stem>
      </note>
    </measure>
    <!--=======================================================-->
    <measure number="9" width="184">
      <print new-system="yes">
        <staff-layout number="1">
          <staff-distance>214</staff-distance>
        </staff-layout>
      </print>
      <note default-x="51">
        <pitch>
          <step>C</step>
          <octave>3</octave>
        </pitch>
        <duration>4</duration>
        <voice>1</voice>
        <type>half</type>
        <stem default-y="-53">down</stem>
      </note>
      <note default-x="51">
        <chord/>
        <pitch>
          <step>C</step>
          <octave>4</octave>
        </pitch>
        <duration>4</duration>
        <voice>1</voice>
        <type>half</type>
        <stem>down</stem>
      </note>
      <note default-x="132">
        <pitch>
          <step>G</step>
          <octave>3</octave>
        </pitch>
        <duration>2</duration>
        <voice>1</voice>
        <type>quarter</type>
        <stem default-y="-40">down</stem>
      </note>
      <note default-x="132">
        <chord/>
        <pitch>
          <step>B</step>
          <octave>3</octave>
        </pitch>
        <duration>2</duration>
        <voice>1</voice>
        <type>quarter</type>
        <stem>down</stem>
      </note>
    </measure>
    <!--=======================================================-->
    <measure number="10" width="126">
      <note default-x="14">
        <pitch>
          <step>A</step>
          <octave>3</octave>
        </pitch>
        <duration>4</duration>
        <voice>1</voice>
        <type>half</type>
        <stem>double</stem>
      </note>
      <note default-x="82">
        <pitch>
          <step>E</step>
          <octave>3</octave>
        </pitch>
        <duration>2</duration>
        <voice>1</voice>
        <type>quarter</type>
        <stem default-y="-50">down</stem>
      </note>
      <note default-x="82">
        <chord/>
        <pitch>
          <step>D</step>
          <octave>4</octave>
        </pitch>
        <duration>2</duration>
        <voice>1</voice>
        <type>quarter</type>
        <stem>down</stem>
      </note>
    </measure>
    <!--=======================================================-->
    <measure number="11" width="133">
      <note default-x="16">
        <pitch>
          <step>F</step>
          <octave>3</octave>
        </pitch>
        <duration>4</duration>
        <voice>1</voice>
        <type>half</type>
        <stem default-y="-45">down</stem>
      </note>
      <note default-x="16">
        <chord/>
        <pitch>
          <step>C</step>
          <octave>4</octave>
        </pitch>
        <duration>4</duration>
        <voice>1</voice>
        <type>half</type>
        <stem>down</stem>
      </note>
      <note default-x="90">
        <pitch>
          <step>F</step>
          <octave>3</octave>
        </pitch>
        <duration>2</duration>
        <voice>1</voice>
        <type>quarter</type>
        <stem default-y="-45">down</stem>
      </note>
      <note default-x="90">
        <chord/>
        <pitch>
          <step>A</step>
          <octave>3</octave>
        </pitch>
        <duration>2</duration>
        <voice>1</voice>
        <type>quarter</type>
        <stem>down</stem>
      </note>
    </measure>
    <!--=======================================================-->
    <measure number="12" width="94">
      <note default-x="17">
        <pitch>
          <step>C</step>
          <octave>4</octave>
        </pitch>
        <duration>6</duration>
        <voice>1</voice>
        <type>half</type>
        <dot/>
        <stem>double</stem>
      </note>
    </measure>
    <!--=======================================================-->
    <measure number="13" width="132">
      <note default-x="17">
        <pitch>
          <step>F</step>
          <octave>3</octave>
        </pitch>
        <duration>4</duration>
        <voice>1</voice>
        <type>half</type>
        <stem default-y="-45">down</stem>
      </note>
      <note default-x="17">
        <chord/>
        <pitch>
          <step>C</step>
          <octave>4</octave>
        </pitch>
        <duration>4</duration>
        <voice>1</voice>
        <type>half</type>
        <stem>down</stem>
      </note>
      <note default-x="82">
        <pitch>
          <step>F</step>
          <octave>3</octave>
        </pitch>
        <duration>2</duration>
        <voice>1</voice>
        <type>quarter</type>
        <stem default-y="-45">down</stem>
      </note>
      <note default-x="82">
        <chord/>
        <pitch>
          <step>C</step>
          <octave>4</octave>
        </pitch>
        <duration>2</duration>
        <voice>1</voice>
        <type>quarter</type>
        <stem>down</stem>
      </note>
    </measure>
    <!--=======================================================-->
    <measure number="14" width="118">
      <note default-x="17">
        <pitch>
          <step>G</step>
          <octave>3</octave>
        </pitch>
        <duration>4</duration>
        <voice>1</voice>
        <type>half</type>
        <stem default-y="-40">down</stem>
      </note>
      <note default-x="17">
        <chord/>
        <pitch>
          <step>C</step>
          <octave>4</octave>
        </pitch>
        <duration>4</duration>
        <voice>1</voice>
        <type>half</type>
        <stem>down</stem>
      </note>
      <note default-x="75">
        <pitch>
          <step>G</step>
          <octave>3</octave>
        </pitch>
        <duration>2</duration>
        <voice>1</voice>
        <type>quarter</type>
        <stem>double</stem>
      </note>
    </measure>
    <!--=======================================================-->
    <measure number="15" width="139">
      <note default-x="16">
        <pitch>
          <step>G</step>
          <octave>2</octave>
        </pitch>
        <duration>4</duration>
        <voice>1</voice>
        <type>half</type>
        <stem default-y="-68.5">down</stem>
      </note>
      <note default-x="16">
        <chord/>
        <pitch>
          <step>G</step>
          <octave>3</octave>
        </pitch>
        <duration>4</duration>
        <voice>1</voice>
        <type>half</type>
        <stem>down</stem>
      </note>
      <note default-x="95">
        <pitch>
          <step>G</step>
          <octave>2</octave>
        </pitch>
        <duration>2</duration>
        <voice>1</voice>
        <type>quarter</type>
        <stem default-y="-68.5">down</stem>
      </note>
      <note default-x="95">
        <chord/>
        <pitch>
          <step>G</step>
          <octave>3</octave>
        </pitch>
        <duration>2</duration>
        <voice>1</voice>
        <type>quarter</type>
        <stem>down</stem>
      </note>
    </measure>
    <!--=======================================================-->
    <measure number="16" width="95">
      <note default-x="16">
        <pitch>
          <step>C</step>
          <octave>3</octave>
        </pitch>
        <duration>6</duration>
        <voice>1</voice>
        <type>half</type>
        <dot/>
        <stem default-y="-53">down</stem>
      </note>
      <note default-x="16">
        <chord/>
        <pitch>
          <step>G</step>
          <octave>3</octave>
        </pitch>
        <duration>6</duration>
        <voice>1</voice>
        <type>half</type>
        <dot/>
        <stem>down</stem>
      </note>
      <barline location="right">
        <bar-style>light-heavy</bar-style>
      </barline>
    </measure>
  </part>
  <!--=========================================================-->
</score-partwise>
