<?xml version="1.0" encoding="UTF-8" standalone="no"?>
<!DOCTYPE score-partwise PUBLIC "-//Recordare//DTD MusicXML 3.1 Partwise//EN" "http://www.musicxml.org/dtds/partwise.dtd">
<score-partwise version="3.1">
  <movement-title>CÁC THÁNH ĐÃ NGHỈ YÊN</movement-title>
  <identification>
    <creator type="composer">Joseph Bornby, 1838-1896.</creator>
    <creator type="lyricist">William Walsham How, 1823-1897.</creator>
    <rights>©</rights>
    <encoding>
      <software>Finale v26.3 for Windows</software>
      <encoding-date>2021-09-07</encoding-date>
      <supports attribute="new-system" element="print" type="yes" value="yes"/>
      <supports attribute="new-page" element="print" type="yes" value="yes"/>
      <supports element="accidental" type="yes"/>
      <supports element="beam" type="yes"/>
      <supports element="stem" type="yes"/>
    </encoding>
  </identification>
  <defaults>
    <scaling>
      <millimeters>7.2319</millimeters>
      <tenths>40</tenths>
    </scaling>
    <page-layout>
      <page-height>1643</page-height>
      <page-width>1161</page-width>
      <page-margins type="both">
        <left-margin>70</left-margin>
        <right-margin>70</right-margin>
        <top-margin>70</top-margin>
        <bottom-margin>70</bottom-margin>
      </page-margins>
    </page-layout>
    <system-layout>
      <system-margins>
        <left-margin>0</left-margin>
        <right-margin>0</right-margin>
      </system-margins>
      <system-distance>109</system-distance>
      <top-system-distance>70</top-system-distance>
    </system-layout>
    <staff-layout>
      <staff-distance>93</staff-distance>
    </staff-layout>
    <appearance>
      <line-width type="stem">1.1784</line-width>
      <line-width type="beam">5</line-width>
      <line-width type="staff">1.1784</line-width>
      <line-width type="light barline">1.1784</line-width>
      <line-width type="heavy barline">5</line-width>
      <line-width type="leger">1.1784</line-width>
      <line-width type="ending">1.1784</line-width>
      <line-width type="wedge">0.7487</line-width>
      <line-width type="enclosure">1.1784</line-width>
      <line-width type="tuplet bracket">0.7487</line-width>
      <note-size type="grace">60</note-size>
      <note-size type="cue">60</note-size>
      <distance type="hyphen">120</distance>
      <distance type="beam">7.5</distance>
    </appearance>
    <music-font font-family="Maestro,engraved" font-size="20.5"/>
    <word-font font-family="Myriad Pro" font-size="10.25"/>
    <lyric-font font-family="Myriad Pro" font-size="12"/>
  </defaults>
  <credit page="1">
    <credit-type>title</credit-type>
    <credit-words default-x="581" default-y="1573" font-size="22" font-weight="bold" justify="center" valign="top">CÁC THÁNH ĐÃ NGHỈ YÊN</credit-words>
  </credit>
  <credit page="1">
    <credit-type>composer</credit-type>
    <credit-words default-x="1091" default-y="70" font-size="12" justify="right" valign="bottom">Joseph Bornby, 1838-1896.</credit-words>
  </credit>
  <credit page="1">
    <credit-type>lyricist</credit-type>
    <credit-words default-x="70" default-y="70" font-size="12" valign="bottom">Dịch lời của William Walsham How, 1823-1897.</credit-words>
  </credit>
  <credit page="1">
    <credit-words default-x="70" default-y="1573" font-size="22" font-weight="bold" valign="top">330</credit-words>
  </credit>
  <part-list>
    <part-group number="1" type="start">
      <group-symbol default-x="-5">bracket</group-symbol>
      <group-barline>no</group-barline>
    </part-group>
    <score-part id="P1">
      <part-name print-object="no">MusicXML Part</part-name>
      <score-instrument id="P1-I1">
        <instrument-name>SmartMusic SoftSynth</instrument-name>
        <instrument-sound>voice.soprano</instrument-sound>
        <virtual-instrument/>
      </score-instrument>
      <midi-device>SmartMusic SoftSynth</midi-device>
      <midi-instrument id="P1-I1">
        <midi-channel>1</midi-channel>
        <midi-bank>15489</midi-bank>
        <midi-program>22</midi-program>
        <volume>80</volume>
        <pan>-70</pan>
      </midi-instrument>
    </score-part>
    <score-part id="P2">
      <part-name print-object="no">MusicXML Part</part-name>
      <score-instrument id="P2-I2">
        <instrument-name>SmartMusic SoftSynth</instrument-name>
        <instrument-sound>voice.bass</instrument-sound>
        <virtual-instrument/>
      </score-instrument>
      <midi-device>SmartMusic SoftSynth</midi-device>
      <midi-instrument id="P2-I2">
        <midi-channel>2</midi-channel>
        <midi-bank>15489</midi-bank>
        <midi-program>22</midi-program>
        <volume>80</volume>
        <pan>80</pan>
      </midi-instrument>
    </score-part>
    <part-group number="1" type="stop"/>
  </part-list>
  <!--=========================================================-->
  <part id="P1">
    <?SmartMusic maxVoice=1?>
    <measure number="1" width="311">
      <print>
        <system-layout>
          <top-system-distance>138</top-system-distance>
        </system-layout>
        <measure-numbering>none</measure-numbering>
      </print>
      <attributes>
        <divisions>2</divisions>
        <key>
          <fifths>-3</fifths>
          <mode>major</mode>
        </key>
        <time>
          <beats>4</beats>
          <beat-type>4</beat-type>
        </time>
        <clef>
          <sign>G</sign>
          <line>2</line>
        </clef>
      </attributes>
      <sound tempo="104"/>
      <harmony default-y="29" font-family="VNI-Helve-Condense" font-size="13.7">
        <root>
          <root-step>E</root-step>
          <root-alter>-1</root-alter>
        </root>
        <kind halign="center" text="">major</kind>
      </harmony>
      <note default-x="131">
        <pitch>
          <step>G</step>
          <octave>4</octave>
        </pitch>
        <duration>4</duration>
        <voice>1</voice>
        <type>half</type>
        <stem default-y="15">up</stem>
        <lyric default-y="-77" number="1" relative-x="-5">
          <syllabic>single</syllabic>
          <text>1.Nhơn</text>
        </lyric>
        <lyric default-y="-105" number="2" relative-x="-5">
          <syllabic>single</syllabic>
          <text>2.Christ</text>
        </lyric>
        <lyric default-y="-133" number="3" relative-x="-5">
          <syllabic>single</syllabic>
          <text>3.Quân</text>
        </lyric>
        <lyric default-y="-162" number="4" relative-x="-5">
          <syllabic>single</syllabic>
          <text>4.Ôi,</text>
        </lyric>
        <lyric default-y="-190" number="5" relative-x="-5">
          <syllabic>single</syllabic>
          <text>5.Khi</text>
        </lyric>
        <lyric default-y="-218" number="6" relative-x="-5">
          <syllabic>single</syllabic>
          <text>6.Khi</text>
        </lyric>
        <lyric default-y="-247" number="7" relative-x="-5">
          <syllabic>single</syllabic>
          <text>7.Kia,</text>
        </lyric>
        <lyric default-y="-275" number="8" relative-x="-5">
          <syllabic>single</syllabic>
          <text>8.Kìa,</text>
        </lyric>
      </note>
      <note default-x="131">
        <chord/>
        <pitch>
          <step>B</step>
          <alter>-1</alter>
          <octave>4</octave>
        </pitch>
        <duration>4</duration>
        <voice>1</voice>
        <type>half</type>
        <stem>up</stem>
      </note>
      <note default-x="203">
        <pitch>
          <step>E</step>
          <alter>-1</alter>
          <octave>4</octave>
        </pitch>
        <duration>2</duration>
        <voice>1</voice>
        <type>quarter</type>
        <stem default-y="5">up</stem>
        <lyric default-y="-77" number="1">
          <syllabic>single</syllabic>
          <text>cuộc</text>
        </lyric>
        <lyric default-y="-105" number="2">
          <syllabic>single</syllabic>
          <text>là</text>
        </lyric>
        <lyric default-y="-133" number="3">
          <syllabic>single</syllabic>
          <text>đội</text>
        </lyric>
        <lyric default-y="-162" number="4">
          <syllabic>single</syllabic>
          <text>thượng</text>
        </lyric>
        <lyric default-y="-190" number="5">
          <syllabic>single</syllabic>
          <text>trường</text>
        </lyric>
        <lyric default-y="-218" number="6">
          <syllabic>single</syllabic>
          <text>mặt</text>
        </lyric>
        <lyric default-y="-247" number="7">
          <syllabic>single</syllabic>
          <text>ngày</text>
        </lyric>
        <lyric default-y="-275" number="8">
          <syllabic>single</syllabic>
          <text>từ</text>
        </lyric>
      </note>
      <note default-x="203">
        <chord/>
        <pitch>
          <step>G</step>
          <octave>4</octave>
        </pitch>
        <duration>2</duration>
        <voice>1</voice>
        <type>quarter</type>
        <stem>up</stem>
      </note>
      <note default-x="268">
        <pitch>
          <step>F</step>
          <octave>4</octave>
        </pitch>
        <duration>2</duration>
        <voice>1</voice>
        <type>quarter</type>
        <stem default-y="10">up</stem>
        <lyric default-y="-77" number="1">
          <syllabic>single</syllabic>
          <text>phiền</text>
        </lyric>
        <lyric default-y="-105" number="2">
          <syllabic>single</syllabic>
          <text>Đại</text>
        </lyric>
        <lyric default-y="-133" number="3">
          <syllabic>single</syllabic>
          <text>Ngài</text>
        </lyric>
        <lyric default-y="-162" number="4">
          <syllabic>single</syllabic>
          <text>hạ</text>
        </lyric>
        <lyric default-y="-190" number="5">
          <syllabic>single</syllabic>
          <text>kỳ</text>
        </lyric>
        <lyric default-y="-218" number="6">
          <syllabic>single</syllabic>
          <text>trời</text>
        </lyric>
        <lyric default-y="-247" number="7">
          <syllabic>single</syllabic>
          <text>diệu</text>
        </lyric>
        <lyric default-y="-275" number="8">
          <syllabic>single</syllabic>
          <text>đông,</text>
        </lyric>
      </note>
      <note default-x="268">
        <chord/>
        <pitch>
          <step>A</step>
          <alter>-1</alter>
          <octave>4</octave>
        </pitch>
        <duration>2</duration>
        <voice>1</voice>
        <type>quarter</type>
        <stem>up</stem>
      </note>
    </measure>
    <!--=======================================================-->
    <measure number="2" width="139">
      <note default-x="23">
        <pitch>
          <step>G</step>
          <octave>4</octave>
        </pitch>
        <duration>4</duration>
        <voice>1</voice>
        <type>half</type>
        <stem default-y="15">up</stem>
        <lyric default-y="-77" number="1">
          <syllabic>single</syllabic>
          <text>lao</text>
        </lyric>
        <lyric default-y="-105" number="2">
          <syllabic>single</syllabic>
          <text>năng,</text>
        </lyric>
        <lyric default-y="-133" number="3">
          <syllabic>single</syllabic>
          <text>nay</text>
        </lyric>
        <lyric default-y="-162" number="4" relative-x="-3">
          <syllabic>single</syllabic>
          <text>tương</text>
        </lyric>
        <lyric default-y="-190" number="5">
          <syllabic>single</syllabic>
          <text>giao</text>
        </lyric>
        <lyric default-y="-218" number="6">
          <syllabic>single</syllabic>
          <text>chen</text>
        </lyric>
        <lyric default-y="-247" number="7">
          <syllabic>single</syllabic>
          <text>vinh</text>
        </lyric>
        <lyric default-y="-275" number="8">
          <syllabic>single</syllabic>
          <text>tây,</text>
        </lyric>
      </note>
      <note default-x="23">
        <chord/>
        <pitch>
          <step>B</step>
          <alter>-1</alter>
          <octave>4</octave>
        </pitch>
        <duration>4</duration>
        <voice>1</voice>
        <type>half</type>
        <stem>up</stem>
      </note>
      <note default-x="89">
        <pitch>
          <step>G</step>
          <octave>4</octave>
        </pitch>
        <duration>4</duration>
        <voice>1</voice>
        <type>half</type>
        <stem default-y="15">up</stem>
        <lyric default-y="-77" number="1">
          <syllabic>single</syllabic>
          <text>qua,</text>
        </lyric>
        <lyric default-y="-105" number="2">
          <syllabic>single</syllabic>
          <text>nơi</text>
        </lyric>
        <lyric default-y="-133" number="3">
          <syllabic>single</syllabic>
          <text>mong</text>
        </lyric>
        <lyric default-y="-162" number="4">
          <syllabic>single</syllabic>
          <text>thông,</text>
        </lyric>
        <lyric default-y="-190" number="5">
          <syllabic>single</syllabic>
          <text>binh,</text>
        </lyric>
        <lyric default-y="-218" number="6">
          <syllabic>single</syllabic>
          <text>non,</text>
        </lyric>
        <lyric default-y="-247" number="7">
          <syllabic>single</syllabic>
          <text>hơn</text>
        </lyric>
        <lyric default-y="-275" number="8">
          <syllabic>single</syllabic>
          <text>nam,</text>
        </lyric>
      </note>
      <note default-x="89">
        <chord/>
        <pitch>
          <step>B</step>
          <alter>-1</alter>
          <octave>4</octave>
        </pitch>
        <duration>4</duration>
        <voice>1</voice>
        <type>half</type>
        <stem>up</stem>
      </note>
    </measure>
    <!--=======================================================-->
    <measure number="3" width="247">
      <harmony default-y="29" font-family="VNI-Helve-Condense" font-size="13.7">
        <root>
          <root-step>A</root-step>
          <root-alter>-1</root-alter>
        </root>
        <kind halign="center" text="">major</kind>
      </harmony>
      <note default-x="24">
        <pitch>
          <step>A</step>
          <alter>-1</alter>
          <octave>4</octave>
        </pitch>
        <duration>2</duration>
        <voice>1</voice>
        <type>quarter</type>
        <stem default-y="-53">down</stem>
        <lyric default-y="-77" number="1">
          <syllabic>single</syllabic>
          <text>các</text>
        </lyric>
        <lyric default-y="-105" number="2">
          <syllabic>single</syllabic>
          <text>Chiến</text>
        </lyric>
        <lyric default-y="-133" number="3">
          <syllabic>single</syllabic>
          <text>dũng</text>
        </lyric>
        <lyric default-y="-162" number="4">
          <syllabic>single</syllabic>
          <text>phước</text>
        </lyric>
        <lyric default-y="-190" number="5">
          <syllabic>single</syllabic>
          <text>chiến</text>
        </lyric>
        <lyric default-y="-218" number="6">
          <syllabic>single</syllabic>
          <text>ửng</text>
        </lyric>
        <lyric default-y="-247" number="7">
          <syllabic>single</syllabic>
          <text>sẽ</text>
        </lyric>
        <lyric default-y="-275" number="8">
          <syllabic>single</syllabic>
          <text>bắc,</text>
        </lyric>
      </note>
      <note default-x="24">
        <chord/>
        <pitch>
          <step>C</step>
          <octave>5</octave>
        </pitch>
        <duration>2</duration>
        <voice>1</voice>
        <type>quarter</type>
        <stem>down</stem>
      </note>
      <note default-x="85">
        <pitch>
          <step>A</step>
          <alter>-1</alter>
          <octave>4</octave>
        </pitch>
        <duration>2</duration>
        <voice>1</voice>
        <type>quarter</type>
        <stem default-y="-53">down</stem>
        <lyric default-y="-77" number="1">
          <syllabic>single</syllabic>
          <text>thánh</text>
        </lyric>
        <lyric default-y="-105" number="2">
          <syllabic>single</syllabic>
          <text>lũy,</text>
        </lyric>
        <lyric default-y="-133" number="3">
          <syllabic>single</syllabic>
          <text>cảm,</text>
        </lyric>
        <lyric default-y="-162" number="4">
          <syllabic>single</syllabic>
          <text>bấy</text>
        </lyric>
        <lyric default-y="-190" number="5">
          <syllabic>single</syllabic>
          <text>đấu</text>
        </lyric>
        <lyric default-y="-218" number="6">
          <syllabic>single</syllabic>
          <text>đỏ</text>
        </lyric>
        <lyric default-y="-247" number="7">
          <syllabic>single</syllabic>
          <text>khởi</text>
        </lyric>
        <lyric default-y="-275" number="8">
          <syllabic>single</syllabic>
          <text>khắp</text>
        </lyric>
      </note>
      <note default-x="85">
        <chord/>
        <pitch>
          <step>C</step>
          <octave>5</octave>
        </pitch>
        <duration>2</duration>
        <voice>1</voice>
        <type>quarter</type>
        <stem>down</stem>
      </note>
      <note default-x="143">
        <pitch>
          <step>A</step>
          <alter>-1</alter>
          <octave>4</octave>
        </pitch>
        <duration>2</duration>
        <voice>1</voice>
        <type>quarter</type>
        <stem default-y="-53">down</stem>
        <lyric default-y="-77" number="1">
          <syllabic>single</syllabic>
          <text>đã</text>
        </lyric>
        <lyric default-y="-105" number="2">
          <syllabic>single</syllabic>
          <text>Khối</text>
        </lyric>
        <lyric default-y="-133" number="3">
          <syllabic>single</syllabic>
          <text>giữ</text>
        </lyric>
        <lyric default-y="-162" number="4">
          <syllabic>single</syllabic>
          <text>mối</text>
        </lyric>
        <lyric default-y="-190" number="5">
          <syllabic>single</syllabic>
          <text>quá</text>
        </lyric>
        <lyric default-y="-218" number="6">
          <syllabic>single</syllabic>
          <text>cả</text>
        </lyric>
        <lyric default-y="-247" number="7">
          <syllabic>single</syllabic>
          <text>chiếu</text>
        </lyric>
        <lyric default-y="-275" number="8">
          <syllabic>single</syllabic>
          <text>cả</text>
        </lyric>
      </note>
      <note default-x="143">
        <chord/>
        <pitch>
          <step>C</step>
          <octave>5</octave>
        </pitch>
        <duration>2</duration>
        <voice>1</voice>
        <type>quarter</type>
        <stem>down</stem>
      </note>
      <note default-x="204">
        <pitch>
          <step>A</step>
          <alter>-1</alter>
          <octave>4</octave>
        </pitch>
        <duration>2</duration>
        <voice>1</voice>
        <type>quarter</type>
        <stem default-y="-53">down</stem>
        <lyric default-y="-77" number="1">
          <syllabic>single</syllabic>
          <text>nghỉ</text>
        </lyric>
        <lyric default-y="-105" number="2">
          <syllabic>single</syllabic>
          <text>Đá</text>
        </lyric>
        <lyric default-y="-133" number="3">
          <syllabic>single</syllabic>
          <text>tín</text>
        </lyric>
        <lyric default-y="-162" number="4">
          <syllabic>single</syllabic>
          <text>cảm</text>
        </lyric>
        <lyric default-y="-190" number="5">
          <syllabic>single</syllabic>
          <text>khó</text>
        </lyric>
        <lyric default-y="-218" number="6">
          <syllabic>single</syllabic>
          <text>hướng</text>
        </lyric>
        <lyric default-y="-247" number="7">
          <syllabic>single</syllabic>
          <text>sáng</text>
        </lyric>
        <lyric default-y="-275" number="8">
          <syllabic>single</syllabic>
          <text>thế</text>
        </lyric>
      </note>
      <note default-x="204">
        <chord/>
        <pitch>
          <step>C</step>
          <octave>5</octave>
        </pitch>
        <duration>2</duration>
        <voice>1</voice>
        <type>quarter</type>
        <stem>down</stem>
      </note>
    </measure>
    <!--=======================================================-->
    <measure number="4" width="128">
      <harmony default-y="29" font-family="VNI-Helve-Condense" font-size="13.7">
        <root>
          <root-step>B</root-step>
          <root-alter>-1</root-alter>
        </root>
        <kind halign="center" text="7">dominant</kind>
      </harmony>
      <note default-x="31">
        <pitch>
          <step>C</step>
          <octave>5</octave>
        </pitch>
        <duration>4</duration>
        <voice>1</voice>
        <type>half</type>
        <stem default-y="13">up</stem>
        <notations>
          <slur bezier-x="10" bezier-y="11" default-x="18" default-y="3" number="1" orientation="over" type="start"/>
        </notations>
        <lyric default-y="-77" number="1">
          <syllabic>single</syllabic>
          <text>ngơi,</text>
        </lyric>
        <lyric default-y="-105" number="2">
          <syllabic>single</syllabic>
          <text>linh,</text>
        </lyric>
        <lyric default-y="-133" number="3">
          <syllabic>single</syllabic>
          <text>trung,</text>
        </lyric>
        <lyric default-y="-162" number="4">
          <syllabic>single</syllabic>
          <text>giao!</text>
        </lyric>
        <lyric default-y="-190" number="5">
          <syllabic>single</syllabic>
          <text>khăn,</text>
        </lyric>
        <lyric default-y="-218" number="6">
          <syllabic>single</syllabic>
          <text>tây,</text>
        </lyric>
        <lyric default-y="-247" number="7">
          <syllabic>single</syllabic>
          <text>choang,</text>
        </lyric>
        <lyric default-y="-275" number="8">
          <syllabic>single</syllabic>
          <text>gian,</text>
        </lyric>
      </note>
      <backup>
        <duration>4</duration>
      </backup>
      <note default-x="31">
        <pitch>
          <step>A</step>
          <alter>-1</alter>
          <octave>4</octave>
        </pitch>
        <duration>8</duration>
        <voice>2</voice>
        <type>whole</type>
      </note>
      <backup>
        <duration>4</duration>
      </backup>
      <note default-x="79">
        <pitch>
          <step>B</step>
          <alter>-1</alter>
          <octave>4</octave>
        </pitch>
        <duration>4</duration>
        <voice>1</voice>
        <type>half</type>
        <stem default-y="15">up</stem>
        <notations>
          <slur bezier-x="-11" bezier-y="10" default-x="7" default-y="5" number="1" type="stop"/>
        </notations>
      </note>
    </measure>
    <!--=======================================================-->
    <measure number="5" width="196">
      <harmony default-y="29" font-family="VNI-Helve-Condense" font-size="13.7">
        <root>
          <root-step>E</root-step>
          <root-alter>-1</root-alter>
        </root>
        <kind halign="center" text="">major</kind>
      </harmony>
      <note default-x="26">
        <pitch>
          <step>G</step>
          <octave>4</octave>
        </pitch>
        <duration>4</duration>
        <voice>1</voice>
        <type>half</type>
        <stem default-y="15">up</stem>
        <lyric default-y="-77" number="1">
          <syllabic>single</syllabic>
          <text>Là</text>
        </lyric>
        <lyric default-y="-105" number="2">
          <syllabic>single</syllabic>
          <text>Là</text>
        </lyric>
        <lyric default-y="-133" number="3">
          <syllabic>single</syllabic>
          <text>Dường</text>
        </lyric>
        <lyric default-y="-162" number="4">
          <syllabic>single</syllabic>
          <text>Trên</text>
        </lyric>
        <lyric default-y="-190" number="5">
          <syllabic>single</syllabic>
          <text>Kìa,</text>
        </lyric>
        <lyric default-y="-218" number="6">
          <syllabic>single</syllabic>
          <text>Bao</text>
        </lyric>
        <lyric default-y="-247" number="7">
          <syllabic>single</syllabic>
          <text>Chư</text>
        </lyric>
        <lyric default-y="-275" number="8">
          <syllabic>single</syllabic>
          <text>Vô</text>
        </lyric>
      </note>
      <note default-x="26">
        <chord/>
        <pitch>
          <step>B</step>
          <alter>-1</alter>
          <octave>4</octave>
        </pitch>
        <duration>4</duration>
        <voice>1</voice>
        <type>half</type>
        <stem>up</stem>
      </note>
      <harmony default-y="29" font-family="VNI-Helve-Condense" font-size="13.7">
        <root>
          <root-step>C</root-step>
        </root>
        <kind halign="center" text="m">minor</kind>
      </harmony>
      <note default-x="91">
        <pitch>
          <step>G</step>
          <octave>4</octave>
        </pitch>
        <duration>2</duration>
        <voice>1</voice>
        <type>quarter</type>
        <stem default-y="-58.5">down</stem>
        <lyric default-y="-77" number="1">
          <syllabic>single</syllabic>
          <text>kẻ</text>
        </lyric>
        <lyric default-y="-105" number="2" relative-x="-7">
          <syllabic>single</syllabic>
          <text>Thống</text>
        </lyric>
        <lyric default-y="-133" number="3">
          <syllabic>single</syllabic>
          <text>các</text>
        </lyric>
        <lyric default-y="-162" number="4">
          <syllabic>single</syllabic>
          <text>hiển</text>
        </lyric>
        <lyric default-y="-190" number="5">
          <syllabic>single</syllabic>
          <text>khúc</text>
        </lyric>
        <lyric default-y="-218" number="6">
          <syllabic>single</syllabic>
          <text>chiến</text>
        </lyric>
        <lyric default-y="-247" number="7">
          <syllabic>single</syllabic>
          <text>thánh</text>
        </lyric>
        <lyric default-y="-275" number="8">
          <syllabic>single</syllabic>
          <text>số</text>
        </lyric>
      </note>
      <note default-x="91">
        <chord/>
        <pitch>
          <step>E</step>
          <alter>-1</alter>
          <octave>5</octave>
        </pitch>
        <duration>2</duration>
        <voice>1</voice>
        <type>quarter</type>
        <stem>down</stem>
      </note>
      <note default-x="154">
        <pitch>
          <step>G</step>
          <octave>4</octave>
        </pitch>
        <duration>2</duration>
        <voice>1</voice>
        <type>quarter</type>
        <stem default-y="-58.5">down</stem>
        <lyric default-y="-77" number="1">
          <syllabic>single</syllabic>
          <text>bởi</text>
        </lyric>
        <lyric default-y="-105" number="2">
          <syllabic>single</syllabic>
          <text>tướng</text>
        </lyric>
        <lyric default-y="-133" number="3">
          <syllabic>single</syllabic>
          <text>chiến</text>
        </lyric>
        <lyric default-y="-162" number="4">
          <syllabic>single</syllabic>
          <text>hách</text>
        </lyric>
        <lyric default-y="-190" number="5">
          <syllabic>single</syllabic>
          <text>chiến</text>
        </lyric>
        <lyric default-y="-218" number="6">
          <syllabic>single</syllabic>
          <text>sĩ</text>
        </lyric>
        <lyric default-y="-247" number="7">
          <syllabic>single</syllabic>
          <text>đắc</text>
        </lyric>
        <lyric default-y="-275" number="8">
          <syllabic>single</syllabic>
          <text>thánh</text>
        </lyric>
      </note>
      <note default-x="154">
        <chord/>
        <pitch>
          <step>E</step>
          <alter>-1</alter>
          <octave>5</octave>
        </pitch>
        <duration>2</duration>
        <voice>1</voice>
        <type>quarter</type>
        <stem>down</stem>
      </note>
    </measure>
    <!--=======================================================-->
    <measure number="6" width="356">
      <print new-system="yes">
        <system-layout>
          <system-distance>103</system-distance>
        </system-layout>
      </print>
      <harmony default-y="29" font-family="VNI-Helve-Condense" font-size="13.7">
        <root>
          <root-step>D</root-step>
        </root>
        <kind halign="center" text="7">dominant</kind>
      </harmony>
      <note default-x="94">
        <pitch>
          <step>F</step>
          <alter>1</alter>
          <octave>4</octave>
        </pitch>
        <duration>2</duration>
        <voice>1</voice>
        <type>quarter</type>
        <accidental>sharp</accidental>
        <stem default-y="18.5">up</stem>
        <lyric default-y="-96" number="1">
          <syllabic>single</syllabic>
          <text>đức</text>
        </lyric>
        <lyric default-y="-124" number="2">
          <syllabic>single</syllabic>
          <text>của</text>
        </lyric>
        <lyric default-y="-152" number="3">
          <syllabic>single</syllabic>
          <text>sĩ</text>
        </lyric>
        <lyric default-y="-181" number="4">
          <syllabic>single</syllabic>
          <text>dưới</text>
        </lyric>
        <lyric default-y="-209" number="5">
          <syllabic>single</syllabic>
          <text>thắng</text>
        </lyric>
        <lyric default-y="-237" number="6">
          <syllabic>single</syllabic>
          <text>tín</text>
        </lyric>
        <lyric default-y="-266" number="7">
          <syllabic>single</syllabic>
          <text>thắng</text>
        </lyric>
        <lyric default-y="-294" number="8">
          <syllabic>single</syllabic>
          <text>binh</text>
        </lyric>
      </note>
      <note default-x="94">
        <chord/>
        <pitch>
          <step>D</step>
          <octave>5</octave>
        </pitch>
        <duration>2</duration>
        <voice>1</voice>
        <type>quarter</type>
        <stem>up</stem>
      </note>
      <note default-x="161">
        <pitch>
          <step>D</step>
          <octave>4</octave>
        </pitch>
        <duration>2</duration>
        <voice>1</voice>
        <type>quarter</type>
        <stem default-y="13.5">up</stem>
        <lyric default-y="-96" number="1">
          <syllabic>single</syllabic>
          <text>tin</text>
        </lyric>
        <lyric default-y="-124" number="2">
          <syllabic>single</syllabic>
          <text>thánh</text>
        </lyric>
        <lyric default-y="-152" number="3">
          <syllabic>single</syllabic>
          <text>xưa,</text>
        </lyric>
        <lyric default-y="-181" number="4">
          <syllabic>single</syllabic>
          <text>đây</text>
        </lyric>
        <lyric default-y="-209" number="5">
          <syllabic>single</syllabic>
          <text>reo,</text>
        </lyric>
        <lyric default-y="-237" number="6">
          <syllabic>single</syllabic>
          <text>trung</text>
        </lyric>
        <lyric default-y="-266" number="7">
          <syllabic>single</syllabic>
          <text>bước</text>
        </lyric>
        <lyric default-y="-294" number="8">
          <syllabic>single</syllabic>
          <text>băng</text>
        </lyric>
      </note>
      <note default-x="161">
        <chord/>
        <pitch>
          <step>C</step>
          <octave>5</octave>
        </pitch>
        <duration>2</duration>
        <voice>1</voice>
        <type>quarter</type>
        <stem>up</stem>
      </note>
      <harmony default-y="29" font-family="VNI-Helve-Condense" font-size="13.7">
        <root>
          <root-step>G</root-step>
        </root>
        <kind halign="center" text="m">minor</kind>
      </harmony>
      <note default-x="227">
        <pitch>
          <step>D</step>
          <octave>4</octave>
        </pitch>
        <duration>2</duration>
        <voice>1</voice>
        <type>quarter</type>
        <stem default-y="15">up</stem>
        <lyric default-y="-96" number="1">
          <syllabic>single</syllabic>
          <text>xưng</text>
        </lyric>
        <lyric default-y="-124" number="2">
          <syllabic>single</syllabic>
          <text>dân</text>
        </lyric>
        <lyric default-y="-152" number="3">
          <syllabic>single</syllabic>
          <text>vui</text>
        </lyric>
        <lyric default-y="-181" number="4">
          <syllabic>single</syllabic>
          <text>tuy</text>
        </lyric>
        <lyric default-y="-209" number="5">
          <syllabic>single</syllabic>
          <text>linh</text>
        </lyric>
        <lyric default-y="-237" number="6">
          <syllabic>single</syllabic>
          <text>nay</text>
        </lyric>
        <lyric default-y="-266" number="7">
          <syllabic>single</syllabic>
          <text>ra</text>
        </lyric>
        <lyric default-y="-294" number="8">
          <syllabic>single</syllabic>
          <text>qua</text>
        </lyric>
      </note>
      <note default-x="227">
        <chord/>
        <pitch>
          <step>B</step>
          <alter>-1</alter>
          <octave>4</octave>
        </pitch>
        <duration>2</duration>
        <voice>1</voice>
        <type>quarter</type>
        <stem>up</stem>
      </note>
      <note default-x="289">
        <pitch>
          <step>A</step>
          <octave>4</octave>
        </pitch>
        <duration>1</duration>
        <voice>1</voice>
        <type>eighth</type>
        <accidental>natural</accidental>
        <stem default-y="10">up</stem>
        <beam number="1">begin</beam>
        <lyric default-y="-96" number="1">
          <syllabic>begin</syllabic>
          <text>Jê</text>
        </lyric>
        <lyric default-y="-124" number="2">
          <syllabic>single</syllabic>
          <text>trong</text>
        </lyric>
        <lyric default-y="-152" number="3">
          <syllabic>single</syllabic>
          <text>nai</text>
        </lyric>
        <lyric default-y="-181" number="4">
          <syllabic>single</syllabic>
          <text>lâm</text>
        </lyric>
        <lyric default-y="-209" number="5">
          <syllabic>single</syllabic>
          <text>lực</text>
        </lyric>
        <lyric default-y="-237" number="6">
          <syllabic>single</syllabic>
          <text>được</text>
        </lyric>
        <lyric default-y="-266" number="7">
          <syllabic>single</syllabic>
          <text>khỏi</text>
        </lyric>
        <lyric default-y="-294" number="8">
          <syllabic>single</syllabic>
          <text>cửa</text>
        </lyric>
      </note>
      <backup>
        <duration>1</duration>
      </backup>
      <note default-x="289">
        <pitch>
          <step>C</step>
          <octave>4</octave>
        </pitch>
        <duration>2</duration>
        <voice>2</voice>
        <type>quarter</type>
        <stem default-y="-78">down</stem>
      </note>
      <backup>
        <duration>1</duration>
      </backup>
      <note default-x="322">
        <pitch>
          <step>G</step>
          <octave>4</octave>
        </pitch>
        <duration>1</duration>
        <voice>1</voice>
        <type>eighth</type>
        <stem default-y="5">up</stem>
        <beam number="1">end</beam>
      </note>
    </measure>
    <!--=======================================================-->
    <measure number="7" width="152">
      <harmony default-y="29" font-family="VNI-Helve-Condense" font-size="13.7">
        <root>
          <root-step>B</root-step>
          <root-alter>-1</root-alter>
        </root>
        <kind halign="center" text="">major</kind>
        <bass>
          <bass-step>F</bass-step>
        </bass>
      </harmony>
      <note default-x="19">
        <pitch>
          <step>D</step>
          <octave>4</octave>
        </pitch>
        <duration>4</duration>
        <voice>1</voice>
        <type>half</type>
        <stem default-y="0">up</stem>
        <lyric default-y="-96" number="1">
          <syllabic>end</syllabic>
          <text>sus</text>
        </lyric>
        <lyric default-y="-124" number="2">
          <syllabic>single</syllabic>
          <text>cuộc</text>
        </lyric>
        <lyric default-y="-152" number="3">
          <syllabic>single</syllabic>
          <text>nịt</text>
        </lyric>
        <lyric default-y="-181" number="4">
          <syllabic>single</syllabic>
          <text>trận</text>
        </lyric>
        <lyric default-y="-209" number="5">
          <syllabic>single</syllabic>
          <text>được</text>
        </lyric>
        <lyric default-y="-237" number="6">
          <syllabic>single</syllabic>
          <text>về</text>
        </lyric>
        <lyric default-y="-266" number="7">
          <syllabic>single</syllabic>
          <text>mồ</text>
        </lyric>
        <lyric default-y="-294" number="8">
          <syllabic>single</syllabic>
          <text>ngọc</text>
        </lyric>
      </note>
      <note default-x="19">
        <chord/>
        <pitch>
          <step>F</step>
          <octave>4</octave>
        </pitch>
        <duration>4</duration>
        <voice>1</voice>
        <type>half</type>
        <stem>up</stem>
      </note>
      <harmony default-y="29" font-family="VNI-Helve-Condense" font-size="13.7">
        <root>
          <root-step>F</root-step>
        </root>
        <kind halign="center" text="7">dominant</kind>
      </harmony>
      <note default-x="84">
        <pitch>
          <step>E</step>
          <alter>-1</alter>
          <octave>4</octave>
        </pitch>
        <duration>4</duration>
        <voice>1</voice>
        <type>half</type>
        <stem default-y="13.5">up</stem>
        <lyric default-y="-96" number="1">
          <syllabic>single</syllabic>
          <text>khắp</text>
        </lyric>
        <lyric default-y="-124" number="2">
          <syllabic>single</syllabic>
          <text>chiến</text>
        </lyric>
        <lyric default-y="-152" number="3">
          <syllabic>single</syllabic>
          <text>kiếm</text>
        </lyric>
        <lyric default-y="-181" number="4">
          <syllabic>single</syllabic>
          <text>núng</text>
        </lyric>
        <lyric default-y="-209" number="5">
          <syllabic>single</syllabic>
          <text>bổ</text>
        </lyric>
        <lyric default-y="-237" number="6">
          <syllabic>single</syllabic>
          <text>nghỉ</text>
        </lyric>
        <lyric default-y="-266" number="7">
          <syllabic>single</syllabic>
          <text>vẻ</text>
        </lyric>
        <lyric default-y="-294" number="8">
          <syllabic>single</syllabic>
          <text>vẻ</text>
        </lyric>
      </note>
      <note default-x="84">
        <chord/>
        <pitch>
          <step>C</step>
          <octave>5</octave>
        </pitch>
        <duration>4</duration>
        <voice>1</voice>
        <type>half</type>
        <stem>up</stem>
      </note>
    </measure>
    <!--=======================================================-->
    <measure number="8" width="125">
      <harmony default-y="29" font-family="VNI-Helve-Condense" font-size="13.7">
        <root>
          <root-step>B</root-step>
          <root-alter>-1</root-alter>
        </root>
        <kind halign="center" text="">major</kind>
      </harmony>
      <note default-x="21">
        <pitch>
          <step>D</step>
          <octave>4</octave>
        </pitch>
        <duration>8</duration>
        <voice>1</voice>
        <type>whole</type>
        <lyric default-y="-96" number="1">
          <syllabic>single</syllabic>
          <text>nơi,</text>
        </lyric>
        <lyric default-y="-124" number="2">
          <syllabic>single</syllabic>
          <text>chinh,</text>
        </lyric>
        <lyric default-y="-152" number="3">
          <syllabic>single</syllabic>
          <text>cung,</text>
        </lyric>
        <lyric default-y="-181" number="4">
          <syllabic>single</syllabic>
          <text>nao,</text>
        </lyric>
        <lyric default-y="-209" number="5">
          <syllabic>single</syllabic>
          <text>tăng,</text>
        </lyric>
        <lyric default-y="-237" number="6">
          <syllabic>single</syllabic>
          <text>đây,</text>
        </lyric>
        <lyric default-y="-266" number="7">
          <syllabic>single</syllabic>
          <text>vang,</text>
        </lyric>
        <lyric default-y="-294" number="8">
          <syllabic>single</syllabic>
          <text>vang,</text>
        </lyric>
      </note>
      <note default-x="21">
        <chord/>
        <pitch>
          <step>B</step>
          <alter>-1</alter>
          <octave>4</octave>
        </pitch>
        <duration>8</duration>
        <voice>1</voice>
        <type>whole</type>
      </note>
    </measure>
    <!--=======================================================-->
    <measure number="9" width="228">
      <harmony default-y="29" font-family="VNI-Helve-Condense" font-size="13.7">
        <root>
          <root-step>B</root-step>
          <root-alter>-1</root-alter>
        </root>
        <kind halign="center" text="7">dominant</kind>
      </harmony>
      <note default-x="24">
        <pitch>
          <step>D</step>
          <octave>4</octave>
        </pitch>
        <duration>4</duration>
        <voice>1</voice>
        <type>half</type>
        <stem default-y="15">up</stem>
        <lyric default-y="-96" number="1">
          <syllabic>single</syllabic>
          <text>Chính</text>
        </lyric>
        <lyric default-y="-124" number="2">
          <syllabic>single</syllabic>
          <text>Thánh</text>
        </lyric>
        <lyric default-y="-152" number="3">
          <syllabic>single</syllabic>
          <text>Quyết</text>
        </lyric>
        <lyric default-y="-181" number="4">
          <syllabic>single</syllabic>
          <text>Cả</text>
        </lyric>
        <lyric default-y="-209" number="5">
          <syllabic>single</syllabic>
          <text>Phấn</text>
        </lyric>
        <lyric default-y="-237" number="6">
          <syllabic>single</syllabic>
          <text>Chiến</text>
        </lyric>
        <lyric default-y="-266" number="7">
          <syllabic>single</syllabic>
          <text>Thánh</text>
        </lyric>
        <lyric default-y="-294" number="8">
          <syllabic>single</syllabic>
          <text>Chúc</text>
        </lyric>
      </note>
      <note default-x="24">
        <chord/>
        <pitch>
          <step>B</step>
          <alter>-1</alter>
          <octave>4</octave>
        </pitch>
        <duration>4</duration>
        <voice>1</voice>
        <type>half</type>
        <stem>up</stem>
      </note>
      <note default-x="109">
        <pitch>
          <step>D</step>
          <octave>4</octave>
        </pitch>
        <duration>2</duration>
        <voice>1</voice>
        <type>quarter</type>
        <stem default-y="0">up</stem>
        <lyric default-y="-96" number="1">
          <syllabic>single</syllabic>
          <text>danh</text>
        </lyric>
        <lyric default-y="-124" number="2">
          <syllabic>single</syllabic>
          <text>quang</text>
        </lyric>
        <lyric default-y="-152" number="3">
          <syllabic>single</syllabic>
          <text>tranh</text>
        </lyric>
        <lyric default-y="-181" number="4">
          <syllabic>single</syllabic>
          <text>hai</text>
        </lyric>
        <lyric default-y="-209" number="5">
          <syllabic>single</syllabic>
          <text>hưng</text>
        </lyric>
        <lyric default-y="-237" number="6">
          <syllabic>single</syllabic>
          <text>tranh</text>
        </lyric>
        <lyric default-y="-266" number="7">
          <syllabic>single</syllabic>
          <text>Vương</text>
        </lyric>
        <lyric default-y="-294" number="8">
          <syllabic>single</syllabic>
          <text>Cha</text>
        </lyric>
      </note>
      <note default-x="109">
        <chord/>
        <pitch>
          <step>F</step>
          <octave>4</octave>
        </pitch>
        <duration>2</duration>
        <voice>1</voice>
        <type>quarter</type>
        <stem>up</stem>
      </note>
      <note default-x="177">
        <pitch>
          <step>D</step>
          <octave>4</octave>
        </pitch>
        <duration>2</duration>
        <voice>1</voice>
        <type>quarter</type>
        <stem default-y="5">up</stem>
        <lyric default-y="-96" number="1">
          <syllabic>single</syllabic>
          <text>đáng</text>
        </lyric>
        <lyric default-y="-124" number="2">
          <syllabic>single</syllabic>
          <text>giữa</text>
        </lyric>
        <lyric default-y="-152" number="3">
          <syllabic>single</syllabic>
          <text>thủ</text>
        </lyric>
        <lyric default-y="-181" number="4">
          <syllabic>single</syllabic>
          <text>vẫn</text>
        </lyric>
        <lyric default-y="-209" number="5">
          <syllabic>single</syllabic>
          <text>chí</text>
        </lyric>
        <lyric default-y="-237" number="6">
          <syllabic>single</syllabic>
          <text>đã</text>
        </lyric>
        <lyric default-y="-266" number="7">
          <syllabic>single</syllabic>
          <text>ở</text>
        </lyric>
        <lyric default-y="-294" number="8">
          <syllabic>single</syllabic>
          <text>với</text>
        </lyric>
      </note>
      <note default-x="177">
        <chord/>
        <pitch>
          <step>G</step>
          <octave>4</octave>
        </pitch>
        <duration>2</duration>
        <voice>1</voice>
        <type>quarter</type>
        <stem>up</stem>
      </note>
    </measure>
    <!--=======================================================-->
    <measure number="10" width="160">
      <note default-x="19">
        <pitch>
          <step>D</step>
          <octave>4</octave>
        </pitch>
        <duration>4</duration>
        <voice>1</voice>
        <type>half</type>
        <stem default-y="0">up</stem>
        <lyric default-y="-96" number="1">
          <syllabic>single</syllabic>
          <text>khen</text>
        </lyric>
        <lyric default-y="-124" number="2">
          <syllabic>single</syllabic>
          <text>đêm</text>
        </lyric>
        <lyric default-y="-152" number="3">
          <syllabic>single</syllabic>
          <text>kim</text>
        </lyric>
        <lyric default-y="-181" number="4">
          <syllabic>single</syllabic>
          <text>duy</text>
        </lyric>
        <lyric default-y="-209" number="5">
          <syllabic>single</syllabic>
          <text>anh</text>
        </lyric>
        <lyric default-y="-237" number="6">
          <syllabic>single</syllabic>
          <text>qua</text>
        </lyric>
        <lyric default-y="-266" number="7">
          <syllabic>single</syllabic>
          <text>thiên</text>
        </lyric>
        <lyric default-y="-294" number="8">
          <syllabic>single</syllabic>
          <text>Con</text>
        </lyric>
      </note>
      <note default-x="19">
        <chord/>
        <pitch>
          <step>F</step>
          <octave>4</octave>
        </pitch>
        <duration>4</duration>
        <voice>1</voice>
        <type>half</type>
        <stem>up</stem>
      </note>
      <harmony default-y="29" font-family="VNI-Helve-Condense" font-size="13.7">
        <root>
          <root-step>E</root-step>
          <root-alter>-1</root-alter>
        </root>
        <kind halign="center" text="">major</kind>
      </harmony>
      <note default-x="89">
        <pitch>
          <step>E</step>
          <alter>-1</alter>
          <octave>4</octave>
        </pitch>
        <duration>4</duration>
        <voice>1</voice>
        <type>half</type>
        <stem>double</stem>
        <lyric default-y="-96" number="1">
          <syllabic>single</syllabic>
          <text>ngợi,</text>
        </lyric>
        <lyric default-y="-124" number="2">
          <syllabic>single</syllabic>
          <text>trường,</text>
        </lyric>
        <lyric default-y="-152" number="3">
          <syllabic>single</syllabic>
          <text>miện</text>
        </lyric>
        <lyric default-y="-181" number="4">
          <syllabic>single</syllabic>
          <text>một</text>
        </lyric>
        <lyric default-y="-209" number="5">
          <syllabic>single</syllabic>
          <text>hùng,</text>
        </lyric>
        <lyric default-y="-237" number="6">
          <syllabic>single</syllabic>
          <text>rồi,</text>
        </lyric>
        <lyric default-y="-266" number="7">
          <syllabic>single</syllabic>
          <text>đàng</text>
        </lyric>
        <lyric default-y="-294" number="8">
          <syllabic>single</syllabic>
          <text>và</text>
        </lyric>
      </note>
    </measure>
    <!--=======================================================-->
    <measure number="11" width="383">
      <print new-system="yes">
        <system-layout>
          <system-distance>103</system-distance>
        </system-layout>
      </print>
      <harmony default-y="29" font-family="VNI-Helve-Condense" font-size="13.7">
        <root>
          <root-step>E</root-step>
          <root-alter>-1</root-alter>
        </root>
        <kind halign="center" text="7">dominant</kind>
      </harmony>
      <note default-x="92">
        <pitch>
          <step>D</step>
          <alter>-1</alter>
          <octave>4</octave>
        </pitch>
        <duration>2</duration>
        <voice>1</voice>
        <type>quarter</type>
        <accidental>flat</accidental>
        <stem default-y="15">up</stem>
        <lyric default-y="-86" number="1">
          <syllabic>single</syllabic>
          <text>danh</text>
        </lyric>
        <lyric default-y="-115" number="2">
          <syllabic>single</syllabic>
          <text>soi</text>
        </lyric>
        <lyric default-y="-143" number="3">
          <syllabic>single</syllabic>
          <text>theo</text>
        </lyric>
        <lyric default-y="-171" number="4">
          <syllabic>single</syllabic>
          <text>trong</text>
        </lyric>
        <lyric default-y="-200" number="5">
          <syllabic>single</syllabic>
          <text>ta</text>
        </lyric>
        <lyric default-y="-228" number="6">
          <syllabic>single</syllabic>
          <text>lên</text>
        </lyric>
        <lyric default-y="-256" number="7">
          <syllabic>single</syllabic>
          <text>quang</text>
        </lyric>
        <lyric default-y="-285" number="8">
          <syllabic>single</syllabic>
          <text>Linh</text>
        </lyric>
      </note>
      <note default-x="92">
        <chord/>
        <pitch>
          <step>B</step>
          <alter>-1</alter>
          <octave>4</octave>
        </pitch>
        <duration>2</duration>
        <voice>1</voice>
        <type>quarter</type>
        <stem>up</stem>
      </note>
      <note default-x="165">
        <pitch>
          <step>D</step>
          <alter>-1</alter>
          <octave>4</octave>
        </pitch>
        <duration>2</duration>
        <voice>1</voice>
        <type>quarter</type>
        <stem default-y="15">up</stem>
        <lyric default-y="-86" number="1">
          <syllabic>single</syllabic>
          <text>Chân</text>
        </lyric>
        <lyric default-y="-115" number="2">
          <syllabic>single</syllabic>
          <text>tâm</text>
        </lyric>
        <lyric default-y="-143" number="3">
          <syllabic>single</syllabic>
          <text>gương</text>
        </lyric>
        <lyric default-y="-171" number="4">
          <syllabic>single</syllabic>
          <text>tay</text>
        </lyric>
        <lyric default-y="-200" number="5">
          <syllabic>single</syllabic>
          <text>giao</text>
        </lyric>
        <lyric default-y="-228" number="6">
          <syllabic>single</syllabic>
          <text>thiên</text>
        </lyric>
        <lyric default-y="-256" number="7">
          <syllabic>single</syllabic>
          <text>lâm</text>
        </lyric>
        <lyric default-y="-285" number="8">
          <syllabic>single</syllabic>
          <text>trên</text>
        </lyric>
      </note>
      <note default-x="165">
        <chord/>
        <pitch>
          <step>B</step>
          <alter>-1</alter>
          <octave>4</octave>
        </pitch>
        <duration>2</duration>
        <voice>1</voice>
        <type>quarter</type>
        <stem>up</stem>
      </note>
      <harmony default-y="29" font-family="VNI-Helve-Condense" font-size="13.7">
        <root>
          <root-step>A</root-step>
          <root-alter>-1</root-alter>
        </root>
        <kind halign="center" text="">major</kind>
      </harmony>
      <note default-x="238">
        <pitch>
          <step>D</step>
          <alter>-1</alter>
          <octave>4</octave>
        </pitch>
        <duration>2</duration>
        <voice>1</voice>
        <type>quarter</type>
        <stem default-y="13">up</stem>
        <lyric default-y="-86" number="1">
          <syllabic>single</syllabic>
          <text>Chúa</text>
        </lyric>
        <lyric default-y="-115" number="2">
          <syllabic>single</syllabic>
          <text>chúng</text>
        </lyric>
        <lyric default-y="-143" number="3">
          <syllabic>single</syllabic>
          <text>cổ</text>
        </lyric>
        <lyric default-y="-171" number="4">
          <syllabic>single</syllabic>
          <text>Chúa</text>
        </lyric>
        <lyric default-y="-200" number="5">
          <syllabic>single</syllabic>
          <text>chiến</text>
        </lyric>
        <lyric default-y="-228" number="6">
          <syllabic>single</syllabic>
          <text>quốc</text>
        </lyric>
        <lyric default-y="-256" number="7">
          <syllabic>single</syllabic>
          <text>cách</text>
        </lyric>
        <lyric default-y="-285" number="8">
          <syllabic>single</syllabic>
          <text>cõi</text>
        </lyric>
      </note>
      <note default-x="238">
        <chord/>
        <pitch>
          <step>C</step>
          <octave>5</octave>
        </pitch>
        <duration>2</duration>
        <voice>1</voice>
        <type>quarter</type>
        <stem>up</stem>
      </note>
      <note default-x="311">
        <pitch>
          <step>D</step>
          <alter>-1</alter>
          <octave>4</octave>
        </pitch>
        <duration>2</duration>
        <voice>1</voice>
        <type>quarter</type>
        <stem default-y="15">up</stem>
        <lyric default-y="-86" number="1">
          <syllabic>single</syllabic>
          <text>muôn</text>
        </lyric>
        <lyric default-y="-115" number="2">
          <syllabic>single</syllabic>
          <text>quang</text>
        </lyric>
        <lyric default-y="-143" number="3">
          <syllabic>single</syllabic>
          <text>anh</text>
        </lyric>
        <lyric default-y="-171" number="4">
          <syllabic>single</syllabic>
          <text>Chí</text>
        </lyric>
        <lyric default-y="-200" number="5">
          <syllabic>single</syllabic>
          <text>thêm</text>
        </lyric>
        <lyric default-y="-228" number="6">
          <syllabic>single</syllabic>
          <text>vui</text>
        </lyric>
        <lyric default-y="-256" number="7">
          <syllabic>single</syllabic>
          <text>huy</text>
        </lyric>
        <lyric default-y="-285" number="8">
          <syllabic>single</syllabic>
          <text>thiên</text>
        </lyric>
      </note>
      <note default-x="311">
        <chord/>
        <pitch>
          <step>B</step>
          <alter>-1</alter>
          <octave>4</octave>
        </pitch>
        <duration>2</duration>
        <voice>1</voice>
        <type>quarter</type>
        <stem>up</stem>
      </note>
    </measure>
    <!--=======================================================-->
    <measure number="12" width="171">
      <harmony default-y="29" font-family="VNI-Helve-Condense" font-size="13.7">
        <root>
          <root-step>A</root-step>
          <root-alter>-1</root-alter>
        </root>
        <kind halign="center" text="">major</kind>
      </harmony>
      <note default-x="16">
        <pitch>
          <step>C</step>
          <octave>4</octave>
        </pitch>
        <duration>4</duration>
        <voice>1</voice>
        <type>half</type>
        <stem default-y="10">up</stem>
        <lyric default-y="-86" number="1">
          <syllabic>single</syllabic>
          <text>đời.</text>
        </lyric>
        <lyric default-y="-115" number="2">
          <syllabic>single</syllabic>
          <text>minh.</text>
        </lyric>
        <lyric default-y="-143" number="3">
          <syllabic>single</syllabic>
          <text>hùng.</text>
        </lyric>
        <lyric default-y="-171" number="4">
          <syllabic>single</syllabic>
          <text>cao.</text>
        </lyric>
        <lyric default-y="-200" number="5">
          <syllabic>single</syllabic>
          <text>hăng.</text>
        </lyric>
        <lyric default-y="-228" number="6">
          <syllabic>single</syllabic>
          <text>vầy.</text>
        </lyric>
        <lyric default-y="-256" number="7">
          <syllabic>single</syllabic>
          <text>hoàng.</text>
        </lyric>
        <lyric default-y="-285" number="8">
          <syllabic>single</syllabic>
          <text>đàng.</text>
        </lyric>
      </note>
      <note default-x="16">
        <chord/>
        <pitch>
          <step>A</step>
          <alter>-1</alter>
          <octave>4</octave>
        </pitch>
        <duration>4</duration>
        <voice>1</voice>
        <type>half</type>
        <stem>up</stem>
      </note>
      <harmony default-y="29" font-family="VNI-Helve-Condense" font-size="13.7">
        <root>
          <root-step>B</root-step>
          <root-alter>-1</root-alter>
        </root>
        <kind halign="center" text="7">dominant</kind>
      </harmony>
      <note default-x="81">
        <pitch>
          <step>D</step>
          <octave>4</octave>
        </pitch>
        <duration>3</duration>
        <voice>1</voice>
        <type>quarter</type>
        <dot/>
        <stem default-y="5">up</stem>
        <lyric default-y="-86" number="1">
          <syllabic>begin</syllabic>
          <text>Ha</text>
        </lyric>
        <lyric default-y="-115" number="2">
          <syllabic>begin</syllabic>
          <text>Ha</text>
        </lyric>
        <lyric default-y="-143" number="3">
          <syllabic>begin</syllabic>
          <text>Ha</text>
        </lyric>
        <lyric default-y="-171" number="4">
          <syllabic>begin</syllabic>
          <text>Ha</text>
        </lyric>
        <lyric default-y="-200" number="5">
          <syllabic>begin</syllabic>
          <text>Ha</text>
        </lyric>
        <lyric default-y="-228" number="6">
          <syllabic>begin</syllabic>
          <text>Ha</text>
        </lyric>
        <lyric default-y="-256" number="7">
          <syllabic>begin</syllabic>
          <text>Ha</text>
        </lyric>
        <lyric default-y="-285" number="8">
          <syllabic>begin</syllabic>
          <text>Ha</text>
        </lyric>
      </note>
      <note default-x="81">
        <chord/>
        <pitch>
          <step>G</step>
          <octave>4</octave>
        </pitch>
        <duration>3</duration>
        <voice>1</voice>
        <type>quarter</type>
        <dot/>
        <stem>up</stem>
      </note>
      <note default-x="134">
        <pitch>
          <step>D</step>
          <octave>4</octave>
        </pitch>
        <duration>1</duration>
        <voice>1</voice>
        <type>eighth</type>
        <stem default-y="0">up</stem>
        <lyric default-y="-86" number="1">
          <syllabic>middle</syllabic>
          <text>lê</text>
        </lyric>
        <lyric default-y="-115" number="2">
          <syllabic>middle</syllabic>
          <text>lê</text>
        </lyric>
        <lyric default-y="-143" number="3">
          <syllabic>middle</syllabic>
          <text>lê</text>
        </lyric>
        <lyric default-y="-171" number="4">
          <syllabic>middle</syllabic>
          <text>lê</text>
        </lyric>
        <lyric default-y="-200" number="5">
          <syllabic>middle</syllabic>
          <text>lê</text>
        </lyric>
        <lyric default-y="-228" number="6">
          <syllabic>middle</syllabic>
          <text>lê</text>
        </lyric>
        <lyric default-y="-256" number="7">
          <syllabic>middle</syllabic>
          <text>lê</text>
        </lyric>
        <lyric default-y="-285" number="8">
          <syllabic>middle</syllabic>
          <text>lê</text>
        </lyric>
      </note>
      <note default-x="134">
        <chord/>
        <pitch>
          <step>F</step>
          <octave>4</octave>
        </pitch>
        <duration>1</duration>
        <voice>1</voice>
        <type>eighth</type>
        <stem>up</stem>
      </note>
    </measure>
    <!--=======================================================-->
    <measure number="13" width="67">
      <harmony default-y="29" font-family="VNI-Helve-Condense" font-size="13.7">
        <root>
          <root-step>E</root-step>
          <root-alter>-1</root-alter>
        </root>
        <kind halign="center" text="">major</kind>
      </harmony>
      <note default-x="14">
        <pitch>
          <step>E</step>
          <alter>-1</alter>
          <octave>4</octave>
        </pitch>
        <duration>8</duration>
        <voice>1</voice>
        <type>whole</type>
        <lyric default-y="-86" number="1">
          <syllabic>middle</syllabic>
          <text>lu</text>
        </lyric>
        <lyric default-y="-115" number="2">
          <syllabic>middle</syllabic>
          <text>lu</text>
        </lyric>
        <lyric default-y="-143" number="3">
          <syllabic>middle</syllabic>
          <text>lu</text>
        </lyric>
        <lyric default-y="-171" number="4">
          <syllabic>middle</syllabic>
          <text>lu</text>
        </lyric>
        <lyric default-y="-200" number="5">
          <syllabic>middle</syllabic>
          <text>lu</text>
        </lyric>
        <lyric default-y="-228" number="6">
          <syllabic>middle</syllabic>
          <text>lu</text>
        </lyric>
        <lyric default-y="-256" number="7">
          <syllabic>middle</syllabic>
          <text>lu</text>
        </lyric>
        <lyric default-y="-285" number="8">
          <syllabic>middle</syllabic>
          <text>lu</text>
        </lyric>
      </note>
      <note default-x="14">
        <chord/>
        <pitch>
          <step>B</step>
          <alter>-1</alter>
          <octave>4</octave>
        </pitch>
        <duration>8</duration>
        <voice>1</voice>
        <type>whole</type>
      </note>
    </measure>
    <!--=======================================================-->
    <measure number="14" width="147">
      <harmony default-y="29" font-family="VNI-Helve-Condense" font-size="13.7">
        <root>
          <root-step>C</root-step>
        </root>
        <kind halign="center" text="m">minor</kind>
      </harmony>
      <note default-x="16">
        <pitch>
          <step>E</step>
          <alter>-1</alter>
          <octave>4</octave>
        </pitch>
        <duration>4</duration>
        <voice>1</voice>
        <type>half</type>
        <stem>double</stem>
        <lyric default-y="-86" number="1">
          <syllabic>end</syllabic>
          <text>gia!</text>
        </lyric>
        <lyric default-y="-115" number="2">
          <syllabic>end</syllabic>
          <text>gia!</text>
        </lyric>
        <lyric default-y="-143" number="3">
          <syllabic>end</syllabic>
          <text>gia!</text>
        </lyric>
        <lyric default-y="-171" number="4">
          <syllabic>end</syllabic>
          <text>gia!</text>
        </lyric>
        <lyric default-y="-200" number="5">
          <syllabic>end</syllabic>
          <text>gia!</text>
        </lyric>
        <lyric default-y="-228" number="6">
          <syllabic>end</syllabic>
          <text>gia!</text>
        </lyric>
        <lyric default-y="-256" number="7">
          <syllabic>end</syllabic>
          <text>gia!</text>
        </lyric>
        <lyric default-y="-285" number="8">
          <syllabic>end</syllabic>
          <text>gia!</text>
        </lyric>
      </note>
      <harmony default-y="29" font-family="VNI-Helve-Condense" font-size="13.7">
        <root>
          <root-step>F</root-step>
        </root>
        <kind halign="center" text="m">minor</kind>
      </harmony>
      <note default-x="65">
        <pitch>
          <step>C</step>
          <octave>4</octave>
        </pitch>
        <duration>3</duration>
        <voice>1</voice>
        <type>quarter</type>
        <dot/>
        <stem default-y="10">up</stem>
        <lyric default-y="-86" number="1">
          <syllabic>begin</syllabic>
          <text>Ha</text>
        </lyric>
        <lyric default-y="-115" number="2">
          <syllabic>begin</syllabic>
          <text>Ha</text>
        </lyric>
        <lyric default-y="-143" number="3">
          <syllabic>begin</syllabic>
          <text>Ha</text>
        </lyric>
        <lyric default-y="-171" number="4">
          <syllabic>begin</syllabic>
          <text>Ha</text>
        </lyric>
        <lyric default-y="-200" number="5">
          <syllabic>begin</syllabic>
          <text>Ha</text>
        </lyric>
        <lyric default-y="-228" number="6">
          <syllabic>begin</syllabic>
          <text>Ha</text>
        </lyric>
        <lyric default-y="-256" number="7">
          <syllabic>begin</syllabic>
          <text>Ha</text>
        </lyric>
        <lyric default-y="-285" number="8">
          <syllabic>begin</syllabic>
          <text>Ha</text>
        </lyric>
      </note>
      <note default-x="65">
        <chord/>
        <pitch>
          <step>A</step>
          <alter>-1</alter>
          <octave>4</octave>
        </pitch>
        <duration>3</duration>
        <voice>1</voice>
        <type>quarter</type>
        <dot/>
        <stem>up</stem>
      </note>
      <note default-x="109">
        <pitch>
          <step>C</step>
          <octave>4</octave>
        </pitch>
        <duration>1</duration>
        <voice>1</voice>
        <type>eighth</type>
        <stem default-y="5">up</stem>
        <lyric default-y="-86" number="1">
          <syllabic>middle</syllabic>
          <text>lê</text>
        </lyric>
        <lyric default-y="-115" number="2">
          <syllabic>middle</syllabic>
          <text>lê</text>
        </lyric>
        <lyric default-y="-143" number="3">
          <syllabic>middle</syllabic>
          <text>lê</text>
        </lyric>
        <lyric default-y="-171" number="4">
          <syllabic>middle</syllabic>
          <text>lê</text>
        </lyric>
        <lyric default-y="-200" number="5">
          <syllabic>middle</syllabic>
          <text>lê</text>
        </lyric>
        <lyric default-y="-228" number="6">
          <syllabic>middle</syllabic>
          <text>lê</text>
        </lyric>
        <lyric default-y="-256" number="7">
          <syllabic>middle</syllabic>
          <text>lê</text>
        </lyric>
        <lyric default-y="-285" number="8">
          <syllabic>middle</syllabic>
          <text>lê</text>
        </lyric>
      </note>
      <note default-x="109">
        <chord/>
        <pitch>
          <step>G</step>
          <octave>4</octave>
        </pitch>
        <duration>1</duration>
        <voice>1</voice>
        <type>eighth</type>
        <stem>up</stem>
      </note>
    </measure>
    <!--=======================================================-->
    <measure number="15" width="62">
      <harmony default-y="29" font-family="VNI-Helve-Condense" font-size="13.7">
        <root>
          <root-step>B</root-step>
          <root-alter>-1</root-alter>
        </root>
        <kind halign="center" text="7">dominant</kind>
      </harmony>
      <note default-x="13">
        <pitch>
          <step>D</step>
          <octave>4</octave>
        </pitch>
        <duration>8</duration>
        <voice>1</voice>
        <type>whole</type>
        <lyric default-y="-86" number="1">
          <syllabic>middle</syllabic>
          <text>lu</text>
        </lyric>
        <lyric default-y="-115" number="2">
          <syllabic>middle</syllabic>
          <text>lu</text>
        </lyric>
        <lyric default-y="-143" number="3">
          <syllabic>middle</syllabic>
          <text>lu</text>
        </lyric>
        <lyric default-y="-171" number="4">
          <syllabic>middle</syllabic>
          <text>lu</text>
        </lyric>
        <lyric default-y="-200" number="5">
          <syllabic>middle</syllabic>
          <text>lu</text>
        </lyric>
        <lyric default-y="-228" number="6">
          <syllabic>middle</syllabic>
          <text>lu</text>
        </lyric>
        <lyric default-y="-256" number="7">
          <syllabic>middle</syllabic>
          <text>lu</text>
        </lyric>
        <lyric default-y="-285" number="8">
          <syllabic>middle</syllabic>
          <text>lu</text>
        </lyric>
      </note>
      <note default-x="13">
        <chord/>
        <pitch>
          <step>F</step>
          <octave>4</octave>
        </pitch>
        <duration>8</duration>
        <voice>1</voice>
        <type>whole</type>
      </note>
    </measure>
    <!--=======================================================-->
    <measure number="16" width="68">
      <harmony default-y="29" font-family="VNI-Helve-Condense" font-size="13.7">
        <root>
          <root-step>E</root-step>
          <root-alter>-1</root-alter>
        </root>
        <kind halign="center" text="">major</kind>
      </harmony>
      <note default-x="13">
        <pitch>
          <step>E</step>
          <alter>-1</alter>
          <octave>4</octave>
        </pitch>
        <duration>8</duration>
        <voice>1</voice>
        <type>whole</type>
        <lyric default-y="-86" number="1">
          <syllabic>end</syllabic>
          <text>gia!</text>
        </lyric>
        <lyric default-y="-115" number="2">
          <syllabic>end</syllabic>
          <text>gia!</text>
        </lyric>
        <lyric default-y="-143" number="3">
          <syllabic>end</syllabic>
          <text>gia!</text>
        </lyric>
        <lyric default-y="-171" number="4">
          <syllabic>end</syllabic>
          <text>gia!</text>
        </lyric>
        <lyric default-y="-200" number="5">
          <syllabic>end</syllabic>
          <text>gia!</text>
        </lyric>
        <lyric default-y="-228" number="6">
          <syllabic>end</syllabic>
          <text>gia!</text>
        </lyric>
        <lyric default-y="-256" number="7">
          <syllabic>end</syllabic>
          <text>gia!</text>
        </lyric>
        <lyric default-y="-285" number="8">
          <syllabic>end</syllabic>
          <text>gia!</text>
        </lyric>
      </note>
      <backup>
        <duration>8</duration>
      </backup>
      <note default-x="30">
        <pitch>
          <step>E</step>
          <alter>-1</alter>
          <octave>4</octave>
        </pitch>
        <duration>8</duration>
        <voice>2</voice>
        <type>whole</type>
      </note>
      <barline location="right">
        <bar-style>light-light</bar-style>
      </barline>
    </measure>
    <!--=======================================================-->
    <measure number="17" width="60">
      <harmony default-y="29" font-family="VNI-Helve-Condense" font-size="13.7">
        <root>
          <root-step>A</root-step>
          <root-alter>-1</root-alter>
        </root>
        <kind halign="center" text="">major</kind>
      </harmony>
      <note default-x="15">
        <pitch>
          <step>C</step>
          <octave>4</octave>
        </pitch>
        <duration>8</duration>
        <voice>1</voice>
        <type>whole</type>
        <lyric default-y="-285" number="8">
          <syllabic>begin</syllabic>
          <text>A</text>
        </lyric>
      </note>
      <note default-x="15">
        <chord/>
        <pitch>
          <step>E</step>
          <alter>-1</alter>
          <octave>4</octave>
        </pitch>
        <duration>8</duration>
        <voice>1</voice>
        <type>whole</type>
      </note>
    </measure>
    <!--=======================================================-->
    <measure number="18" width="63">
      <harmony default-y="29" font-family="VNI-Helve-Condense" font-size="13.7">
        <root>
          <root-step>E</root-step>
          <root-alter>-1</root-alter>
        </root>
        <kind halign="center" text="">major</kind>
      </harmony>
      <note default-x="16">
        <pitch>
          <step>B</step>
          <alter>-1</alter>
          <octave>3</octave>
        </pitch>
        <duration>8</duration>
        <voice>1</voice>
        <type>whole</type>
        <lyric default-y="-285" number="8" relative-x="3">
          <syllabic>end</syllabic>
          <text>men.</text>
        </lyric>
      </note>
      <note default-x="16">
        <chord/>
        <pitch>
          <step>E</step>
          <alter>-1</alter>
          <octave>4</octave>
        </pitch>
        <duration>8</duration>
        <voice>1</voice>
        <type>whole</type>
      </note>
      <barline location="right">
        <bar-style>light-heavy</bar-style>
      </barline>
    </measure>
  </part>
  <!--=========================================================-->
  <part id="P2">
    <?SmartMusic maxVoice=1?>
    <measure number="1" width="311">
      <print>
        <staff-layout number="1">
          <staff-distance>281</staff-distance>
        </staff-layout>
        <measure-numbering>none</measure-numbering>
      </print>
      <attributes>
        <divisions>2</divisions>
        <key>
          <fifths>-3</fifths>
          <mode>major</mode>
        </key>
        <time>
          <beats>4</beats>
          <beat-type>4</beat-type>
        </time>
        <clef>
          <sign>F</sign>
          <line>4</line>
        </clef>
      </attributes>
      <sound tempo="104"/>
      <note default-x="131">
        <pitch>
          <step>E</step>
          <alter>-1</alter>
          <octave>3</octave>
        </pitch>
        <duration>4</duration>
        <voice>1</voice>
        <type>half</type>
        <stem default-y="-50">down</stem>
      </note>
      <note default-x="131">
        <chord/>
        <pitch>
          <step>B</step>
          <alter>-1</alter>
          <octave>3</octave>
        </pitch>
        <duration>4</duration>
        <voice>1</voice>
        <type>half</type>
        <stem>down</stem>
      </note>
      <note default-x="203">
        <pitch>
          <step>E</step>
          <alter>-1</alter>
          <octave>3</octave>
        </pitch>
        <duration>2</duration>
        <voice>1</voice>
        <type>quarter</type>
        <stem default-y="-50">down</stem>
      </note>
      <note default-x="203">
        <chord/>
        <pitch>
          <step>B</step>
          <alter>-1</alter>
          <octave>3</octave>
        </pitch>
        <duration>2</duration>
        <voice>1</voice>
        <type>quarter</type>
        <stem>down</stem>
      </note>
      <note default-x="268">
        <pitch>
          <step>E</step>
          <alter>-1</alter>
          <octave>3</octave>
        </pitch>
        <duration>2</duration>
        <voice>1</voice>
        <type>quarter</type>
        <stem default-y="-50">down</stem>
      </note>
      <note default-x="268">
        <chord/>
        <pitch>
          <step>B</step>
          <alter>-1</alter>
          <octave>3</octave>
        </pitch>
        <duration>2</duration>
        <voice>1</voice>
        <type>quarter</type>
        <stem>down</stem>
      </note>
    </measure>
    <!--=======================================================-->
    <measure number="2" width="139">
      <note default-x="23">
        <pitch>
          <step>E</step>
          <alter>-1</alter>
          <octave>4</octave>
        </pitch>
        <duration>6</duration>
        <voice>1</voice>
        <type>half</type>
        <dot/>
        <stem default-y="40">up</stem>
      </note>
      <backup>
        <duration>6</duration>
      </backup>
      <note default-x="23">
        <pitch>
          <step>E</step>
          <alter>-1</alter>
          <octave>3</octave>
        </pitch>
        <duration>4</duration>
        <voice>2</voice>
        <type>half</type>
        <stem default-y="-50">down</stem>
      </note>
      <note default-x="89">
        <pitch>
          <step>E</step>
          <alter>-1</alter>
          <octave>3</octave>
        </pitch>
        <duration>4</duration>
        <voice>2</voice>
        <type>half</type>
        <stem default-y="-50">down</stem>
      </note>
      <backup>
        <duration>2</duration>
      </backup>
      <note default-x="114">
        <pitch>
          <step>D</step>
          <octave>4</octave>
        </pitch>
        <duration>2</duration>
        <voice>1</voice>
        <type>quarter</type>
        <stem default-y="35">up</stem>
      </note>
    </measure>
    <!--=======================================================-->
    <measure number="3" width="247">
      <note default-x="24">
        <pitch>
          <step>A</step>
          <alter>-1</alter>
          <octave>2</octave>
        </pitch>
        <duration>2</duration>
        <voice>1</voice>
        <type>quarter</type>
        <stem default-y="-63">down</stem>
      </note>
      <note default-x="24">
        <chord/>
        <pitch>
          <step>C</step>
          <octave>4</octave>
        </pitch>
        <duration>2</duration>
        <voice>1</voice>
        <type>quarter</type>
        <stem>down</stem>
      </note>
      <note default-x="85">
        <pitch>
          <step>B</step>
          <alter>-1</alter>
          <octave>2</octave>
        </pitch>
        <duration>2</duration>
        <voice>1</voice>
        <type>quarter</type>
        <stem default-y="-58">down</stem>
      </note>
      <note default-x="85">
        <chord/>
        <pitch>
          <step>D</step>
          <octave>4</octave>
        </pitch>
        <duration>2</duration>
        <voice>1</voice>
        <type>quarter</type>
        <stem>down</stem>
      </note>
      <note default-x="143">
        <pitch>
          <step>C</step>
          <octave>3</octave>
        </pitch>
        <duration>2</duration>
        <voice>1</voice>
        <type>quarter</type>
        <stem default-y="-53">down</stem>
      </note>
      <note default-x="143">
        <chord/>
        <pitch>
          <step>E</step>
          <alter>-1</alter>
          <octave>4</octave>
        </pitch>
        <duration>2</duration>
        <voice>1</voice>
        <type>quarter</type>
        <stem>down</stem>
      </note>
      <note default-x="204">
        <pitch>
          <step>A</step>
          <alter>-1</alter>
          <octave>2</octave>
        </pitch>
        <duration>2</duration>
        <voice>1</voice>
        <type>quarter</type>
        <stem default-y="-63">down</stem>
      </note>
      <note default-x="204">
        <chord/>
        <pitch>
          <step>C</step>
          <octave>4</octave>
        </pitch>
        <duration>2</duration>
        <voice>1</voice>
        <type>quarter</type>
        <stem>down</stem>
      </note>
    </measure>
    <!--=======================================================-->
    <measure number="4" width="128">
      <note default-x="31">
        <pitch>
          <step>D</step>
          <octave>3</octave>
        </pitch>
        <duration>8</duration>
        <voice>1</voice>
        <type>whole</type>
      </note>
      <note default-x="31">
        <chord/>
        <pitch>
          <step>F</step>
          <octave>4</octave>
        </pitch>
        <duration>8</duration>
        <voice>1</voice>
        <type>whole</type>
      </note>
    </measure>
    <!--=======================================================-->
    <measure number="5" width="196">
      <note default-x="26">
        <pitch>
          <step>E</step>
          <alter>-1</alter>
          <octave>3</octave>
        </pitch>
        <duration>4</duration>
        <voice>1</voice>
        <type>half</type>
        <stem default-y="-50">down</stem>
      </note>
      <note default-x="26">
        <chord/>
        <pitch>
          <step>B</step>
          <alter>-1</alter>
          <octave>3</octave>
        </pitch>
        <duration>4</duration>
        <voice>1</voice>
        <type>half</type>
        <stem>down</stem>
      </note>
      <note default-x="91">
        <pitch>
          <step>C</step>
          <octave>3</octave>
        </pitch>
        <duration>2</duration>
        <voice>1</voice>
        <type>quarter</type>
        <stem default-y="-53">down</stem>
      </note>
      <note default-x="91">
        <chord/>
        <pitch>
          <step>C</step>
          <octave>4</octave>
        </pitch>
        <duration>2</duration>
        <voice>1</voice>
        <type>quarter</type>
        <stem>down</stem>
      </note>
      <note default-x="154">
        <pitch>
          <step>C</step>
          <octave>3</octave>
        </pitch>
        <duration>2</duration>
        <voice>1</voice>
        <type>quarter</type>
        <stem default-y="-53">down</stem>
      </note>
      <note default-x="154">
        <chord/>
        <pitch>
          <step>B</step>
          <alter>-1</alter>
          <octave>3</octave>
        </pitch>
        <duration>2</duration>
        <voice>1</voice>
        <type>quarter</type>
        <stem>down</stem>
      </note>
    </measure>
    <!--=======================================================-->
    <measure number="6" width="356">
      <print new-system="yes">
        <staff-layout number="1">
          <staff-distance>284</staff-distance>
        </staff-layout>
      </print>
      <note default-x="94">
        <pitch>
          <step>D</step>
          <octave>3</octave>
        </pitch>
        <duration>2</duration>
        <voice>1</voice>
        <type>quarter</type>
        <stem default-y="-55">down</stem>
      </note>
      <note default-x="94">
        <chord/>
        <pitch>
          <step>A</step>
          <octave>3</octave>
        </pitch>
        <duration>2</duration>
        <voice>1</voice>
        <type>quarter</type>
        <accidental>natural</accidental>
        <stem>down</stem>
      </note>
      <note default-x="161">
        <pitch>
          <step>F</step>
          <alter>1</alter>
          <octave>3</octave>
        </pitch>
        <duration>2</duration>
        <voice>1</voice>
        <type>quarter</type>
        <accidental>sharp</accidental>
        <stem default-y="-45">down</stem>
      </note>
      <note default-x="161">
        <chord/>
        <pitch>
          <step>A</step>
          <octave>3</octave>
        </pitch>
        <duration>2</duration>
        <voice>1</voice>
        <type>quarter</type>
        <stem>down</stem>
      </note>
      <note default-x="227">
        <pitch>
          <step>G</step>
          <octave>3</octave>
        </pitch>
        <duration>2</duration>
        <voice>1</voice>
        <type>quarter</type>
        <stem default-y="-40">down</stem>
      </note>
      <note default-x="227">
        <chord/>
        <pitch>
          <step>B</step>
          <alter>-1</alter>
          <octave>3</octave>
        </pitch>
        <duration>2</duration>
        <voice>1</voice>
        <type>quarter</type>
        <stem>down</stem>
      </note>
      <note default-x="289">
        <pitch>
          <step>E</step>
          <octave>3</octave>
        </pitch>
        <duration>2</duration>
        <voice>1</voice>
        <type>quarter</type>
        <accidental>natural</accidental>
        <stem default-y="-50">down</stem>
      </note>
      <note default-x="289">
        <chord/>
        <pitch>
          <step>B</step>
          <alter>-1</alter>
          <octave>3</octave>
        </pitch>
        <duration>2</duration>
        <voice>1</voice>
        <type>quarter</type>
        <stem>down</stem>
      </note>
    </measure>
    <!--=======================================================-->
    <measure number="7" width="152">
      <note default-x="19">
        <pitch>
          <step>F</step>
          <octave>3</octave>
        </pitch>
        <duration>4</duration>
        <voice>1</voice>
        <type>half</type>
        <stem default-y="-45">down</stem>
      </note>
      <note default-x="19">
        <chord/>
        <pitch>
          <step>B</step>
          <alter>-1</alter>
          <octave>3</octave>
        </pitch>
        <duration>4</duration>
        <voice>1</voice>
        <type>half</type>
        <stem>down</stem>
      </note>
      <note default-x="84">
        <pitch>
          <step>F</step>
          <octave>3</octave>
        </pitch>
        <duration>4</duration>
        <voice>1</voice>
        <type>half</type>
        <stem default-y="-45">down</stem>
      </note>
      <note default-x="84">
        <chord/>
        <pitch>
          <step>A</step>
          <octave>3</octave>
        </pitch>
        <duration>4</duration>
        <voice>1</voice>
        <type>half</type>
        <accidental>natural</accidental>
        <stem>down</stem>
      </note>
    </measure>
    <!--=======================================================-->
    <measure number="8" width="125">
      <note default-x="21">
        <pitch>
          <step>B</step>
          <alter>-1</alter>
          <octave>2</octave>
        </pitch>
        <duration>8</duration>
        <voice>1</voice>
        <type>whole</type>
      </note>
      <note default-x="21">
        <chord/>
        <pitch>
          <step>B</step>
          <alter>-1</alter>
          <octave>3</octave>
        </pitch>
        <duration>8</duration>
        <voice>1</voice>
        <type>whole</type>
      </note>
    </measure>
    <!--=======================================================-->
    <measure number="9" width="228">
      <note default-x="24">
        <pitch>
          <step>B</step>
          <alter>-1</alter>
          <octave>3</octave>
        </pitch>
        <duration>4</duration>
        <voice>1</voice>
        <type>half</type>
        <stem default-y="26.5">up</stem>
      </note>
      <backup>
        <duration>4</duration>
      </backup>
      <note default-x="36">
        <pitch>
          <step>A</step>
          <alter>-1</alter>
          <octave>3</octave>
        </pitch>
        <duration>4</duration>
        <voice>2</voice>
        <type>half</type>
        <stem default-y="-35">down</stem>
      </note>
      <note default-x="109">
        <pitch>
          <step>B</step>
          <alter>-1</alter>
          <octave>3</octave>
        </pitch>
        <duration>2</duration>
        <voice>1</voice>
        <type>quarter</type>
        <stem default-y="26.5">up</stem>
      </note>
      <backup>
        <duration>2</duration>
      </backup>
      <note default-x="121">
        <pitch>
          <step>A</step>
          <alter>-1</alter>
          <octave>3</octave>
        </pitch>
        <duration>2</duration>
        <voice>2</voice>
        <type>quarter</type>
        <stem default-y="-35">down</stem>
      </note>
      <note default-x="177">
        <pitch>
          <step>B</step>
          <alter>-1</alter>
          <octave>3</octave>
        </pitch>
        <duration>2</duration>
        <voice>1</voice>
        <type>quarter</type>
        <stem default-y="26.5">up</stem>
      </note>
      <backup>
        <duration>2</duration>
      </backup>
      <note default-x="188">
        <pitch>
          <step>A</step>
          <alter>-1</alter>
          <octave>3</octave>
        </pitch>
        <duration>2</duration>
        <voice>2</voice>
        <type>quarter</type>
        <stem default-y="-35">down</stem>
      </note>
    </measure>
    <!--=======================================================-->
    <measure number="10" width="160">
      <note default-x="19">
        <pitch>
          <step>B</step>
          <alter>-1</alter>
          <octave>3</octave>
        </pitch>
        <duration>4</duration>
        <voice>1</voice>
        <type>half</type>
        <stem default-y="26.5">up</stem>
      </note>
      <backup>
        <duration>4</duration>
      </backup>
      <note default-x="31">
        <pitch>
          <step>A</step>
          <alter>-1</alter>
          <octave>3</octave>
        </pitch>
        <duration>4</duration>
        <voice>2</voice>
        <type>half</type>
        <stem default-y="-35">down</stem>
      </note>
      <note default-x="89">
        <pitch>
          <step>G</step>
          <octave>3</octave>
        </pitch>
        <duration>4</duration>
        <voice>1</voice>
        <type>half</type>
        <stem default-y="-40">down</stem>
      </note>
      <note default-x="89">
        <chord/>
        <pitch>
          <step>B</step>
          <alter>-1</alter>
          <octave>3</octave>
        </pitch>
        <duration>4</duration>
        <voice>1</voice>
        <type>half</type>
        <stem>down</stem>
      </note>
    </measure>
    <!--=======================================================-->
    <measure number="11" width="383">
      <print new-system="yes">
        <staff-layout number="1">
          <staff-distance>285</staff-distance>
        </staff-layout>
      </print>
      <note default-x="92">
        <pitch>
          <step>E</step>
          <alter>-1</alter>
          <octave>3</octave>
        </pitch>
        <duration>2</duration>
        <voice>1</voice>
        <type>quarter</type>
        <stem default-y="-50">down</stem>
      </note>
      <note default-x="92">
        <chord/>
        <pitch>
          <step>G</step>
          <octave>3</octave>
        </pitch>
        <duration>2</duration>
        <voice>1</voice>
        <type>quarter</type>
        <stem>down</stem>
      </note>
      <note default-x="165">
        <pitch>
          <step>E</step>
          <alter>-1</alter>
          <octave>3</octave>
        </pitch>
        <duration>2</duration>
        <voice>1</voice>
        <type>quarter</type>
        <stem default-y="-50">down</stem>
      </note>
      <note default-x="165">
        <chord/>
        <pitch>
          <step>G</step>
          <octave>3</octave>
        </pitch>
        <duration>2</duration>
        <voice>1</voice>
        <type>quarter</type>
        <stem>down</stem>
      </note>
      <note default-x="238">
        <pitch>
          <step>F</step>
          <octave>3</octave>
        </pitch>
        <duration>2</duration>
        <voice>1</voice>
        <type>quarter</type>
        <stem default-y="18.5">up</stem>
      </note>
      <backup>
        <duration>2</duration>
      </backup>
      <note default-x="250">
        <pitch>
          <step>E</step>
          <alter>-1</alter>
          <octave>3</octave>
        </pitch>
        <duration>2</duration>
        <voice>2</voice>
        <type>quarter</type>
        <stem default-y="-50">down</stem>
      </note>
      <note default-x="311">
        <pitch>
          <step>E</step>
          <alter>-1</alter>
          <octave>3</octave>
        </pitch>
        <duration>2</duration>
        <voice>1</voice>
        <type>quarter</type>
        <stem default-y="-50">down</stem>
      </note>
      <note default-x="311">
        <chord/>
        <pitch>
          <step>G</step>
          <octave>3</octave>
        </pitch>
        <duration>2</duration>
        <voice>1</voice>
        <type>quarter</type>
        <stem>down</stem>
      </note>
    </measure>
    <!--=======================================================-->
    <measure number="12" width="171">
      <note default-x="16">
        <pitch>
          <step>A</step>
          <alter>-1</alter>
          <octave>2</octave>
        </pitch>
        <duration>4</duration>
        <voice>1</voice>
        <type>half</type>
        <stem default-y="-63">down</stem>
      </note>
      <note default-x="16">
        <chord/>
        <pitch>
          <step>A</step>
          <alter>-1</alter>
          <octave>3</octave>
        </pitch>
        <duration>4</duration>
        <voice>1</voice>
        <type>half</type>
        <stem>down</stem>
      </note>
      <note default-x="81">
        <pitch>
          <step>B</step>
          <alter>-1</alter>
          <octave>3</octave>
        </pitch>
        <duration>3</duration>
        <voice>1</voice>
        <type>quarter</type>
        <dot relative-x="12"/>
        <stem default-y="33.5">up</stem>
      </note>
      <backup>
        <duration>3</duration>
      </backup>
      <note default-x="93">
        <pitch>
          <step>A</step>
          <alter>-1</alter>
          <octave>3</octave>
        </pitch>
        <duration>3</duration>
        <voice>2</voice>
        <type>quarter</type>
        <dot/>
        <stem default-y="-35">down</stem>
      </note>
      <note default-x="134">
        <pitch>
          <step>B</step>
          <alter>-1</alter>
          <octave>3</octave>
        </pitch>
        <duration>1</duration>
        <voice>1</voice>
        <type>eighth</type>
        <stem default-y="33.5">up</stem>
      </note>
      <backup>
        <duration>1</duration>
      </backup>
      <note default-x="145">
        <pitch>
          <step>A</step>
          <alter>-1</alter>
          <octave>3</octave>
        </pitch>
        <duration>1</duration>
        <voice>2</voice>
        <type>eighth</type>
        <stem default-y="-35">down</stem>
      </note>
    </measure>
    <!--=======================================================-->
    <measure number="13" width="67">
      <note default-x="14">
        <pitch>
          <step>G</step>
          <octave>3</octave>
        </pitch>
        <duration>8</duration>
        <voice>1</voice>
        <type>whole</type>
      </note>
      <note default-x="14">
        <chord/>
        <pitch>
          <step>B</step>
          <alter>-1</alter>
          <octave>3</octave>
        </pitch>
        <duration>8</duration>
        <voice>1</voice>
        <type>whole</type>
      </note>
    </measure>
    <!--=======================================================-->
    <measure number="14" width="147">
      <note default-x="16">
        <pitch>
          <step>C</step>
          <octave>3</octave>
        </pitch>
        <duration>4</duration>
        <voice>1</voice>
        <type>half</type>
        <stem default-y="-53">down</stem>
      </note>
      <note default-x="16">
        <chord/>
        <pitch>
          <step>C</step>
          <octave>4</octave>
        </pitch>
        <duration>4</duration>
        <voice>1</voice>
        <type>half</type>
        <stem>down</stem>
      </note>
      <note default-x="65">
        <pitch>
          <step>F</step>
          <octave>3</octave>
        </pitch>
        <duration>3</duration>
        <voice>1</voice>
        <type>quarter</type>
        <dot/>
        <stem default-y="-45">down</stem>
      </note>
      <note default-x="65">
        <chord/>
        <pitch>
          <step>C</step>
          <octave>4</octave>
        </pitch>
        <duration>3</duration>
        <voice>1</voice>
        <type>quarter</type>
        <dot/>
        <stem>down</stem>
      </note>
      <note default-x="109">
        <pitch>
          <step>F</step>
          <octave>3</octave>
        </pitch>
        <duration>1</duration>
        <voice>1</voice>
        <type>eighth</type>
        <stem default-y="-45">down</stem>
      </note>
      <note default-x="109">
        <chord/>
        <pitch>
          <step>B</step>
          <alter>-1</alter>
          <octave>3</octave>
        </pitch>
        <duration>1</duration>
        <voice>1</voice>
        <type>eighth</type>
        <stem>down</stem>
      </note>
    </measure>
    <!--=======================================================-->
    <measure number="15" width="62">
      <note default-x="13">
        <pitch>
          <step>B</step>
          <alter>-1</alter>
          <octave>2</octave>
        </pitch>
        <duration>8</duration>
        <voice>1</voice>
        <type>whole</type>
      </note>
      <note default-x="13">
        <chord/>
        <pitch>
          <step>A</step>
          <alter>-1</alter>
          <octave>3</octave>
        </pitch>
        <duration>8</duration>
        <voice>1</voice>
        <type>whole</type>
      </note>
    </measure>
    <!--=======================================================-->
    <measure number="16" width="68">
      <note default-x="13">
        <pitch>
          <step>E</step>
          <alter>-1</alter>
          <octave>3</octave>
        </pitch>
        <duration>8</duration>
        <voice>1</voice>
        <type>whole</type>
      </note>
      <note default-x="13">
        <chord/>
        <pitch>
          <step>G</step>
          <octave>3</octave>
        </pitch>
        <duration>8</duration>
        <voice>1</voice>
        <type>whole</type>
      </note>
      <barline location="right">
        <bar-style>light-light</bar-style>
      </barline>
    </measure>
    <!--=======================================================-->
    <measure number="17" width="60">
      <note default-x="15">
        <pitch>
          <step>A</step>
          <alter>-1</alter>
          <octave>2</octave>
        </pitch>
        <duration>8</duration>
        <voice>1</voice>
        <type>whole</type>
      </note>
      <note default-x="15">
        <chord/>
        <pitch>
          <step>A</step>
          <alter>-1</alter>
          <octave>3</octave>
        </pitch>
        <duration>8</duration>
        <voice>1</voice>
        <type>whole</type>
      </note>
    </measure>
    <!--=======================================================-->
    <measure number="18" width="63">
      <note default-x="16">
        <pitch>
          <step>E</step>
          <alter>-1</alter>
          <octave>3</octave>
        </pitch>
        <duration>8</duration>
        <voice>1</voice>
        <type>whole</type>
      </note>
      <note default-x="16">
        <chord/>
        <pitch>
          <step>G</step>
          <octave>3</octave>
        </pitch>
        <duration>8</duration>
        <voice>1</voice>
        <type>whole</type>
      </note>
      <barline location="right">
        <bar-style>light-heavy</bar-style>
      </barline>
    </measure>
  </part>
  <!--=========================================================-->
</score-partwise>
