<?xml version="1.0" encoding="UTF-8" standalone="no"?>
<!DOCTYPE score-partwise PUBLIC "-//Recordare//DTD MusicXML 3.1 Partwise//EN" "http://www.musicxml.org/dtds/partwise.dtd">
<score-partwise version="3.1">
  <movement-title>GÔ-GÔ-THA</movement-title>
  <identification>
    <creator type="composer">Bentley DeForest Ackley, 1915.</creator>
    <creator type="lyricist">A.D. Ackley, 1915.</creator>
    <rights>©</rights>
    <encoding>
      <software>Finale v26.3 for Windows</software>
      <encoding-date>2021-09-07</encoding-date>
      <supports attribute="new-system" element="print" type="yes" value="yes"/>
      <supports attribute="new-page" element="print" type="yes" value="yes"/>
      <supports element="accidental" type="yes"/>
      <supports element="beam" type="yes"/>
      <supports element="stem" type="yes"/>
    </encoding>
  </identification>
  <defaults>
    <scaling>
      <millimeters>7.2319</millimeters>
      <tenths>40</tenths>
    </scaling>
    <page-layout>
      <page-height>1643</page-height>
      <page-width>1161</page-width>
      <page-margins type="both">
        <left-margin>70</left-margin>
        <right-margin>70</right-margin>
        <top-margin>70</top-margin>
        <bottom-margin>70</bottom-margin>
      </page-margins>
    </page-layout>
    <system-layout>
      <system-margins>
        <left-margin>0</left-margin>
        <right-margin>0</right-margin>
      </system-margins>
      <system-distance>111</system-distance>
      <top-system-distance>72</top-system-distance>
    </system-layout>
    <staff-layout>
      <staff-distance>93</staff-distance>
    </staff-layout>
    <appearance>
      <line-width type="stem">1.1784</line-width>
      <line-width type="beam">5</line-width>
      <line-width type="staff">1.1784</line-width>
      <line-width type="light barline">1.1784</line-width>
      <line-width type="heavy barline">5</line-width>
      <line-width type="leger">1.1784</line-width>
      <line-width type="ending">1.1784</line-width>
      <line-width type="wedge">0.7487</line-width>
      <line-width type="enclosure">1.1784</line-width>
      <line-width type="tuplet bracket">0.7487</line-width>
      <note-size type="grace">60</note-size>
      <note-size type="cue">60</note-size>
      <distance type="hyphen">120</distance>
      <distance type="beam">7.5</distance>
    </appearance>
    <music-font font-family="Maestro,engraved" font-size="20.5"/>
    <word-font font-family="Myriad Pro" font-size="10.25"/>
    <lyric-font font-family="Myriad Pro" font-size="12"/>
  </defaults>
  <credit page="1">
    <credit-type>title</credit-type>
    <credit-words default-x="581" default-y="1573" font-size="22" font-weight="bold" justify="center" valign="top">GÔ-GÔ-THA</credit-words>
  </credit>
  <credit page="1">
    <credit-type>composer</credit-type>
    <credit-words default-x="1091" default-y="246" font-size="12" justify="right" valign="bottom">Bentley DeForest Ackley, 1915.</credit-words>
  </credit>
  <credit page="1">
    <credit-type>lyricist</credit-type>
    <credit-words default-x="70" default-y="246" font-size="12" valign="bottom">Dịch lời của A.D. Ackley, 1915.</credit-words>
  </credit>
  <credit page="1">
    <credit-words default-x="70" default-y="1573" font-size="22" font-weight="bold" valign="top">392</credit-words>
  </credit>
  <part-list>
    <part-group number="1" type="start">
      <group-symbol default-x="-5">bracket</group-symbol>
      <group-barline>no</group-barline>
    </part-group>
    <score-part id="P1">
      <part-name print-object="no">MusicXML Part</part-name>
      <score-instrument id="P1-I1">
        <instrument-name>SmartMusic SoftSynth</instrument-name>
        <instrument-sound>voice.soprano</instrument-sound>
        <virtual-instrument/>
      </score-instrument>
      <midi-device>SmartMusic SoftSynth</midi-device>
      <midi-instrument id="P1-I1">
        <midi-channel>1</midi-channel>
        <midi-bank>15489</midi-bank>
        <midi-program>22</midi-program>
        <volume>80</volume>
        <pan>-70</pan>
      </midi-instrument>
    </score-part>
    <score-part id="P2">
      <part-name print-object="no">MusicXML Part</part-name>
      <score-instrument id="P2-I2">
        <instrument-name>SmartMusic SoftSynth</instrument-name>
        <instrument-sound>voice.bass</instrument-sound>
        <virtual-instrument/>
      </score-instrument>
      <midi-device>SmartMusic SoftSynth</midi-device>
      <midi-instrument id="P2-I2">
        <midi-channel>2</midi-channel>
        <midi-bank>15489</midi-bank>
        <midi-program>22</midi-program>
        <volume>80</volume>
        <pan>80</pan>
      </midi-instrument>
    </score-part>
    <part-group number="1" type="stop"/>
  </part-list>
  <!--=========================================================-->
  <part id="P1">
    <?SmartMusic maxVoice=1?>
    <measure number="1" width="301">
      <print>
        <system-layout>
          <top-system-distance>156</top-system-distance>
        </system-layout>
        <measure-numbering>none</measure-numbering>
      </print>
      <attributes>
        <divisions>4</divisions>
        <key>
          <fifths>-1</fifths>
          <mode>major</mode>
        </key>
        <time>
          <beats>3</beats>
          <beat-type>4</beat-type>
        </time>
        <clef>
          <sign>G</sign>
          <line>2</line>
        </clef>
      </attributes>
      <sound tempo="104"/>
      <note default-x="114">
        <pitch>
          <step>C</step>
          <octave>4</octave>
        </pitch>
        <duration>2</duration>
        <voice>1</voice>
        <type>eighth</type>
        <stem default-y="-15">up</stem>
        <lyric default-y="-86" number="1" relative-x="-7">
          <syllabic>single</syllabic>
          <text>1.Nghìn</text>
        </lyric>
        <lyric default-y="-115" number="2" relative-x="-7">
          <syllabic>single</syllabic>
          <text>2.Tại</text>
        </lyric>
        <lyric default-y="-143" number="3" relative-x="-7">
          <syllabic>single</syllabic>
          <text>3.Kìa,</text>
        </lyric>
        <lyric default-y="-171" number="4" relative-x="-7">
          <syllabic>single</syllabic>
          <text>4.Kìa,</text>
        </lyric>
      </note>
      <note default-x="185">
        <pitch>
          <step>F</step>
          <octave>4</octave>
        </pitch>
        <duration>3</duration>
        <voice>1</voice>
        <type>eighth</type>
        <dot/>
        <stem default-y="0">up</stem>
        <lyric default-y="-86" number="1" relative-x="-3">
          <syllabic>single</syllabic>
          <text>muôn</text>
        </lyric>
        <lyric default-y="-115" number="2">
          <syllabic>single</syllabic>
          <text>sân</text>
        </lyric>
        <lyric default-y="-143" number="3">
          <syllabic>single</syllabic>
          <text>Christ</text>
        </lyric>
        <lyric default-y="-171" number="4">
          <syllabic>single</syllabic>
          <text>Christ</text>
        </lyric>
      </note>
      <note default-x="253">
        <pitch>
          <step>G</step>
          <octave>4</octave>
        </pitch>
        <duration>1</duration>
        <voice>1</voice>
        <type>16th</type>
        <stem default-y="5">up</stem>
        <lyric default-y="-86" number="1">
          <syllabic>single</syllabic>
          <text>thương</text>
        </lyric>
        <lyric default-y="-115" number="2">
          <syllabic>single</syllabic>
          <text>Phi</text>
        </lyric>
        <lyric default-y="-143" number="3">
          <syllabic>single</syllabic>
          <text>đang</text>
        </lyric>
        <lyric default-y="-171" number="4">
          <syllabic>single</syllabic>
          <text>đang</text>
        </lyric>
      </note>
    </measure>
    <!--=======================================================-->
    <measure number="2" width="224">
      <harmony default-y="29" font-family="VNI-Helve-Condense" font-size="13.7">
        <root>
          <root-step>F</root-step>
        </root>
        <kind halign="center" text="">major</kind>
      </harmony>
      <note default-x="24">
        <pitch>
          <step>A</step>
          <octave>4</octave>
        </pitch>
        <duration>6</duration>
        <voice>1</voice>
        <type>quarter</type>
        <dot/>
        <stem default-y="10">up</stem>
        <lyric default-y="-86" number="1">
          <syllabic>single</syllabic>
          <text>khó</text>
        </lyric>
        <lyric default-y="-115" number="2">
          <syllabic>single</syllabic>
          <text>lát</text>
        </lyric>
        <lyric default-y="-143" number="3" relative-x="-5">
          <syllabic>single</syllabic>
          <text>đứng</text>
        </lyric>
        <lyric default-y="-171" number="4" relative-x="-5">
          <syllabic>single</syllabic>
          <text>đứng</text>
        </lyric>
      </note>
      <note default-x="79">
        <pitch>
          <step>B</step>
          <alter>-1</alter>
          <octave>4</octave>
        </pitch>
        <duration>2</duration>
        <voice>1</voice>
        <type>eighth</type>
        <stem default-y="15">up</stem>
        <lyric default-y="-86" number="1">
          <syllabic>single</syllabic>
          <text>ở</text>
        </lyric>
        <lyric default-y="-115" number="2">
          <syllabic>single</syllabic>
          <text>lúc</text>
        </lyric>
        <lyric default-y="-143" number="3">
          <syllabic>single</syllabic>
          <text>thắm</text>
        </lyric>
        <lyric default-y="-171" number="4">
          <syllabic>single</syllabic>
          <text>trước</text>
        </lyric>
      </note>
      <note default-x="130">
        <pitch>
          <step>A</step>
          <octave>4</octave>
        </pitch>
        <duration>2</duration>
        <voice>1</voice>
        <type>eighth</type>
        <stem default-y="10">up</stem>
        <lyric default-y="-86" number="1">
          <syllabic>begin</syllabic>
          <text>Gô</text>
        </lyric>
        <lyric default-y="-115" number="2">
          <syllabic>single</syllabic>
          <text>xử</text>
        </lyric>
        <lyric default-y="-143" number="3">
          <syllabic>single</syllabic>
          <text>dấu</text>
        </lyric>
        <lyric default-y="-171" number="4">
          <syllabic>single</syllabic>
          <text>cửa</text>
        </lyric>
      </note>
      <note default-x="183">
        <pitch>
          <step>G</step>
          <octave>4</octave>
        </pitch>
        <duration>2</duration>
        <voice>1</voice>
        <type>eighth</type>
        <stem default-y="5">up</stem>
        <lyric default-y="-86" number="1">
          <syllabic>middle</syllabic>
          <text>gô</text>
        </lyric>
        <lyric default-y="-115" number="2">
          <syllabic>single</syllabic>
          <text>Chúa</text>
        </lyric>
        <lyric default-y="-143" number="3">
          <syllabic>single</syllabic>
          <text>tâm</text>
        </lyric>
        <lyric default-y="-171" number="4">
          <syllabic>single</syllabic>
          <text>tâm</text>
        </lyric>
      </note>
    </measure>
    <!--=======================================================-->
    <measure number="3" width="151">
      <note default-x="30">
        <pitch>
          <step>F</step>
          <octave>4</octave>
        </pitch>
        <duration>8</duration>
        <voice>1</voice>
        <type>half</type>
        <stem default-y="0">up</stem>
        <lyric default-y="-86" number="1">
          <syllabic>end</syllabic>
          <text>tha,</text>
        </lyric>
        <lyric default-y="-115" number="2">
          <syllabic>single</syllabic>
          <text>ta,</text>
        </lyric>
        <lyric default-y="-143" number="3">
          <syllabic>single</syllabic>
          <text>thương,</text>
        </lyric>
        <lyric default-y="-171" number="4">
          <syllabic>single</syllabic>
          <text>anh,</text>
        </lyric>
      </note>
      <note default-x="107">
        <pitch>
          <step>F</step>
          <octave>4</octave>
        </pitch>
        <duration>4</duration>
        <voice>1</voice>
        <type>quarter</type>
        <stem default-y="0">up</stem>
        <lyric default-y="-86" number="1">
          <syllabic>single</syllabic>
          <text>Yêu</text>
        </lyric>
        <lyric default-y="-115" number="2">
          <syllabic>single</syllabic>
          <text>Nhân</text>
        </lyric>
        <lyric default-y="-143" number="3">
          <syllabic>single</syllabic>
          <text>Tay</text>
        </lyric>
        <lyric default-y="-171" number="4">
          <syllabic>single</syllabic>
          <text>Do</text>
        </lyric>
      </note>
    </measure>
    <!--=======================================================-->
    <measure number="4" width="265">
      <harmony default-y="29" font-family="VNI-Helve-Condense" font-size="13.7">
        <root>
          <root-step>B</root-step>
          <root-alter>-1</root-alter>
        </root>
        <kind halign="center" text="">major</kind>
      </harmony>
      <note default-x="17">
        <pitch>
          <step>F</step>
          <octave>4</octave>
        </pitch>
        <duration>6</duration>
        <voice>1</voice>
        <type>quarter</type>
        <dot/>
        <stem default-y="0">up</stem>
        <lyric default-y="-86" number="1">
          <syllabic>single</syllabic>
          <text>tôi</text>
        </lyric>
        <lyric default-y="-115" number="2">
          <syllabic>single</syllabic>
          <text>dân</text>
        </lyric>
        <lyric default-y="-143" number="3">
          <syllabic>single</syllabic>
          <text>chân</text>
        </lyric>
        <lyric default-y="-171" number="4">
          <syllabic>single</syllabic>
          <text>anh,</text>
        </lyric>
      </note>
      <note default-x="75">
        <pitch>
          <step>F</step>
          <octave>4</octave>
        </pitch>
        <duration>2</duration>
        <voice>1</voice>
        <type>eighth</type>
        <stem default-y="0">up</stem>
        <lyric default-y="-86" number="1">
          <syllabic>single</syllabic>
          <text>Christ</text>
        </lyric>
        <lyric default-y="-115" number="2">
          <syllabic>single</syllabic>
          <text>kêu</text>
        </lyric>
        <lyric default-y="-143" number="3">
          <syllabic>single</syllabic>
          <text>vết</text>
        </lyric>
        <lyric default-y="-171" number="4">
          <syllabic>single</syllabic>
          <text>thân</text>
        </lyric>
      </note>
      <note default-x="141">
        <pitch>
          <step>E</step>
          <octave>4</octave>
        </pitch>
        <duration>2</duration>
        <voice>1</voice>
        <type>eighth</type>
        <stem default-y="-5">up</stem>
        <lyric default-y="-86" number="1">
          <syllabic>single</syllabic>
          <text>không</text>
        </lyric>
        <lyric default-y="-115" number="2">
          <syllabic>single</syllabic>
          <text>la</text>
        </lyric>
        <lyric default-y="-143" number="3">
          <syllabic>single</syllabic>
          <text>đinh</text>
        </lyric>
        <lyric default-y="-171" number="4">
          <syllabic>single</syllabic>
          <text>đau</text>
        </lyric>
      </note>
      <note default-x="214">
        <pitch>
          <step>D</step>
          <octave>4</octave>
        </pitch>
        <duration>2</duration>
        <voice>1</voice>
        <type>eighth</type>
        <stem default-y="-10">up</stem>
        <lyric default-y="-86" number="1">
          <syllabic>single</syllabic>
          <text>bồi</text>
        </lyric>
        <lyric default-y="-115" number="2">
          <syllabic>single</syllabic>
          <text>nghịch</text>
        </lyric>
        <lyric default-y="-143" number="3">
          <syllabic>single</syllabic>
          <text>đương</text>
        </lyric>
        <lyric default-y="-171" number="4">
          <syllabic>single</syllabic>
          <text>thương</text>
        </lyric>
      </note>
    </measure>
    <!--=======================================================-->
    <measure number="5" width="80">
      <harmony default-y="29" font-family="VNI-Helve-Condense" font-size="13.7">
        <root>
          <root-step>F</root-step>
        </root>
        <kind halign="center" text="">major</kind>
      </harmony>
      <note default-x="16">
        <pitch>
          <step>C</step>
          <octave>4</octave>
        </pitch>
        <duration>6</duration>
        <voice>1</voice>
        <type>quarter</type>
        <dot/>
        <stem default-y="-15">up</stem>
        <lyric default-y="-86" number="1">
          <syllabic>single</syllabic>
          <text>hồi;</text>
        </lyric>
        <lyric default-y="-115" number="2">
          <syllabic>single</syllabic>
          <text>Ngài;</text>
        </lyric>
        <lyric default-y="-143" number="3">
          <syllabic>single</syllabic>
          <text>còn;</text>
        </lyric>
        <lyric default-y="-171" number="4">
          <syllabic>single</syllabic>
          <text>đầy;</text>
        </lyric>
      </note>
      <note default-x="64">
        <pitch>
          <step>C</step>
          <octave>4</octave>
        </pitch>
        <duration>2</duration>
        <voice>1</voice>
        <type>eighth</type>
        <stem default-y="-15">up</stem>
        <lyric default-y="-86" number="1">
          <syllabic>single</syllabic>
          <text>Dầu</text>
        </lyric>
        <lyric default-y="-115" number="2">
          <syllabic>single</syllabic>
          <text>Nào</text>
        </lyric>
        <lyric default-y="-143" number="3">
          <syllabic>single</syllabic>
          <text>Nhìn</text>
        </lyric>
        <lyric default-y="-171" number="4">
          <syllabic>single</syllabic>
          <text>Vì</text>
        </lyric>
      </note>
      <note default-x="117">
        <pitch>
          <step>F</step>
          <octave>4</octave>
        </pitch>
        <duration>3</duration>
        <voice>1</voice>
        <type>eighth</type>
        <dot/>
        <stem default-y="0">up</stem>
        <lyric default-y="-86" number="1">
          <syllabic>single</syllabic>
          <text>Cha</text>
        </lyric>
        <lyric default-y="-115" number="2">
          <syllabic>single</syllabic>
          <text>ai</text>
        </lyric>
        <lyric default-y="-143" number="3">
          <syllabic>single</syllabic>
          <text>lên</text>
        </lyric>
        <lyric default-y="-171" number="4">
          <syllabic>single</syllabic>
          <text>sao</text>
        </lyric>
      </note>
      <note default-x="177">
        <pitch>
          <step>G</step>
          <octave>4</octave>
        </pitch>
        <duration>1</duration>
        <voice>1</voice>
        <type>16th</type>
        <stem default-y="5">up</stem>
        <lyric default-y="-86" number="1">
          <syllabic>single</syllabic>
          <text>cho</text>
        </lyric>
        <lyric default-y="-115" number="2">
          <syllabic>single</syllabic>
          <text>yêu</text>
        </lyric>
        <lyric default-y="-143" number="3">
          <syllabic>single</syllabic>
          <text>cây</text>
        </lyric>
        <lyric default-y="-171" number="4">
          <syllabic>single</syllabic>
          <text>anh</text>
        </lyric>
      </note>
    </measure>
    <!--=======================================================-->
    <measure number="6" width="275">
      <harmony default-y="29" font-family="VNI-Helve-Condense" font-size="13.7">
        <root>
          <root-step>F</root-step>
        </root>
        <kind halign="center" text="">major</kind>
      </harmony>
      <note default-x="24">
        <pitch>
          <step>A</step>
          <octave>4</octave>
        </pitch>
        <duration>6</duration>
        <voice>1</voice>
        <type>quarter</type>
        <dot/>
        <stem default-y="10">up</stem>
        <lyric default-y="-86" number="1">
          <syllabic>single</syllabic>
          <text>biết</text>
        </lyric>
        <lyric default-y="-115" number="2">
          <syllabic>single</syllabic>
          <text>Chúa</text>
        </lyric>
        <lyric default-y="-143" number="3">
          <syllabic>single</syllabic>
          <text>gỗ</text>
        </lyric>
        <lyric default-y="-171" number="4">
          <syllabic>single</syllabic>
          <text>chẳng</text>
        </lyric>
      </note>
      <note default-x="115">
        <pitch>
          <step>B</step>
          <alter>-1</alter>
          <octave>4</octave>
        </pitch>
        <duration>2</duration>
        <voice>1</voice>
        <type>eighth</type>
        <stem default-y="15">up</stem>
        <lyric default-y="-86" number="1">
          <syllabic>single</syllabic>
          <text>chắc</text>
        </lyric>
        <lyric default-y="-115" number="2">
          <syllabic>single</syllabic>
          <text>bước</text>
        </lyric>
        <lyric default-y="-143" number="3">
          <syllabic>single</syllabic>
          <text>Chúa</text>
        </lyric>
        <lyric default-y="-171" number="4">
          <syllabic>single</syllabic>
          <text>kíp</text>
        </lyric>
      </note>
      <note default-x="171">
        <pitch>
          <step>A</step>
          <octave>4</octave>
        </pitch>
        <duration>2</duration>
        <voice>1</voice>
        <type>eighth</type>
        <stem default-y="10">up</stem>
        <lyric default-y="-86" number="1">
          <syllabic>single</syllabic>
          <text>phải</text>
        </lyric>
        <lyric default-y="-115" number="2">
          <syllabic>single</syllabic>
          <text>đến</text>
        </lyric>
        <lyric default-y="-143" number="3">
          <syllabic>single</syllabic>
          <text>chỉ</text>
        </lyric>
        <lyric default-y="-171" number="4">
          <syllabic>single</syllabic>
          <text>mở</text>
        </lyric>
      </note>
      <note default-x="229">
        <pitch>
          <step>G</step>
          <octave>4</octave>
        </pitch>
        <duration>2</duration>
        <voice>1</voice>
        <type>eighth</type>
        <stem default-y="5">up</stem>
        <lyric default-y="-86" number="1">
          <syllabic>single</syllabic>
          <text>đóng</text>
        </lyric>
        <lyric default-y="-115" number="2">
          <syllabic>single</syllabic>
          <text>cãi</text>
        </lyric>
        <lyric default-y="-143" number="3">
          <syllabic>single</syllabic>
          <text>đây</text>
        </lyric>
        <lyric default-y="-171" number="4">
          <syllabic>single</syllabic>
          <text>cửa</text>
        </lyric>
      </note>
    </measure>
    <!--=======================================================-->
    <measure number="7" width="162">
      <note default-x="16">
        <pitch>
          <step>F</step>
          <octave>4</octave>
        </pitch>
        <duration>8</duration>
        <voice>1</voice>
        <type>half</type>
        <stem default-y="0">up</stem>
        <lyric default-y="-86" number="1">
          <syllabic>single</syllabic>
          <text>đinh,</text>
        </lyric>
        <lyric default-y="-115" number="2">
          <syllabic>single</syllabic>
          <text>thay,</text>
        </lyric>
        <lyric default-y="-143" number="3">
          <syllabic>single</syllabic>
          <text>nơi,</text>
        </lyric>
        <lyric default-y="-171" number="4">
          <syllabic>single</syllabic>
          <text>ra,</text>
        </lyric>
      </note>
      <note default-x="119">
        <pitch>
          <step>A</step>
          <octave>4</octave>
        </pitch>
        <duration>4</duration>
        <voice>1</voice>
        <type>quarter</type>
        <stem default-y="10">up</stem>
        <lyric default-y="-86" number="1">
          <syllabic>single</syllabic>
          <text>Chúa</text>
        </lyric>
        <lyric default-y="-115" number="2">
          <syllabic>single</syllabic>
          <text>Thế</text>
        </lyric>
        <lyric default-y="-143" number="3">
          <syllabic>single</syllabic>
          <text>Xót</text>
        </lyric>
        <lyric default-y="-171" number="4">
          <syllabic>single</syllabic>
          <text>Tiếp</text>
        </lyric>
      </note>
    </measure>
    <!--=======================================================-->
    <measure number="8" width="302">
      <harmony default-y="29" font-family="VNI-Helve-Condense" font-size="13.7">
        <root>
          <root-step>G</root-step>
        </root>
        <kind halign="center" text="7">dominant</kind>
      </harmony>
      <note default-x="30">
        <pitch>
          <step>G</step>
          <octave>4</octave>
        </pitch>
        <duration>6</duration>
        <voice>1</voice>
        <type>quarter</type>
        <dot/>
        <stem default-y="5">up</stem>
        <lyric default-y="-86" number="1">
          <syllabic>single</syllabic>
          <text>đi,</text>
        </lyric>
        <lyric default-y="-115" number="2">
          <syllabic>single</syllabic>
          <text>tôi</text>
        </lyric>
        <lyric default-y="-143" number="3">
          <syllabic>single</syllabic>
          <text>thương,</text>
        </lyric>
        <lyric default-y="-171" number="4">
          <syllabic>single</syllabic>
          <text>nghinh</text>
        </lyric>
      </note>
      <note default-x="124">
        <pitch>
          <step>F</step>
          <octave>4</octave>
        </pitch>
        <duration>2</duration>
        <voice>1</voice>
        <type>eighth</type>
        <stem default-y="0">up</stem>
        <lyric default-y="-86" number="1">
          <syllabic>single</syllabic>
          <text>đi</text>
        </lyric>
        <lyric default-y="-115" number="2">
          <syllabic>single</syllabic>
          <text>thân</text>
        </lyric>
        <lyric default-y="-143" number="3">
          <syllabic>single</syllabic>
          <text>nhân</text>
        </lyric>
        <lyric default-y="-171" number="4">
          <syllabic>begin</syllabic>
          <text>Jê</text>
        </lyric>
      </note>
      <note default-x="191">
        <pitch>
          <step>E</step>
          <octave>4</octave>
        </pitch>
        <duration>2</duration>
        <voice>1</voice>
        <type>eighth</type>
        <stem default-y="-5">up</stem>
        <lyric default-y="-86" number="1">
          <syllabic>single</syllabic>
          <text>không</text>
        </lyric>
        <lyric default-y="-115" number="2">
          <syllabic>single</syllabic>
          <text>Ngài</text>
        </lyric>
        <lyric default-y="-143" number="3">
          <syllabic>single</syllabic>
          <text>từ</text>
        </lyric>
        <lyric default-y="-171" number="4">
          <syllabic>end</syllabic>
          <text>sus</text>
        </lyric>
      </note>
      <note default-x="256">
        <pitch>
          <step>D</step>
          <octave>4</octave>
        </pitch>
        <duration>2</duration>
        <voice>1</voice>
        <type>eighth</type>
        <stem default-y="-10">up</stem>
        <lyric default-y="-86" number="1">
          <syllabic>single</syllabic>
          <text>hề</text>
        </lyric>
        <lyric default-y="-115" number="2">
          <syllabic>single</syllabic>
          <text>sầu</text>
        </lyric>
        <lyric default-y="-143" number="3">
          <syllabic>single</syllabic>
          <text>cùng</text>
        </lyric>
        <lyric default-y="-171" number="4">
          <syllabic>single</syllabic>
          <text>vào</text>
        </lyric>
      </note>
    </measure>
    <!--=======================================================-->
    <measure number="9" width="70">
      <harmony default-y="29" font-family="VNI-Helve-Condense" font-size="13.7">
        <root>
          <root-step>C</root-step>
        </root>
        <kind halign="center" text="7">dominant</kind>
      </harmony>
      <note default-x="17">
        <pitch>
          <step>G</step>
          <octave>4</octave>
        </pitch>
        <duration>6</duration>
        <voice>1</voice>
        <type>quarter</type>
        <dot/>
        <stem default-y="5">up</stem>
        <lyric default-y="-86" number="1">
          <syllabic>single</syllabic>
          <text>lui;</text>
        </lyric>
        <lyric default-y="-115" number="2">
          <syllabic>single</syllabic>
          <text>cay;</text>
        </lyric>
        <lyric default-y="-143" number="3">
          <syllabic>single</syllabic>
          <text>hôn;</text>
        </lyric>
        <lyric default-y="-171" number="4">
          <syllabic>single</syllabic>
          <text>ngay;</text>
        </lyric>
      </note>
      <note default-x="64">
        <pitch>
          <step>C</step>
          <octave>4</octave>
        </pitch>
        <duration>2</duration>
        <voice>1</voice>
        <type>eighth</type>
        <stem default-y="-15">up</stem>
        <lyric default-y="-86" number="1">
          <syllabic>single</syllabic>
          <text>Dầu</text>
        </lyric>
        <lyric default-y="-115" number="2">
          <syllabic>single</syllabic>
          <text>Nào</text>
        </lyric>
        <lyric default-y="-143" number="3">
          <syllabic>single</syllabic>
          <text>Nhìn</text>
        </lyric>
        <lyric default-y="-171" number="4">
          <syllabic>single</syllabic>
          <text>Vì</text>
        </lyric>
      </note>
      <note default-x="117">
        <pitch>
          <step>F</step>
          <octave>4</octave>
        </pitch>
        <duration>3</duration>
        <voice>1</voice>
        <type>eighth</type>
        <dot/>
        <stem default-y="0">up</stem>
        <lyric default-y="-86" number="1">
          <syllabic>single</syllabic>
          <text>Cha</text>
        </lyric>
        <lyric default-y="-115" number="2">
          <syllabic>single</syllabic>
          <text>ai</text>
        </lyric>
        <lyric default-y="-143" number="3">
          <syllabic>single</syllabic>
          <text>lên</text>
        </lyric>
        <lyric default-y="-171" number="4">
          <syllabic>single</syllabic>
          <text>sao</text>
        </lyric>
      </note>
      <note default-x="180">
        <pitch>
          <step>G</step>
          <octave>4</octave>
        </pitch>
        <duration>1</duration>
        <voice>1</voice>
        <type>16th</type>
        <stem default-y="5">up</stem>
        <lyric default-y="-86" number="1">
          <syllabic>single</syllabic>
          <text>cho</text>
        </lyric>
        <lyric default-y="-115" number="2">
          <syllabic>single</syllabic>
          <text>yêu</text>
        </lyric>
        <lyric default-y="-143" number="3">
          <syllabic>single</syllabic>
          <text>cây</text>
        </lyric>
        <lyric default-y="-171" number="4">
          <syllabic>single</syllabic>
          <text>anh</text>
        </lyric>
      </note>
    </measure>
    <!--=======================================================-->
    <measure number="10" width="286">
      <harmony default-y="29" font-family="VNI-Helve-Condense" font-size="13.7">
        <root>
          <root-step>F</root-step>
        </root>
        <kind halign="center" text="7">dominant</kind>
      </harmony>
      <note default-x="24">
        <pitch>
          <step>A</step>
          <octave>4</octave>
        </pitch>
        <duration>6</duration>
        <voice>1</voice>
        <type>quarter</type>
        <dot/>
        <stem default-y="10">up</stem>
        <lyric default-y="-86" number="1">
          <syllabic>single</syllabic>
          <text>biết</text>
        </lyric>
        <lyric default-y="-115" number="2">
          <syllabic>single</syllabic>
          <text>Chúa</text>
        </lyric>
        <lyric default-y="-143" number="3">
          <syllabic>single</syllabic>
          <text>gỗ</text>
        </lyric>
        <lyric default-y="-171" number="4">
          <syllabic>single</syllabic>
          <text>chẳng</text>
        </lyric>
      </note>
      <note default-x="122">
        <pitch>
          <step>A</step>
          <octave>4</octave>
        </pitch>
        <duration>2</duration>
        <voice>1</voice>
        <type>eighth</type>
        <stem default-y="10">up</stem>
        <lyric default-y="-86" number="1">
          <syllabic>single</syllabic>
          <text>chắc</text>
        </lyric>
        <lyric default-y="-115" number="2">
          <syllabic>single</syllabic>
          <text>bước</text>
        </lyric>
        <lyric default-y="-143" number="3">
          <syllabic>single</syllabic>
          <text>Christ</text>
        </lyric>
        <lyric default-y="-171" number="4">
          <syllabic>single</syllabic>
          <text>kíp</text>
        </lyric>
      </note>
      <note default-x="182">
        <pitch>
          <step>B</step>
          <alter>-1</alter>
          <octave>4</octave>
        </pitch>
        <duration>2</duration>
        <voice>1</voice>
        <type>eighth</type>
        <stem default-y="15">up</stem>
        <lyric default-y="-86" number="1">
          <syllabic>single</syllabic>
          <text>phải</text>
        </lyric>
        <lyric default-y="-115" number="2">
          <syllabic>single</syllabic>
          <text>đến</text>
        </lyric>
        <lyric default-y="-143" number="3">
          <syllabic>single</syllabic>
          <text>chỉ</text>
        </lyric>
        <lyric default-y="-171" number="4">
          <syllabic>single</syllabic>
          <text>mở</text>
        </lyric>
      </note>
      <note default-x="240">
        <pitch>
          <step>C</step>
          <octave>5</octave>
        </pitch>
        <duration>2</duration>
        <voice>1</voice>
        <type>eighth</type>
        <stem default-y="20">up</stem>
        <lyric default-y="-86" number="1">
          <syllabic>single</syllabic>
          <text>đóng</text>
        </lyric>
        <lyric default-y="-115" number="2">
          <syllabic>single</syllabic>
          <text>cãi</text>
        </lyric>
        <lyric default-y="-143" number="3">
          <syllabic>single</syllabic>
          <text>ấy</text>
        </lyric>
        <lyric default-y="-171" number="4">
          <syllabic>single</syllabic>
          <text>cửa</text>
        </lyric>
      </note>
    </measure>
    <!--=======================================================-->
    <measure number="11" width="171">
      <harmony default-y="29" font-family="VNI-Helve-Condense" font-size="13.7">
        <root>
          <root-step>B</root-step>
          <root-alter>-1</root-alter>
        </root>
        <kind halign="center" text="">major</kind>
      </harmony>
      <note default-x="17">
        <pitch>
          <step>B</step>
          <alter>-1</alter>
          <octave>4</octave>
        </pitch>
        <duration>8</duration>
        <voice>1</voice>
        <type>half</type>
        <stem default-y="15">up</stem>
        <lyric default-y="-86" number="1">
          <syllabic>single</syllabic>
          <text>đinh,</text>
        </lyric>
        <lyric default-y="-115" number="2">
          <syllabic>single</syllabic>
          <text>thay,</text>
        </lyric>
        <lyric default-y="-143" number="3">
          <syllabic>single</syllabic>
          <text>nơi</text>
        </lyric>
        <lyric default-y="-171" number="4">
          <syllabic>single</syllabic>
          <text>ra,</text>
        </lyric>
      </note>
      <note default-x="122">
        <pitch>
          <step>D</step>
          <octave>4</octave>
        </pitch>
        <duration>4</duration>
        <voice>1</voice>
        <type>quarter</type>
        <stem default-y="-10">up</stem>
        <lyric default-y="-86" number="1">
          <syllabic>single</syllabic>
          <text>Ngài</text>
        </lyric>
        <lyric default-y="-115" number="2">
          <syllabic>single</syllabic>
          <text>Lạ</text>
        </lyric>
        <lyric default-y="-143" number="3">
          <syllabic>single</syllabic>
          <text>Nhân</text>
        </lyric>
        <lyric default-y="-171" number="4">
          <syllabic>single</syllabic>
          <text>Thành</text>
        </lyric>
      </note>
    </measure>
    <!--=======================================================-->
    <measure number="12" width="281">
      <harmony default-y="29" font-family="VNI-Helve-Condense" font-size="13.7">
        <root>
          <root-step>F</root-step>
        </root>
        <kind halign="center" text="">major</kind>
        <bass>
          <bass-step>C</bass-step>
        </bass>
      </harmony>
      <note default-x="17">
        <pitch>
          <step>C</step>
          <octave>4</octave>
        </pitch>
        <duration>6</duration>
        <voice>1</voice>
        <type>quarter</type>
        <dot/>
        <stem default-y="-15">up</stem>
        <lyric default-y="-86" number="1">
          <syllabic>single</syllabic>
          <text>càng</text>
        </lyric>
        <lyric default-y="-115" number="2">
          <syllabic>single</syllabic>
          <text>kìa,</text>
        </lyric>
        <lyric default-y="-143" number="3">
          <syllabic>single</syllabic>
          <text>từ,</text>
        </lyric>
        <lyric default-y="-171" number="4">
          <syllabic>single</syllabic>
          <text>thật</text>
        </lyric>
      </note>
      <note default-x="98">
        <pitch>
          <step>A</step>
          <octave>4</octave>
        </pitch>
        <duration>2</duration>
        <voice>1</voice>
        <type>eighth</type>
        <stem default-y="10">up</stem>
        <lyric default-y="-86" number="1">
          <syllabic>single</syllabic>
          <text>bước,</text>
        </lyric>
        <lyric default-y="-115" number="2">
          <syllabic>single</syllabic>
          <text>Chúa</text>
        </lyric>
        <lyric default-y="-143" number="3">
          <syllabic>single</syllabic>
          <text>ái</text>
        </lyric>
        <lyric default-y="-171" number="4">
          <syllabic>single</syllabic>
          <text>rước</text>
        </lyric>
      </note>
      <harmony default-y="29" font-family="VNI-Helve-Condense" font-size="13.7">
        <root>
          <root-step>C</root-step>
        </root>
        <kind halign="center" text="7">dominant</kind>
      </harmony>
      <note default-x="163">
        <pitch>
          <step>A</step>
          <octave>4</octave>
        </pitch>
        <duration>3</duration>
        <voice>1</voice>
        <type>eighth</type>
        <dot/>
        <stem default-y="10">up</stem>
        <lyric default-y="-86" number="1">
          <syllabic>single</syllabic>
          <text>bước</text>
        </lyric>
        <lyric default-y="-115" number="2">
          <syllabic>single</syllabic>
          <text>thế</text>
        </lyric>
        <lyric default-y="-143" number="3">
          <syllabic>single</syllabic>
          <text>tuất</text>
        </lyric>
        <lyric default-y="-171" number="4">
          <syllabic>single</syllabic>
          <text>Chúa</text>
        </lyric>
      </note>
      <note default-x="234">
        <pitch>
          <step>G</step>
          <octave>4</octave>
        </pitch>
        <duration>1</duration>
        <voice>1</voice>
        <type>16th</type>
        <stem default-y="5">up</stem>
        <lyric default-y="-86" number="1">
          <syllabic>single</syllabic>
          <text>không</text>
        </lyric>
        <lyric default-y="-115" number="2">
          <syllabic>single</syllabic>
          <text>thân</text>
        </lyric>
        <lyric default-y="-143" number="3">
          <syllabic>single</syllabic>
          <text>vuông</text>
        </lyric>
        <lyric default-y="-171" number="4">
          <syllabic>single</syllabic>
          <text>hôm</text>
        </lyric>
      </note>
    </measure>
    <!--=======================================================-->
    <measure number="13" width="68">
      <harmony default-y="29" font-family="VNI-Helve-Condense" font-size="13.7">
        <root>
          <root-step>F</root-step>
        </root>
        <kind halign="center" text="">major</kind>
      </harmony>
      <note default-x="14">
        <pitch>
          <step>F</step>
          <octave>4</octave>
        </pitch>
        <duration>6</duration>
        <voice>1</voice>
        <type>quarter</type>
        <dot/>
        <stem default-y="0">up</stem>
        <lyric default-y="-86" number="1">
          <syllabic>single</syllabic>
          <text>lùi.</text>
        </lyric>
        <lyric default-y="-115" number="2">
          <syllabic>single</syllabic>
          <text>nầy.</text>
        </lyric>
        <lyric default-y="-143" number="3">
          <syllabic>single</syllabic>
          <text>tròn.</text>
        </lyric>
        <lyric default-y="-171" number="4">
          <syllabic>single</syllabic>
          <text>nay.</text>
        </lyric>
      </note>
      <barline location="right">
        <bar-style>light-heavy</bar-style>
      </barline>
    </measure>
  </part>
  <!--=========================================================-->
  <part id="P2">
    <?SmartMusic maxVoice=2?>
    <measure number="1" width="301">
      <print>
        <staff-layout number="1">
          <staff-distance>193</staff-distance>
        </staff-layout>
        <measure-numbering>none</measure-numbering>
      </print>
      <attributes>
        <divisions>4</divisions>
        <key>
          <fifths>-1</fifths>
          <mode>major</mode>
        </key>
        <time>
          <beats>3</beats>
          <beat-type>4</beat-type>
        </time>
        <clef>
          <sign>F</sign>
          <line>4</line>
        </clef>
      </attributes>
      <sound tempo="104"/>
      <note default-x="114">
        <pitch>
          <step>A</step>
          <octave>3</octave>
        </pitch>
        <duration>2</duration>
        <voice>1</voice>
        <type>eighth</type>
        <stem default-y="35">up</stem>
      </note>
      <note default-x="185">
        <pitch>
          <step>A</step>
          <octave>3</octave>
        </pitch>
        <duration>3</duration>
        <voice>1</voice>
        <type>eighth</type>
        <dot/>
        <stem default-y="35">up</stem>
      </note>
      <note default-x="253">
        <pitch>
          <step>B</step>
          <alter>-1</alter>
          <octave>3</octave>
        </pitch>
        <duration>1</duration>
        <voice>1</voice>
        <type>16th</type>
        <stem default-y="40">up</stem>
      </note>
      <backup>
        <duration>6</duration>
      </backup>
      <note default-x="114">
        <rest>
          <display-step>E</display-step>
          <display-octave>2</display-octave>
        </rest>
        <duration>2</duration>
        <voice>2</voice>
        <type size="cue">eighth</type>
      </note>
      <note default-x="185">
        <rest>
          <display-step>E</display-step>
          <display-octave>2</display-octave>
        </rest>
        <duration>2</duration>
        <voice>2</voice>
        <type size="cue">eighth</type>
      </note>
      <note default-x="230">
        <rest>
          <display-step>E</display-step>
          <display-octave>2</display-octave>
        </rest>
        <duration>2</duration>
        <voice>2</voice>
        <type>eighth</type>
      </note>
    </measure>
    <!--=======================================================-->
    <measure number="2" width="224">
      <note default-x="24">
        <pitch>
          <step>C</step>
          <octave>4</octave>
        </pitch>
        <duration>6</duration>
        <voice>1</voice>
        <type>quarter</type>
        <dot/>
        <stem default-y="38">up</stem>
      </note>
      <note default-x="79">
        <pitch>
          <step>D</step>
          <octave>4</octave>
        </pitch>
        <duration>2</duration>
        <voice>1</voice>
        <type>eighth</type>
        <stem default-y="50">up</stem>
      </note>
      <note default-x="130">
        <pitch>
          <step>C</step>
          <octave>4</octave>
        </pitch>
        <duration>2</duration>
        <voice>1</voice>
        <type>eighth</type>
        <stem default-y="45">up</stem>
      </note>
      <note default-x="183">
        <pitch>
          <step>B</step>
          <alter>-1</alter>
          <octave>3</octave>
        </pitch>
        <duration>2</duration>
        <voice>1</voice>
        <type>eighth</type>
        <stem default-y="40">up</stem>
      </note>
      <backup>
        <duration>12</duration>
      </backup>
      <note default-x="24">
        <pitch>
          <step>F</step>
          <octave>2</octave>
        </pitch>
        <duration>2</duration>
        <voice>2</voice>
        <type size="cue">eighth</type>
        <stem default-y="-71">down</stem>
        <beam number="1">begin</beam>
      </note>
      <note default-x="37">
        <pitch>
          <step>A</step>
          <octave>2</octave>
        </pitch>
        <duration>1</duration>
        <voice>2</voice>
        <type size="cue">16th</type>
        <stem default-y="-70">down</stem>
        <beam number="1">continue</beam>
        <beam number="2">begin</beam>
      </note>
      <note default-x="50">
        <pitch>
          <step>C</step>
          <octave>3</octave>
        </pitch>
        <duration>1</duration>
        <voice>2</voice>
        <type size="cue">16th</type>
        <stem default-y="-68.5">down</stem>
        <beam number="1">continue</beam>
        <beam number="2">end</beam>
      </note>
      <note default-x="63">
        <pitch>
          <step>F</step>
          <octave>3</octave>
        </pitch>
        <duration>2</duration>
        <voice>2</voice>
        <type size="cue">eighth</type>
        <stem default-y="-67.5">down</stem>
        <beam number="1">end</beam>
      </note>
      <note default-x="79">
        <rest>
          <display-step>E</display-step>
          <display-octave>2</display-octave>
        </rest>
        <duration>2</duration>
        <voice>2</voice>
        <type size="cue">eighth</type>
      </note>
      <note default-x="131">
        <rest>
          <display-step>E</display-step>
          <display-octave>2</display-octave>
        </rest>
        <duration>4</duration>
        <voice>2</voice>
        <type size="cue">quarter</type>
      </note>
    </measure>
    <!--=======================================================-->
    <measure number="3" width="151">
      <note default-x="30">
        <pitch>
          <step>A</step>
          <octave>3</octave>
        </pitch>
        <duration>8</duration>
        <voice>1</voice>
        <type>half</type>
        <stem default-y="28.5">up</stem>
      </note>
      <note default-x="107">
        <pitch>
          <step>E</step>
          <alter>-1</alter>
          <octave>4</octave>
        </pitch>
        <duration>4</duration>
        <voice>1</voice>
        <type>quarter</type>
        <accidental>flat</accidental>
        <stem default-y="48.5">up</stem>
      </note>
      <backup>
        <duration>12</duration>
      </backup>
      <note default-x="30">
        <pitch>
          <step>F</step>
          <octave>2</octave>
        </pitch>
        <duration>2</duration>
        <voice>2</voice>
        <type size="cue">eighth</type>
        <stem default-y="-71">down</stem>
        <beam number="1">begin</beam>
      </note>
      <note default-x="43">
        <pitch>
          <step>A</step>
          <octave>2</octave>
        </pitch>
        <duration>1</duration>
        <voice>2</voice>
        <type size="cue">16th</type>
        <stem default-y="-70">down</stem>
        <beam number="1">continue</beam>
        <beam number="2">begin</beam>
      </note>
      <note default-x="57">
        <pitch>
          <step>C</step>
          <octave>3</octave>
        </pitch>
        <duration>1</duration>
        <voice>2</voice>
        <type size="cue">16th</type>
        <stem default-y="-68.5">down</stem>
        <beam number="1">continue</beam>
        <beam number="2">end</beam>
      </note>
      <note default-x="70">
        <pitch>
          <step>F</step>
          <octave>3</octave>
        </pitch>
        <duration>2</duration>
        <voice>2</voice>
        <type size="cue">eighth</type>
        <stem default-y="-67.5">down</stem>
        <beam number="1">end</beam>
      </note>
      <note default-x="88">
        <rest>
          <display-step>E</display-step>
          <display-octave>2</display-octave>
        </rest>
        <duration>2</duration>
        <voice>2</voice>
        <type size="cue">eighth</type>
      </note>
      <note default-x="108">
        <rest>
          <display-step>E</display-step>
          <display-octave>2</display-octave>
        </rest>
        <duration>4</duration>
        <voice>2</voice>
        <type size="cue">quarter</type>
      </note>
    </measure>
    <!--=======================================================-->
    <measure number="4" width="265">
      <note default-x="17">
        <pitch>
          <step>D</step>
          <octave>4</octave>
        </pitch>
        <duration>6</duration>
        <voice>1</voice>
        <type>quarter</type>
        <dot/>
        <stem default-y="44">up</stem>
      </note>
      <note default-x="75">
        <pitch>
          <step>D</step>
          <octave>4</octave>
        </pitch>
        <duration>2</duration>
        <voice>1</voice>
        <type>eighth</type>
        <stem default-y="50">up</stem>
      </note>
      <note default-x="141">
        <pitch>
          <step>C</step>
          <octave>4</octave>
        </pitch>
        <duration>2</duration>
        <voice>1</voice>
        <type>eighth</type>
        <stem default-y="45">up</stem>
      </note>
      <note default-x="214">
        <pitch>
          <step>B</step>
          <alter>-1</alter>
          <octave>3</octave>
        </pitch>
        <duration>2</duration>
        <voice>1</voice>
        <type>eighth</type>
        <stem default-y="40">up</stem>
      </note>
      <backup>
        <duration>12</duration>
      </backup>
      <note default-x="17">
        <pitch>
          <step>B</step>
          <alter>-1</alter>
          <octave>2</octave>
        </pitch>
        <duration>2</duration>
        <voice>2</voice>
        <type size="cue">eighth</type>
        <stem default-y="-56">down</stem>
        <beam number="1">begin</beam>
      </note>
      <note default-x="29">
        <pitch>
          <step>D</step>
          <octave>3</octave>
        </pitch>
        <duration>1</duration>
        <voice>2</voice>
        <type size="cue">16th</type>
        <stem default-y="-55">down</stem>
        <beam number="1">continue</beam>
        <beam number="2">begin</beam>
      </note>
      <note default-x="42">
        <pitch>
          <step>F</step>
          <octave>3</octave>
        </pitch>
        <duration>1</duration>
        <voice>2</voice>
        <type size="cue">16th</type>
        <stem default-y="-54">down</stem>
        <beam number="1">continue</beam>
        <beam number="2">end</beam>
      </note>
      <note default-x="56">
        <pitch>
          <step>B</step>
          <alter>-1</alter>
          <octave>3</octave>
        </pitch>
        <duration>2</duration>
        <voice>2</voice>
        <type size="cue">eighth</type>
        <stem default-y="-52.5">down</stem>
        <beam number="1">end</beam>
      </note>
      <note default-x="75">
        <rest>
          <display-step>E</display-step>
          <display-octave>2</display-octave>
        </rest>
        <duration>2</duration>
        <voice>2</voice>
        <type size="cue">eighth</type>
      </note>
      <note default-x="141">
        <pitch>
          <step>B</step>
          <alter>-1</alter>
          <octave>2</octave>
        </pitch>
        <duration>4</duration>
        <voice>2</voice>
        <type size="cue">quarter</type>
        <stem default-y="-51">down</stem>
      </note>
      <note default-x="141">
        <chord/>
        <pitch>
          <step>F</step>
          <octave>3</octave>
        </pitch>
        <duration>4</duration>
        <voice>2</voice>
        <type size="cue">quarter</type>
        <stem>down</stem>
      </note>
    </measure>
    <!--=======================================================-->
    <measure number="5" width="80">
      <note default-x="16">
        <pitch>
          <step>A</step>
          <octave>3</octave>
        </pitch>
        <duration>6</duration>
        <voice>1</voice>
        <type>quarter</type>
        <dot/>
        <stem default-y="28.5">up</stem>
      </note>
      <backup>
        <duration>6</duration>
      </backup>
      <note default-x="16">
        <pitch>
          <step>F</step>
          <octave>2</octave>
        </pitch>
        <duration>2</duration>
        <voice>2</voice>
        <type size="cue">eighth</type>
        <stem default-y="-71">down</stem>
        <beam number="1">begin</beam>
      </note>
      <note default-x="35">
        <pitch>
          <step>A</step>
          <octave>2</octave>
        </pitch>
        <duration>1</duration>
        <voice>2</voice>
        <type size="cue">16th</type>
        <stem default-y="-69.5">down</stem>
        <beam number="1">continue</beam>
        <beam number="2">begin</beam>
      </note>
      <note default-x="48">
        <pitch>
          <step>C</step>
          <octave>3</octave>
        </pitch>
        <duration>1</duration>
        <voice>2</voice>
        <type size="cue">16th</type>
        <stem default-y="-68.5">down</stem>
        <beam number="1">continue</beam>
        <beam number="2">end</beam>
      </note>
      <note default-x="61">
        <pitch>
          <step>F</step>
          <octave>3</octave>
        </pitch>
        <duration>2</duration>
        <voice>2</voice>
        <type size="cue">eighth</type>
        <stem default-y="-67.5">down</stem>
        <beam number="1">end</beam>
      </note>
      <note default-x="64">
        <pitch>
          <step>A</step>
          <octave>3</octave>
        </pitch>
        <duration>2</duration>
        <voice>1</voice>
        <type>eighth</type>
        <stem default-y="35">up</stem>
      </note>
      <note default-x="117">
        <pitch>
          <step>A</step>
          <octave>3</octave>
        </pitch>
        <duration>3</duration>
        <voice>1</voice>
        <type>eighth</type>
        <dot/>
        <stem default-y="35">up</stem>
      </note>
      <note default-x="177">
        <pitch>
          <step>B</step>
          <alter>-1</alter>
          <octave>3</octave>
        </pitch>
        <duration>1</duration>
        <voice>1</voice>
        <type>16th</type>
        <stem default-y="40">up</stem>
      </note>
      <backup>
        <duration>6</duration>
      </backup>
      <note default-x="64">
        <rest>
          <display-step>E</display-step>
          <display-octave>2</display-octave>
        </rest>
        <duration>2</duration>
        <voice>2</voice>
        <type size="cue">eighth</type>
      </note>
      <note default-x="117">
        <rest>
          <display-step>E</display-step>
          <display-octave>2</display-octave>
        </rest>
        <duration>4</duration>
        <voice>2</voice>
        <type size="cue">quarter</type>
      </note>
    </measure>
    <!--=======================================================-->
    <measure number="6" width="275">
      <note default-x="24">
        <pitch>
          <step>C</step>
          <octave>4</octave>
        </pitch>
        <duration>6</duration>
        <voice>1</voice>
        <type>quarter</type>
        <dot/>
        <stem default-y="38">up</stem>
      </note>
      <note default-x="115">
        <pitch>
          <step>D</step>
          <octave>4</octave>
        </pitch>
        <duration>2</duration>
        <voice>1</voice>
        <type>eighth</type>
        <stem default-y="50">up</stem>
      </note>
      <note default-x="171">
        <pitch>
          <step>C</step>
          <octave>4</octave>
        </pitch>
        <duration>2</duration>
        <voice>1</voice>
        <type>eighth</type>
        <stem default-y="45">up</stem>
      </note>
      <note default-x="229">
        <pitch>
          <step>B</step>
          <alter>-1</alter>
          <octave>3</octave>
        </pitch>
        <duration>2</duration>
        <voice>1</voice>
        <type>eighth</type>
        <stem default-y="40">up</stem>
      </note>
      <backup>
        <duration>12</duration>
      </backup>
      <note default-x="24">
        <pitch>
          <step>F</step>
          <octave>2</octave>
        </pitch>
        <duration>2</duration>
        <voice>2</voice>
        <type size="cue">eighth</type>
        <stem default-y="-71">down</stem>
        <beam number="1">begin</beam>
      </note>
      <note default-x="51">
        <pitch>
          <step>A</step>
          <octave>2</octave>
        </pitch>
        <duration>1</duration>
        <voice>2</voice>
        <type size="cue">16th</type>
        <stem default-y="-69.5">down</stem>
        <beam number="1">continue</beam>
        <beam number="2">begin</beam>
      </note>
      <note default-x="68">
        <pitch>
          <step>C</step>
          <octave>3</octave>
        </pitch>
        <duration>1</duration>
        <voice>2</voice>
        <type size="cue">16th</type>
        <stem default-y="-68.5">down</stem>
        <beam number="1">continue</beam>
        <beam number="2">end</beam>
      </note>
      <note default-x="88">
        <pitch>
          <step>F</step>
          <octave>3</octave>
        </pitch>
        <duration>2</duration>
        <voice>2</voice>
        <type size="cue">eighth</type>
        <stem default-y="-68">down</stem>
        <beam number="1">end</beam>
      </note>
      <note default-x="115">
        <rest>
          <display-step>E</display-step>
          <display-octave>2</display-octave>
        </rest>
        <duration>2</duration>
        <voice>2</voice>
        <type size="cue">eighth</type>
      </note>
      <note default-x="172">
        <rest>
          <display-step>E</display-step>
          <display-octave>2</display-octave>
        </rest>
        <duration>4</duration>
        <voice>2</voice>
        <type size="cue">quarter</type>
      </note>
    </measure>
    <!--=======================================================-->
    <measure number="7" width="162">
      <note default-x="16">
        <pitch>
          <step>A</step>
          <octave>3</octave>
        </pitch>
        <duration>8</duration>
        <voice>1</voice>
        <type>half</type>
        <stem default-y="28.5">up</stem>
      </note>
      <note default-x="119">
        <pitch>
          <step>C</step>
          <octave>4</octave>
        </pitch>
        <duration>4</duration>
        <voice>1</voice>
        <type>quarter</type>
        <stem default-y="38">up</stem>
      </note>
      <backup>
        <duration>12</duration>
      </backup>
      <note default-x="16">
        <pitch>
          <step>F</step>
          <octave>2</octave>
        </pitch>
        <duration>2</duration>
        <voice>2</voice>
        <type size="cue">eighth</type>
        <stem default-y="-71">down</stem>
        <beam number="1">begin</beam>
      </note>
      <note default-x="41">
        <pitch>
          <step>A</step>
          <octave>2</octave>
        </pitch>
        <duration>1</duration>
        <voice>2</voice>
        <type size="cue">16th</type>
        <stem default-y="-69.5">down</stem>
        <beam number="1">continue</beam>
        <beam number="2">begin</beam>
      </note>
      <note default-x="56">
        <pitch>
          <step>C</step>
          <octave>3</octave>
        </pitch>
        <duration>1</duration>
        <voice>2</voice>
        <type size="cue">16th</type>
        <stem default-y="-68.5">down</stem>
        <beam number="1">continue</beam>
        <beam number="2">end</beam>
      </note>
      <note default-x="70">
        <pitch>
          <step>F</step>
          <octave>3</octave>
        </pitch>
        <duration>2</duration>
        <voice>2</voice>
        <type size="cue">eighth</type>
        <stem default-y="-68">down</stem>
        <beam number="1">end</beam>
      </note>
      <note default-x="95">
        <rest>
          <display-step>E</display-step>
          <display-octave>2</display-octave>
        </rest>
        <duration>2</duration>
        <voice>2</voice>
        <type size="cue">eighth</type>
      </note>
      <note default-x="120">
        <rest>
          <display-step>E</display-step>
          <display-octave>2</display-octave>
        </rest>
        <duration>4</duration>
        <voice>2</voice>
        <type size="cue">quarter</type>
      </note>
    </measure>
    <!--=======================================================-->
    <measure number="8" width="302">
      <note default-x="30">
        <pitch>
          <step>B</step>
          <octave>3</octave>
        </pitch>
        <duration>6</duration>
        <voice>1</voice>
        <type>quarter</type>
        <dot/>
        <accidental>natural</accidental>
        <stem default-y="33">up</stem>
      </note>
      <note default-x="124">
        <pitch>
          <step>A</step>
          <octave>3</octave>
        </pitch>
        <duration>2</duration>
        <voice>1</voice>
        <type>eighth</type>
        <stem default-y="35">up</stem>
      </note>
      <note default-x="191">
        <pitch>
          <step>G</step>
          <octave>3</octave>
        </pitch>
        <duration>2</duration>
        <voice>1</voice>
        <type>eighth</type>
        <stem default-y="30">up</stem>
      </note>
      <note default-x="256">
        <pitch>
          <step>F</step>
          <octave>3</octave>
        </pitch>
        <duration>2</duration>
        <voice>1</voice>
        <type>eighth</type>
        <stem default-y="25">up</stem>
      </note>
      <backup>
        <duration>12</duration>
      </backup>
      <note default-x="30">
        <pitch>
          <step>G</step>
          <octave>2</octave>
        </pitch>
        <duration>2</duration>
        <voice>2</voice>
        <type size="cue">eighth</type>
        <stem default-y="-66">down</stem>
        <beam number="1">begin</beam>
      </note>
      <note default-x="58">
        <pitch>
          <step>B</step>
          <octave>2</octave>
        </pitch>
        <duration>1</duration>
        <voice>2</voice>
        <type size="cue">16th</type>
        <accidental>natural</accidental>
        <stem default-y="-65">down</stem>
        <beam number="1">continue</beam>
        <beam number="2">begin</beam>
      </note>
      <note default-x="76">
        <pitch>
          <step>D</step>
          <octave>3</octave>
        </pitch>
        <duration>1</duration>
        <voice>2</voice>
        <type size="cue">16th</type>
        <stem default-y="-63">down</stem>
        <beam number="1">continue</beam>
        <beam number="2">end</beam>
      </note>
      <note default-x="94">
        <pitch>
          <step>G</step>
          <octave>3</octave>
        </pitch>
        <duration>2</duration>
        <voice>2</voice>
        <type size="cue">eighth</type>
        <stem default-y="-62">down</stem>
        <beam number="1">end</beam>
      </note>
      <note default-x="124">
        <rest>
          <display-step>E</display-step>
          <display-octave>2</display-octave>
        </rest>
        <duration>2</duration>
        <voice>2</voice>
        <type size="cue">eighth</type>
      </note>
      <note default-x="191">
        <pitch>
          <step>G</step>
          <octave>2</octave>
        </pitch>
        <duration>4</duration>
        <voice>2</voice>
        <type size="cue">quarter</type>
        <stem default-y="-61">down</stem>
      </note>
    </measure>
    <!--=======================================================-->
    <measure number="9" width="70">
      <note default-x="17">
        <pitch>
          <step>B</step>
          <alter>-1</alter>
          <octave>3</octave>
        </pitch>
        <duration>6</duration>
        <voice>1</voice>
        <type>quarter</type>
        <dot/>
        <stem default-y="33">up</stem>
      </note>
      <backup>
        <duration>6</duration>
      </backup>
      <note default-x="17">
        <pitch>
          <step>C</step>
          <octave>2</octave>
        </pitch>
        <duration>6</duration>
        <voice>2</voice>
        <type size="cue">quarter</type>
        <dot/>
        <stem default-y="-81">down</stem>
      </note>
      <note default-x="17">
        <chord/>
        <pitch>
          <step>E</step>
          <octave>3</octave>
        </pitch>
        <duration>6</duration>
        <voice>2</voice>
        <type size="cue">quarter</type>
        <dot/>
        <stem>down</stem>
      </note>
      <note default-x="64">
        <pitch>
          <step>B</step>
          <alter>-1</alter>
          <octave>3</octave>
        </pitch>
        <duration>2</duration>
        <voice>1</voice>
        <type>eighth</type>
        <stem default-y="40">up</stem>
      </note>
      <note default-x="117">
        <pitch>
          <step>A</step>
          <octave>3</octave>
        </pitch>
        <duration>3</duration>
        <voice>1</voice>
        <type>eighth</type>
        <dot/>
        <stem default-y="35">up</stem>
      </note>
      <note default-x="180">
        <pitch>
          <step>B</step>
          <alter>-1</alter>
          <octave>3</octave>
        </pitch>
        <duration>1</duration>
        <voice>1</voice>
        <type>16th</type>
        <stem default-y="40">up</stem>
      </note>
      <backup>
        <duration>6</duration>
      </backup>
      <note default-x="64">
        <rest>
          <display-step>E</display-step>
          <display-octave>2</display-octave>
        </rest>
        <duration>2</duration>
        <voice>2</voice>
        <type size="cue">eighth</type>
      </note>
      <note default-x="117">
        <rest>
          <display-step>E</display-step>
          <display-octave>2</display-octave>
        </rest>
        <duration>4</duration>
        <voice>2</voice>
        <type size="cue">quarter</type>
      </note>
    </measure>
    <!--=======================================================-->
    <measure number="10" width="286">
      <note default-x="24">
        <pitch>
          <step>C</step>
          <octave>4</octave>
        </pitch>
        <duration>6</duration>
        <voice>1</voice>
        <type>quarter</type>
        <dot/>
        <stem default-y="38.5">up</stem>
      </note>
      <note default-x="122">
        <pitch>
          <step>C</step>
          <octave>4</octave>
        </pitch>
        <duration>2</duration>
        <voice>1</voice>
        <type>eighth</type>
        <stem default-y="45">up</stem>
      </note>
      <note default-x="182">
        <pitch>
          <step>D</step>
          <octave>4</octave>
        </pitch>
        <duration>2</duration>
        <voice>1</voice>
        <type>eighth</type>
        <stem default-y="50">up</stem>
      </note>
      <note default-x="240">
        <pitch>
          <step>E</step>
          <alter>-1</alter>
          <octave>4</octave>
        </pitch>
        <duration>2</duration>
        <voice>1</voice>
        <type>eighth</type>
        <accidental>flat</accidental>
        <stem default-y="55">up</stem>
      </note>
      <backup>
        <duration>12</duration>
      </backup>
      <note default-x="24">
        <pitch>
          <step>F</step>
          <octave>2</octave>
        </pitch>
        <duration>2</duration>
        <voice>2</voice>
        <type size="cue">eighth</type>
        <stem default-y="-71">down</stem>
        <beam number="1">begin</beam>
      </note>
      <note default-x="53">
        <pitch>
          <step>A</step>
          <octave>2</octave>
        </pitch>
        <duration>1</duration>
        <voice>2</voice>
        <type size="cue">16th</type>
        <stem default-y="-70">down</stem>
        <beam number="1">continue</beam>
        <beam number="2">begin</beam>
      </note>
      <note default-x="70">
        <pitch>
          <step>C</step>
          <octave>3</octave>
        </pitch>
        <duration>1</duration>
        <voice>2</voice>
        <type size="cue">16th</type>
        <stem default-y="-69">down</stem>
        <beam number="1">continue</beam>
        <beam number="2">end</beam>
      </note>
      <note default-x="93">
        <pitch>
          <step>F</step>
          <octave>3</octave>
        </pitch>
        <duration>2</duration>
        <voice>2</voice>
        <type size="cue">eighth</type>
        <stem default-y="-67">down</stem>
        <beam number="1">end</beam>
      </note>
      <note default-x="122">
        <rest>
          <display-step>E</display-step>
          <display-octave>2</display-octave>
        </rest>
        <duration>2</duration>
        <voice>2</voice>
        <type size="cue">eighth</type>
      </note>
      <note default-x="182">
        <rest>
          <display-step>E</display-step>
          <display-octave>2</display-octave>
        </rest>
        <duration>4</duration>
        <voice>2</voice>
        <type size="cue">quarter</type>
      </note>
    </measure>
    <!--=======================================================-->
    <measure number="11" width="171">
      <note default-x="17">
        <pitch>
          <step>D</step>
          <octave>4</octave>
        </pitch>
        <duration>8</duration>
        <voice>1</voice>
        <type>half</type>
        <stem default-y="43.5">up</stem>
      </note>
      <note default-x="122">
        <pitch>
          <step>B</step>
          <alter>-1</alter>
          <octave>3</octave>
        </pitch>
        <duration>4</duration>
        <voice>1</voice>
        <type>quarter</type>
        <stem default-y="33">up</stem>
      </note>
      <backup>
        <duration>12</duration>
      </backup>
      <note default-x="17">
        <pitch>
          <step>B</step>
          <alter>-1</alter>
          <octave>2</octave>
        </pitch>
        <duration>2</duration>
        <voice>2</voice>
        <type size="cue">eighth</type>
        <stem default-y="-56">down</stem>
        <beam number="1">begin</beam>
      </note>
      <note default-x="41">
        <pitch>
          <step>D</step>
          <octave>3</octave>
        </pitch>
        <duration>1</duration>
        <voice>2</voice>
        <type size="cue">16th</type>
        <stem default-y="-54.5">down</stem>
        <beam number="1">continue</beam>
        <beam number="2">begin</beam>
      </note>
      <note default-x="57">
        <pitch>
          <step>F</step>
          <octave>3</octave>
        </pitch>
        <duration>1</duration>
        <voice>2</voice>
        <type size="cue">16th</type>
        <stem default-y="-53.5">down</stem>
        <beam number="1">continue</beam>
        <beam number="2">end</beam>
      </note>
      <note default-x="72">
        <pitch>
          <step>B</step>
          <alter>-1</alter>
          <octave>3</octave>
        </pitch>
        <duration>2</duration>
        <voice>2</voice>
        <type size="cue">eighth</type>
        <stem default-y="-52">down</stem>
        <beam number="1">end</beam>
      </note>
      <note default-x="98">
        <rest>
          <display-step>E</display-step>
          <display-octave>2</display-octave>
        </rest>
        <duration>2</duration>
        <voice>2</voice>
        <type size="cue">eighth</type>
      </note>
      <note default-x="122">
        <pitch>
          <step>B</step>
          <alter>-1</alter>
          <octave>2</octave>
        </pitch>
        <duration>4</duration>
        <voice>2</voice>
        <type size="cue">quarter</type>
        <stem default-y="-51">down</stem>
      </note>
      <note default-x="122">
        <chord/>
        <pitch>
          <step>B</step>
          <alter>-1</alter>
          <octave>3</octave>
        </pitch>
        <duration>4</duration>
        <voice>2</voice>
        <type size="cue">quarter</type>
        <stem>down</stem>
      </note>
    </measure>
    <!--=======================================================-->
    <measure number="12" width="281">
      <note default-x="17">
        <pitch>
          <step>A</step>
          <octave>3</octave>
        </pitch>
        <duration>6</duration>
        <voice>1</voice>
        <type>quarter</type>
        <dot/>
        <stem default-y="28">up</stem>
      </note>
      <note default-x="98">
        <pitch>
          <step>C</step>
          <octave>4</octave>
        </pitch>
        <duration>2</duration>
        <voice>1</voice>
        <type>eighth</type>
        <stem default-y="45">up</stem>
      </note>
      <note default-x="163">
        <pitch>
          <step>C</step>
          <octave>4</octave>
        </pitch>
        <duration>3</duration>
        <voice>1</voice>
        <type>eighth</type>
        <dot/>
        <stem default-y="45">up</stem>
      </note>
      <note default-x="234">
        <pitch>
          <step>B</step>
          <alter>-1</alter>
          <octave>3</octave>
        </pitch>
        <duration>1</duration>
        <voice>1</voice>
        <type>16th</type>
        <stem default-y="40">up</stem>
      </note>
      <backup>
        <duration>12</duration>
      </backup>
      <note default-x="17">
        <pitch>
          <step>C</step>
          <octave>3</octave>
        </pitch>
        <duration>12</duration>
        <voice>2</voice>
        <type size="cue">half</type>
        <dot/>
        <stem default-y="-46">down</stem>
      </note>
    </measure>
    <!--=======================================================-->
    <measure number="13" width="68">
      <note default-x="14">
        <pitch>
          <step>A</step>
          <octave>3</octave>
        </pitch>
        <duration>6</duration>
        <voice>1</voice>
        <type>quarter</type>
        <dot/>
        <stem default-y="28">up</stem>
      </note>
      <backup>
        <duration>6</duration>
      </backup>
      <note default-x="14">
        <pitch>
          <step>F</step>
          <octave>2</octave>
        </pitch>
        <duration>6</duration>
        <voice>3</voice>
        <type size="cue">quarter</type>
        <dot/>
        <stem default-y="-66">down</stem>
      </note>
      <note default-x="14">
        <chord/>
        <pitch>
          <step>A</step>
          <octave>3</octave>
        </pitch>
        <duration>6</duration>
        <voice>3</voice>
        <type size="cue">quarter</type>
        <dot/>
        <stem>down</stem>
      </note>
      <barline location="right">
        <bar-style>light-heavy</bar-style>
      </barline>
    </measure>
  </part>
  <!--=========================================================-->
</score-partwise>
