<?xml version="1.0" encoding="UTF-8" standalone="no"?>
<!DOCTYPE score-partwise PUBLIC "-//Recordare//DTD MusicXML 3.1 Partwise//EN" "http://www.musicxml.org/dtds/partwise.dtd">
<score-partwise version="3.1">
  <movement-title>CHÚC MỪNG GIA ĐÌNH MỚI</movement-title>
  <identification>
    <creator type="composer">Tune: Seymour.
Carl M. Von Weber, 1826.</creator>
    <creator type="lyricist">Ban Nhuận chánh, 1949.</creator>
    <rights>©</rights>
    <encoding>
      <software>Finale v26.3 for Windows</software>
      <encoding-date>2021-09-07</encoding-date>
      <supports attribute="new-system" element="print" type="yes" value="yes"/>
      <supports attribute="new-page" element="print" type="yes" value="yes"/>
      <supports element="accidental" type="yes"/>
      <supports element="beam" type="yes"/>
      <supports element="stem" type="yes"/>
    </encoding>
  </identification>
  <defaults>
    <scaling>
      <millimeters>7.2319</millimeters>
      <tenths>40</tenths>
    </scaling>
    <page-layout>
      <page-height>1643</page-height>
      <page-width>1161</page-width>
      <page-margins type="both">
        <left-margin>70</left-margin>
        <right-margin>70</right-margin>
        <top-margin>70</top-margin>
        <bottom-margin>70</bottom-margin>
      </page-margins>
    </page-layout>
    <system-layout>
      <system-margins>
        <left-margin>0</left-margin>
        <right-margin>0</right-margin>
      </system-margins>
      <system-distance>111</system-distance>
      <top-system-distance>72</top-system-distance>
    </system-layout>
    <staff-layout>
      <staff-distance>93</staff-distance>
    </staff-layout>
    <appearance>
      <line-width type="stem">1.1784</line-width>
      <line-width type="beam">5</line-width>
      <line-width type="staff">1.1784</line-width>
      <line-width type="light barline">1.1784</line-width>
      <line-width type="heavy barline">5</line-width>
      <line-width type="leger">1.1784</line-width>
      <line-width type="ending">1.1784</line-width>
      <line-width type="wedge">0.7487</line-width>
      <line-width type="enclosure">1.1784</line-width>
      <line-width type="tuplet bracket">0.7487</line-width>
      <note-size type="grace">60</note-size>
      <note-size type="cue">60</note-size>
      <distance type="hyphen">120</distance>
      <distance type="beam">7.5</distance>
    </appearance>
    <music-font font-family="Maestro,engraved" font-size="20.5"/>
    <word-font font-family="Myriad Pro" font-size="10.25"/>
    <lyric-font font-family="Myriad Pro" font-size="12"/>
  </defaults>
  <credit page="1">
    <credit-type>title</credit-type>
    <credit-words default-x="581" default-y="1573" font-size="22" font-weight="bold" justify="center" valign="top">CHÚC MỪNG GIA ĐÌNH MỚI</credit-words>
  </credit>
  <credit page="1">
    <credit-type>composer</credit-type>
    <credit-words default-x="1091" default-y="334" font-size="12" justify="right" valign="bottom" xml:space="preserve">Tune: Seymour.
Carl M. Von Weber, 1826.</credit-words>
  </credit>
  <credit page="1">
    <credit-type>lyricist</credit-type>
    <credit-words default-x="70" default-y="334" font-size="12" valign="bottom">Dịch lời của Ban Nhuận chánh, 1949.</credit-words>
  </credit>
  <credit page="1">
    <credit-words default-x="70" default-y="1573" font-size="22" font-weight="bold" valign="top">403</credit-words>
  </credit>
  <part-list>
    <part-group number="1" type="start">
      <group-symbol default-x="-5">bracket</group-symbol>
      <group-barline>no</group-barline>
    </part-group>
    <score-part id="P1">
      <part-name print-object="no">MusicXML Part</part-name>
      <score-instrument id="P1-I1">
        <instrument-name>SmartMusic SoftSynth</instrument-name>
        <instrument-sound>voice.soprano</instrument-sound>
        <virtual-instrument/>
      </score-instrument>
      <midi-device>SmartMusic SoftSynth</midi-device>
      <midi-instrument id="P1-I1">
        <midi-channel>1</midi-channel>
        <midi-bank>15489</midi-bank>
        <midi-program>22</midi-program>
        <volume>80</volume>
        <pan>-70</pan>
      </midi-instrument>
    </score-part>
    <score-part id="P2">
      <part-name print-object="no">MusicXML Part</part-name>
      <score-instrument id="P2-I2">
        <instrument-name>SmartMusic SoftSynth</instrument-name>
        <instrument-sound>voice.bass</instrument-sound>
        <virtual-instrument/>
      </score-instrument>
      <midi-device>SmartMusic SoftSynth</midi-device>
      <midi-instrument id="P2-I2">
        <midi-channel>2</midi-channel>
        <midi-bank>15489</midi-bank>
        <midi-program>22</midi-program>
        <volume>80</volume>
        <pan>80</pan>
      </midi-instrument>
    </score-part>
    <part-group number="1" type="stop"/>
  </part-list>
  <!--=========================================================-->
  <part id="P1">
    <?SmartMusic maxVoice=1?>
    <measure number="1" width="255">
      <print>
        <system-layout>
          <top-system-distance>156</top-system-distance>
        </system-layout>
        <measure-numbering>none</measure-numbering>
      </print>
      <attributes>
        <divisions>2</divisions>
        <key>
          <fifths>-1</fifths>
          <mode>major</mode>
        </key>
        <time symbol="common">
          <beats>4</beats>
          <beat-type>4</beat-type>
        </time>
        <clef>
          <sign>G</sign>
          <line>2</line>
        </clef>
      </attributes>
      <sound tempo="104"/>
      <harmony default-y="24" font-family="VNI-Helve-Condense" font-size="13.7">
        <root>
          <root-step>F</root-step>
        </root>
        <kind halign="center" text="">major</kind>
      </harmony>
      <note default-x="100">
        <pitch>
          <step>F</step>
          <octave>4</octave>
        </pitch>
        <duration>4</duration>
        <voice>1</voice>
        <type>half</type>
        <stem default-y="10">up</stem>
        <lyric default-y="-86" number="1">
          <syllabic>single</syllabic>
          <text>1.Hai</text>
        </lyric>
        <lyric default-y="-115" number="2">
          <syllabic>single</syllabic>
          <text>2.Đây</text>
        </lyric>
        <lyric default-y="-143" number="3">
          <syllabic>single</syllabic>
          <text>3.Tâm</text>
        </lyric>
        <lyric default-y="-171" number="4">
          <syllabic>single</syllabic>
          <text>4.Xin</text>
        </lyric>
      </note>
      <note default-x="100">
        <chord/>
        <pitch>
          <step>A</step>
          <octave>4</octave>
        </pitch>
        <duration>4</duration>
        <voice>1</voice>
        <type>half</type>
        <stem>up</stem>
      </note>
      <note default-x="180">
        <pitch>
          <step>G</step>
          <octave>4</octave>
        </pitch>
        <duration>4</duration>
        <voice>1</voice>
        <type>half</type>
        <stem default-y="5">up</stem>
        <lyric default-y="-86" number="1">
          <syllabic>single</syllabic>
          <text>bạn</text>
        </lyric>
        <lyric default-y="-115" number="2">
          <syllabic>single</syllabic>
          <text>được</text>
        </lyric>
        <lyric default-y="-143" number="3">
          <syllabic>single</syllabic>
          <text>nguyện</text>
        </lyric>
        <lyric default-y="-171" number="4">
          <syllabic>single</syllabic>
          <text>Ngài</text>
        </lyric>
      </note>
      <backup>
        <duration>4</duration>
      </backup>
      <note default-x="192">
        <pitch>
          <step>F</step>
          <octave>4</octave>
        </pitch>
        <duration>4</duration>
        <voice>2</voice>
        <type>half</type>
        <stem default-y="-63.5">down</stem>
      </note>
    </measure>
    <!--=======================================================-->
    <measure number="2" width="147">
      <harmony default-y="24" font-family="VNI-Helve-Condense" font-size="13.7">
        <root>
          <root-step>B</root-step>
          <root-alter>-1</root-alter>
        </root>
        <kind halign="center" text="">major</kind>
        <bass>
          <bass-step>F</bass-step>
        </bass>
      </harmony>
      <note default-x="19">
        <pitch>
          <step>F</step>
          <octave>4</octave>
        </pitch>
        <duration>4</duration>
        <voice>1</voice>
        <type>half</type>
        <stem default-y="15">up</stem>
        <lyric default-y="-86" number="1">
          <syllabic>single</syllabic>
          <text>hãy</text>
        </lyric>
        <lyric default-y="-115" number="2">
          <syllabic>single</syllabic>
          <text>thấy</text>
        </lyric>
        <lyric default-y="-143" number="3">
          <syllabic>single</syllabic>
          <text>Chúa</text>
        </lyric>
        <lyric default-y="-171" number="4">
          <syllabic>single</syllabic>
          <text>dắt</text>
        </lyric>
      </note>
      <note default-x="19">
        <chord/>
        <pitch>
          <step>B</step>
          <alter>-1</alter>
          <octave>4</octave>
        </pitch>
        <duration>4</duration>
        <voice>1</voice>
        <type>half</type>
        <stem>up</stem>
      </note>
      <note default-x="82">
        <pitch>
          <step>F</step>
          <octave>4</octave>
        </pitch>
        <duration>4</duration>
        <voice>1</voice>
        <type>half</type>
        <stem default-y="10">up</stem>
        <lyric default-y="-86" number="1">
          <syllabic>single</syllabic>
          <text>xây</text>
        </lyric>
        <lyric default-y="-115" number="2">
          <syllabic>single</syllabic>
          <text>gia</text>
        </lyric>
        <lyric default-y="-143" number="3">
          <syllabic>single</syllabic>
          <text>Cha</text>
        </lyric>
        <lyric default-y="-171" number="4">
          <syllabic>single</syllabic>
          <text>đôi</text>
        </lyric>
      </note>
      <note default-x="82">
        <chord/>
        <pitch>
          <step>A</step>
          <octave>4</octave>
        </pitch>
        <duration>4</duration>
        <voice>1</voice>
        <type>half</type>
        <stem>up</stem>
      </note>
    </measure>
    <!--=======================================================-->
    <measure number="3" width="170">
      <harmony default-y="24" font-family="VNI-Helve-Condense" font-size="13.7">
        <root>
          <root-step>F</root-step>
        </root>
        <kind halign="center" text="dim7">diminished-seventh</kind>
      </harmony>
      <note default-x="26">
        <pitch>
          <step>G</step>
          <alter>1</alter>
          <octave>4</octave>
        </pitch>
        <duration>4</duration>
        <voice>1</voice>
        <type>half</type>
        <accidental>sharp</accidental>
        <stem default-y="-58">down</stem>
        <lyric default-y="-86" number="1">
          <syllabic>single</syllabic>
          <text>đắp</text>
        </lyric>
        <lyric default-y="-115" number="2">
          <syllabic>single</syllabic>
          <text>thất</text>
        </lyric>
        <lyric default-y="-143" number="3">
          <syllabic>single</syllabic>
          <text>giúp</text>
        </lyric>
        <lyric default-y="-171" number="4">
          <syllabic>single</syllabic>
          <text>lứa</text>
        </lyric>
      </note>
      <note default-x="26">
        <chord/>
        <pitch>
          <step>D</step>
          <octave>5</octave>
        </pitch>
        <duration>4</duration>
        <voice>1</voice>
        <type>half</type>
        <stem>down</stem>
      </note>
      <harmony default-y="24" font-family="VNI-Helve-Condense" font-size="13.7">
        <root>
          <root-step>F</root-step>
        </root>
        <kind halign="center" text="">major</kind>
      </harmony>
      <note default-x="90">
        <pitch>
          <step>A</step>
          <octave>4</octave>
        </pitch>
        <duration>2</duration>
        <voice>1</voice>
        <type>quarter</type>
        <stem default-y="14">up</stem>
        <notations>
          <slur bezier-x="9" bezier-y="-14" default-x="7" default-y="-35" number="1" placement="below" type="start"/>
          <slur bezier-x="8" bezier-y="9" default-x="18" default-y="4" number="2" orientation="over" type="start"/>
        </notations>
        <lyric default-y="-86" number="1">
          <syllabic>single</syllabic>
          <text>gia</text>
        </lyric>
        <lyric default-y="-115" number="2">
          <syllabic>single</syllabic>
          <text>hảo</text>
        </lyric>
        <lyric default-y="-143" number="3">
          <syllabic>single</syllabic>
          <text>mỗi</text>
        </lyric>
        <lyric default-y="-171" number="4">
          <syllabic>single</syllabic>
          <text>đi</text>
        </lyric>
      </note>
      <note default-x="90">
        <chord/>
        <pitch>
          <step>C</step>
          <octave>5</octave>
        </pitch>
        <duration>2</duration>
        <voice>1</voice>
        <type>quarter</type>
        <stem>up</stem>
      </note>
      <note default-x="130">
        <pitch>
          <step>F</step>
          <octave>4</octave>
        </pitch>
        <duration>2</duration>
        <voice>1</voice>
        <type>quarter</type>
        <stem default-y="10">up</stem>
        <notations>
          <slur bezier-x="-14" bezier-y="-8" default-x="6" default-y="-45" number="1" type="stop"/>
          <slur bezier-x="-8" bezier-y="9" default-x="7" default-y="3" number="2" type="stop"/>
        </notations>
      </note>
      <note default-x="130">
        <chord/>
        <pitch>
          <step>A</step>
          <octave>4</octave>
        </pitch>
        <duration>2</duration>
        <voice>1</voice>
        <type>quarter</type>
        <stem>up</stem>
      </note>
    </measure>
    <!--=======================================================-->
    <measure number="4" width="131">
      <harmony default-y="24" font-family="VNI-Helve-Condense" font-size="13.7">
        <root>
          <root-step>C</root-step>
        </root>
        <kind halign="center" text="7">dominant</kind>
      </harmony>
      <note default-x="26">
        <pitch>
          <step>E</step>
          <octave>4</octave>
        </pitch>
        <duration>8</duration>
        <voice>1</voice>
        <type>whole</type>
        <lyric default-y="-86" number="1">
          <syllabic>single</syllabic>
          <text>đình</text>
        </lyric>
        <lyric default-y="-115" number="2">
          <syllabic>single</syllabic>
          <text>hoàn,</text>
        </lyric>
        <lyric default-y="-143" number="3">
          <syllabic>single</syllabic>
          <text>ngày,</text>
        </lyric>
        <lyric default-y="-171" number="4">
          <syllabic>single</syllabic>
          <text>đường,</text>
        </lyric>
      </note>
      <note default-x="26">
        <chord/>
        <pitch>
          <step>G</step>
          <octave>4</octave>
        </pitch>
        <duration>8</duration>
        <voice>1</voice>
        <type>whole</type>
      </note>
    </measure>
    <!--=======================================================-->
    <measure number="5" width="157">
      <harmony default-y="24" font-family="VNI-Helve-Condense" font-size="13.7">
        <root>
          <root-step>F</root-step>
        </root>
        <kind halign="center" text="">major</kind>
      </harmony>
      <note default-x="22">
        <pitch>
          <step>F</step>
          <octave>4</octave>
        </pitch>
        <duration>4</duration>
        <voice>1</voice>
        <type>half</type>
        <stem default-y="10">up</stem>
        <lyric default-y="-86" number="1">
          <syllabic>single</syllabic>
          <text>Trăm</text>
        </lyric>
        <lyric default-y="-115" number="2">
          <syllabic>single</syllabic>
          <text>Trong</text>
        </lyric>
        <lyric default-y="-143" number="3">
          <syllabic>single</syllabic>
          <text>Cho</text>
        </lyric>
        <lyric default-y="-171" number="4">
          <syllabic>single</syllabic>
          <text>Song</text>
        </lyric>
      </note>
      <note default-x="22">
        <chord/>
        <pitch>
          <step>A</step>
          <octave>4</octave>
        </pitch>
        <duration>4</duration>
        <voice>1</voice>
        <type>half</type>
        <stem>up</stem>
      </note>
      <note default-x="89">
        <pitch>
          <step>F</step>
          <octave>4</octave>
        </pitch>
        <duration>4</duration>
        <voice>1</voice>
        <type>half</type>
        <stem default-y="10">up</stem>
        <lyric default-y="-86" number="1">
          <syllabic>single</syllabic>
          <text>năm</text>
        </lyric>
        <lyric default-y="-115" number="2">
          <syllabic>single</syllabic>
          <text>bao</text>
        </lyric>
        <lyric default-y="-143" number="3">
          <syllabic>single</syllabic>
          <text>đôi</text>
        </lyric>
        <lyric default-y="-171" number="4">
          <syllabic>single</syllabic>
          <text>song</text>
        </lyric>
      </note>
      <note default-x="89">
        <chord/>
        <pitch>
          <step>A</step>
          <octave>4</octave>
        </pitch>
        <duration>4</duration>
        <voice>1</voice>
        <type>half</type>
        <stem>up</stem>
      </note>
    </measure>
    <!--=======================================================-->
    <measure number="6" width="161">
      <harmony default-y="24" font-family="VNI-Helve-Condense" font-size="13.7">
        <root>
          <root-step>A</root-step>
        </root>
        <kind halign="center" text="7">dominant</kind>
      </harmony>
      <note default-x="26">
        <pitch>
          <step>E</step>
          <octave>4</octave>
        </pitch>
        <duration>4</duration>
        <voice>1</voice>
        <type>half</type>
        <stem default-y="10">up</stem>
        <lyric default-y="-86" number="1">
          <syllabic>single</syllabic>
          <text>trên</text>
        </lyric>
        <lyric default-y="-115" number="2">
          <syllabic>single</syllabic>
          <text>lơn</text>
        </lyric>
        <lyric default-y="-143" number="3">
          <syllabic>single</syllabic>
          <text>tân</text>
        </lyric>
        <lyric default-y="-171" number="4">
          <syllabic>single</syllabic>
          <text>lên</text>
        </lyric>
      </note>
      <note default-x="26">
        <chord/>
        <pitch>
          <step>A</step>
          <octave>4</octave>
        </pitch>
        <duration>4</duration>
        <voice>1</voice>
        <type>half</type>
        <stem>up</stem>
      </note>
      <harmony default-y="24" font-family="VNI-Helve-Condense" font-size="13.7">
        <root>
          <root-step>F</root-step>
          <root-alter>1</root-alter>
        </root>
        <kind halign="center" text="dim">diminished</kind>
      </harmony>
      <note default-x="93">
        <pitch>
          <step>E</step>
          <alter>-1</alter>
          <octave>4</octave>
        </pitch>
        <duration>4</duration>
        <voice>1</voice>
        <type>half</type>
        <accidental>flat</accidental>
        <stem default-y="10">up</stem>
        <lyric default-y="-86" number="1">
          <syllabic>single</syllabic>
          <text>vuông</text>
        </lyric>
        <lyric default-y="-115" number="2">
          <syllabic>single</syllabic>
          <text>kiên</text>
        </lyric>
        <lyric default-y="-143" number="3">
          <syllabic>single</syllabic>
          <text>hôn</text>
        </lyric>
        <lyric default-y="-171" number="4">
          <syllabic>single</syllabic>
          <text>cung</text>
        </lyric>
      </note>
      <note default-x="93">
        <chord/>
        <pitch>
          <step>A</step>
          <octave>4</octave>
        </pitch>
        <duration>4</duration>
        <voice>1</voice>
        <type>half</type>
        <stem>up</stem>
      </note>
    </measure>
    <!--=======================================================-->
    <measure number="7" width="210">
      <print new-system="yes">
        <system-layout>
          <system-distance>127</system-distance>
        </system-layout>
      </print>
      <harmony default-y="24" font-family="VNI-Helve-Condense" font-size="13.7">
        <root>
          <root-step>C</root-step>
        </root>
        <kind halign="center" text="7">dominant</kind>
      </harmony>
      <note default-x="62">
        <pitch>
          <step>D</step>
          <octave>4</octave>
        </pitch>
        <duration>4</duration>
        <voice>1</voice>
        <type>half</type>
        <stem default-y="15">up</stem>
        <lyric default-y="-86" number="1">
          <syllabic>single</syllabic>
          <text>đá</text>
        </lyric>
        <lyric default-y="-115" number="2">
          <syllabic>single</syllabic>
          <text>cố,</text>
        </lyric>
        <lyric default-y="-143" number="3">
          <syllabic>single</syllabic>
          <text>suốt</text>
        </lyric>
        <lyric default-y="-171" number="4">
          <syllabic>single</syllabic>
          <text>thất</text>
        </lyric>
      </note>
      <note default-x="62">
        <chord/>
        <pitch>
          <step>B</step>
          <alter>-1</alter>
          <octave>4</octave>
        </pitch>
        <duration>4</duration>
        <voice>1</voice>
        <type>half</type>
        <stem>up</stem>
      </note>
      <note default-x="136">
        <pitch>
          <step>C</step>
          <octave>4</octave>
        </pitch>
        <duration>4</duration>
        <voice>1</voice>
        <type>half</type>
        <stem default-y="-5">up</stem>
        <lyric default-y="-86" number="1">
          <syllabic>single</syllabic>
          <text>Lời</text>
        </lyric>
        <lyric default-y="-115" number="2">
          <syllabic>single</syllabic>
          <text>bình</text>
        </lyric>
        <lyric default-y="-143" number="3">
          <syllabic>single</syllabic>
          <text>đời</text>
        </lyric>
        <lyric default-y="-171" number="4">
          <syllabic>single</syllabic>
          <text>Hoàng</text>
        </lyric>
      </note>
      <note default-x="136">
        <chord/>
        <pitch>
          <step>E</step>
          <octave>4</octave>
        </pitch>
        <duration>4</duration>
        <voice>1</voice>
        <type>half</type>
        <stem>up</stem>
      </note>
    </measure>
    <!--=======================================================-->
    <measure number="8" width="141">
      <harmony default-y="24" font-family="VNI-Helve-Condense" font-size="13.7">
        <root>
          <root-step>F</root-step>
        </root>
        <kind halign="center" text="">major</kind>
      </harmony>
      <note default-x="25">
        <pitch>
          <step>C</step>
          <octave>4</octave>
        </pitch>
        <duration>8</duration>
        <voice>1</voice>
        <type>whole</type>
        <lyric default-y="-86" number="1">
          <syllabic>single</syllabic>
          <text>Kinh;</text>
        </lyric>
        <lyric default-y="-115" number="2">
          <syllabic>single</syllabic>
          <text>an</text>
        </lyric>
        <lyric default-y="-143" number="3">
          <syllabic>single</syllabic>
          <text>nay;</text>
        </lyric>
        <lyric default-y="-171" number="4">
          <syllabic>single</syllabic>
          <text>vương;</text>
        </lyric>
      </note>
      <note default-x="25">
        <chord/>
        <pitch>
          <step>F</step>
          <octave>4</octave>
        </pitch>
        <duration>8</duration>
        <voice>1</voice>
        <type>whole</type>
      </note>
    </measure>
    <!--=======================================================-->
    <measure number="9" width="186">
      <note default-x="26">
        <pitch>
          <step>F</step>
          <octave>4</octave>
        </pitch>
        <duration>4</duration>
        <voice>1</voice>
        <type>half</type>
        <stem default-y="10">up</stem>
        <lyric default-y="-86" number="1">
          <syllabic>single</syllabic>
          <text>Chung</text>
        </lyric>
        <lyric default-y="-115" number="2">
          <syllabic>single</syllabic>
          <text>Nơi</text>
        </lyric>
        <lyric default-y="-143" number="3">
          <syllabic>single</syllabic>
          <text>Linh</text>
        </lyric>
        <lyric default-y="-171" number="4">
          <syllabic>single</syllabic>
          <text>Nơi</text>
        </lyric>
      </note>
      <note default-x="26">
        <chord/>
        <pitch>
          <step>A</step>
          <octave>4</octave>
        </pitch>
        <duration>4</duration>
        <voice>1</voice>
        <type>half</type>
        <stem>up</stem>
      </note>
      <note default-x="106">
        <pitch>
          <step>G</step>
          <octave>4</octave>
        </pitch>
        <duration>4</duration>
        <voice>1</voice>
        <type>half</type>
        <stem default-y="5">up</stem>
        <lyric default-y="-86" number="1">
          <syllabic>single</syllabic>
          <text>gầy</text>
        </lyric>
        <lyric default-y="-115" number="2">
          <syllabic>single</syllabic>
          <text>thập</text>
        </lyric>
        <lyric default-y="-143" number="3">
          <syllabic>single</syllabic>
          <text>trình</text>
        </lyric>
        <lyric default-y="-171" number="4">
          <syllabic>single</syllabic>
          <text>nghìn</text>
        </lyric>
      </note>
      <backup>
        <duration>4</duration>
      </backup>
      <note default-x="117">
        <pitch>
          <step>F</step>
          <octave>4</octave>
        </pitch>
        <duration>4</duration>
        <voice>2</voice>
        <type>half</type>
        <stem default-y="-63">down</stem>
      </note>
    </measure>
    <!--=======================================================-->
    <measure number="10" width="157">
      <harmony default-y="24" font-family="VNI-Helve-Condense" font-size="13.7">
        <root>
          <root-step>B</root-step>
          <root-alter>-1</root-alter>
        </root>
        <kind halign="center" text="">major</kind>
      </harmony>
      <note default-x="17">
        <pitch>
          <step>F</step>
          <octave>4</octave>
        </pitch>
        <duration>4</duration>
        <voice>1</voice>
        <type>half</type>
        <stem default-y="15">up</stem>
        <lyric default-y="-86" number="1">
          <syllabic>single</syllabic>
          <text>tổ</text>
        </lyric>
        <lyric default-y="-115" number="2">
          <syllabic>single</syllabic>
          <text>giá</text>
        </lyric>
        <lyric default-y="-143" number="3">
          <syllabic>single</syllabic>
          <text>sáng</text>
        </lyric>
        <lyric default-y="-171" number="4">
          <syllabic>single</syllabic>
          <text>thuở</text>
        </lyric>
      </note>
      <note default-x="17">
        <chord/>
        <pitch>
          <step>B</step>
          <alter>-1</alter>
          <octave>4</octave>
        </pitch>
        <duration>4</duration>
        <voice>1</voice>
        <type>half</type>
        <stem>up</stem>
      </note>
      <note default-x="86">
        <pitch>
          <step>F</step>
          <octave>4</octave>
        </pitch>
        <duration>4</duration>
        <voice>1</voice>
        <type>half</type>
        <stem default-y="10">up</stem>
        <lyric default-y="-86" number="1">
          <syllabic>single</syllabic>
          <text>êm</text>
        </lyric>
        <lyric default-y="-115" number="2">
          <syllabic>single</syllabic>
          <text>soi</text>
        </lyric>
        <lyric default-y="-143" number="3">
          <syllabic>single</syllabic>
          <text>tươi,</text>
        </lyric>
        <lyric default-y="-171" number="4">
          <syllabic>single</syllabic>
          <text>ca</text>
        </lyric>
      </note>
      <note default-x="86">
        <chord/>
        <pitch>
          <step>A</step>
          <octave>4</octave>
        </pitch>
        <duration>4</duration>
        <voice>1</voice>
        <type>half</type>
        <stem>up</stem>
      </note>
    </measure>
    <!--=======================================================-->
    <measure number="11" width="189">
      <harmony default-y="24" font-family="VNI-Helve-Condense" font-size="13.7">
        <root>
          <root-step>F</root-step>
        </root>
        <kind halign="center" text="dim7">diminished-seventh</kind>
      </harmony>
      <note default-x="26">
        <pitch>
          <step>G</step>
          <alter>1</alter>
          <octave>4</octave>
        </pitch>
        <duration>4</duration>
        <voice>1</voice>
        <type>half</type>
        <accidental>sharp</accidental>
        <stem default-y="-58.5">down</stem>
        <lyric default-y="-86" number="1">
          <syllabic>single</syllabic>
          <text>ấm</text>
        </lyric>
        <lyric default-y="-115" number="2">
          <syllabic>single</syllabic>
          <text>sáng</text>
        </lyric>
        <lyric default-y="-143" number="3">
          <syllabic>single</syllabic>
          <text>bước</text>
        </lyric>
        <lyric default-y="-171" number="4">
          <syllabic>single</syllabic>
          <text>khúc</text>
        </lyric>
      </note>
      <note default-x="26">
        <chord/>
        <pitch>
          <step>D</step>
          <octave>5</octave>
        </pitch>
        <duration>4</duration>
        <voice>1</voice>
        <type>half</type>
        <stem>down</stem>
      </note>
      <harmony default-y="24" font-family="VNI-Helve-Condense" font-size="13.7">
        <root>
          <root-step>F</root-step>
        </root>
        <kind halign="center" text="">major</kind>
      </harmony>
      <note default-x="98">
        <pitch>
          <step>A</step>
          <octave>4</octave>
        </pitch>
        <duration>2</duration>
        <voice>1</voice>
        <type>quarter</type>
        <stem default-y="13">up</stem>
        <notations>
          <slur bezier-x="10" bezier-y="-15" default-x="6" default-y="-35" number="1" placement="below" type="start"/>
          <slur bezier-x="10" bezier-y="10" default-x="18" default-y="3" number="2" orientation="over" type="start"/>
        </notations>
        <lyric default-y="-86" number="1">
          <syllabic>single</syllabic>
          <text>hai</text>
        </lyric>
        <lyric default-y="-115" number="2">
          <syllabic>single</syllabic>
          <text>giữ</text>
        </lyric>
        <lyric default-y="-143" number="3">
          <syllabic>single</syllabic>
          <text>thêm</text>
        </lyric>
        <lyric default-y="-171" number="4">
          <syllabic>single</syllabic>
          <text>sum</text>
        </lyric>
      </note>
      <note default-x="98">
        <chord/>
        <pitch>
          <step>C</step>
          <octave>5</octave>
        </pitch>
        <duration>2</duration>
        <voice>1</voice>
        <type>quarter</type>
        <stem>up</stem>
      </note>
      <note default-x="143">
        <pitch>
          <step>F</step>
          <octave>4</octave>
        </pitch>
        <duration>2</duration>
        <voice>1</voice>
        <type>quarter</type>
        <stem default-y="10">up</stem>
        <notations>
          <slur bezier-x="-15" bezier-y="-9" default-x="6" default-y="-45" number="1" type="stop"/>
          <slur bezier-x="-10" bezier-y="10" default-x="7" default-y="3" number="2" type="stop"/>
        </notations>
      </note>
      <note default-x="143">
        <chord/>
        <pitch>
          <step>A</step>
          <octave>4</octave>
        </pitch>
        <duration>2</duration>
        <voice>1</voice>
        <type>quarter</type>
        <stem>up</stem>
      </note>
    </measure>
    <!--=======================================================-->
    <measure number="12" width="138">
      <harmony default-y="24" font-family="VNI-Helve-Condense" font-size="13.7">
        <root>
          <root-step>C</root-step>
        </root>
        <kind halign="center" text="7">dominant</kind>
      </harmony>
      <note default-x="22">
        <pitch>
          <step>E</step>
          <octave>4</octave>
        </pitch>
        <duration>8</duration>
        <voice>1</voice>
        <type>whole</type>
        <lyric default-y="-86" number="1">
          <syllabic>single</syllabic>
          <text>bạn</text>
        </lyric>
        <lyric default-y="-115" number="2">
          <syllabic>single</syllabic>
          <text>gìn,</text>
        </lyric>
        <lyric default-y="-143" number="3">
          <syllabic>single</syllabic>
          <text>mạnh,</text>
        </lyric>
        <lyric default-y="-171" number="4">
          <syllabic>single</syllabic>
          <text>vầy,</text>
        </lyric>
      </note>
      <note default-x="22">
        <chord/>
        <pitch>
          <step>G</step>
          <octave>4</octave>
        </pitch>
        <duration>8</duration>
        <voice>1</voice>
        <type>whole</type>
      </note>
    </measure>
    <!--=======================================================-->
    <measure number="13" width="233">
      <print new-system="yes">
        <system-layout>
          <system-distance>127</system-distance>
        </system-layout>
      </print>
      <harmony default-y="24" font-family="VNI-Helve-Condense" font-size="13.7">
        <root>
          <root-step>F</root-step>
        </root>
        <kind halign="center" text="">major</kind>
      </harmony>
      <note default-x="69">
        <pitch>
          <step>F</step>
          <octave>4</octave>
        </pitch>
        <duration>4</duration>
        <voice>1</voice>
        <type>half</type>
        <stem default-y="10">up</stem>
        <lyric default-y="-86" number="1">
          <syllabic>single</syllabic>
          <text>Trong</text>
        </lyric>
        <lyric default-y="-115" number="2">
          <syllabic>single</syllabic>
          <text>Màn</text>
        </lyric>
        <lyric default-y="-143" number="3">
          <syllabic>single</syllabic>
          <text>Nêu</text>
        </lyric>
        <lyric default-y="-171" number="4">
          <syllabic>single</syllabic>
          <text>Tuyệt</text>
        </lyric>
      </note>
      <note default-x="69">
        <chord/>
        <pitch>
          <step>A</step>
          <octave>4</octave>
        </pitch>
        <duration>4</duration>
        <voice>1</voice>
        <type>half</type>
        <stem>up</stem>
      </note>
      <harmony default-y="24" font-family="VNI-Helve-Condense" font-size="13.7">
        <root>
          <root-step>F</root-step>
          <root-alter>1</root-alter>
        </root>
        <kind halign="center" text="dim">diminished</kind>
      </harmony>
      <note default-x="159">
        <pitch>
          <step>A</step>
          <octave>4</octave>
        </pitch>
        <duration>4</duration>
        <voice>1</voice>
        <type>half</type>
        <stem default-y="-53.5">down</stem>
        <lyric default-y="-86" number="1">
          <syllabic>single</syllabic>
          <text>bóng</text>
        </lyric>
        <lyric default-y="-115" number="2">
          <syllabic>single</syllabic>
          <text>sương</text>
        </lyric>
        <lyric default-y="-143" number="3">
          <syllabic>single</syllabic>
          <text>ái</text>
        </lyric>
        <lyric default-y="-171" number="4">
          <syllabic>single</syllabic>
          <text>không</text>
        </lyric>
      </note>
      <note default-x="159">
        <chord/>
        <pitch>
          <step>C</step>
          <octave>5</octave>
        </pitch>
        <duration>4</duration>
        <voice>1</voice>
        <type>half</type>
        <stem>down</stem>
      </note>
    </measure>
    <!--=======================================================-->
    <measure number="14" width="201">
      <harmony default-y="24" font-family="VNI-Helve-Condense" font-size="13.7">
        <root>
          <root-step>B</root-step>
          <root-alter>-1</root-alter>
        </root>
        <kind halign="center" text="">major</kind>
      </harmony>
      <note default-x="19">
        <pitch>
          <step>A</step>
          <octave>4</octave>
        </pitch>
        <duration>2</duration>
        <voice>1</voice>
        <type>quarter</type>
        <stem default-y="13.5">up</stem>
        <notations>
          <slur bezier-x="11" bezier-y="-14" default-x="7" default-y="-35" number="1" placement="below" type="start"/>
          <slur bezier-x="10" bezier-y="10" default-x="18" default-y="3" number="2" orientation="over" type="start"/>
        </notations>
        <lyric default-y="-86" number="1">
          <syllabic>single</syllabic>
          <text>cây</text>
        </lyric>
        <lyric default-y="-115" number="2">
          <syllabic>single</syllabic>
          <text>tiêu</text>
        </lyric>
        <lyric default-y="-143" number="3">
          <syllabic>single</syllabic>
          <text>đức</text>
        </lyric>
        <lyric default-y="-171" number="4">
          <syllabic>single</syllabic>
          <text>phân</text>
        </lyric>
      </note>
      <note default-x="19">
        <chord/>
        <pitch>
          <step>C</step>
          <octave>5</octave>
        </pitch>
        <duration>2</duration>
        <voice>1</voice>
        <type>quarter</type>
        <stem>up</stem>
      </note>
      <note default-x="64">
        <pitch>
          <step>G</step>
          <octave>4</octave>
        </pitch>
        <duration>2</duration>
        <voice>1</voice>
        <type>quarter</type>
        <stem default-y="15">up</stem>
        <notations>
          <slur bezier-x="-15" bezier-y="-10" default-x="6" default-y="-43" number="1" type="stop"/>
          <slur bezier-x="-10" bezier-y="10" default-x="7" default-y="5" number="2" type="stop"/>
        </notations>
      </note>
      <note default-x="64">
        <chord/>
        <pitch>
          <step>B</step>
          <alter>-1</alter>
          <octave>4</octave>
        </pitch>
        <duration>2</duration>
        <voice>1</voice>
        <type>quarter</type>
        <stem>up</stem>
      </note>
      <note default-x="109">
        <pitch>
          <step>A</step>
          <octave>4</octave>
        </pitch>
        <duration>2</duration>
        <voice>1</voice>
        <type>quarter</type>
        <stem default-y="10">up</stem>
        <notations>
          <slur bezier-x="12" bezier-y="8" default-x="18" default-y="3" number="1" orientation="over" type="start"/>
        </notations>
        <lyric default-y="-86" number="1">
          <syllabic>single</syllabic>
          <text>thập</text>
        </lyric>
        <lyric default-y="-115" number="2">
          <syllabic>single</syllabic>
          <text>ngay,</text>
        </lyric>
        <lyric default-y="-143" number="3">
          <syllabic>single</syllabic>
          <text>Chúa</text>
        </lyric>
        <lyric default-y="-171" number="4">
          <syllabic>single</syllabic>
          <text>ly,</text>
        </lyric>
      </note>
      <backup>
        <duration>2</duration>
      </backup>
      <note default-x="109">
        <pitch>
          <step>D</step>
          <octave>4</octave>
        </pitch>
        <duration>4</duration>
        <voice>2</voice>
        <type>half</type>
        <stem default-y="-73.5">down</stem>
      </note>
      <backup>
        <duration>2</duration>
      </backup>
      <note default-x="155">
        <pitch>
          <step>G</step>
          <octave>4</octave>
        </pitch>
        <duration>2</duration>
        <voice>1</voice>
        <type>quarter</type>
        <stem default-y="5">up</stem>
        <notations>
          <slur bezier-x="-7" bezier-y="12" default-x="7" default-y="-5" number="1" type="stop"/>
        </notations>
      </note>
    </measure>
    <!--=======================================================-->
    <measure number="15" width="162">
      <harmony default-y="24" font-family="VNI-Helve-Condense" font-size="13.7">
        <root>
          <root-step>F</root-step>
        </root>
        <kind halign="center" text="">major</kind>
        <bass>
          <bass-step>C</bass-step>
        </bass>
      </harmony>
      <note default-x="16">
        <pitch>
          <step>C</step>
          <octave>4</octave>
        </pitch>
        <duration>4</duration>
        <voice>1</voice>
        <type>half</type>
        <stem default-y="0">up</stem>
        <lyric default-y="-86" number="1">
          <syllabic>single</syllabic>
          <text>tự</text>
        </lyric>
        <lyric default-y="-115" number="2">
          <syllabic>single</syllabic>
          <text>mây</text>
        </lyric>
        <lyric default-y="-143" number="3">
          <syllabic>single</syllabic>
          <text>lạ</text>
        </lyric>
        <lyric default-y="-171" number="4">
          <syllabic>single</syllabic>
          <text>đầy</text>
        </lyric>
      </note>
      <note default-x="16">
        <chord/>
        <pitch>
          <step>F</step>
          <octave>4</octave>
        </pitch>
        <duration>4</duration>
        <voice>1</voice>
        <type>half</type>
        <stem>up</stem>
      </note>
      <harmony default-y="24" font-family="VNI-Helve-Condense" font-size="13.7">
        <root>
          <root-step>C</root-step>
        </root>
        <kind halign="center" text="7">dominant</kind>
      </harmony>
      <note default-x="89">
        <pitch>
          <step>C</step>
          <octave>4</octave>
        </pitch>
        <duration>4</duration>
        <voice>1</voice>
        <type>half</type>
        <stem default-y="-5">up</stem>
        <lyric default-y="-86" number="1">
          <syllabic>single</syllabic>
          <text>diệu</text>
        </lyric>
        <lyric default-y="-115" number="2">
          <syllabic>single</syllabic>
          <text>mù</text>
        </lyric>
        <lyric default-y="-143" number="3">
          <syllabic>single</syllabic>
          <text>lùng</text>
        </lyric>
        <lyric default-y="-171" number="4">
          <syllabic>single</syllabic>
          <text>tình</text>
        </lyric>
      </note>
      <note default-x="89">
        <chord/>
        <pitch>
          <step>E</step>
          <octave>4</octave>
        </pitch>
        <duration>4</duration>
        <voice>1</voice>
        <type>half</type>
        <stem>up</stem>
      </note>
    </measure>
    <!--=======================================================-->
    <measure number="16" width="159">
      <harmony default-y="24" font-family="VNI-Helve-Condense" font-size="13.7">
        <root>
          <root-step>F</root-step>
        </root>
        <kind halign="center" text="">major</kind>
      </harmony>
      <note default-x="30">
        <pitch>
          <step>C</step>
          <octave>4</octave>
        </pitch>
        <duration>8</duration>
        <voice>1</voice>
        <type>whole</type>
        <lyric default-y="-86" number="1">
          <syllabic>single</syllabic>
          <text>vinh.</text>
        </lyric>
        <lyric default-y="-115" number="2">
          <syllabic>single</syllabic>
          <text>tan.</text>
        </lyric>
        <lyric default-y="-143" number="3">
          <syllabic>single</syllabic>
          <text>thay.</text>
        </lyric>
        <lyric default-y="-171" number="4">
          <syllabic>single</syllabic>
          <text>thương.</text>
        </lyric>
      </note>
      <note default-x="30">
        <chord/>
        <pitch>
          <step>F</step>
          <octave>4</octave>
        </pitch>
        <duration>8</duration>
        <voice>1</voice>
        <type>whole</type>
      </note>
      <barline location="right">
        <bar-style>light-light</bar-style>
      </barline>
    </measure>
    <!--=======================================================-->
    <measure number="17" width="130">
      <harmony default-y="24" font-family="VNI-Helve-Condense" font-size="13.7">
        <root>
          <root-step>B</root-step>
          <root-alter>-1</root-alter>
        </root>
        <kind halign="center" text="">major</kind>
      </harmony>
      <note default-x="12">
        <pitch>
          <step>D</step>
          <octave>4</octave>
        </pitch>
        <duration>8</duration>
        <voice>1</voice>
        <type>whole</type>
        <lyric default-y="-171" number="4">
          <syllabic>begin</syllabic>
          <text>A</text>
        </lyric>
      </note>
      <note default-x="12">
        <chord/>
        <pitch>
          <step>F</step>
          <octave>4</octave>
        </pitch>
        <duration>8</duration>
        <voice>1</voice>
        <type>whole</type>
      </note>
    </measure>
    <!--=======================================================-->
    <measure number="18" width="136">
      <harmony default-y="24" font-family="VNI-Helve-Condense" font-size="13.7">
        <root>
          <root-step>F</root-step>
        </root>
        <kind halign="center" text="">major</kind>
      </harmony>
      <note default-x="16">
        <pitch>
          <step>C</step>
          <octave>4</octave>
        </pitch>
        <duration>8</duration>
        <voice>1</voice>
        <type>whole</type>
        <lyric default-y="-171" number="4">
          <syllabic>end</syllabic>
          <text>men.</text>
        </lyric>
      </note>
      <note default-x="16">
        <chord/>
        <pitch>
          <step>F</step>
          <octave>4</octave>
        </pitch>
        <duration>8</duration>
        <voice>1</voice>
        <type>whole</type>
      </note>
      <barline location="right">
        <bar-style>light-heavy</bar-style>
      </barline>
    </measure>
  </part>
  <!--=========================================================-->
  <part id="P2">
    <?SmartMusic maxVoice=1?>
    <measure number="1" width="255">
      <print>
        <staff-layout number="1">
          <staff-distance>163</staff-distance>
        </staff-layout>
        <measure-numbering>none</measure-numbering>
      </print>
      <attributes>
        <divisions>2</divisions>
        <key>
          <fifths>-1</fifths>
          <mode>major</mode>
        </key>
        <time symbol="common">
          <beats>4</beats>
          <beat-type>4</beat-type>
        </time>
        <clef>
          <sign>F</sign>
          <line>4</line>
        </clef>
      </attributes>
      <sound tempo="104"/>
      <note default-x="100">
        <pitch>
          <step>F</step>
          <octave>3</octave>
        </pitch>
        <duration>4</duration>
        <voice>1</voice>
        <type>half</type>
        <stem default-y="-45">down</stem>
      </note>
      <note default-x="100">
        <chord/>
        <pitch>
          <step>C</step>
          <octave>4</octave>
        </pitch>
        <duration>4</duration>
        <voice>1</voice>
        <type>half</type>
        <stem>down</stem>
      </note>
      <note default-x="180">
        <pitch>
          <step>F</step>
          <octave>3</octave>
        </pitch>
        <duration>4</duration>
        <voice>1</voice>
        <type>half</type>
        <stem default-y="-45">down</stem>
      </note>
      <note default-x="180">
        <chord/>
        <pitch>
          <step>B</step>
          <alter>-1</alter>
          <octave>3</octave>
        </pitch>
        <duration>4</duration>
        <voice>1</voice>
        <type>half</type>
        <stem>down</stem>
      </note>
    </measure>
    <!--=======================================================-->
    <measure number="2" width="147">
      <note default-x="19">
        <pitch>
          <step>F</step>
          <octave>3</octave>
        </pitch>
        <duration>4</duration>
        <voice>1</voice>
        <type>half</type>
        <stem default-y="-45">down</stem>
      </note>
      <note default-x="19">
        <chord/>
        <pitch>
          <step>D</step>
          <octave>4</octave>
        </pitch>
        <duration>4</duration>
        <voice>1</voice>
        <type>half</type>
        <stem>down</stem>
      </note>
      <note default-x="82">
        <pitch>
          <step>F</step>
          <octave>3</octave>
        </pitch>
        <duration>4</duration>
        <voice>1</voice>
        <type>half</type>
        <stem default-y="-45">down</stem>
      </note>
      <note default-x="82">
        <chord/>
        <pitch>
          <step>C</step>
          <octave>4</octave>
        </pitch>
        <duration>4</duration>
        <voice>1</voice>
        <type>half</type>
        <stem>down</stem>
      </note>
    </measure>
    <!--=======================================================-->
    <measure number="3" width="170">
      <note default-x="26">
        <pitch>
          <step>F</step>
          <octave>3</octave>
        </pitch>
        <duration>4</duration>
        <voice>1</voice>
        <type>half</type>
        <stem default-y="-45">down</stem>
      </note>
      <note default-x="26">
        <chord/>
        <pitch>
          <step>B</step>
          <octave>3</octave>
        </pitch>
        <duration>4</duration>
        <voice>1</voice>
        <type>half</type>
        <accidental>natural</accidental>
        <stem>down</stem>
      </note>
      <note default-x="90">
        <pitch>
          <step>F</step>
          <octave>3</octave>
        </pitch>
        <duration>4</duration>
        <voice>1</voice>
        <type>half</type>
        <stem default-y="-45">down</stem>
      </note>
      <note default-x="90">
        <chord/>
        <pitch>
          <step>C</step>
          <octave>4</octave>
        </pitch>
        <duration>4</duration>
        <voice>1</voice>
        <type>half</type>
        <stem>down</stem>
      </note>
    </measure>
    <!--=======================================================-->
    <measure number="4" width="131">
      <note default-x="26">
        <pitch>
          <step>C</step>
          <octave>3</octave>
        </pitch>
        <duration>8</duration>
        <voice>1</voice>
        <type>whole</type>
      </note>
      <note default-x="26">
        <chord/>
        <pitch>
          <step>B</step>
          <alter>-1</alter>
          <octave>3</octave>
        </pitch>
        <duration>8</duration>
        <voice>1</voice>
        <type>whole</type>
      </note>
    </measure>
    <!--=======================================================-->
    <measure number="5" width="157">
      <note default-x="22">
        <pitch>
          <step>F</step>
          <octave>3</octave>
        </pitch>
        <duration>4</duration>
        <voice>1</voice>
        <type>half</type>
        <stem default-y="-45">down</stem>
      </note>
      <note default-x="22">
        <chord/>
        <pitch>
          <step>A</step>
          <octave>3</octave>
        </pitch>
        <duration>4</duration>
        <voice>1</voice>
        <type>half</type>
        <stem>down</stem>
      </note>
      <note default-x="89">
        <pitch>
          <step>D</step>
          <octave>3</octave>
        </pitch>
        <duration>4</duration>
        <voice>1</voice>
        <type>half</type>
        <stem default-y="-55">down</stem>
      </note>
      <note default-x="89">
        <chord/>
        <pitch>
          <step>D</step>
          <octave>4</octave>
        </pitch>
        <duration>4</duration>
        <voice>1</voice>
        <type>half</type>
        <stem>down</stem>
      </note>
    </measure>
    <!--=======================================================-->
    <measure number="6" width="161">
      <note default-x="26">
        <pitch>
          <step>A</step>
          <octave>3</octave>
        </pitch>
        <duration>4</duration>
        <voice>1</voice>
        <type>half</type>
        <stem default-y="-35">down</stem>
      </note>
      <note default-x="26">
        <chord/>
        <pitch>
          <step>C</step>
          <alter>1</alter>
          <octave>4</octave>
        </pitch>
        <duration>4</duration>
        <voice>1</voice>
        <type>half</type>
        <accidental>sharp</accidental>
        <stem>down</stem>
      </note>
      <note default-x="93">
        <pitch>
          <step>F</step>
          <alter>1</alter>
          <octave>3</octave>
        </pitch>
        <duration>4</duration>
        <voice>1</voice>
        <type>half</type>
        <accidental>sharp</accidental>
        <stem default-y="-45">down</stem>
      </note>
      <note default-x="93">
        <chord/>
        <pitch>
          <step>C</step>
          <octave>4</octave>
        </pitch>
        <duration>4</duration>
        <voice>1</voice>
        <type>half</type>
        <accidental>natural</accidental>
        <stem>down</stem>
      </note>
    </measure>
    <!--=======================================================-->
    <measure number="7" width="210">
      <print new-system="yes">
        <staff-layout number="1">
          <staff-distance>163</staff-distance>
        </staff-layout>
      </print>
      <note default-x="62">
        <pitch>
          <step>G</step>
          <octave>3</octave>
        </pitch>
        <duration>4</duration>
        <voice>1</voice>
        <type>half</type>
        <stem default-y="-40">down</stem>
      </note>
      <note default-x="62">
        <chord/>
        <pitch>
          <step>B</step>
          <alter>-1</alter>
          <octave>3</octave>
        </pitch>
        <duration>4</duration>
        <voice>1</voice>
        <type>half</type>
        <stem>down</stem>
      </note>
      <note default-x="136">
        <pitch>
          <step>C</step>
          <octave>3</octave>
        </pitch>
        <duration>4</duration>
        <voice>1</voice>
        <type>half</type>
        <stem default-y="-53">down</stem>
      </note>
      <note default-x="136">
        <chord/>
        <pitch>
          <step>B</step>
          <alter>-1</alter>
          <octave>3</octave>
        </pitch>
        <duration>4</duration>
        <voice>1</voice>
        <type>half</type>
        <stem>down</stem>
      </note>
    </measure>
    <!--=======================================================-->
    <measure number="8" width="141">
      <note default-x="25">
        <pitch>
          <step>F</step>
          <octave>3</octave>
        </pitch>
        <duration>8</duration>
        <voice>1</voice>
        <type>whole</type>
      </note>
      <note default-x="25">
        <chord/>
        <pitch>
          <step>A</step>
          <octave>3</octave>
        </pitch>
        <duration>8</duration>
        <voice>1</voice>
        <type>whole</type>
      </note>
    </measure>
    <!--=======================================================-->
    <measure number="9" width="186">
      <note default-x="26">
        <pitch>
          <step>F</step>
          <octave>3</octave>
        </pitch>
        <duration>4</duration>
        <voice>1</voice>
        <type>half</type>
        <stem default-y="-45">down</stem>
      </note>
      <note default-x="26">
        <chord/>
        <pitch>
          <step>C</step>
          <octave>4</octave>
        </pitch>
        <duration>4</duration>
        <voice>1</voice>
        <type>half</type>
        <stem>down</stem>
      </note>
      <note default-x="106">
        <pitch>
          <step>F</step>
          <octave>3</octave>
        </pitch>
        <duration>4</duration>
        <voice>1</voice>
        <type>half</type>
        <stem default-y="-45">down</stem>
      </note>
      <note default-x="106">
        <chord/>
        <pitch>
          <step>B</step>
          <alter>-1</alter>
          <octave>3</octave>
        </pitch>
        <duration>4</duration>
        <voice>1</voice>
        <type>half</type>
        <stem>down</stem>
      </note>
    </measure>
    <!--=======================================================-->
    <measure number="10" width="157">
      <note default-x="17">
        <pitch>
          <step>F</step>
          <octave>3</octave>
        </pitch>
        <duration>4</duration>
        <voice>1</voice>
        <type>half</type>
        <stem default-y="-45">down</stem>
      </note>
      <note default-x="17">
        <chord/>
        <pitch>
          <step>D</step>
          <octave>4</octave>
        </pitch>
        <duration>4</duration>
        <voice>1</voice>
        <type>half</type>
        <stem>down</stem>
      </note>
      <note default-x="86">
        <pitch>
          <step>F</step>
          <octave>3</octave>
        </pitch>
        <duration>4</duration>
        <voice>1</voice>
        <type>half</type>
        <stem default-y="-45">down</stem>
      </note>
      <note default-x="86">
        <chord/>
        <pitch>
          <step>C</step>
          <octave>4</octave>
        </pitch>
        <duration>4</duration>
        <voice>1</voice>
        <type>half</type>
        <stem>down</stem>
      </note>
    </measure>
    <!--=======================================================-->
    <measure number="11" width="189">
      <note default-x="26">
        <pitch>
          <step>F</step>
          <octave>3</octave>
        </pitch>
        <duration>4</duration>
        <voice>1</voice>
        <type>half</type>
        <stem default-y="-45">down</stem>
      </note>
      <note default-x="26">
        <chord/>
        <pitch>
          <step>B</step>
          <octave>3</octave>
        </pitch>
        <duration>4</duration>
        <voice>1</voice>
        <type>half</type>
        <accidental>natural</accidental>
        <stem>down</stem>
      </note>
      <note default-x="98">
        <pitch>
          <step>F</step>
          <octave>3</octave>
        </pitch>
        <duration>4</duration>
        <voice>1</voice>
        <type>half</type>
        <stem default-y="-45">down</stem>
      </note>
      <note default-x="98">
        <chord/>
        <pitch>
          <step>C</step>
          <octave>4</octave>
        </pitch>
        <duration>4</duration>
        <voice>1</voice>
        <type>half</type>
        <stem>down</stem>
      </note>
    </measure>
    <!--=======================================================-->
    <measure number="12" width="138">
      <note default-x="22">
        <pitch>
          <step>C</step>
          <octave>3</octave>
        </pitch>
        <duration>8</duration>
        <voice>1</voice>
        <type>whole</type>
      </note>
      <note default-x="22">
        <chord/>
        <pitch>
          <step>B</step>
          <alter>-1</alter>
          <octave>3</octave>
        </pitch>
        <duration>8</duration>
        <voice>1</voice>
        <type>whole</type>
      </note>
    </measure>
    <!--=======================================================-->
    <measure number="13" width="233">
      <print new-system="yes">
        <staff-layout number="1">
          <staff-distance>175</staff-distance>
        </staff-layout>
      </print>
      <note default-x="69">
        <pitch>
          <step>A</step>
          <octave>3</octave>
        </pitch>
        <duration>2</duration>
        <voice>1</voice>
        <type>quarter</type>
        <stem default-y="28.5">up</stem>
        <notations>
          <slur bezier-x="7" bezier-y="13" default-x="18" default-y="18" number="1" orientation="over" type="start"/>
        </notations>
      </note>
      <backup>
        <duration>2</duration>
      </backup>
      <note default-x="69">
        <pitch>
          <step>F</step>
          <octave>3</octave>
        </pitch>
        <duration>4</duration>
        <voice>2</voice>
        <type>half</type>
        <stem default-y="-45">down</stem>
      </note>
      <backup>
        <duration>2</duration>
      </backup>
      <note default-x="114">
        <pitch>
          <step>C</step>
          <octave>4</octave>
        </pitch>
        <duration>2</duration>
        <voice>1</voice>
        <type>quarter</type>
        <stem default-y="38">up</stem>
        <notations>
          <slur bezier-x="-13" bezier-y="7" default-x="7" default-y="28" number="1" type="stop"/>
        </notations>
      </note>
      <note default-x="159">
        <pitch>
          <step>F</step>
          <alter>1</alter>
          <octave>3</octave>
        </pitch>
        <duration>4</duration>
        <voice>1</voice>
        <type>half</type>
        <accidental>sharp</accidental>
        <stem default-y="-45">down</stem>
      </note>
      <note default-x="159">
        <chord/>
        <pitch>
          <step>E</step>
          <alter>-1</alter>
          <octave>4</octave>
        </pitch>
        <duration>4</duration>
        <voice>1</voice>
        <type>half</type>
        <accidental>flat</accidental>
        <stem>down</stem>
      </note>
    </measure>
    <!--=======================================================-->
    <measure number="14" width="201">
      <note default-x="19">
        <pitch>
          <step>G</step>
          <octave>3</octave>
        </pitch>
        <duration>4</duration>
        <voice>1</voice>
        <type>half</type>
        <stem default-y="-40">down</stem>
      </note>
      <note default-x="19">
        <chord/>
        <pitch>
          <step>D</step>
          <octave>4</octave>
        </pitch>
        <duration>4</duration>
        <voice>1</voice>
        <type>half</type>
        <stem>down</stem>
      </note>
      <note default-x="109">
        <pitch>
          <step>B</step>
          <alter>-1</alter>
          <octave>2</octave>
        </pitch>
        <duration>4</duration>
        <voice>1</voice>
        <type>half</type>
        <stem default-y="-58">down</stem>
      </note>
      <note default-x="109">
        <chord/>
        <pitch>
          <step>B</step>
          <alter>-1</alter>
          <octave>3</octave>
        </pitch>
        <duration>4</duration>
        <voice>1</voice>
        <type>half</type>
        <stem>down</stem>
      </note>
    </measure>
    <!--=======================================================-->
    <measure number="15" width="162">
      <note default-x="16">
        <pitch>
          <step>C</step>
          <octave>3</octave>
        </pitch>
        <duration>4</duration>
        <voice>1</voice>
        <type>half</type>
        <stem default-y="-53">down</stem>
      </note>
      <note default-x="16">
        <chord/>
        <pitch>
          <step>A</step>
          <octave>3</octave>
        </pitch>
        <duration>4</duration>
        <voice>1</voice>
        <type>half</type>
        <stem>down</stem>
      </note>
      <note default-x="89">
        <pitch>
          <step>C</step>
          <octave>3</octave>
        </pitch>
        <duration>4</duration>
        <voice>1</voice>
        <type>half</type>
        <stem default-y="-53">down</stem>
      </note>
      <note default-x="89">
        <chord/>
        <pitch>
          <step>G</step>
          <octave>3</octave>
        </pitch>
        <duration>4</duration>
        <voice>1</voice>
        <type>half</type>
        <stem>down</stem>
      </note>
    </measure>
    <!--=======================================================-->
    <measure number="16" width="159">
      <note default-x="30">
        <pitch>
          <step>F</step>
          <octave>2</octave>
        </pitch>
        <duration>8</duration>
        <voice>1</voice>
        <type>whole</type>
      </note>
      <note default-x="30">
        <chord/>
        <pitch>
          <step>F</step>
          <octave>3</octave>
        </pitch>
        <duration>8</duration>
        <voice>1</voice>
        <type>whole</type>
      </note>
      <barline location="right">
        <bar-style>light-light</bar-style>
      </barline>
    </measure>
    <!--=======================================================-->
    <measure number="17" width="130">
      <note default-x="12">
        <pitch>
          <step>B</step>
          <alter>-1</alter>
          <octave>2</octave>
        </pitch>
        <duration>8</duration>
        <voice>1</voice>
        <type>whole</type>
      </note>
      <note default-x="12">
        <chord/>
        <pitch>
          <step>B</step>
          <alter>-1</alter>
          <octave>3</octave>
        </pitch>
        <duration>8</duration>
        <voice>1</voice>
        <type>whole</type>
      </note>
    </measure>
    <!--=======================================================-->
    <measure number="18" width="136">
      <note default-x="16">
        <pitch>
          <step>F</step>
          <octave>3</octave>
        </pitch>
        <duration>8</duration>
        <voice>1</voice>
        <type>whole</type>
      </note>
      <note default-x="16">
        <chord/>
        <pitch>
          <step>A</step>
          <octave>3</octave>
        </pitch>
        <duration>8</duration>
        <voice>1</voice>
        <type>whole</type>
      </note>
      <barline location="right">
        <bar-style>light-heavy</bar-style>
      </barline>
    </measure>
  </part>
  <!--=========================================================-->
</score-partwise>
