<?xml version="1.0" encoding="UTF-8" standalone="no"?>
<!DOCTYPE score-partwise PUBLIC "-//Recordare//DTD MusicXML 3.1 Partwise//EN" "http://www.musicxml.org/dtds/partwise.dtd">
<score-partwise version="3.1">
  <movement-title>SẴN LÒNG HẦU VIỆC</movement-title>
  <identification>
    <creator type="composer">Nhạc và lời: Trương Văn Xê</creator>
    <encoding>
      <software>Finale v26.3 for Windows</software>
      <encoding-date>2021-09-08</encoding-date>
      <supports attribute="new-system" element="print" type="yes" value="yes"/>
      <supports attribute="new-page" element="print" type="yes" value="yes"/>
      <supports element="accidental" type="yes"/>
      <supports element="beam" type="yes"/>
      <supports element="stem" type="yes"/>
    </encoding>
  </identification>
  <defaults>
    <scaling>
      <millimeters>7.2319</millimeters>
      <tenths>40</tenths>
    </scaling>
    <page-layout>
      <page-height>1643</page-height>
      <page-width>1161</page-width>
      <page-margins type="both">
        <left-margin>70</left-margin>
        <right-margin>70</right-margin>
        <top-margin>70</top-margin>
        <bottom-margin>70</bottom-margin>
      </page-margins>
    </page-layout>
    <system-layout>
      <system-margins>
        <left-margin>0</left-margin>
        <right-margin>0</right-margin>
      </system-margins>
      <system-distance>219</system-distance>
      <top-system-distance>180</top-system-distance>
    </system-layout>
    <staff-layout>
      <staff-distance>132</staff-distance>
    </staff-layout>
    <appearance>
      <line-width type="stem">1.1784</line-width>
      <line-width type="beam">5</line-width>
      <line-width type="staff">1.1784</line-width>
      <line-width type="light barline">1.1784</line-width>
      <line-width type="heavy barline">5</line-width>
      <line-width type="leger">1.1784</line-width>
      <line-width type="ending">1.1784</line-width>
      <line-width type="wedge">0.7682</line-width>
      <line-width type="enclosure">1.1784</line-width>
      <line-width type="tuplet bracket">0.7487</line-width>
      <note-size type="grace">60</note-size>
      <note-size type="cue">60</note-size>
      <distance type="hyphen">120</distance>
      <distance type="beam">7.5</distance>
    </appearance>
    <music-font font-family="Maestro,engraved" font-size="20.5"/>
    <word-font font-family="Myriad Pro" font-size="10.25"/>
    <lyric-font font-family="Myriad Pro" font-size="12" name="verse"/>
    <lyric-font font-family="Myriad Pro" font-size="12" name="chorus"/>
  </defaults>
  <credit page="1">
    <credit-type>title</credit-type>
    <credit-words default-x="581" default-y="1573" font-size="22" font-weight="bold" justify="center" valign="top">SẴN LÒNG HẦU VIỆC</credit-words>
  </credit>
  <credit page="1">
    <credit-words default-x="70" default-y="1573" font-size="22" font-weight="bold" valign="top">840</credit-words>
  </credit>
  <credit page="1">
    <credit-type>composer</credit-type>
    <credit-words default-x="1091" default-y="119" font-size="12" halign="right" valign="bottom">Nhạc và lời: Trương Văn Xê</credit-words>
  </credit>
  <part-list>
    <part-group number="1" type="start">
      <group-symbol default-x="-7">bracket</group-symbol>
      <group-barline>no</group-barline>
    </part-group>
    <score-part id="P1">
      <part-name print-object="no">MusicXML Part</part-name>
      <score-instrument id="P1-I1">
        <instrument-name>Grand Piano</instrument-name>
      </score-instrument>
      <midi-instrument id="P1-I1">
        <midi-channel>1</midi-channel>
        <midi-program>1</midi-program>
        <volume>80</volume>
        <pan>0</pan>
      </midi-instrument>
    </score-part>
    <score-part id="P2">
      <part-name print-object="no">MusicXML Part</part-name>
      <score-instrument id="P2-I1">
        <instrument-name>Grand Piano</instrument-name>
      </score-instrument>
      <midi-instrument id="P2-I1">
        <midi-channel>1</midi-channel>
        <midi-program>1</midi-program>
        <volume>80</volume>
        <pan>0</pan>
      </midi-instrument>
    </score-part>
    <part-group number="1" type="stop"/>
  </part-list>
  <!--=========================================================-->
  <part id="P1">
    <?SmartMusic maxVoice=1?>
    <measure number="1" width="267">
      <print>
        <system-layout>
          <top-system-distance>155</top-system-distance>
        </system-layout>
        <measure-numbering>none</measure-numbering>
      </print>
      <attributes>
        <divisions>4</divisions>
        <key>
          <fifths>-1</fifths>
          <mode>major</mode>
        </key>
        <time>
          <beats>4</beats>
          <beat-type>4</beat-type>
        </time>
        <clef>
          <sign>G</sign>
          <line>2</line>
        </clef>
      </attributes>
      <sound tempo="104"/>
      <note default-x="110">
        <pitch>
          <step>F</step>
          <octave>4</octave>
        </pitch>
        <duration>2</duration>
        <voice>1</voice>
        <type>eighth</type>
        <stem default-y="10">up</stem>
        <lyric default-y="-98" name="verse" number="1">
          <syllabic>single</syllabic>
          <text>1.Như</text>
        </lyric>
        <lyric default-y="-128" name="verse" number="2">
          <syllabic>single</syllabic>
          <text>2.Tai</text>
        </lyric>
        <lyric default-y="-158" name="verse" number="3">
          <syllabic>single</syllabic>
          <text>3.Quanh</text>
        </lyric>
      </note>
      <note default-x="110">
        <chord/>
        <pitch>
          <step>A</step>
          <octave>4</octave>
        </pitch>
        <duration>2</duration>
        <voice>1</voice>
        <type>eighth</type>
        <stem>up</stem>
      </note>
      <note default-x="180">
        <pitch>
          <step>F</step>
          <octave>4</octave>
        </pitch>
        <duration>2</duration>
        <voice>1</voice>
        <type>eighth</type>
        <stem default-y="10">up</stem>
        <lyric default-y="-98" name="verse" number="1">
          <syllabic>single</syllabic>
          <text>bao</text>
        </lyric>
        <lyric default-y="-128" name="verse" number="2">
          <syllabic>single</syllabic>
          <text>con</text>
        </lyric>
        <lyric default-y="-158" name="verse" number="3">
          <syllabic>single</syllabic>
          <text>đây</text>
        </lyric>
      </note>
      <note default-x="180">
        <chord/>
        <pitch>
          <step>A</step>
          <octave>4</octave>
        </pitch>
        <duration>2</duration>
        <voice>1</voice>
        <type>eighth</type>
        <stem>up</stem>
      </note>
      <note default-x="229">
        <pitch>
          <step>A</step>
          <octave>4</octave>
        </pitch>
        <duration>2</duration>
        <voice>1</voice>
        <type>eighth</type>
        <stem default-y="-60">down</stem>
        <lyric default-y="-98" name="verse" number="1">
          <syllabic>single</syllabic>
          <text>áng</text>
        </lyric>
        <lyric default-y="-128" name="verse" number="2">
          <syllabic>single</syllabic>
          <text>lắng</text>
        </lyric>
        <lyric default-y="-158" name="verse" number="3">
          <syllabic>single</syllabic>
          <text>biết</text>
        </lyric>
      </note>
      <note default-x="229">
        <chord/>
        <pitch>
          <step>C</step>
          <octave>5</octave>
        </pitch>
        <duration>2</duration>
        <voice>1</voice>
        <type>eighth</type>
        <stem>down</stem>
      </note>
    </measure>
    <!--=======================================================-->
    <measure number="2" width="250">
      <harmony default-y="33" font-family="VNI-Helve-Condense" font-size="13.7">
        <root>
          <root-step>F</root-step>
        </root>
        <kind halign="center" text="">major</kind>
      </harmony>
      <note default-x="14">
        <pitch>
          <step>F</step>
          <octave>4</octave>
        </pitch>
        <duration>4</duration>
        <voice>1</voice>
        <type>quarter</type>
        <stem>double</stem>
        <lyric default-y="-98" name="verse" number="1">
          <syllabic>single</syllabic>
          <text>mây</text>
        </lyric>
        <lyric default-y="-128" name="verse" number="2" relative-x="5">
          <syllabic>single</syllabic>
          <text>nghe</text>
        </lyric>
        <lyric default-y="-158" name="verse" number="3">
          <syllabic>single</syllabic>
          <text>bao</text>
        </lyric>
      </note>
      <note default-x="80">
        <pitch>
          <step>C</step>
          <octave>4</octave>
        </pitch>
        <duration>4</duration>
        <voice>1</voice>
        <type>quarter</type>
        <stem default-y="-5">up</stem>
        <lyric default-y="-98" name="verse" number="1">
          <syllabic>single</syllabic>
          <text>cho</text>
        </lyric>
        <lyric default-y="-128" name="verse" number="2">
          <syllabic>single</syllabic>
          <text>vâng</text>
        </lyric>
        <lyric default-y="-158" name="verse" number="3">
          <syllabic>single</syllabic>
          <text>nhiêu</text>
        </lyric>
      </note>
      <note default-x="80">
        <chord/>
        <pitch>
          <step>E</step>
          <octave>4</octave>
        </pitch>
        <duration>4</duration>
        <voice>1</voice>
        <type>quarter</type>
        <stem>up</stem>
      </note>
      <harmony default-y="33" font-family="VNI-Helve-Condense" font-size="13.7">
        <root>
          <root-step>B</root-step>
          <root-alter>-1</root-alter>
        </root>
        <kind halign="center" text="">major</kind>
      </harmony>
      <note default-x="145">
        <pitch>
          <step>B</step>
          <alter>-1</alter>
          <octave>3</octave>
        </pitch>
        <duration>4</duration>
        <voice>1</voice>
        <type>quarter</type>
        <stem default-y="-10">up</stem>
        <lyric default-y="-98" name="verse" number="1">
          <syllabic>single</syllabic>
          <text>đời</text>
        </lyric>
        <lyric default-y="-128" name="verse" number="2">
          <syllabic>single</syllabic>
          <text>lời</text>
        </lyric>
        <lyric default-y="-158" name="verse" number="3">
          <syllabic>single</syllabic>
          <text>người</text>
        </lyric>
      </note>
      <note default-x="145">
        <chord/>
        <pitch>
          <step>D</step>
          <octave>4</octave>
        </pitch>
        <duration>4</duration>
        <voice>1</voice>
        <type>quarter</type>
        <stem>up</stem>
      </note>
      <note default-x="207">
        <pitch>
          <step>D</step>
          <octave>4</octave>
        </pitch>
        <duration>4</duration>
        <voice>1</voice>
        <type>quarter</type>
        <stem default-y="15">up</stem>
        <lyric default-y="-98" name="verse" number="1">
          <syllabic>single</syllabic>
          <text>bóng</text>
        </lyric>
        <lyric default-y="-128" name="verse" number="2">
          <syllabic>single</syllabic>
          <text>Chúa</text>
        </lyric>
        <lyric default-y="-158" name="verse" number="3">
          <syllabic>single</syllabic>
          <text>khốn</text>
        </lyric>
      </note>
      <note default-x="207">
        <chord/>
        <pitch>
          <step>B</step>
          <alter>-1</alter>
          <octave>4</octave>
        </pitch>
        <duration>4</duration>
        <voice>1</voice>
        <type>quarter</type>
        <stem>up</stem>
      </note>
    </measure>
    <!--=======================================================-->
    <measure number="3" width="276">
      <harmony default-y="33" font-family="VNI-Helve-Condense" font-size="13.7">
        <root>
          <root-step>B</root-step>
          <root-alter>-1</root-alter>
        </root>
        <kind halign="center" text="">major</kind>
      </harmony>
      <note default-x="14">
        <pitch>
          <step>D</step>
          <octave>4</octave>
        </pitch>
        <duration>8</duration>
        <tie type="start"/>
        <voice>1</voice>
        <type>half</type>
        <stem default-y="15">up</stem>
        <notations>
          <tied type="start"/>
        </notations>
        <lyric default-y="-98" name="verse" number="1">
          <syllabic>single</syllabic>
          <text>mát,</text>
        </lyric>
        <lyric default-y="-128" name="verse" number="2" relative-x="5">
          <syllabic>single</syllabic>
          <text>phán,</text>
        </lyric>
        <lyric default-y="-158" name="verse" number="3">
          <syllabic>single</syllabic>
          <text>khó,</text>
        </lyric>
      </note>
      <note default-x="14">
        <chord/>
        <pitch>
          <step>B</step>
          <alter>-1</alter>
          <octave>4</octave>
        </pitch>
        <duration>8</duration>
        <tie type="start"/>
        <voice>1</voice>
        <type>half</type>
        <stem>up</stem>
        <notations>
          <tied type="start"/>
        </notations>
      </note>
      <note default-x="63">
        <pitch>
          <step>D</step>
          <octave>4</octave>
        </pitch>
        <duration>2</duration>
        <tie type="stop"/>
        <voice>1</voice>
        <type>eighth</type>
        <stem default-y="15">up</stem>
        <notations>
          <tied type="stop"/>
        </notations>
      </note>
      <note default-x="63">
        <chord/>
        <pitch>
          <step>B</step>
          <alter>-1</alter>
          <octave>4</octave>
        </pitch>
        <duration>2</duration>
        <tie type="stop"/>
        <voice>1</voice>
        <type>eighth</type>
        <stem>up</stem>
        <notations>
          <tied type="stop"/>
        </notations>
      </note>
      <note default-x="107">
        <pitch>
          <step>D</step>
          <octave>4</octave>
        </pitch>
        <duration>2</duration>
        <voice>1</voice>
        <type>eighth</type>
        <stem default-y="5">up</stem>
        <lyric default-y="-98" name="verse" number="1">
          <syllabic>single</syllabic>
          <text>con</text>
        </lyric>
        <lyric default-y="-128" name="verse" number="2">
          <syllabic>single</syllabic>
          <text>chân</text>
        </lyric>
        <lyric default-y="-158" name="verse" number="3">
          <syllabic>single</syllabic>
          <text>con</text>
        </lyric>
      </note>
      <note default-x="107">
        <chord/>
        <pitch>
          <step>G</step>
          <octave>4</octave>
        </pitch>
        <duration>2</duration>
        <voice>1</voice>
        <type>eighth</type>
        <stem>up</stem>
      </note>
      <note default-x="170">
        <pitch>
          <step>D</step>
          <octave>4</octave>
        </pitch>
        <duration>2</duration>
        <voice>1</voice>
        <type>eighth</type>
        <stem default-y="5">up</stem>
        <lyric default-y="-98" name="verse" number="1">
          <syllabic>single</syllabic>
          <text>mong</text>
        </lyric>
        <lyric default-y="-128" name="verse" number="2">
          <syllabic>single</syllabic>
          <text>luôn</text>
        </lyric>
        <lyric default-y="-158" name="verse" number="3">
          <syllabic>single</syllabic>
          <text>xin</text>
        </lyric>
      </note>
      <note default-x="170">
        <chord/>
        <pitch>
          <step>G</step>
          <octave>4</octave>
        </pitch>
        <duration>2</duration>
        <voice>1</voice>
        <type>eighth</type>
        <stem>up</stem>
      </note>
      <note default-x="234">
        <pitch>
          <step>D</step>
          <octave>4</octave>
        </pitch>
        <duration>2</duration>
        <voice>1</voice>
        <type>eighth</type>
        <stem default-y="15">up</stem>
        <lyric default-y="-98" name="verse" number="1">
          <syllabic>single</syllabic>
          <text>ước</text>
        </lyric>
        <lyric default-y="-128" name="verse" number="2">
          <syllabic>single</syllabic>
          <text>bước</text>
        </lyric>
        <lyric default-y="-158" name="verse" number="3">
          <syllabic>single</syllabic>
          <text>dốc</text>
        </lyric>
      </note>
      <note default-x="234">
        <chord/>
        <pitch>
          <step>B</step>
          <alter>-1</alter>
          <octave>4</octave>
        </pitch>
        <duration>2</duration>
        <voice>1</voice>
        <type>eighth</type>
        <stem>up</stem>
      </note>
    </measure>
    <!--=======================================================-->
    <measure number="4" width="228">
      <harmony default-y="33" font-family="VNI-Helve-Condense" font-size="13.7">
        <root>
          <root-step>C</root-step>
        </root>
        <kind halign="center" text="7">dominant</kind>
      </harmony>
      <note default-x="16">
        <pitch>
          <step>C</step>
          <octave>4</octave>
        </pitch>
        <duration>4</duration>
        <voice>1</voice>
        <type>quarter</type>
        <stem default-y="-5">up</stem>
        <lyric default-y="-98" name="verse" number="1">
          <syllabic>single</syllabic>
          <text>luôn</text>
        </lyric>
        <lyric default-y="-128" name="verse" number="2">
          <syllabic>single</syllabic>
          <text>đi</text>
        </lyric>
        <lyric default-y="-158" name="verse" number="3">
          <syllabic>single</syllabic>
          <text>tâm</text>
        </lyric>
      </note>
      <note default-x="16">
        <chord/>
        <pitch>
          <step>E</step>
          <octave>4</octave>
        </pitch>
        <duration>4</duration>
        <voice>1</voice>
        <type>quarter</type>
        <stem>up</stem>
      </note>
      <note default-x="70">
        <pitch>
          <step>D</step>
          <octave>4</octave>
        </pitch>
        <duration>4</duration>
        <voice>1</voice>
        <type>quarter</type>
        <stem default-y="-10">up</stem>
        <lyric default-y="-98" name="verse" number="1">
          <syllabic>single</syllabic>
          <text>yêu</text>
        </lyric>
        <lyric default-y="-128" name="verse" number="2">
          <syllabic>single</syllabic>
          <text>theo</text>
        </lyric>
        <lyric default-y="-158" name="verse" number="3">
          <syllabic>single</syllabic>
          <text>vui</text>
        </lyric>
      </note>
      <backup>
        <duration>4</duration>
      </backup>
      <note default-x="82">
        <pitch>
          <step>C</step>
          <octave>4</octave>
        </pitch>
        <duration>4</duration>
        <voice>2</voice>
        <type>quarter</type>
        <stem default-y="-78">down</stem>
      </note>
      <note default-x="129">
        <pitch>
          <step>C</step>
          <octave>4</octave>
        </pitch>
        <duration>4</duration>
        <voice>1</voice>
        <type>quarter</type>
        <stem>double</stem>
        <lyric default-y="-98" name="verse" number="1">
          <syllabic>single</syllabic>
          <text>người</text>
        </lyric>
        <lyric default-y="-128" name="verse" number="2">
          <syllabic>single</syllabic>
          <text>Ngài</text>
        </lyric>
        <lyric default-y="-158" name="verse" number="3">
          <syllabic>single</syllabic>
          <text>lòng</text>
        </lyric>
      </note>
      <note default-x="189">
        <pitch>
          <step>G</step>
          <octave>4</octave>
        </pitch>
        <duration>4</duration>
        <voice>1</voice>
        <type>quarter</type>
        <stem default-y="15">up</stem>
        <lyric default-y="-98" name="verse" number="1">
          <syllabic>single</syllabic>
          <text>thiết</text>
        </lyric>
        <lyric default-y="-128" name="verse" number="2">
          <syllabic>single</syllabic>
          <text>tín</text>
        </lyric>
        <lyric default-y="-158" name="verse" number="3">
          <syllabic>single</syllabic>
          <text>sẻ</text>
        </lyric>
      </note>
      <note default-x="189">
        <chord/>
        <pitch>
          <step>B</step>
          <alter>-1</alter>
          <octave>4</octave>
        </pitch>
        <duration>4</duration>
        <voice>1</voice>
        <type>quarter</type>
        <stem>up</stem>
      </note>
    </measure>
    <!--=======================================================-->
    <measure number="5" width="321">
      <print new-system="yes">
        <system-layout>
          <system-distance>112</system-distance>
        </system-layout>
      </print>
      <harmony default-y="33" font-family="VNI-Helve-Condense" font-size="13.7">
        <root>
          <root-step>F</root-step>
        </root>
        <kind halign="center" text="">major</kind>
      </harmony>
      <note default-x="63">
        <pitch>
          <step>F</step>
          <octave>4</octave>
        </pitch>
        <duration>8</duration>
        <voice>1</voice>
        <type>half</type>
        <stem default-y="10">up</stem>
        <lyric default-y="-98" name="verse" number="1" relative-x="8">
          <syllabic>single</syllabic>
          <text>tha.</text>
        </lyric>
        <lyric default-y="-128" name="verse" number="2" relative-x="8">
          <syllabic>single</syllabic>
          <text>trung.</text>
        </lyric>
        <lyric default-y="-158" name="verse" number="3" relative-x="8">
          <syllabic>single</syllabic>
          <text>chia.</text>
        </lyric>
      </note>
      <note default-x="63">
        <chord/>
        <pitch>
          <step>A</step>
          <octave>4</octave>
        </pitch>
        <duration>8</duration>
        <voice>1</voice>
        <type>half</type>
        <stem>up</stem>
      </note>
      <note default-x="135">
        <rest/>
        <duration>2</duration>
        <voice>1</voice>
        <type>eighth</type>
      </note>
      <note default-x="169">
        <pitch>
          <step>F</step>
          <octave>4</octave>
        </pitch>
        <duration>2</duration>
        <voice>1</voice>
        <type>eighth</type>
        <stem default-y="10">up</stem>
        <lyric default-y="-98" name="verse" number="1">
          <syllabic>single</syllabic>
          <text>Như</text>
        </lyric>
        <lyric default-y="-128" name="verse" number="2">
          <syllabic>single</syllabic>
          <text>Tâm</text>
        </lyric>
        <lyric default-y="-158" name="verse" number="3">
          <syllabic>single</syllabic>
          <text>Ai</text>
        </lyric>
      </note>
      <note default-x="169">
        <chord/>
        <pitch>
          <step>A</step>
          <octave>4</octave>
        </pitch>
        <duration>2</duration>
        <voice>1</voice>
        <type>eighth</type>
        <stem>up</stem>
      </note>
      <note default-x="225">
        <pitch>
          <step>F</step>
          <octave>4</octave>
        </pitch>
        <duration>2</duration>
        <voice>1</voice>
        <type>eighth</type>
        <stem default-y="10">up</stem>
        <lyric default-y="-98" name="verse" number="1">
          <syllabic>single</syllabic>
          <text>mưa</text>
        </lyric>
        <lyric default-y="-128" name="verse" number="2">
          <syllabic>single</syllabic>
          <text>con</text>
        </lyric>
        <lyric default-y="-158" name="verse" number="3">
          <syllabic>single</syllabic>
          <text>đang</text>
        </lyric>
      </note>
      <note default-x="225">
        <chord/>
        <pitch>
          <step>A</step>
          <octave>4</octave>
        </pitch>
        <duration>2</duration>
        <voice>1</voice>
        <type>eighth</type>
        <stem>up</stem>
      </note>
      <note default-x="280">
        <pitch>
          <step>A</step>
          <octave>4</octave>
        </pitch>
        <duration>2</duration>
        <voice>1</voice>
        <type>eighth</type>
        <stem default-y="-60">down</stem>
        <lyric default-y="-98" name="verse" number="1">
          <syllabic>single</syllabic>
          <text>tưới</text>
        </lyric>
        <lyric default-y="-128" name="verse" number="2">
          <syllabic>single</syllabic>
          <text>hứa</text>
        </lyric>
        <lyric default-y="-158" name="verse" number="3">
          <syllabic>single</syllabic>
          <text>thất</text>
        </lyric>
      </note>
      <note default-x="280">
        <chord/>
        <pitch>
          <step>C</step>
          <octave>5</octave>
        </pitch>
        <duration>2</duration>
        <voice>1</voice>
        <type>eighth</type>
        <stem>down</stem>
      </note>
    </measure>
    <!--=======================================================-->
    <measure number="6" width="410">
      <note default-x="14">
        <pitch>
          <step>F</step>
          <octave>4</octave>
        </pitch>
        <duration>4</duration>
        <voice>1</voice>
        <type>quarter</type>
        <stem>double</stem>
        <lyric default-y="-98" name="verse" number="1">
          <syllabic>single</syllabic>
          <text>vào</text>
        </lyric>
        <lyric default-y="-128" name="verse" number="2" relative-x="17">
          <syllabic>single</syllabic>
          <text>nguyện</text>
        </lyric>
        <lyric default-y="-158" name="verse" number="3" relative-x="5">
          <syllabic>single</syllabic>
          <text>vọng</text>
        </lyric>
      </note>
      <note default-x="103">
        <pitch>
          <step>F</step>
          <octave>4</octave>
        </pitch>
        <duration>4</duration>
        <voice>1</voice>
        <type>quarter</type>
        <stem default-y="10">up</stem>
        <lyric default-y="-98" name="verse" number="1">
          <syllabic>single</syllabic>
          <text>vườn</text>
        </lyric>
        <lyric default-y="-128" name="verse" number="2">
          <syllabic>single</syllabic>
          <text>hằng</text>
        </lyric>
        <lyric default-y="-158" name="verse" number="3">
          <syllabic>single</syllabic>
          <text>vì</text>
        </lyric>
      </note>
      <note default-x="103">
        <chord/>
        <pitch>
          <step>A</step>
          <octave>4</octave>
        </pitch>
        <duration>4</duration>
        <voice>1</voice>
        <type>quarter</type>
        <stem>up</stem>
      </note>
      <note default-x="189">
        <pitch>
          <step>F</step>
          <octave>4</octave>
        </pitch>
        <duration>2</duration>
        <voice>1</voice>
        <type>eighth</type>
        <stem default-y="20">up</stem>
        <lyric default-y="-98" name="verse" number="1">
          <syllabic>single</syllabic>
          <text>cây</text>
        </lyric>
        <lyric default-y="-128" name="verse" number="2">
          <syllabic>single</syllabic>
          <text>chăm</text>
        </lyric>
        <lyric default-y="-158" name="verse" number="3">
          <syllabic>single</syllabic>
          <text>tương</text>
        </lyric>
      </note>
      <note default-x="189">
        <chord/>
        <pitch>
          <step>C</step>
          <octave>5</octave>
        </pitch>
        <duration>2</duration>
        <voice>1</voice>
        <type>eighth</type>
        <stem>up</stem>
      </note>
      <note default-x="245">
        <pitch>
          <step>A</step>
          <octave>4</octave>
        </pitch>
        <duration>2</duration>
        <voice>1</voice>
        <type>eighth</type>
        <stem default-y="-60">down</stem>
        <lyric default-y="-98" name="verse" number="1">
          <syllabic>single</syllabic>
          <text>khô</text>
        </lyric>
        <lyric default-y="-128" name="verse" number="2">
          <syllabic>single</syllabic>
          <text>lo</text>
        </lyric>
        <lyric default-y="-158" name="verse" number="3">
          <syllabic>single</syllabic>
          <text>lai</text>
        </lyric>
      </note>
      <note default-x="245">
        <chord/>
        <pitch>
          <step>C</step>
          <octave>5</octave>
        </pitch>
        <duration>2</duration>
        <voice>1</voice>
        <type>eighth</type>
        <stem>down</stem>
      </note>
      <note default-x="300">
        <pitch>
          <step>A</step>
          <octave>4</octave>
        </pitch>
        <duration>2</duration>
        <voice>1</voice>
        <type>eighth</type>
        <stem default-y="-60">down</stem>
        <lyric default-y="-98" name="verse" number="1">
          <syllabic>single</syllabic>
          <text>đang</text>
        </lyric>
        <lyric default-y="-128" name="verse" number="2">
          <syllabic>single</syllabic>
          <text>công</text>
        </lyric>
        <lyric default-y="-158" name="verse" number="3">
          <syllabic>single</syllabic>
          <text>trong</text>
        </lyric>
      </note>
      <note default-x="300">
        <chord/>
        <pitch>
          <step>C</step>
          <octave>5</octave>
        </pitch>
        <duration>2</duration>
        <voice>1</voice>
        <type>eighth</type>
        <stem>down</stem>
      </note>
      <note default-x="356">
        <pitch>
          <step>G</step>
          <octave>4</octave>
        </pitch>
        <duration>2</duration>
        <voice>1</voice>
        <type>eighth</type>
        <stem default-y="15">up</stem>
        <lyric default-y="-98" name="verse" number="1">
          <syllabic>single</syllabic>
          <text>cần</text>
        </lyric>
        <lyric default-y="-128" name="verse" number="2">
          <syllabic>single</syllabic>
          <text>việc</text>
        </lyric>
        <lyric default-y="-158" name="verse" number="3">
          <syllabic>single</syllabic>
          <text>mờ</text>
        </lyric>
      </note>
      <note default-x="356">
        <chord/>
        <pitch>
          <step>B</step>
          <alter>-1</alter>
          <octave>4</octave>
        </pitch>
        <duration>2</duration>
        <voice>1</voice>
        <type>eighth</type>
        <stem>up</stem>
      </note>
    </measure>
    <!--=======================================================-->
    <measure number="7" width="291">
      <harmony default-y="33" font-family="VNI-Helve-Condense" font-size="13.7">
        <root>
          <root-step>B</root-step>
          <root-alter>-1</root-alter>
        </root>
        <kind halign="center" text="">major</kind>
        <bass>
          <bass-step>D</bass-step>
        </bass>
      </harmony>
      <note default-x="14">
        <pitch>
          <step>F</step>
          <octave>4</octave>
        </pitch>
        <duration>8</duration>
        <tie type="start"/>
        <voice>1</voice>
        <type>half</type>
        <stem default-y="28.5">up</stem>
        <notations>
          <tied type="start"/>
        </notations>
        <lyric default-y="-98" name="verse" number="1" relative-x="5">
          <syllabic>single</syllabic>
          <text>nước,</text>
        </lyric>
        <lyric default-y="-128" name="verse" number="2" relative-x="9">
          <syllabic>single</syllabic>
          <text>thánh,</text>
        </lyric>
        <lyric default-y="-158" name="verse" number="3">
          <syllabic>single</syllabic>
          <text>tối,</text>
        </lyric>
      </note>
      <note default-x="14">
        <chord/>
        <pitch>
          <step>D</step>
          <octave>5</octave>
        </pitch>
        <duration>8</duration>
        <tie type="start"/>
        <voice>1</voice>
        <type>half</type>
        <stem>up</stem>
        <notations>
          <tied type="start"/>
        </notations>
      </note>
      <harmony default-y="33" font-family="VNI-Helve-Condense" font-size="13.7">
        <root>
          <root-step>C</root-step>
        </root>
        <kind halign="center" text="7">dominant</kind>
      </harmony>
      <note default-x="89">
        <pitch>
          <step>F</step>
          <octave>4</octave>
        </pitch>
        <duration>2</duration>
        <tie type="stop"/>
        <voice>1</voice>
        <type>eighth</type>
        <stem default-y="25">up</stem>
        <notations>
          <tied type="stop"/>
        </notations>
      </note>
      <note default-x="89">
        <chord/>
        <pitch>
          <step>D</step>
          <octave>5</octave>
        </pitch>
        <duration>2</duration>
        <tie type="stop"/>
        <voice>1</voice>
        <type>eighth</type>
        <stem>up</stem>
        <notations>
          <tied type="stop"/>
        </notations>
      </note>
      <note default-x="139">
        <pitch>
          <step>E</step>
          <octave>4</octave>
        </pitch>
        <duration>2</duration>
        <voice>1</voice>
        <type>eighth</type>
        <stem default-y="5">up</stem>
        <lyric default-y="-98" name="verse" number="1">
          <syllabic>single</syllabic>
          <text>mang</text>
        </lyric>
        <lyric default-y="-128" name="verse" number="2">
          <syllabic>single</syllabic>
          <text>xin</text>
        </lyric>
        <lyric default-y="-158" name="verse" number="3">
          <syllabic>single</syllabic>
          <text>con</text>
        </lyric>
      </note>
      <note default-x="139">
        <chord/>
        <pitch>
          <step>G</step>
          <octave>4</octave>
        </pitch>
        <duration>2</duration>
        <voice>1</voice>
        <type>eighth</type>
        <stem>up</stem>
      </note>
      <note default-x="195">
        <pitch>
          <step>E</step>
          <octave>4</octave>
        </pitch>
        <duration>2</duration>
        <voice>1</voice>
        <type>eighth</type>
        <stem default-y="5">up</stem>
        <lyric default-y="-98" name="verse" number="1">
          <syllabic>single</syllabic>
          <text>bao</text>
        </lyric>
        <lyric default-y="-128" name="verse" number="2">
          <syllabic>single</syllabic>
          <text>cho</text>
        </lyric>
        <lyric default-y="-158" name="verse" number="3">
          <syllabic>single</syllabic>
          <text>vui</text>
        </lyric>
      </note>
      <note default-x="195">
        <chord/>
        <pitch>
          <step>G</step>
          <octave>4</octave>
        </pitch>
        <duration>2</duration>
        <voice>1</voice>
        <type>eighth</type>
        <stem>up</stem>
      </note>
      <note default-x="247">
        <pitch>
          <step>E</step>
          <octave>4</octave>
        </pitch>
        <duration>2</duration>
        <voice>1</voice>
        <type>eighth</type>
        <stem default-y="15">up</stem>
        <lyric default-y="-98" name="verse" number="1">
          <syllabic>single</syllabic>
          <text>ước</text>
        </lyric>
        <lyric default-y="-128" name="verse" number="2">
          <syllabic>single</syllabic>
          <text>mắt</text>
        </lyric>
        <lyric default-y="-158" name="verse" number="3">
          <syllabic>single</syllabic>
          <text>giúp</text>
        </lyric>
      </note>
      <note default-x="247">
        <chord/>
        <pitch>
          <step>B</step>
          <alter>-1</alter>
          <octave>4</octave>
        </pitch>
        <duration>2</duration>
        <voice>1</voice>
        <type>eighth</type>
        <stem>up</stem>
      </note>
    </measure>
    <!--=======================================================-->
    <measure number="8" width="452">
      <print new-system="yes">
        <system-layout>
          <system-distance>112</system-distance>
        </system-layout>
      </print>
      <harmony default-y="33" font-family="VNI-Helve-Condense" font-size="13.7">
        <root>
          <root-step>C</root-step>
        </root>
        <kind halign="center" text="7">dominant</kind>
      </harmony>
      <note default-x="63">
        <pitch>
          <step>C</step>
          <octave>4</octave>
        </pitch>
        <duration>4</duration>
        <voice>1</voice>
        <type>quarter</type>
        <stem default-y="-5">up</stem>
        <lyric default-y="-98" name="verse" number="1" relative-x="6">
          <syllabic>single</syllabic>
          <text>vọng</text>
        </lyric>
        <lyric default-y="-128" name="verse" number="2" relative-x="6">
          <syllabic>single</syllabic>
          <text>con</text>
        </lyric>
        <lyric default-y="-161" name="verse" number="3" relative-x="6">
          <syllabic>single</syllabic>
          <text>người</text>
        </lyric>
      </note>
      <note default-x="63">
        <chord/>
        <pitch>
          <step>E</step>
          <octave>4</octave>
        </pitch>
        <duration>4</duration>
        <voice>1</voice>
        <type>quarter</type>
        <stem>up</stem>
      </note>
      <note default-x="143">
        <pitch>
          <step>A</step>
          <octave>3</octave>
        </pitch>
        <duration>4</duration>
        <voice>1</voice>
        <type>quarter</type>
        <stem default-y="-10">up</stem>
        <lyric default-y="-98" name="verse" number="1">
          <syllabic>single</syllabic>
          <text>hầu</text>
        </lyric>
        <lyric default-y="-128" name="verse" number="2">
          <syllabic>single</syllabic>
          <text>luôn</text>
        </lyric>
        <lyric default-y="-161" name="verse" number="3">
          <syllabic>single</syllabic>
          <text>quay</text>
        </lyric>
      </note>
      <note default-x="143">
        <chord/>
        <pitch>
          <step>D</step>
          <octave>4</octave>
        </pitch>
        <duration>4</duration>
        <voice>1</voice>
        <type>quarter</type>
        <stem>up</stem>
      </note>
      <note default-x="216">
        <pitch>
          <step>C</step>
          <octave>4</octave>
        </pitch>
        <duration>2</duration>
        <voice>1</voice>
        <type>eighth</type>
        <stem>double</stem>
        <lyric default-y="-98" name="verse" number="1">
          <syllabic>single</syllabic>
          <text>việc</text>
        </lyric>
        <lyric default-y="-128" name="verse" number="2">
          <syllabic>single</syllabic>
          <text>nhìn</text>
        </lyric>
        <lyric default-y="-161" name="verse" number="3">
          <syllabic>single</syllabic>
          <text>về</text>
        </lyric>
      </note>
      <note default-x="274">
        <pitch>
          <step>E</step>
          <octave>4</octave>
        </pitch>
        <duration>2</duration>
        <voice>1</voice>
        <type>eighth</type>
        <stem default-y="5">up</stem>
        <lyric default-y="-98" name="verse" number="1">
          <syllabic>single</syllabic>
          <text>Cha</text>
        </lyric>
        <lyric default-y="-128" name="verse" number="2">
          <syllabic>single</syllabic>
          <text>theo</text>
        </lyric>
        <lyric default-y="-161" name="verse" number="3">
          <syllabic>single</syllabic>
          <text>bên</text>
        </lyric>
      </note>
      <note default-x="274">
        <chord/>
        <pitch>
          <step>G</step>
          <octave>4</octave>
        </pitch>
        <duration>2</duration>
        <voice>1</voice>
        <type>eighth</type>
        <stem>up</stem>
      </note>
      <note default-x="338">
        <pitch>
          <step>G</step>
          <octave>4</octave>
        </pitch>
        <duration>2</duration>
        <voice>1</voice>
        <type>eighth</type>
        <stem default-y="15">up</stem>
        <lyric default-y="-98" name="verse" number="1">
          <syllabic>single</syllabic>
          <text>Thánh</text>
        </lyric>
        <lyric default-y="-128" name="verse" number="2">
          <syllabic>single</syllabic>
          <text>Chúa</text>
        </lyric>
        <lyric default-y="-161" name="verse" number="3">
          <syllabic>single</syllabic>
          <text>Chúa</text>
        </lyric>
      </note>
      <note default-x="338">
        <chord/>
        <pitch>
          <step>B</step>
          <alter>-1</alter>
          <octave>4</octave>
        </pitch>
        <duration>2</duration>
        <voice>1</voice>
        <type>eighth</type>
        <stem>up</stem>
      </note>
      <note default-x="402">
        <pitch>
          <step>C</step>
          <octave>4</octave>
        </pitch>
        <duration>2</duration>
        <voice>1</voice>
        <type>eighth</type>
        <stem default-y="-5">up</stem>
        <lyric default-y="-98" name="verse" number="1">
          <syllabic>single</syllabic>
          <text>càng</text>
        </lyric>
        <lyric default-y="-128" name="verse" number="2">
          <syllabic>single</syllabic>
          <text>mà</text>
        </lyric>
        <lyric default-y="-161" name="verse" number="3">
          <syllabic>single</syllabic>
          <text>tình</text>
        </lyric>
      </note>
      <note default-x="402">
        <chord/>
        <pitch>
          <step>E</step>
          <octave>4</octave>
        </pitch>
        <duration>2</duration>
        <voice>1</voice>
        <type>eighth</type>
        <stem>up</stem>
      </note>
    </measure>
    <!--=======================================================-->
    <measure number="9" width="127">
      <harmony default-y="33" font-family="VNI-Helve-Condense" font-size="13.7">
        <root>
          <root-step>F</root-step>
        </root>
        <kind halign="center" text="">major</kind>
      </harmony>
      <note default-x="17">
        <pitch>
          <step>C</step>
          <octave>4</octave>
        </pitch>
        <duration>8</duration>
        <voice>1</voice>
        <type>half</type>
        <stem default-y="0">up</stem>
        <lyric default-y="-98" name="verse" number="1">
          <syllabic>single</syllabic>
          <text>hơn.</text>
        </lyric>
        <lyric default-y="-128" name="verse" number="2">
          <syllabic>single</syllabic>
          <text>đi.</text>
        </lyric>
        <lyric default-y="-161" name="verse" number="3">
          <syllabic>single</syllabic>
          <text>yêu.</text>
        </lyric>
      </note>
      <note default-x="17">
        <chord/>
        <pitch>
          <step>F</step>
          <octave>4</octave>
        </pitch>
        <duration>8</duration>
        <voice>1</voice>
        <type>half</type>
        <stem>up</stem>
      </note>
      <note default-x="80">
        <rest/>
        <duration>4</duration>
        <voice>1</voice>
        <type>quarter</type>
      </note>
      <barline location="right">
        <bar-style>light-light</bar-style>
      </barline>
    </measure>
    <!--=======================================================-->
    <measure number="10" width="138">
      <direction placement="above">
        <direction-type>
          <words default-y="38" font-style="italic" relative-x="-14" valign="top">Điệp khúc:</words>
        </direction-type>
      </direction>
      <note default-x="12">
        <pitch>
          <step>D</step>
          <octave>4</octave>
        </pitch>
        <duration>2</duration>
        <voice>1</voice>
        <type>eighth</type>
        <stem default-y="0">up</stem>
        <lyric default-y="-128" name="chorus" number="1" relative-x="7">
          <syllabic>single</syllabic>
          <text>Dâng</text>
        </lyric>
      </note>
      <note default-x="12">
        <chord/>
        <pitch>
          <step>F</step>
          <octave>4</octave>
        </pitch>
        <duration>2</duration>
        <voice>1</voice>
        <type>eighth</type>
        <stem>up</stem>
      </note>
      <note default-x="81">
        <pitch>
          <step>C</step>
          <octave>4</octave>
        </pitch>
        <duration>2</duration>
        <voice>1</voice>
        <type>eighth</type>
        <stem default-y="-5">up</stem>
        <lyric default-y="-128" name="chorus" number="1">
          <syllabic>single</syllabic>
          <text>năng</text>
        </lyric>
      </note>
      <note default-x="81">
        <chord/>
        <pitch>
          <step>E</step>
          <octave>4</octave>
        </pitch>
        <duration>2</duration>
        <voice>1</voice>
        <type>eighth</type>
        <stem>up</stem>
      </note>
    </measure>
    <!--=======================================================-->
    <measure number="11" width="304">
      <harmony default-y="33" font-family="VNI-Helve-Condense" font-size="13.7">
        <root>
          <root-step>B</root-step>
          <root-alter>-1</root-alter>
        </root>
        <kind halign="center" text="">major</kind>
      </harmony>
      <note default-x="16">
        <pitch>
          <step>B</step>
          <alter>-1</alter>
          <octave>3</octave>
        </pitch>
        <duration>3</duration>
        <voice>1</voice>
        <type>eighth</type>
        <dot/>
        <stem default-y="-10">up</stem>
        <lyric default-y="-128" name="chorus" number="1">
          <syllabic>single</syllabic>
          <text>lực</text>
        </lyric>
      </note>
      <note default-x="16">
        <chord/>
        <pitch>
          <step>D</step>
          <octave>4</octave>
        </pitch>
        <duration>3</duration>
        <voice>1</voice>
        <type>eighth</type>
        <dot/>
        <stem>up</stem>
      </note>
      <note default-x="77">
        <pitch>
          <step>B</step>
          <alter>-1</alter>
          <octave>3</octave>
        </pitch>
        <duration>1</duration>
        <voice>1</voice>
        <type>16th</type>
        <stem default-y="-10">up</stem>
        <lyric default-y="-128" name="chorus" number="1">
          <syllabic>single</syllabic>
          <text>nhiều</text>
        </lyric>
      </note>
      <note default-x="77">
        <chord/>
        <pitch>
          <step>D</step>
          <octave>4</octave>
        </pitch>
        <duration>1</duration>
        <voice>1</voice>
        <type>16th</type>
        <stem>up</stem>
      </note>
      <note default-x="134">
        <pitch>
          <step>D</step>
          <octave>4</octave>
        </pitch>
        <duration>2</duration>
        <voice>1</voice>
        <type>eighth</type>
        <stem default-y="5">up</stem>
        <lyric default-y="-128" name="chorus" number="1">
          <syllabic>single</syllabic>
          <text>hơn</text>
        </lyric>
      </note>
      <note default-x="134">
        <chord/>
        <pitch>
          <step>G</step>
          <octave>4</octave>
        </pitch>
        <duration>2</duration>
        <voice>1</voice>
        <type>eighth</type>
        <stem>up</stem>
      </note>
      <note default-x="188">
        <pitch>
          <step>D</step>
          <octave>4</octave>
        </pitch>
        <duration>2</duration>
        <voice>1</voice>
        <type>eighth</type>
        <stem default-y="5">up</stem>
        <lyric default-y="-128" name="chorus" number="1">
          <syllabic>single</syllabic>
          <text>cho</text>
        </lyric>
      </note>
      <note default-x="188">
        <chord/>
        <pitch>
          <step>G</step>
          <octave>4</octave>
        </pitch>
        <duration>2</duration>
        <voice>1</voice>
        <type>eighth</type>
        <stem>up</stem>
      </note>
      <harmony default-y="33" font-family="VNI-Helve-Condense" font-size="13.7">
        <root>
          <root-step>G</root-step>
        </root>
        <kind halign="center" text="m">minor</kind>
      </harmony>
      <note default-x="246">
        <pitch>
          <step>D</step>
          <octave>4</octave>
        </pitch>
        <duration>4</duration>
        <voice>1</voice>
        <type>quarter</type>
        <stem default-y="15">up</stem>
        <lyric default-y="-128" name="chorus" number="1">
          <syllabic>single</syllabic>
          <text>Chúa,</text>
        </lyric>
      </note>
      <note default-x="246">
        <chord/>
        <pitch>
          <step>B</step>
          <alter>-1</alter>
          <octave>4</octave>
        </pitch>
        <duration>4</duration>
        <voice>1</voice>
        <type>quarter</type>
        <stem>up</stem>
      </note>
      <barline location="right">
        <bar-style>none</bar-style>
      </barline>
    </measure>
    <!--=======================================================-->
    <measure number="12" width="181">
      <print new-system="yes">
        <system-layout>
          <system-distance>112</system-distance>
        </system-layout>
      </print>
      <note default-x="63">
        <pitch>
          <step>B</step>
          <alter>-1</alter>
          <octave>3</octave>
        </pitch>
        <duration>2</duration>
        <voice>1</voice>
        <type>eighth</type>
        <stem default-y="-5">up</stem>
        <lyric default-y="-92" name="chorus" number="1" relative-x="3">
          <syllabic>single</syllabic>
          <text>dâng</text>
        </lyric>
      </note>
      <note default-x="63">
        <chord/>
        <pitch>
          <step>E</step>
          <octave>4</octave>
        </pitch>
        <duration>2</duration>
        <voice>1</voice>
        <type>eighth</type>
        <stem>up</stem>
      </note>
      <note default-x="124">
        <pitch>
          <step>B</step>
          <alter>-1</alter>
          <octave>3</octave>
        </pitch>
        <duration>2</duration>
        <voice>1</voice>
        <type>eighth</type>
        <stem default-y="-10">up</stem>
        <lyric default-y="-92" name="chorus" number="1">
          <syllabic>single</syllabic>
          <text>cuộc</text>
        </lyric>
      </note>
      <note default-x="124">
        <chord/>
        <pitch>
          <step>D</step>
          <octave>4</octave>
        </pitch>
        <duration>2</duration>
        <voice>1</voice>
        <type>eighth</type>
        <stem>up</stem>
      </note>
    </measure>
    <!--=======================================================-->
    <measure number="13" width="529">
      <harmony default-y="33" font-family="VNI-Helve-Condense" font-size="13.7">
        <root>
          <root-step>F</root-step>
        </root>
        <kind halign="center" text="">major</kind>
      </harmony>
      <note default-x="17">
        <pitch>
          <step>A</step>
          <octave>3</octave>
        </pitch>
        <duration>3</duration>
        <voice>1</voice>
        <type>eighth</type>
        <dot/>
        <stem default-y="-15">up</stem>
        <lyric default-y="-92" name="chorus" number="1">
          <syllabic>single</syllabic>
          <text>đời</text>
        </lyric>
      </note>
      <note default-x="17">
        <chord/>
        <pitch>
          <step>C</step>
          <octave>4</octave>
        </pitch>
        <duration>3</duration>
        <voice>1</voice>
        <type>eighth</type>
        <dot/>
        <stem>up</stem>
      </note>
      <note default-x="83">
        <pitch>
          <step>A</step>
          <octave>3</octave>
        </pitch>
        <duration>1</duration>
        <voice>1</voice>
        <type>16th</type>
        <stem default-y="-15">up</stem>
        <lyric default-y="-92" name="chorus" number="1">
          <syllabic>single</syllabic>
          <text>thành</text>
        </lyric>
      </note>
      <note default-x="83">
        <chord/>
        <pitch>
          <step>C</step>
          <octave>4</octave>
        </pitch>
        <duration>1</duration>
        <voice>1</voice>
        <type>16th</type>
        <stem>up</stem>
      </note>
      <note default-x="143">
        <pitch>
          <step>C</step>
          <octave>4</octave>
        </pitch>
        <duration>2</duration>
        <voice>1</voice>
        <type>eighth</type>
        <stem default-y="0">up</stem>
        <lyric default-y="-92" name="chorus" number="1">
          <syllabic>single</syllabic>
          <text>tâm</text>
        </lyric>
      </note>
      <note default-x="143">
        <chord/>
        <pitch>
          <step>F</step>
          <octave>4</octave>
        </pitch>
        <duration>2</duration>
        <voice>1</voice>
        <type>eighth</type>
        <stem>up</stem>
      </note>
      <note default-x="205">
        <pitch>
          <step>C</step>
          <octave>4</octave>
        </pitch>
        <duration>2</duration>
        <voice>1</voice>
        <type>eighth</type>
        <stem default-y="0">up</stem>
        <lyric default-y="-92" name="chorus" number="1">
          <syllabic>single</syllabic>
          <text>nhân</text>
        </lyric>
      </note>
      <note default-x="205">
        <chord/>
        <pitch>
          <step>F</step>
          <octave>4</octave>
        </pitch>
        <duration>2</duration>
        <voice>1</voice>
        <type>eighth</type>
        <stem>up</stem>
      </note>
      <note default-x="258">
        <pitch>
          <step>C</step>
          <octave>4</octave>
        </pitch>
        <duration>2</duration>
        <voice>1</voice>
        <type>eighth</type>
        <stem default-y="10">up</stem>
        <lyric default-y="-92" name="chorus" number="1">
          <syllabic>single</syllabic>
          <text>ái.</text>
        </lyric>
      </note>
      <note default-x="258">
        <chord/>
        <pitch>
          <step>A</step>
          <octave>4</octave>
        </pitch>
        <duration>2</duration>
        <voice>1</voice>
        <type>eighth</type>
        <stem>up</stem>
      </note>
      <note default-x="296">
        <rest/>
        <duration>1</duration>
        <voice>1</voice>
        <type>16th</type>
      </note>
      <note default-x="337">
        <pitch>
          <step>D</step>
          <octave>4</octave>
        </pitch>
        <duration>1</duration>
        <voice>1</voice>
        <type>16th</type>
        <stem default-y="5">up</stem>
        <lyric default-y="-92" name="chorus" number="1">
          <syllabic>single</syllabic>
          <text>Theo</text>
        </lyric>
      </note>
      <note default-x="337">
        <chord/>
        <pitch>
          <step>G</step>
          <octave>4</octave>
        </pitch>
        <duration>1</duration>
        <voice>1</voice>
        <type>16th</type>
        <stem>up</stem>
      </note>
      <note default-x="403">
        <pitch>
          <step>D</step>
          <octave>4</octave>
        </pitch>
        <duration>2</duration>
        <voice>1</voice>
        <type>eighth</type>
        <stem default-y="5">up</stem>
        <lyric default-y="-92" name="chorus" number="1">
          <syllabic>single</syllabic>
          <text>gương</text>
        </lyric>
      </note>
      <note default-x="403">
        <chord/>
        <pitch>
          <step>G</step>
          <octave>4</octave>
        </pitch>
        <duration>2</duration>
        <voice>1</voice>
        <type>eighth</type>
        <stem>up</stem>
      </note>
      <note default-x="477">
        <pitch>
          <step>D</step>
          <octave>4</octave>
        </pitch>
        <duration>2</duration>
        <voice>1</voice>
        <type>eighth</type>
        <stem default-y="15">up</stem>
        <lyric default-y="-92" name="chorus" number="1">
          <syllabic>single</syllabic>
          <text>Chúa</text>
        </lyric>
      </note>
      <note default-x="477">
        <chord/>
        <pitch>
          <step>B</step>
          <alter>-1</alter>
          <octave>4</octave>
        </pitch>
        <duration>2</duration>
        <voice>1</voice>
        <type>eighth</type>
        <stem>up</stem>
      </note>
    </measure>
    <!--=======================================================-->
    <measure number="14" width="194">
      <harmony default-y="33" font-family="VNI-Helve-Condense" font-size="13.7">
        <root>
          <root-step>C</root-step>
        </root>
        <kind halign="center" text="7">dominant</kind>
      </harmony>
      <note default-x="16">
        <pitch>
          <step>C</step>
          <octave>4</octave>
        </pitch>
        <duration>4</duration>
        <voice>1</voice>
        <type>quarter</type>
        <stem default-y="-5">up</stem>
        <lyric default-y="-92" name="chorus" number="1">
          <syllabic>single</syllabic>
          <text>cùng</text>
        </lyric>
      </note>
      <note default-x="16">
        <chord/>
        <pitch>
          <step>E</step>
          <octave>4</octave>
        </pitch>
        <duration>4</duration>
        <voice>1</voice>
        <type>quarter</type>
        <stem>up</stem>
      </note>
      <note default-x="62">
        <pitch>
          <step>C</step>
          <octave>4</octave>
        </pitch>
        <duration>4</duration>
        <voice>1</voice>
        <type>quarter</type>
        <stem default-y="5">up</stem>
        <lyric default-y="-92" name="chorus" number="1">
          <syllabic>single</syllabic>
          <text>ra</text>
        </lyric>
      </note>
      <note default-x="62">
        <chord/>
        <pitch>
          <step>G</step>
          <octave>4</octave>
        </pitch>
        <duration>4</duration>
        <voice>1</voice>
        <type>quarter</type>
        <stem>up</stem>
      </note>
      <note default-x="105">
        <pitch>
          <step>E</step>
          <octave>4</octave>
        </pitch>
        <duration>4</duration>
        <voice>1</voice>
        <type>quarter</type>
        <stem default-y="5">up</stem>
        <lyric default-y="-92" name="chorus" number="1">
          <syllabic>single</syllabic>
          <text>đi</text>
        </lyric>
      </note>
      <note default-x="105">
        <chord/>
        <pitch>
          <step>G</step>
          <octave>4</octave>
        </pitch>
        <duration>4</duration>
        <voice>1</voice>
        <type>quarter</type>
        <stem>up</stem>
      </note>
      <note default-x="150">
        <pitch>
          <step>G</step>
          <octave>4</octave>
        </pitch>
        <duration>4</duration>
        <voice>1</voice>
        <type>quarter</type>
        <stem default-y="13">up</stem>
        <lyric default-y="-92" name="chorus" number="1">
          <syllabic>single</syllabic>
          <text>cứu</text>
        </lyric>
      </note>
      <note default-x="150">
        <chord/>
        <pitch>
          <step>C</step>
          <octave>5</octave>
        </pitch>
        <duration>4</duration>
        <voice>1</voice>
        <type>quarter</type>
        <stem>up</stem>
      </note>
    </measure>
    <!--=======================================================-->
    <measure number="15" width="118">
      <harmony default-y="33" font-family="VNI-Helve-Condense" font-size="13.7">
        <root>
          <root-step>F</root-step>
        </root>
        <kind halign="center" text="">major</kind>
      </harmony>
      <note default-x="16">
        <pitch>
          <step>C</step>
          <octave>4</octave>
        </pitch>
        <duration>8</duration>
        <voice>1</voice>
        <type>half</type>
        <stem default-y="0">up</stem>
        <lyric default-y="-92" name="chorus" number="1">
          <syllabic>single</syllabic>
          <text>người.</text>
        </lyric>
      </note>
      <note default-x="16">
        <chord/>
        <pitch>
          <step>F</step>
          <octave>4</octave>
        </pitch>
        <duration>8</duration>
        <voice>1</voice>
        <type>half</type>
        <stem>up</stem>
      </note>
      <note default-x="83">
        <rest/>
        <duration>2</duration>
        <voice>1</voice>
        <type>eighth</type>
      </note>
      <barline location="right">
        <bar-style>light-heavy</bar-style>
      </barline>
    </measure>
  </part>
  <!--=========================================================-->
  <part id="P2">
    <?SmartMusic maxVoice=1?>
    <measure number="1" width="267">
      <print>
        <staff-layout number="1">
          <staff-distance>151</staff-distance>
        </staff-layout>
        <measure-numbering>none</measure-numbering>
      </print>
      <attributes>
        <divisions>4</divisions>
        <key>
          <fifths>-1</fifths>
          <mode>major</mode>
        </key>
        <time>
          <beats>4</beats>
          <beat-type>4</beat-type>
        </time>
        <clef>
          <sign>F</sign>
          <line>4</line>
        </clef>
      </attributes>
      <sound tempo="104"/>
      <note default-x="110">
        <pitch>
          <step>F</step>
          <octave>3</octave>
        </pitch>
        <duration>2</duration>
        <voice>1</voice>
        <type>eighth</type>
        <stem default-y="-45">down</stem>
      </note>
      <note default-x="110">
        <chord/>
        <pitch>
          <step>A</step>
          <octave>3</octave>
        </pitch>
        <duration>2</duration>
        <voice>1</voice>
        <type>eighth</type>
        <stem>down</stem>
      </note>
      <note default-x="180">
        <pitch>
          <step>F</step>
          <octave>3</octave>
        </pitch>
        <duration>2</duration>
        <voice>1</voice>
        <type>eighth</type>
        <stem default-y="-45">down</stem>
      </note>
      <note default-x="180">
        <chord/>
        <pitch>
          <step>A</step>
          <octave>3</octave>
        </pitch>
        <duration>2</duration>
        <voice>1</voice>
        <type>eighth</type>
        <stem>down</stem>
      </note>
      <note default-x="229">
        <pitch>
          <step>F</step>
          <octave>3</octave>
        </pitch>
        <duration>2</duration>
        <voice>1</voice>
        <type>eighth</type>
        <stem default-y="-45">down</stem>
      </note>
      <note default-x="229">
        <chord/>
        <pitch>
          <step>C</step>
          <octave>4</octave>
        </pitch>
        <duration>2</duration>
        <voice>1</voice>
        <type>eighth</type>
        <stem>down</stem>
      </note>
    </measure>
    <!--=======================================================-->
    <measure number="2" width="250">
      <note default-x="14">
        <pitch>
          <step>F</step>
          <octave>3</octave>
        </pitch>
        <duration>4</duration>
        <voice>1</voice>
        <type>quarter</type>
        <stem default-y="-45">down</stem>
      </note>
      <note default-x="14">
        <chord/>
        <pitch>
          <step>A</step>
          <octave>3</octave>
        </pitch>
        <duration>4</duration>
        <voice>1</voice>
        <type>quarter</type>
        <stem>down</stem>
      </note>
      <note default-x="80">
        <pitch>
          <step>E</step>
          <octave>3</octave>
        </pitch>
        <duration>4</duration>
        <voice>1</voice>
        <type>quarter</type>
        <stem default-y="-50">down</stem>
      </note>
      <note default-x="80">
        <chord/>
        <pitch>
          <step>A</step>
          <octave>3</octave>
        </pitch>
        <duration>4</duration>
        <voice>1</voice>
        <type>quarter</type>
        <stem>down</stem>
      </note>
      <note default-x="145">
        <pitch>
          <step>D</step>
          <octave>3</octave>
        </pitch>
        <duration>4</duration>
        <voice>1</voice>
        <type>quarter</type>
        <stem default-y="-55">down</stem>
      </note>
      <note default-x="145">
        <chord/>
        <pitch>
          <step>F</step>
          <octave>3</octave>
        </pitch>
        <duration>4</duration>
        <voice>1</voice>
        <type>quarter</type>
        <stem>down</stem>
      </note>
      <note default-x="207">
        <pitch>
          <step>B</step>
          <alter>-1</alter>
          <octave>2</octave>
        </pitch>
        <duration>4</duration>
        <voice>1</voice>
        <type>quarter</type>
        <stem default-y="-68">down</stem>
      </note>
      <note default-x="207">
        <chord/>
        <pitch>
          <step>F</step>
          <octave>3</octave>
        </pitch>
        <duration>4</duration>
        <voice>1</voice>
        <type>quarter</type>
        <stem>down</stem>
      </note>
    </measure>
    <!--=======================================================-->
    <measure number="3" width="276">
      <note default-x="14">
        <pitch>
          <step>B</step>
          <alter>-1</alter>
          <octave>2</octave>
        </pitch>
        <duration>8</duration>
        <tie type="start"/>
        <voice>1</voice>
        <type>half</type>
        <stem default-y="-68">down</stem>
        <notations>
          <tied type="start"/>
        </notations>
      </note>
      <note default-x="14">
        <chord/>
        <pitch>
          <step>F</step>
          <octave>3</octave>
        </pitch>
        <duration>8</duration>
        <tie type="start"/>
        <voice>1</voice>
        <type>half</type>
        <stem>down</stem>
        <notations>
          <tied type="start"/>
        </notations>
      </note>
      <note default-x="63">
        <pitch>
          <step>B</step>
          <alter>-1</alter>
          <octave>2</octave>
        </pitch>
        <duration>2</duration>
        <tie type="stop"/>
        <voice>1</voice>
        <type>eighth</type>
        <stem default-y="-65">down</stem>
        <notations>
          <tied type="stop"/>
        </notations>
      </note>
      <note default-x="63">
        <chord/>
        <pitch>
          <step>F</step>
          <octave>3</octave>
        </pitch>
        <duration>2</duration>
        <tie type="stop"/>
        <voice>1</voice>
        <type>eighth</type>
        <stem>down</stem>
        <notations>
          <tied type="stop"/>
        </notations>
      </note>
      <note default-x="107">
        <pitch>
          <step>B</step>
          <alter>-1</alter>
          <octave>2</octave>
        </pitch>
        <duration>2</duration>
        <voice>1</voice>
        <type>eighth</type>
        <stem default-y="-65">down</stem>
      </note>
      <note default-x="107">
        <chord/>
        <pitch>
          <step>G</step>
          <octave>3</octave>
        </pitch>
        <duration>2</duration>
        <voice>1</voice>
        <type>eighth</type>
        <stem>down</stem>
      </note>
      <note default-x="170">
        <pitch>
          <step>D</step>
          <octave>3</octave>
        </pitch>
        <duration>2</duration>
        <voice>1</voice>
        <type>eighth</type>
        <stem default-y="-55">down</stem>
      </note>
      <note default-x="170">
        <chord/>
        <pitch>
          <step>G</step>
          <octave>3</octave>
        </pitch>
        <duration>2</duration>
        <voice>1</voice>
        <type>eighth</type>
        <stem>down</stem>
      </note>
      <note default-x="234">
        <pitch>
          <step>D</step>
          <octave>3</octave>
        </pitch>
        <duration>2</duration>
        <voice>1</voice>
        <type>eighth</type>
        <stem default-y="-55">down</stem>
      </note>
      <note default-x="234">
        <chord/>
        <pitch>
          <step>G</step>
          <octave>3</octave>
        </pitch>
        <duration>2</duration>
        <voice>1</voice>
        <type>eighth</type>
        <stem>down</stem>
      </note>
    </measure>
    <!--=======================================================-->
    <measure number="4" width="228">
      <note default-x="16">
        <pitch>
          <step>E</step>
          <octave>3</octave>
        </pitch>
        <duration>4</duration>
        <voice>1</voice>
        <type>quarter</type>
        <stem default-y="-50">down</stem>
      </note>
      <note default-x="16">
        <chord/>
        <pitch>
          <step>G</step>
          <octave>3</octave>
        </pitch>
        <duration>4</duration>
        <voice>1</voice>
        <type>quarter</type>
        <stem>down</stem>
      </note>
      <note default-x="70">
        <pitch>
          <step>D</step>
          <octave>3</octave>
        </pitch>
        <duration>4</duration>
        <voice>1</voice>
        <type>quarter</type>
        <stem default-y="-55">down</stem>
      </note>
      <note default-x="70">
        <chord/>
        <pitch>
          <step>A</step>
          <octave>3</octave>
        </pitch>
        <duration>4</duration>
        <voice>1</voice>
        <type>quarter</type>
        <stem>down</stem>
      </note>
      <note default-x="129">
        <pitch>
          <step>C</step>
          <octave>3</octave>
        </pitch>
        <duration>4</duration>
        <voice>1</voice>
        <type>quarter</type>
        <stem default-y="-65">down</stem>
      </note>
      <note default-x="129">
        <chord/>
        <pitch>
          <step>B</step>
          <alter>-1</alter>
          <octave>3</octave>
        </pitch>
        <duration>4</duration>
        <voice>1</voice>
        <type>quarter</type>
        <stem>down</stem>
      </note>
      <note default-x="189">
        <pitch>
          <step>E</step>
          <octave>3</octave>
        </pitch>
        <duration>4</duration>
        <voice>1</voice>
        <type>quarter</type>
        <stem default-y="-50">down</stem>
      </note>
      <note default-x="189">
        <chord/>
        <pitch>
          <step>C</step>
          <octave>4</octave>
        </pitch>
        <duration>4</duration>
        <voice>1</voice>
        <type>quarter</type>
        <stem>down</stem>
      </note>
    </measure>
    <!--=======================================================-->
    <measure number="5" width="321">
      <print new-system="yes">
        <staff-layout number="1">
          <staff-distance>155</staff-distance>
        </staff-layout>
      </print>
      <note default-x="63">
        <pitch>
          <step>F</step>
          <octave>3</octave>
        </pitch>
        <duration>8</duration>
        <voice>1</voice>
        <type>half</type>
        <stem default-y="-45">down</stem>
      </note>
      <note default-x="63">
        <chord/>
        <pitch>
          <step>C</step>
          <octave>4</octave>
        </pitch>
        <duration>8</duration>
        <voice>1</voice>
        <type>half</type>
        <stem>down</stem>
      </note>
      <note default-x="135">
        <rest/>
        <duration>2</duration>
        <voice>1</voice>
        <type>eighth</type>
      </note>
      <note default-x="169">
        <pitch>
          <step>F</step>
          <octave>3</octave>
        </pitch>
        <duration>2</duration>
        <voice>1</voice>
        <type>eighth</type>
        <stem default-y="-45">down</stem>
      </note>
      <note default-x="169">
        <chord/>
        <pitch>
          <step>A</step>
          <octave>3</octave>
        </pitch>
        <duration>2</duration>
        <voice>1</voice>
        <type>eighth</type>
        <stem>down</stem>
      </note>
      <note default-x="225">
        <pitch>
          <step>F</step>
          <octave>3</octave>
        </pitch>
        <duration>2</duration>
        <voice>1</voice>
        <type>eighth</type>
        <stem default-y="-45">down</stem>
      </note>
      <note default-x="225">
        <chord/>
        <pitch>
          <step>A</step>
          <octave>3</octave>
        </pitch>
        <duration>2</duration>
        <voice>1</voice>
        <type>eighth</type>
        <stem>down</stem>
      </note>
      <note default-x="280">
        <pitch>
          <step>F</step>
          <octave>3</octave>
        </pitch>
        <duration>2</duration>
        <voice>1</voice>
        <type>eighth</type>
        <stem default-y="-45">down</stem>
      </note>
      <note default-x="280">
        <chord/>
        <pitch>
          <step>C</step>
          <octave>4</octave>
        </pitch>
        <duration>2</duration>
        <voice>1</voice>
        <type>eighth</type>
        <stem>down</stem>
      </note>
    </measure>
    <!--=======================================================-->
    <measure number="6" width="410">
      <note default-x="14">
        <pitch>
          <step>F</step>
          <octave>3</octave>
        </pitch>
        <duration>4</duration>
        <voice>1</voice>
        <type>quarter</type>
        <stem default-y="-45">down</stem>
      </note>
      <note default-x="14">
        <chord/>
        <pitch>
          <step>A</step>
          <octave>3</octave>
        </pitch>
        <duration>4</duration>
        <voice>1</voice>
        <type>quarter</type>
        <stem>down</stem>
      </note>
      <note default-x="103">
        <pitch>
          <step>F</step>
          <octave>3</octave>
        </pitch>
        <duration>4</duration>
        <voice>1</voice>
        <type>quarter</type>
        <stem default-y="-45">down</stem>
      </note>
      <note default-x="103">
        <chord/>
        <pitch>
          <step>A</step>
          <octave>3</octave>
        </pitch>
        <duration>4</duration>
        <voice>1</voice>
        <type>quarter</type>
        <stem>down</stem>
      </note>
      <note default-x="189">
        <pitch>
          <step>F</step>
          <octave>3</octave>
        </pitch>
        <duration>2</duration>
        <voice>1</voice>
        <type>eighth</type>
        <stem default-y="-45">down</stem>
      </note>
      <note default-x="189">
        <chord/>
        <pitch>
          <step>A</step>
          <octave>3</octave>
        </pitch>
        <duration>2</duration>
        <voice>1</voice>
        <type>eighth</type>
        <stem>down</stem>
      </note>
      <note default-x="245">
        <pitch>
          <step>F</step>
          <octave>3</octave>
        </pitch>
        <duration>2</duration>
        <voice>1</voice>
        <type>eighth</type>
        <stem default-y="-45">down</stem>
      </note>
      <note default-x="245">
        <chord/>
        <pitch>
          <step>A</step>
          <octave>3</octave>
        </pitch>
        <duration>2</duration>
        <voice>1</voice>
        <type>eighth</type>
        <stem>down</stem>
      </note>
      <note default-x="300">
        <pitch>
          <step>F</step>
          <octave>3</octave>
        </pitch>
        <duration>2</duration>
        <voice>1</voice>
        <type>eighth</type>
        <stem default-y="-45">down</stem>
      </note>
      <note default-x="300">
        <chord/>
        <pitch>
          <step>A</step>
          <octave>3</octave>
        </pitch>
        <duration>2</duration>
        <voice>1</voice>
        <type>eighth</type>
        <stem>down</stem>
      </note>
      <note default-x="356">
        <pitch>
          <step>E</step>
          <octave>3</octave>
        </pitch>
        <duration>2</duration>
        <voice>1</voice>
        <type>eighth</type>
        <stem default-y="-50">down</stem>
      </note>
      <note default-x="356">
        <chord/>
        <pitch>
          <step>B</step>
          <alter>-1</alter>
          <octave>3</octave>
        </pitch>
        <duration>2</duration>
        <voice>1</voice>
        <type>eighth</type>
        <stem>down</stem>
      </note>
    </measure>
    <!--=======================================================-->
    <measure number="7" width="291">
      <note default-x="14">
        <pitch>
          <step>D</step>
          <octave>3</octave>
        </pitch>
        <duration>8</duration>
        <tie type="start"/>
        <voice>1</voice>
        <type>half</type>
        <stem default-y="-55">down</stem>
        <notations>
          <tied type="start"/>
        </notations>
      </note>
      <note default-x="14">
        <chord/>
        <pitch>
          <step>B</step>
          <alter>-1</alter>
          <octave>3</octave>
        </pitch>
        <duration>8</duration>
        <tie type="start"/>
        <voice>1</voice>
        <type>half</type>
        <stem>down</stem>
        <notations>
          <tied type="start"/>
        </notations>
      </note>
      <note default-x="89">
        <pitch>
          <step>D</step>
          <octave>3</octave>
        </pitch>
        <duration>2</duration>
        <tie type="stop"/>
        <voice>1</voice>
        <type>eighth</type>
        <stem default-y="-55">down</stem>
        <notations>
          <tied type="stop"/>
        </notations>
      </note>
      <note default-x="89">
        <chord/>
        <pitch>
          <step>B</step>
          <alter>-1</alter>
          <octave>3</octave>
        </pitch>
        <duration>2</duration>
        <tie type="stop"/>
        <voice>1</voice>
        <type>eighth</type>
        <stem>down</stem>
        <notations>
          <tied type="stop"/>
        </notations>
      </note>
      <note default-x="139">
        <pitch>
          <step>E</step>
          <octave>3</octave>
        </pitch>
        <duration>2</duration>
        <voice>1</voice>
        <type>eighth</type>
        <stem default-y="-50">down</stem>
      </note>
      <note default-x="139">
        <chord/>
        <pitch>
          <step>B</step>
          <alter>-1</alter>
          <octave>3</octave>
        </pitch>
        <duration>2</duration>
        <voice>1</voice>
        <type>eighth</type>
        <stem>down</stem>
      </note>
      <note default-x="195">
        <pitch>
          <step>E</step>
          <octave>3</octave>
        </pitch>
        <duration>2</duration>
        <voice>1</voice>
        <type>eighth</type>
        <stem default-y="-50">down</stem>
      </note>
      <note default-x="195">
        <chord/>
        <pitch>
          <step>B</step>
          <alter>-1</alter>
          <octave>3</octave>
        </pitch>
        <duration>2</duration>
        <voice>1</voice>
        <type>eighth</type>
        <stem>down</stem>
      </note>
      <note default-x="247">
        <pitch>
          <step>E</step>
          <octave>3</octave>
        </pitch>
        <duration>2</duration>
        <voice>1</voice>
        <type>eighth</type>
        <stem default-y="-50">down</stem>
      </note>
      <note default-x="247">
        <chord/>
        <pitch>
          <step>G</step>
          <octave>3</octave>
        </pitch>
        <duration>2</duration>
        <voice>1</voice>
        <type>eighth</type>
        <stem>down</stem>
      </note>
    </measure>
    <!--=======================================================-->
    <measure number="8" width="452">
      <print new-system="yes">
        <staff-layout number="1">
          <staff-distance>160</staff-distance>
        </staff-layout>
      </print>
      <note default-x="63">
        <pitch>
          <step>E</step>
          <octave>3</octave>
        </pitch>
        <duration>4</duration>
        <voice>1</voice>
        <type>quarter</type>
        <stem default-y="-50">down</stem>
      </note>
      <note default-x="63">
        <chord/>
        <pitch>
          <step>G</step>
          <octave>3</octave>
        </pitch>
        <duration>4</duration>
        <voice>1</voice>
        <type>quarter</type>
        <stem>down</stem>
      </note>
      <note default-x="143">
        <pitch>
          <step>D</step>
          <octave>3</octave>
        </pitch>
        <duration>4</duration>
        <voice>1</voice>
        <type>quarter</type>
        <stem default-y="-55">down</stem>
      </note>
      <note default-x="143">
        <chord/>
        <pitch>
          <step>F</step>
          <octave>3</octave>
        </pitch>
        <duration>4</duration>
        <voice>1</voice>
        <type>quarter</type>
        <stem>down</stem>
      </note>
      <note default-x="216">
        <pitch>
          <step>E</step>
          <octave>3</octave>
        </pitch>
        <duration>2</duration>
        <voice>1</voice>
        <type>eighth</type>
        <stem default-y="-50">down</stem>
      </note>
      <note default-x="216">
        <chord/>
        <pitch>
          <step>G</step>
          <octave>3</octave>
        </pitch>
        <duration>2</duration>
        <voice>1</voice>
        <type>eighth</type>
        <stem>down</stem>
      </note>
      <note default-x="274">
        <pitch>
          <step>C</step>
          <octave>3</octave>
        </pitch>
        <duration>2</duration>
        <voice>1</voice>
        <type>eighth</type>
        <stem default-y="-60">down</stem>
      </note>
      <note default-x="274">
        <chord/>
        <pitch>
          <step>G</step>
          <octave>3</octave>
        </pitch>
        <duration>2</duration>
        <voice>1</voice>
        <type>eighth</type>
        <stem>down</stem>
      </note>
      <note default-x="338">
        <pitch>
          <step>E</step>
          <octave>3</octave>
        </pitch>
        <duration>2</duration>
        <voice>1</voice>
        <type>eighth</type>
        <stem default-y="-50">down</stem>
      </note>
      <note default-x="338">
        <chord/>
        <pitch>
          <step>C</step>
          <octave>4</octave>
        </pitch>
        <duration>2</duration>
        <voice>1</voice>
        <type>eighth</type>
        <stem>down</stem>
      </note>
      <note default-x="402">
        <pitch>
          <step>G</step>
          <octave>3</octave>
        </pitch>
        <duration>2</duration>
        <voice>1</voice>
        <type>eighth</type>
        <stem default-y="-40">down</stem>
      </note>
      <note default-x="402">
        <chord/>
        <pitch>
          <step>B</step>
          <alter>-1</alter>
          <octave>3</octave>
        </pitch>
        <duration>2</duration>
        <voice>1</voice>
        <type>eighth</type>
        <stem>down</stem>
      </note>
    </measure>
    <!--=======================================================-->
    <measure number="9" width="127">
      <note default-x="17">
        <pitch>
          <step>F</step>
          <octave>3</octave>
        </pitch>
        <duration>8</duration>
        <voice>1</voice>
        <type>half</type>
        <stem default-y="-45">down</stem>
      </note>
      <note default-x="17">
        <chord/>
        <pitch>
          <step>A</step>
          <octave>3</octave>
        </pitch>
        <duration>8</duration>
        <voice>1</voice>
        <type>half</type>
        <stem>down</stem>
      </note>
      <note default-x="80">
        <rest/>
        <duration>4</duration>
        <voice>1</voice>
        <type>quarter</type>
      </note>
      <barline location="right">
        <bar-style>light-light</bar-style>
      </barline>
    </measure>
    <!--=======================================================-->
    <measure number="10" width="138">
      <note default-x="12">
        <pitch>
          <step>F</step>
          <octave>3</octave>
        </pitch>
        <duration>2</duration>
        <voice>1</voice>
        <type>eighth</type>
        <stem default-y="-45">down</stem>
      </note>
      <note default-x="12">
        <chord/>
        <pitch>
          <step>A</step>
          <octave>3</octave>
        </pitch>
        <duration>2</duration>
        <voice>1</voice>
        <type>eighth</type>
        <stem>down</stem>
      </note>
      <note default-x="81">
        <pitch>
          <step>E</step>
          <octave>3</octave>
        </pitch>
        <duration>2</duration>
        <voice>1</voice>
        <type>eighth</type>
        <stem default-y="-50">down</stem>
      </note>
      <note default-x="81">
        <chord/>
        <pitch>
          <step>A</step>
          <octave>3</octave>
        </pitch>
        <duration>2</duration>
        <voice>1</voice>
        <type>eighth</type>
        <stem>down</stem>
      </note>
    </measure>
    <!--=======================================================-->
    <measure number="11" width="304">
      <note default-x="16">
        <pitch>
          <step>D</step>
          <octave>3</octave>
        </pitch>
        <duration>3</duration>
        <voice>1</voice>
        <type>eighth</type>
        <dot/>
        <stem default-y="-55">down</stem>
      </note>
      <note default-x="16">
        <chord/>
        <pitch>
          <step>G</step>
          <octave>3</octave>
        </pitch>
        <duration>3</duration>
        <voice>1</voice>
        <type>eighth</type>
        <dot/>
        <stem>down</stem>
      </note>
      <note default-x="77">
        <pitch>
          <step>D</step>
          <octave>3</octave>
        </pitch>
        <duration>1</duration>
        <voice>1</voice>
        <type>16th</type>
        <stem default-y="-55">down</stem>
      </note>
      <note default-x="77">
        <chord/>
        <pitch>
          <step>G</step>
          <octave>3</octave>
        </pitch>
        <duration>1</duration>
        <voice>1</voice>
        <type>16th</type>
        <stem>down</stem>
      </note>
      <note default-x="134">
        <pitch>
          <step>G</step>
          <octave>3</octave>
        </pitch>
        <duration>2</duration>
        <voice>1</voice>
        <type>eighth</type>
        <stem default-y="-40">down</stem>
      </note>
      <note default-x="134">
        <chord/>
        <pitch>
          <step>B</step>
          <alter>-1</alter>
          <octave>3</octave>
        </pitch>
        <duration>2</duration>
        <voice>1</voice>
        <type>eighth</type>
        <stem>down</stem>
      </note>
      <note default-x="188">
        <pitch>
          <step>G</step>
          <octave>3</octave>
        </pitch>
        <duration>2</duration>
        <voice>1</voice>
        <type>eighth</type>
        <stem default-y="-40">down</stem>
      </note>
      <note default-x="188">
        <chord/>
        <pitch>
          <step>B</step>
          <alter>-1</alter>
          <octave>3</octave>
        </pitch>
        <duration>2</duration>
        <voice>1</voice>
        <type>eighth</type>
        <stem>down</stem>
      </note>
      <note default-x="246">
        <pitch>
          <step>G</step>
          <octave>3</octave>
        </pitch>
        <duration>4</duration>
        <voice>1</voice>
        <type>quarter</type>
        <stem default-y="-40">down</stem>
      </note>
      <note default-x="246">
        <chord/>
        <pitch>
          <step>B</step>
          <alter>-1</alter>
          <octave>3</octave>
        </pitch>
        <duration>4</duration>
        <voice>1</voice>
        <type>quarter</type>
        <stem>down</stem>
      </note>
      <barline location="right">
        <bar-style>none</bar-style>
      </barline>
    </measure>
    <!--=======================================================-->
    <measure number="12" width="181">
      <print new-system="yes">
        <staff-layout number="1">
          <staff-distance>107</staff-distance>
        </staff-layout>
      </print>
      <note default-x="63">
        <pitch>
          <step>E</step>
          <octave>3</octave>
        </pitch>
        <duration>2</duration>
        <voice>1</voice>
        <type>eighth</type>
        <stem default-y="-50">down</stem>
      </note>
      <note default-x="63">
        <chord/>
        <pitch>
          <step>G</step>
          <octave>3</octave>
        </pitch>
        <duration>2</duration>
        <voice>1</voice>
        <type>eighth</type>
        <stem>down</stem>
      </note>
      <note default-x="124">
        <pitch>
          <step>D</step>
          <octave>3</octave>
        </pitch>
        <duration>2</duration>
        <voice>1</voice>
        <type>eighth</type>
        <stem default-y="-55">down</stem>
      </note>
      <note default-x="124">
        <chord/>
        <pitch>
          <step>G</step>
          <octave>3</octave>
        </pitch>
        <duration>2</duration>
        <voice>1</voice>
        <type>eighth</type>
        <stem>down</stem>
      </note>
    </measure>
    <!--=======================================================-->
    <measure number="13" width="529">
      <note default-x="17">
        <pitch>
          <step>C</step>
          <octave>3</octave>
        </pitch>
        <duration>3</duration>
        <voice>1</voice>
        <type>eighth</type>
        <dot/>
        <stem default-y="-60">down</stem>
      </note>
      <note default-x="17">
        <chord/>
        <pitch>
          <step>F</step>
          <octave>3</octave>
        </pitch>
        <duration>3</duration>
        <voice>1</voice>
        <type>eighth</type>
        <dot/>
        <stem>down</stem>
      </note>
      <note default-x="83">
        <pitch>
          <step>C</step>
          <octave>3</octave>
        </pitch>
        <duration>1</duration>
        <voice>1</voice>
        <type>16th</type>
        <stem default-y="-60">down</stem>
      </note>
      <note default-x="83">
        <chord/>
        <pitch>
          <step>F</step>
          <octave>3</octave>
        </pitch>
        <duration>1</duration>
        <voice>1</voice>
        <type>16th</type>
        <stem>down</stem>
      </note>
      <note default-x="143">
        <pitch>
          <step>F</step>
          <octave>3</octave>
        </pitch>
        <duration>2</duration>
        <voice>1</voice>
        <type>eighth</type>
        <stem default-y="-45">down</stem>
      </note>
      <note default-x="143">
        <chord/>
        <pitch>
          <step>A</step>
          <octave>3</octave>
        </pitch>
        <duration>2</duration>
        <voice>1</voice>
        <type>eighth</type>
        <stem>down</stem>
      </note>
      <note default-x="205">
        <pitch>
          <step>F</step>
          <octave>3</octave>
        </pitch>
        <duration>2</duration>
        <voice>1</voice>
        <type>eighth</type>
        <stem default-y="-45">down</stem>
      </note>
      <note default-x="205">
        <chord/>
        <pitch>
          <step>A</step>
          <octave>3</octave>
        </pitch>
        <duration>2</duration>
        <voice>1</voice>
        <type>eighth</type>
        <stem>down</stem>
      </note>
      <note default-x="258">
        <pitch>
          <step>F</step>
          <octave>3</octave>
        </pitch>
        <duration>2</duration>
        <voice>1</voice>
        <type>eighth</type>
        <stem default-y="-45">down</stem>
      </note>
      <note default-x="258">
        <chord/>
        <pitch>
          <step>A</step>
          <octave>3</octave>
        </pitch>
        <duration>2</duration>
        <voice>1</voice>
        <type>eighth</type>
        <stem>down</stem>
      </note>
      <note default-x="296">
        <rest/>
        <duration>1</duration>
        <voice>1</voice>
        <type>16th</type>
      </note>
      <note default-x="337">
        <pitch>
          <step>G</step>
          <octave>3</octave>
        </pitch>
        <duration>1</duration>
        <voice>1</voice>
        <type>16th</type>
        <stem default-y="-40">down</stem>
      </note>
      <note default-x="337">
        <chord/>
        <pitch>
          <step>B</step>
          <alter>-1</alter>
          <octave>3</octave>
        </pitch>
        <duration>1</duration>
        <voice>1</voice>
        <type>16th</type>
        <stem>down</stem>
      </note>
      <note default-x="403">
        <pitch>
          <step>G</step>
          <octave>3</octave>
        </pitch>
        <duration>2</duration>
        <voice>1</voice>
        <type>eighth</type>
        <stem default-y="-40">down</stem>
      </note>
      <note default-x="403">
        <chord/>
        <pitch>
          <step>B</step>
          <alter>-1</alter>
          <octave>3</octave>
        </pitch>
        <duration>2</duration>
        <voice>1</voice>
        <type>eighth</type>
        <stem>down</stem>
      </note>
      <note default-x="477">
        <pitch>
          <step>G</step>
          <octave>3</octave>
        </pitch>
        <duration>2</duration>
        <voice>1</voice>
        <type>eighth</type>
        <stem>double</stem>
      </note>
    </measure>
    <!--=======================================================-->
    <measure number="14" width="194">
      <note default-x="16">
        <pitch>
          <step>E</step>
          <octave>3</octave>
        </pitch>
        <duration>4</duration>
        <voice>1</voice>
        <type>quarter</type>
        <stem default-y="-50">down</stem>
      </note>
      <note default-x="16">
        <chord/>
        <pitch>
          <step>G</step>
          <octave>3</octave>
        </pitch>
        <duration>4</duration>
        <voice>1</voice>
        <type>quarter</type>
        <stem>down</stem>
      </note>
      <note default-x="62">
        <pitch>
          <step>E</step>
          <octave>3</octave>
        </pitch>
        <duration>4</duration>
        <voice>1</voice>
        <type>quarter</type>
        <stem default-y="-50">down</stem>
      </note>
      <note default-x="62">
        <chord/>
        <pitch>
          <step>C</step>
          <octave>4</octave>
        </pitch>
        <duration>4</duration>
        <voice>1</voice>
        <type>quarter</type>
        <stem>down</stem>
      </note>
      <note default-x="105">
        <pitch>
          <step>C</step>
          <octave>3</octave>
        </pitch>
        <duration>4</duration>
        <voice>1</voice>
        <type>quarter</type>
        <stem default-y="-65.5">down</stem>
      </note>
      <note default-x="105">
        <chord/>
        <pitch>
          <step>B</step>
          <alter>-1</alter>
          <octave>3</octave>
        </pitch>
        <duration>4</duration>
        <voice>1</voice>
        <type>quarter</type>
        <stem>down</stem>
      </note>
      <note default-x="150">
        <pitch>
          <step>E</step>
          <octave>3</octave>
        </pitch>
        <duration>4</duration>
        <voice>1</voice>
        <type>quarter</type>
        <stem default-y="-50">down</stem>
      </note>
      <note default-x="150">
        <chord/>
        <pitch>
          <step>B</step>
          <alter>-1</alter>
          <octave>3</octave>
        </pitch>
        <duration>4</duration>
        <voice>1</voice>
        <type>quarter</type>
        <stem>down</stem>
      </note>
    </measure>
    <!--=======================================================-->
    <measure number="15" width="118">
      <note default-x="16">
        <pitch>
          <step>F</step>
          <octave>3</octave>
        </pitch>
        <duration>8</duration>
        <voice>1</voice>
        <type>half</type>
        <stem default-y="-45">down</stem>
      </note>
      <note default-x="16">
        <chord/>
        <pitch>
          <step>A</step>
          <octave>3</octave>
        </pitch>
        <duration>8</duration>
        <voice>1</voice>
        <type>half</type>
        <stem>down</stem>
      </note>
      <note default-x="83">
        <rest/>
        <duration>2</duration>
        <voice>1</voice>
        <type>eighth</type>
      </note>
      <barline location="right">
        <bar-style>light-heavy</bar-style>
      </barline>
    </measure>
  </part>
  <!--=========================================================-->
</score-partwise>
