<?xml version="1.0" encoding="UTF-8" standalone="no"?>
<!DOCTYPE score-partwise PUBLIC "-//Recordare//DTD MusicXML 3.1 Partwise//EN" "http://www.musicxml.org/dtds/partwise.dtd">
<score-partwise version="3.1">
  <movement-title>BÁP-TÊM, SỐNG ĐỜI SỐNG MỚI</movement-title>
  <identification>
    <creator type="composer">Howard L. Brown</creator>
    <creator type="lyricist">Phan Minh Nghĩa</creator>
    <encoding>
      <software>Finale v26.3 for Windows</software>
      <encoding-date>2021-09-08</encoding-date>
      <supports attribute="new-system" element="print" type="yes" value="yes"/>
      <supports attribute="new-page" element="print" type="yes" value="yes"/>
      <supports element="accidental" type="yes"/>
      <supports element="beam" type="yes"/>
      <supports element="stem" type="yes"/>
    </encoding>
  </identification>
  <defaults>
    <scaling>
      <millimeters>7.2319</millimeters>
      <tenths>40</tenths>
    </scaling>
    <page-layout>
      <page-height>1643</page-height>
      <page-width>1161</page-width>
      <page-margins type="both">
        <left-margin>70</left-margin>
        <right-margin>70</right-margin>
        <top-margin>70</top-margin>
        <bottom-margin>70</bottom-margin>
      </page-margins>
    </page-layout>
    <system-layout>
      <system-margins>
        <left-margin>0</left-margin>
        <right-margin>0</right-margin>
      </system-margins>
      <system-distance>219</system-distance>
      <top-system-distance>180</top-system-distance>
    </system-layout>
    <staff-layout>
      <staff-distance>81</staff-distance>
    </staff-layout>
    <appearance>
      <line-width type="stem">1.1784</line-width>
      <line-width type="beam">5</line-width>
      <line-width type="staff">1.1784</line-width>
      <line-width type="light barline">1.1784</line-width>
      <line-width type="heavy barline">5</line-width>
      <line-width type="leger">1.1784</line-width>
      <line-width type="ending">1.1784</line-width>
      <line-width type="wedge">0.7682</line-width>
      <line-width type="enclosure">1.1784</line-width>
      <line-width type="tuplet bracket">0.7487</line-width>
      <note-size type="grace">60</note-size>
      <note-size type="cue">60</note-size>
      <distance type="hyphen">120</distance>
      <distance type="beam">7.5</distance>
    </appearance>
    <music-font font-family="Maestro,engraved" font-size="20.5"/>
    <word-font font-family="Myriad Pro" font-size="10.25"/>
    <lyric-font font-family="Myriad Pro" font-size="12"/>
  </defaults>
  <credit page="1">
    <credit-words default-x="70" default-y="1573" font-size="22" font-weight="bold" valign="top">881</credit-words>
  </credit>
  <credit page="1">
    <credit-type>title</credit-type>
    <credit-words default-x="581" default-y="1573" font-size="22" font-weight="bold" halign="center" valign="top">BÁP-TÊM, SỐNG ĐỜI SỐNG MỚI</credit-words>
  </credit>
  <credit page="1">
    <credit-type>composer</credit-type>
    <credit-words default-x="1091" default-y="127" font-size="12" halign="right" valign="bottom">Howard L. Brown</credit-words>
  </credit>
  <credit page="1">
    <credit-type>lyricist</credit-type>
    <credit-words default-x="70" default-y="127" font-size="12" valign="bottom">Phan Minh Nghĩa</credit-words>
  </credit>
  <part-list>
    <part-group number="1" type="start">
      <group-symbol default-x="-7">bracket</group-symbol>
      <group-barline>no</group-barline>
    </part-group>
    <score-part id="P1">
      <part-name print-object="no">MusicXML Part</part-name>
      <score-instrument id="P1-I1">
        <instrument-name>Grand Piano</instrument-name>
      </score-instrument>
      <midi-instrument id="P1-I1">
        <midi-channel>1</midi-channel>
        <midi-program>1</midi-program>
        <volume>80</volume>
        <pan>0</pan>
      </midi-instrument>
    </score-part>
    <score-part id="P2">
      <part-name print-object="no">MusicXML Part</part-name>
      <score-instrument id="P2-I1">
        <instrument-name>Grand Piano</instrument-name>
      </score-instrument>
      <midi-instrument id="P2-I1">
        <midi-channel>1</midi-channel>
        <midi-program>1</midi-program>
        <volume>80</volume>
        <pan>0</pan>
      </midi-instrument>
    </score-part>
    <part-group number="1" type="stop"/>
  </part-list>
  <!--=========================================================-->
  <part id="P1">
    <?SmartMusic maxVoice=1?>
    <measure number="1" width="251">
      <print>
        <system-layout>
          <top-system-distance>155</top-system-distance>
        </system-layout>
        <measure-numbering>none</measure-numbering>
      </print>
      <attributes>
        <divisions>2</divisions>
        <key>
          <fifths>1</fifths>
          <mode>major</mode>
        </key>
        <time symbol="cut">
          <beats>2</beats>
          <beat-type>2</beat-type>
        </time>
        <clef>
          <sign>G</sign>
          <line>2</line>
        </clef>
      </attributes>
      <sound tempo="104"/>
      <harmony default-y="33" font-family="VNI-Helve-Condense" font-size="13.7">
        <root>
          <root-step>G</root-step>
        </root>
        <kind halign="center" text="">major</kind>
      </harmony>
      <note default-x="89">
        <pitch>
          <step>D</step>
          <octave>4</octave>
        </pitch>
        <duration>6</duration>
        <voice>1</voice>
        <type>half</type>
        <dot/>
        <stem default-y="15">up</stem>
        <lyric default-y="-101" number="1" relative-x="16">
          <syllabic>single</syllabic>
          <text>1.Hát</text>
        </lyric>
        <lyric default-y="-135" number="2" relative-x="16">
          <syllabic>single</syllabic>
          <text>2.Chết</text>
        </lyric>
        <lyric default-y="-170" number="3" relative-x="16">
          <syllabic>single</syllabic>
          <text>3.Sống</text>
        </lyric>
        <lyric default-y="-204" number="4" relative-x="16">
          <syllabic>single</syllabic>
          <text>4.Nhớ</text>
        </lyric>
        <lyric default-y="-237" number="5" relative-x="16">
          <syllabic>single</syllabic>
          <text>5.Ước</text>
        </lyric>
      </note>
      <note default-x="89">
        <chord/>
        <pitch>
          <step>B</step>
          <octave>4</octave>
        </pitch>
        <duration>6</duration>
        <voice>1</voice>
        <type>half</type>
        <dot/>
        <stem>up</stem>
      </note>
      <note default-x="205">
        <pitch>
          <step>B</step>
          <octave>3</octave>
        </pitch>
        <duration>2</duration>
        <voice>1</voice>
        <type>quarter</type>
        <stem default-y="5">up</stem>
        <lyric default-y="-101" number="1">
          <syllabic>single</syllabic>
          <text>vui</text>
        </lyric>
        <lyric default-y="-135" number="2">
          <syllabic>single</syllabic>
          <text>con</text>
        </lyric>
        <lyric default-y="-170" number="3">
          <syllabic>single</syllabic>
          <text>trong</text>
        </lyric>
        <lyric default-y="-204" number="4">
          <syllabic>single</syllabic>
          <text>trong</text>
        </lyric>
        <lyric default-y="-237" number="5">
          <syllabic>single</syllabic>
          <text>mong</text>
        </lyric>
      </note>
      <note default-x="205">
        <chord/>
        <pitch>
          <step>G</step>
          <octave>4</octave>
        </pitch>
        <duration>2</duration>
        <voice>1</voice>
        <type>quarter</type>
        <stem>up</stem>
      </note>
    </measure>
    <!--=======================================================-->
    <measure number="2" width="258">
      <note default-x="16">
        <pitch>
          <step>B</step>
          <octave>3</octave>
        </pitch>
        <duration>2</duration>
        <voice>1</voice>
        <type>quarter</type>
        <stem default-y="-10">up</stem>
        <lyric default-y="-101" number="1" relative-x="7">
          <syllabic>single</syllabic>
          <text>mừng</text>
        </lyric>
        <lyric default-y="-135" number="2" relative-x="6">
          <syllabic>single</syllabic>
          <text>người</text>
        </lyric>
        <lyric default-y="-170" number="3">
          <syllabic>single</syllabic>
          <text>niềm</text>
        </lyric>
        <lyric default-y="-204" number="4">
          <syllabic>single</syllabic>
          <text>lòng</text>
        </lyric>
        <lyric default-y="-237" number="5">
          <syllabic>single</syllabic>
          <text>trọn</text>
        </lyric>
      </note>
      <note default-x="16">
        <chord/>
        <pitch>
          <step>D</step>
          <octave>4</octave>
        </pitch>
        <duration>2</duration>
        <voice>1</voice>
        <type>quarter</type>
        <stem>up</stem>
      </note>
      <note default-x="86">
        <pitch>
          <step>D</step>
          <octave>4</octave>
        </pitch>
        <duration>2</duration>
        <voice>1</voice>
        <type>quarter</type>
        <stem default-y="5">up</stem>
        <lyric default-y="-101" number="1">
          <syllabic>single</syllabic>
          <text>ngợi</text>
        </lyric>
        <lyric default-y="-135" number="2">
          <syllabic>single</syllabic>
          <text>trần</text>
        </lyric>
        <lyric default-y="-170" number="3">
          <syllabic>single</syllabic>
          <text>vui</text>
        </lyric>
        <lyric default-y="-204" number="4">
          <syllabic>single</syllabic>
          <text>ngày</text>
        </lyric>
        <lyric default-y="-237" number="5">
          <syllabic>single</syllabic>
          <text>đời</text>
        </lyric>
      </note>
      <note default-x="86">
        <chord/>
        <pitch>
          <step>G</step>
          <octave>4</octave>
        </pitch>
        <duration>2</duration>
        <voice>1</voice>
        <type>quarter</type>
        <stem>up</stem>
      </note>
      <note default-x="146">
        <pitch>
          <step>D</step>
          <octave>4</octave>
        </pitch>
        <duration>2</duration>
        <voice>1</voice>
        <type>quarter</type>
        <stem default-y="15">up</stem>
        <lyric default-y="-101" number="1">
          <syllabic>single</syllabic>
          <text>ca</text>
        </lyric>
        <lyric default-y="-135" number="2">
          <syllabic>single</syllabic>
          <text>gian</text>
        </lyric>
        <lyric default-y="-170" number="3">
          <syllabic>single</syllabic>
          <text>tươi</text>
        </lyric>
        <lyric default-y="-204" number="4">
          <syllabic>single</syllabic>
          <text>tôi</text>
        </lyric>
        <lyric default-y="-237" number="5">
          <syllabic>single</syllabic>
          <text>tôi</text>
        </lyric>
      </note>
      <note default-x="146">
        <chord/>
        <pitch>
          <step>B</step>
          <octave>4</octave>
        </pitch>
        <duration>2</duration>
        <voice>1</voice>
        <type>quarter</type>
        <stem>up</stem>
      </note>
      <note default-x="206">
        <pitch>
          <step>G</step>
          <octave>4</octave>
        </pitch>
        <duration>2</duration>
        <voice>1</voice>
        <type>quarter</type>
        <stem default-y="23.5">up</stem>
        <lyric default-y="-101" number="1">
          <syllabic>single</syllabic>
          <text>Chúa</text>
        </lyric>
        <lyric default-y="-135" number="2">
          <syllabic>single</syllabic>
          <text>xấu</text>
        </lyric>
        <lyric default-y="-170" number="3">
          <syllabic>single</syllabic>
          <text>mới</text>
        </lyric>
        <lyric default-y="-204" number="4">
          <syllabic>begin</syllabic>
          <text>báp</text>
        </lyric>
        <lyric default-y="-237" number="5">
          <syllabic>single</syllabic>
          <text>bước</text>
        </lyric>
      </note>
      <note default-x="206">
        <chord/>
        <pitch>
          <step>E</step>
          <octave>5</octave>
        </pitch>
        <duration>2</duration>
        <voice>1</voice>
        <type>quarter</type>
        <stem>up</stem>
      </note>
    </measure>
    <!--=======================================================-->
    <measure number="3" width="177">
      <harmony default-y="33" font-family="VNI-Helve-Condense" font-size="13.7">
        <root>
          <root-step>D</root-step>
        </root>
        <kind halign="center" text="7">dominant</kind>
      </harmony>
      <note default-x="16">
        <pitch>
          <step>F</step>
          <alter>1</alter>
          <octave>4</octave>
        </pitch>
        <duration>6</duration>
        <voice>1</voice>
        <type>half</type>
        <dot/>
        <stem default-y="18">up</stem>
        <lyric default-y="-101" number="1" relative-x="3">
          <syllabic>single</syllabic>
          <text>luôn</text>
        </lyric>
        <lyric default-y="-135" number="2">
          <syllabic>single</syllabic>
          <text>xa</text>
        </lyric>
        <lyric default-y="-170" number="3" relative-x="3">
          <syllabic>single</syllabic>
          <text>luôn</text>
        </lyric>
        <lyric default-y="-204" number="4">
          <syllabic>end</syllabic>
          <text>têm</text>
        </lyric>
        <lyric default-y="-237" number="5">
          <syllabic>single</syllabic>
          <text>đi</text>
        </lyric>
      </note>
      <note default-x="16">
        <chord/>
        <pitch>
          <step>D</step>
          <octave>5</octave>
        </pitch>
        <duration>6</duration>
        <voice>1</voice>
        <type>half</type>
        <dot/>
        <stem>up</stem>
      </note>
      <note default-x="133">
        <pitch>
          <step>F</step>
          <alter>1</alter>
          <octave>4</octave>
        </pitch>
        <duration>2</duration>
        <voice>1</voice>
        <type>quarter</type>
        <stem default-y="13">up</stem>
        <lyric default-y="-101" number="1">
          <syllabic>single</syllabic>
          <text>đêm</text>
        </lyric>
        <lyric default-y="-135" number="2">
          <syllabic>single</syllabic>
          <text>ô</text>
        </lyric>
        <lyric default-y="-170" number="3">
          <syllabic>single</syllabic>
          <text>trong</text>
        </lyric>
        <lyric default-y="-204" number="4">
          <syllabic>single</syllabic>
          <text>theo</text>
        </lyric>
        <lyric default-y="-237" number="5">
          <syllabic>single</syllabic>
          <text>bên</text>
        </lyric>
      </note>
      <note default-x="133">
        <chord/>
        <pitch>
          <step>C</step>
          <octave>5</octave>
        </pitch>
        <duration>2</duration>
        <voice>1</voice>
        <type>quarter</type>
        <stem>up</stem>
      </note>
    </measure>
    <!--=======================================================-->
    <measure number="4" width="168">
      <note default-x="16">
        <pitch>
          <step>F</step>
          <alter>1</alter>
          <octave>4</octave>
        </pitch>
        <duration>8</duration>
        <voice>1</voice>
        <type>whole</type>
        <lyric default-y="-101" number="1" relative-x="4">
          <syllabic>single</syllabic>
          <text>ngày.</text>
        </lyric>
        <lyric default-y="-135" number="2">
          <syllabic>single</syllabic>
          <text>tội,</text>
        </lyric>
        <lyric default-y="-170" number="3" relative-x="3">
          <syllabic>single</syllabic>
          <text>lòng;</text>
        </lyric>
        <lyric default-y="-204" number="4" relative-x="3">
          <syllabic>single</syllabic>
          <text>Ngài.</text>
        </lyric>
        <lyric default-y="-237" number="5" relative-x="3">
          <syllabic>single</syllabic>
          <text>Ngài,</text>
        </lyric>
      </note>
      <backup>
        <duration>8</duration>
      </backup>
      <note default-x="16">
        <pitch>
          <step>C</step>
          <octave>4</octave>
        </pitch>
        <duration>2</duration>
        <voice>2</voice>
        <type>quarter</type>
        <stem default-y="-78">down</stem>
        <notations>
          <slur bezier-x="17" bezier-y="-16" default-x="6" default-y="-68" number="1" placement="below" type="start"/>
        </notations>
      </note>
      <note default-x="54">
        <pitch>
          <step>E</step>
          <octave>4</octave>
        </pitch>
        <duration>2</duration>
        <voice>2</voice>
        <type>quarter</type>
        <stem default-y="-68">down</stem>
      </note>
      <note default-x="92">
        <pitch>
          <step>D</step>
          <octave>4</octave>
        </pitch>
        <duration>2</duration>
        <voice>2</voice>
        <type>quarter</type>
        <stem default-y="-73.5">down</stem>
      </note>
      <note default-x="130">
        <pitch>
          <step>C</step>
          <octave>4</octave>
        </pitch>
        <duration>2</duration>
        <voice>2</voice>
        <type>quarter</type>
        <stem default-y="-78">down</stem>
        <notations>
          <slur bezier-x="-17" bezier-y="-16" default-x="-5" default-y="-68" number="1" type="stop"/>
        </notations>
      </note>
    </measure>
    <!--=======================================================-->
    <measure number="5" width="167">
      <note default-x="14">
        <pitch>
          <step>A</step>
          <octave>4</octave>
        </pitch>
        <duration>6</duration>
        <voice>1</voice>
        <type>half</type>
        <dot/>
        <stem default-y="10">up</stem>
        <lyric default-y="-101" number="1">
          <syllabic>single</syllabic>
          <text>Mãi</text>
        </lyric>
        <lyric default-y="-135" number="2">
          <syllabic>single</syllabic>
          <text>bấy</text>
        </lyric>
        <lyric default-y="-170" number="3" relative-x="8">
          <syllabic>single</syllabic>
          <text>chính</text>
        </lyric>
        <lyric default-y="-204" number="4" relative-x="3">
          <syllabic>single</syllabic>
          <text>thỏa</text>
        </lyric>
        <lyric default-y="-237" number="5">
          <syllabic>single</syllabic>
          <text>giữ</text>
        </lyric>
      </note>
      <backup>
        <duration>6</duration>
      </backup>
      <note default-x="14">
        <pitch>
          <step>D</step>
          <octave>4</octave>
        </pitch>
        <duration>2</duration>
        <voice>2</voice>
        <type>quarter</type>
        <stem default-y="-73.5">down</stem>
        <notations>
          <slur bezier-x="15" bezier-y="-16" default-x="6" default-y="-64" number="1" placement="below" type="start"/>
        </notations>
      </note>
      <note default-x="52">
        <pitch>
          <step>E</step>
          <octave>4</octave>
        </pitch>
        <duration>2</duration>
        <voice>2</voice>
        <type>quarter</type>
        <stem default-y="-68">down</stem>
      </note>
      <note default-x="90">
        <pitch>
          <step>F</step>
          <alter>1</alter>
          <octave>4</octave>
        </pitch>
        <duration>2</duration>
        <voice>2</voice>
        <type>quarter</type>
        <stem default-y="-63">down</stem>
        <notations>
          <slur bezier-x="-7" bezier-y="-20" default-x="-2" default-y="-54" number="1" type="stop"/>
        </notations>
      </note>
      <note default-x="128">
        <pitch>
          <step>F</step>
          <alter>1</alter>
          <octave>4</octave>
        </pitch>
        <duration>2</duration>
        <voice>1</voice>
        <type>quarter</type>
        <stem default-y="15">up</stem>
        <lyric default-y="-101" number="1">
          <syllabic>single</syllabic>
          <text>biết</text>
        </lyric>
        <lyric default-y="-135" number="2">
          <syllabic>single</syllabic>
          <text>lâu</text>
        </lyric>
        <lyric default-y="-170" number="3">
          <syllabic>begin</syllabic>
          <text>Jê</text>
        </lyric>
        <lyric default-y="-204" number="4">
          <syllabic>single</syllabic>
          <text>vui</text>
        </lyric>
        <lyric default-y="-237" number="5">
          <syllabic>single</syllabic>
          <text>tín</text>
        </lyric>
      </note>
      <note default-x="128">
        <chord/>
        <pitch>
          <step>B</step>
          <octave>4</octave>
        </pitch>
        <duration>2</duration>
        <voice>1</voice>
        <type>quarter</type>
        <stem>up</stem>
      </note>
    </measure>
    <!--=======================================================-->
    <measure number="6" width="305">
      <print new-system="yes">
        <system-layout>
          <system-distance>122</system-distance>
        </system-layout>
      </print>
      <harmony default-y="33" font-family="VNI-Helve-Condense" font-size="13.7">
        <root>
          <root-step>D</root-step>
        </root>
        <kind halign="center" text="7">dominant</kind>
      </harmony>
      <note default-x="64">
        <pitch>
          <step>F</step>
          <alter>1</alter>
          <octave>4</octave>
        </pitch>
        <duration>2</duration>
        <voice>1</voice>
        <type>quarter</type>
        <stem default-y="10">up</stem>
        <lyric default-y="-85" number="1" relative-x="8">
          <syllabic>single</syllabic>
          <text>ơn</text>
        </lyric>
        <lyric default-y="-119" number="2" relative-x="8">
          <syllabic>single</syllabic>
          <text>nay</text>
        </lyric>
        <lyric default-y="-152" number="3" relative-x="8">
          <syllabic>end</syllabic>
          <text>sus</text>
        </lyric>
        <lyric default-y="-185" number="4" relative-x="8">
          <syllabic>single</syllabic>
          <text>khi</text>
        </lyric>
        <lyric default-y="-219" number="5" relative-x="8">
          <syllabic>single</syllabic>
          <text>trung</text>
        </lyric>
      </note>
      <note default-x="64">
        <chord/>
        <pitch>
          <step>A</step>
          <octave>4</octave>
        </pitch>
        <duration>2</duration>
        <voice>1</voice>
        <type>quarter</type>
        <stem>up</stem>
      </note>
      <note default-x="124">
        <pitch>
          <step>E</step>
          <alter>1</alter>
          <octave>4</octave>
        </pitch>
        <duration>2</duration>
        <voice>1</voice>
        <type>quarter</type>
        <accidental>sharp</accidental>
        <stem default-y="5">up</stem>
        <lyric default-y="-85" number="1">
          <syllabic>single</syllabic>
          <text>Ngài</text>
        </lyric>
        <lyric default-y="-119" number="2">
          <syllabic>single</syllabic>
          <text>làm</text>
        </lyric>
        <lyric default-y="-152" number="3">
          <syllabic>single</syllabic>
          <text>nguồn</text>
        </lyric>
        <lyric default-y="-185" number="4">
          <syllabic>single</syllabic>
          <text>đời</text>
        </lyric>
        <lyric default-y="-219" number="5">
          <syllabic>single</syllabic>
          <text>bền</text>
        </lyric>
      </note>
      <note default-x="124">
        <chord/>
        <pitch>
          <step>G</step>
          <alter>1</alter>
          <octave>4</octave>
        </pitch>
        <duration>2</duration>
        <voice>1</voice>
        <type>quarter</type>
        <accidental>sharp</accidental>
        <stem>up</stem>
      </note>
      <note default-x="187">
        <pitch>
          <step>F</step>
          <alter>1</alter>
          <octave>4</octave>
        </pitch>
        <duration>2</duration>
        <voice>1</voice>
        <type>quarter</type>
        <stem default-y="10">up</stem>
        <lyric default-y="-85" number="1">
          <syllabic>single</syllabic>
          <text>luôn</text>
        </lyric>
        <lyric default-y="-119" number="2">
          <syllabic>single</syllabic>
          <text>theo</text>
        </lyric>
        <lyric default-y="-152" number="3">
          <syllabic>single</syllabic>
          <text>ơn</text>
        </lyric>
        <lyric default-y="-185" number="4">
          <syllabic>single</syllabic>
          <text>nên</text>
        </lyric>
        <lyric default-y="-219" number="5">
          <syllabic>single</syllabic>
          <text>tâm</text>
        </lyric>
      </note>
      <note default-x="187">
        <chord/>
        <pitch>
          <step>A</step>
          <octave>4</octave>
        </pitch>
        <duration>2</duration>
        <voice>1</voice>
        <type>quarter</type>
        <stem>up</stem>
      </note>
      <note default-x="253">
        <pitch>
          <step>F</step>
          <alter>1</alter>
          <octave>4</octave>
        </pitch>
        <duration>2</duration>
        <voice>1</voice>
        <type>quarter</type>
        <stem default-y="10">up</stem>
        <lyric default-y="-85" number="1">
          <syllabic>single</syllabic>
          <text>thương</text>
        </lyric>
        <lyric default-y="-119" number="2">
          <syllabic>single</syllabic>
          <text>tư</text>
        </lyric>
        <lyric default-y="-152" number="3">
          <syllabic>single</syllabic>
          <text>phước</text>
        </lyric>
        <lyric default-y="-185" number="4">
          <syllabic>single</syllabic>
          <text>tươi</text>
        </lyric>
        <lyric default-y="-219" number="5">
          <syllabic>single</syllabic>
          <text>theo</text>
        </lyric>
      </note>
      <note default-x="253">
        <chord/>
        <pitch>
          <step>A</step>
          <alter>1</alter>
          <octave>4</octave>
        </pitch>
        <duration>2</duration>
        <voice>1</voice>
        <type>quarter</type>
        <accidental>sharp</accidental>
        <stem>up</stem>
      </note>
    </measure>
    <!--=======================================================-->
    <measure number="7" width="151">
      <harmony default-y="33" font-family="VNI-Helve-Condense" font-size="13.7">
        <root>
          <root-step>G</root-step>
        </root>
        <kind halign="center" text="">major</kind>
      </harmony>
      <note default-x="16">
        <pitch>
          <step>G</step>
          <octave>4</octave>
        </pitch>
        <duration>8</duration>
        <tie type="start"/>
        <voice>1</voice>
        <type>whole</type>
        <notations>
          <tied type="start"/>
        </notations>
        <lyric default-y="-85" number="1">
          <syllabic>single</syllabic>
          <text>xót,</text>
        </lyric>
        <lyric default-y="-119" number="2">
          <syllabic>single</syllabic>
          <text>ý.</text>
        </lyric>
        <lyric default-y="-152" number="3">
          <syllabic>single</syllabic>
          <text>lớn.</text>
        </lyric>
        <lyric default-y="-185" number="4">
          <syllabic>single</syllabic>
          <text>mới.</text>
        </lyric>
        <lyric default-y="-219" number="5" relative-x="5">
          <syllabic>single</syllabic>
          <text>Chúa.</text>
        </lyric>
      </note>
      <note default-x="16">
        <chord/>
        <pitch>
          <step>B</step>
          <octave>4</octave>
        </pitch>
        <duration>8</duration>
        <tie type="start"/>
        <voice>1</voice>
        <type>whole</type>
        <notations>
          <tied type="start"/>
        </notations>
      </note>
    </measure>
    <!--=======================================================-->
    <measure number="8" width="151">
      <note default-x="16">
        <pitch>
          <step>G</step>
          <octave>4</octave>
        </pitch>
        <duration>8</duration>
        <tie type="stop"/>
        <voice>1</voice>
        <type>whole</type>
        <notations>
          <tied type="stop"/>
        </notations>
      </note>
      <note default-x="16">
        <chord/>
        <pitch>
          <step>B</step>
          <octave>4</octave>
        </pitch>
        <duration>8</duration>
        <tie type="stop"/>
        <voice>1</voice>
        <type>whole</type>
        <notations>
          <tied type="stop"/>
        </notations>
      </note>
    </measure>
    <!--=======================================================-->
    <measure number="9" width="160">
      <note default-x="16">
        <pitch>
          <step>G</step>
          <octave>4</octave>
        </pitch>
        <duration>6</duration>
        <voice>1</voice>
        <type>half</type>
        <dot/>
        <stem default-y="15">up</stem>
        <lyric default-y="-85" number="1">
          <syllabic>single</syllabic>
          <text>cứu</text>
        </lyric>
        <lyric default-y="-119" number="2" relative-x="5">
          <syllabic>single</syllabic>
          <text>Chúa</text>
        </lyric>
        <lyric default-y="-152" number="3" relative-x="5">
          <syllabic>single</syllabic>
          <text>Chúa</text>
        </lyric>
        <lyric default-y="-185" number="4" relative-x="5">
          <syllabic>single</syllabic>
          <text>Bước</text>
        </lyric>
        <lyric default-y="-219" number="5" relative-x="5">
          <syllabic>single</syllabic>
          <text>Sống</text>
        </lyric>
      </note>
      <note default-x="16">
        <chord/>
        <pitch>
          <step>B</step>
          <octave>4</octave>
        </pitch>
        <duration>6</duration>
        <voice>1</voice>
        <type>half</type>
        <dot/>
        <stem>up</stem>
      </note>
      <note default-x="115">
        <pitch>
          <step>D</step>
          <octave>4</octave>
        </pitch>
        <duration>2</duration>
        <voice>1</voice>
        <type>quarter</type>
        <stem default-y="5">up</stem>
        <lyric default-y="-85" number="1">
          <syllabic>single</syllabic>
          <text>cuộc</text>
        </lyric>
        <lyric default-y="-119" number="2">
          <syllabic>single</syllabic>
          <text>nhân</text>
        </lyric>
        <lyric default-y="-152" number="3">
          <syllabic>single</syllabic>
          <text>cho</text>
        </lyric>
        <lyric default-y="-185" number="4">
          <syllabic>single</syllabic>
          <text>trên</text>
        </lyric>
        <lyric default-y="-219" number="5">
          <syllabic>single</syllabic>
          <text>trong</text>
        </lyric>
      </note>
      <note default-x="115">
        <chord/>
        <pitch>
          <step>G</step>
          <octave>4</octave>
        </pitch>
        <duration>2</duration>
        <voice>1</voice>
        <type>quarter</type>
        <stem>up</stem>
      </note>
    </measure>
    <!--=======================================================-->
    <measure number="10" width="254">
      <note default-x="16">
        <pitch>
          <step>B</step>
          <octave>3</octave>
        </pitch>
        <duration>2</duration>
        <voice>1</voice>
        <type>quarter</type>
        <stem default-y="-10">up</stem>
        <lyric default-y="-85" number="1">
          <syllabic>single</syllabic>
          <text>đời</text>
        </lyric>
        <lyric default-y="-119" number="2">
          <syllabic>single</syllabic>
          <text>từ</text>
        </lyric>
        <lyric default-y="-152" number="3">
          <syllabic>single</syllabic>
          <text>đời</text>
        </lyric>
        <lyric default-y="-185" number="4" relative-x="10">
          <syllabic>single</syllabic>
          <text>đường</text>
        </lyric>
        <lyric default-y="-219" number="5">
          <syllabic>single</syllabic>
          <text>Ngài</text>
        </lyric>
      </note>
      <note default-x="16">
        <chord/>
        <pitch>
          <step>D</step>
          <octave>4</octave>
        </pitch>
        <duration>2</duration>
        <voice>1</voice>
        <type>quarter</type>
        <stem>up</stem>
      </note>
      <note default-x="86">
        <pitch>
          <step>D</step>
          <octave>4</octave>
        </pitch>
        <duration>2</duration>
        <voice>1</voice>
        <type>quarter</type>
        <stem default-y="5">up</stem>
        <lyric default-y="-85" number="1">
          <syllabic>single</syllabic>
          <text>tôi</text>
        </lyric>
        <lyric default-y="-119" number="2">
          <syllabic>single</syllabic>
          <text>còn</text>
        </lyric>
        <lyric default-y="-152" number="3">
          <syllabic>single</syllabic>
          <text>tôi</text>
        </lyric>
        <lyric default-y="-185" number="4">
          <syllabic>single</syllabic>
          <text>trần</text>
        </lyric>
        <lyric default-y="-219" number="5">
          <syllabic>single</syllabic>
          <text>đời</text>
        </lyric>
      </note>
      <note default-x="86">
        <chord/>
        <pitch>
          <step>G</step>
          <octave>4</octave>
        </pitch>
        <duration>2</duration>
        <voice>1</voice>
        <type>quarter</type>
        <stem>up</stem>
      </note>
      <note default-x="150">
        <pitch>
          <step>G</step>
          <octave>4</octave>
        </pitch>
        <duration>2</duration>
        <voice>1</voice>
        <type>quarter</type>
        <stem default-y="15">up</stem>
        <lyric default-y="-85" number="1">
          <syllabic>single</syllabic>
          <text>xa</text>
        </lyric>
        <lyric default-y="-119" number="2">
          <syllabic>single</syllabic>
          <text>thương</text>
        </lyric>
        <lyric default-y="-152" number="3">
          <syllabic>single</syllabic>
          <text>luôn</text>
        </lyric>
        <lyric default-y="-185" number="4">
          <syllabic>single</syllabic>
          <text>gian</text>
        </lyric>
        <lyric default-y="-219" number="5">
          <syllabic>single</syllabic>
          <text>tôi</text>
        </lyric>
      </note>
      <note default-x="150">
        <chord/>
        <pitch>
          <step>B</step>
          <octave>4</octave>
        </pitch>
        <duration>2</duration>
        <voice>1</voice>
        <type>quarter</type>
        <stem>up</stem>
      </note>
      <note default-x="216">
        <pitch>
          <step>G</step>
          <octave>4</octave>
        </pitch>
        <duration>2</duration>
        <voice>1</voice>
        <type>quarter</type>
        <stem default-y="23.5">up</stem>
        <lyric default-y="-85" number="1">
          <syllabic>single</syllabic>
          <text>tối</text>
        </lyric>
        <lyric default-y="-119" number="2">
          <syllabic>single</syllabic>
          <text>xót</text>
        </lyric>
        <lyric default-y="-152" number="3">
          <syllabic>single</syllabic>
          <text>thỏa</text>
        </lyric>
        <lyric default-y="-185" number="4">
          <syllabic>single</syllabic>
          <text>có</text>
        </lyric>
        <lyric default-y="-219" number="5">
          <syllabic>single</syllabic>
          <text>ấm</text>
        </lyric>
      </note>
      <note default-x="216">
        <chord/>
        <pitch>
          <step>E</step>
          <octave>5</octave>
        </pitch>
        <duration>2</duration>
        <voice>1</voice>
        <type>quarter</type>
        <stem>up</stem>
      </note>
    </measure>
    <!--=======================================================-->
    <measure number="11" width="222">
      <print new-system="yes">
        <system-layout>
          <system-distance>122</system-distance>
        </system-layout>
      </print>
      <harmony default-y="33" font-family="VNI-Helve-Condense" font-size="13.7">
        <root>
          <root-step>D</root-step>
        </root>
        <kind halign="center" text="7">dominant</kind>
      </harmony>
      <note default-x="61">
        <pitch>
          <step>F</step>
          <alter>1</alter>
          <octave>4</octave>
        </pitch>
        <duration>6</duration>
        <voice>1</voice>
        <type>half</type>
        <dot/>
        <stem default-y="18">up</stem>
        <lyric default-y="-98" number="1">
          <syllabic>single</syllabic>
          <text>tăm</text>
        </lyric>
        <lyric default-y="-132" number="2">
          <syllabic>single</syllabic>
          <text>tôi</text>
        </lyric>
        <lyric default-y="-167" number="3">
          <syllabic>single</syllabic>
          <text>vui</text>
        </lyric>
        <lyric default-y="-202" number="4">
          <syllabic>single</syllabic>
          <text>Cha</text>
        </lyric>
        <lyric default-y="-236" number="5">
          <syllabic>single</syllabic>
          <text>êm,</text>
        </lyric>
      </note>
      <note default-x="61">
        <chord/>
        <pitch>
          <step>D</step>
          <octave>5</octave>
        </pitch>
        <duration>6</duration>
        <voice>1</voice>
        <type>half</type>
        <dot/>
        <stem>up</stem>
      </note>
      <note default-x="181">
        <pitch>
          <step>F</step>
          <alter>1</alter>
          <octave>4</octave>
        </pitch>
        <duration>2</duration>
        <voice>1</voice>
        <type>quarter</type>
        <stem default-y="13.5">up</stem>
        <lyric default-y="-98" number="1">
          <syllabic>single</syllabic>
          <text>mịt</text>
        </lyric>
        <lyric default-y="-132" number="2">
          <syllabic>single</syllabic>
          <text>lạc</text>
        </lyric>
        <lyric default-y="-167" number="3">
          <syllabic>single</syllabic>
          <text>tâm</text>
        </lyric>
        <lyric default-y="-202" number="4">
          <syllabic>single</syllabic>
          <text>đi</text>
        </lyric>
        <lyric default-y="-236" number="5">
          <syllabic>single</syllabic>
          <text>an</text>
        </lyric>
      </note>
      <note default-x="181">
        <chord/>
        <pitch>
          <step>C</step>
          <octave>5</octave>
        </pitch>
        <duration>2</duration>
        <voice>1</voice>
        <type>quarter</type>
        <stem>up</stem>
      </note>
    </measure>
    <!--=======================================================-->
    <measure number="12" width="176">
      <note default-x="16">
        <pitch>
          <step>F</step>
          <alter>1</alter>
          <octave>4</octave>
        </pitch>
        <duration>8</duration>
        <voice>1</voice>
        <type>whole</type>
        <lyric default-y="-98" number="1">
          <syllabic>single</syllabic>
          <text>mờ,</text>
        </lyric>
        <lyric default-y="-132" number="2">
          <syllabic>single</syllabic>
          <text>lầm;</text>
        </lyric>
        <lyric default-y="-167" number="3">
          <syllabic>single</syllabic>
          <text>hồn;</text>
        </lyric>
        <lyric default-y="-202" number="4" relative-x="5">
          <syllabic>single</syllabic>
          <text>cùng,</text>
        </lyric>
        <lyric default-y="-236" number="5" relative-x="3">
          <syllabic>single</syllabic>
          <text>bình,</text>
        </lyric>
      </note>
      <backup>
        <duration>8</duration>
      </backup>
      <note default-x="16">
        <pitch>
          <step>C</step>
          <octave>4</octave>
        </pitch>
        <duration>2</duration>
        <voice>2</voice>
        <type>quarter</type>
        <stem default-y="-78">down</stem>
        <notations>
          <slur bezier-x="18" bezier-y="-15" default-x="6" default-y="-68" number="1" placement="below" type="start"/>
        </notations>
      </note>
      <note default-x="56">
        <pitch>
          <step>E</step>
          <octave>4</octave>
        </pitch>
        <duration>2</duration>
        <voice>2</voice>
        <type>quarter</type>
        <stem default-y="-68">down</stem>
      </note>
      <note default-x="96">
        <pitch>
          <step>D</step>
          <octave>4</octave>
        </pitch>
        <duration>2</duration>
        <voice>2</voice>
        <type>quarter</type>
        <stem default-y="-73.5">down</stem>
      </note>
      <note default-x="135">
        <pitch>
          <step>C</step>
          <octave>4</octave>
        </pitch>
        <duration>2</duration>
        <voice>2</voice>
        <type>quarter</type>
        <stem default-y="-78">down</stem>
        <notations>
          <slur bezier-x="-18" bezier-y="-15" default-x="-5" default-y="-68" number="1" type="stop"/>
        </notations>
      </note>
    </measure>
    <!--=======================================================-->
    <measure number="13" width="186">
      <note default-x="16">
        <pitch>
          <step>C</step>
          <octave>5</octave>
        </pitch>
        <duration>6</duration>
        <voice>1</voice>
        <type>half</type>
        <dot/>
        <stem default-y="13.5">up</stem>
        <lyric default-y="-98" number="1" relative-x="5">
          <syllabic>single</syllabic>
          <text>Chúa</text>
        </lyric>
        <lyric default-y="-132" number="2">
          <syllabic>single</syllabic>
          <text>cứu</text>
        </lyric>
        <lyric default-y="-167" number="3" relative-x="4">
          <syllabic>single</syllabic>
          <text>sống</text>
        </lyric>
        <lyric default-y="-202" number="4">
          <syllabic>single</syllabic>
          <text>rất</text>
        </lyric>
        <lyric default-y="-236" number="5">
          <syllabic>single</syllabic>
          <text>thỏa</text>
        </lyric>
      </note>
      <backup>
        <duration>6</duration>
      </backup>
      <note default-x="16">
        <pitch>
          <step>C</step>
          <octave>4</octave>
        </pitch>
        <duration>4</duration>
        <voice>2</voice>
        <type>half</type>
        <stem default-y="-78">down</stem>
        <notations>
          <slur bezier-x="13" bezier-y="-11" default-x="6" default-y="-68" number="1" placement="below" type="start"/>
        </notations>
      </note>
      <note default-x="100">
        <pitch>
          <step>F</step>
          <alter>1</alter>
          <octave>4</octave>
        </pitch>
        <duration>2</duration>
        <voice>2</voice>
        <type>quarter</type>
        <stem default-y="-63">down</stem>
        <notations>
          <slur bezier-x="-11" bezier-y="-16" default-x="-5" default-y="-53" number="1" type="stop"/>
        </notations>
      </note>
      <note default-x="142">
        <pitch>
          <step>D</step>
          <octave>4</octave>
        </pitch>
        <duration>2</duration>
        <voice>1</voice>
        <type>quarter</type>
        <stem default-y="15">up</stem>
        <lyric default-y="-98" number="1">
          <syllabic>single</syllabic>
          <text>cho</text>
        </lyric>
        <lyric default-y="-132" number="2">
          <syllabic>single</syllabic>
          <text>thân</text>
        </lyric>
        <lyric default-y="-167" number="3">
          <syllabic>single</syllabic>
          <text>trong</text>
        </lyric>
        <lyric default-y="-202" number="4">
          <syllabic>single</syllabic>
          <text>an</text>
        </lyric>
        <lyric default-y="-236" number="5">
          <syllabic>single</syllabic>
          <text>vui</text>
        </lyric>
      </note>
      <note default-x="142">
        <chord/>
        <pitch>
          <step>B</step>
          <octave>4</octave>
        </pitch>
        <duration>2</duration>
        <voice>1</voice>
        <type>quarter</type>
        <stem>up</stem>
      </note>
    </measure>
    <!--=======================================================-->
    <measure number="14" width="287">
      <note default-x="16">
        <pitch>
          <step>F</step>
          <alter>1</alter>
          <octave>4</octave>
        </pitch>
        <duration>2</duration>
        <voice>1</voice>
        <type>quarter</type>
        <stem default-y="15">up</stem>
        <lyric default-y="-98" number="1">
          <syllabic>single</syllabic>
          <text>tôi</text>
        </lyric>
        <lyric default-y="-132" number="2">
          <syllabic>single</syllabic>
          <text>tôi</text>
        </lyric>
        <lyric default-y="-167" number="3">
          <syllabic>single</syllabic>
          <text>yêu</text>
        </lyric>
        <lyric default-y="-202" number="4" relative-x="3">
          <syllabic>single</syllabic>
          <text>ninh</text>
        </lyric>
        <lyric default-y="-236" number="5">
          <syllabic>single</syllabic>
          <text>bên</text>
        </lyric>
      </note>
      <note default-x="16">
        <chord/>
        <pitch>
          <step>B</step>
          <octave>4</octave>
        </pitch>
        <duration>2</duration>
        <voice>1</voice>
        <type>quarter</type>
        <stem>up</stem>
      </note>
      <note default-x="87">
        <pitch>
          <step>F</step>
          <alter>1</alter>
          <octave>4</octave>
        </pitch>
        <duration>2</duration>
        <voice>1</voice>
        <type>quarter</type>
        <stem default-y="10">up</stem>
        <lyric default-y="-98" number="1">
          <syllabic>single</syllabic>
          <text>vui</text>
        </lyric>
        <lyric default-y="-132" number="2">
          <syllabic>single</syllabic>
          <text>ra</text>
        </lyric>
        <lyric default-y="-167" number="3">
          <syllabic>single</syllabic>
          <text>thương</text>
        </lyric>
        <lyric default-y="-202" number="4">
          <syllabic>single</syllabic>
          <text>trong</text>
        </lyric>
        <lyric default-y="-236" number="5">
          <syllabic>single</syllabic>
          <text>Thiên</text>
        </lyric>
      </note>
      <note default-x="87">
        <chord/>
        <pitch>
          <step>A</step>
          <octave>4</octave>
        </pitch>
        <duration>2</duration>
        <voice>1</voice>
        <type>quarter</type>
        <stem>up</stem>
      </note>
      <note default-x="159">
        <pitch>
          <step>F</step>
          <alter>1</alter>
          <octave>4</octave>
        </pitch>
        <duration>2</duration>
        <voice>1</voice>
        <type>quarter</type>
        <stem default-y="13.5">up</stem>
        <lyric default-y="-98" number="1">
          <syllabic>single</syllabic>
          <text>sống</text>
        </lyric>
        <lyric default-y="-132" number="2">
          <syllabic>single</syllabic>
          <text>khỏi</text>
        </lyric>
        <lyric default-y="-167" number="3">
          <syllabic>single</syllabic>
          <text>Chúa</text>
        </lyric>
        <lyric default-y="-202" number="4">
          <syllabic>single</syllabic>
          <text>Chúa</text>
        </lyric>
        <lyric default-y="-236" number="5">
          <syllabic>single</syllabic>
          <text>Chúa</text>
        </lyric>
      </note>
      <note default-x="159">
        <chord/>
        <pitch>
          <step>C</step>
          <octave>5</octave>
        </pitch>
        <duration>2</duration>
        <voice>1</voice>
        <type>quarter</type>
        <stem>up</stem>
      </note>
      <note default-x="225">
        <pitch>
          <step>D</step>
          <octave>4</octave>
        </pitch>
        <duration>2</duration>
        <voice>1</voice>
        <type>quarter</type>
        <stem default-y="0">up</stem>
        <lyric default-y="-98" number="1">
          <syllabic>single</syllabic>
          <text>tự</text>
        </lyric>
        <lyric default-y="-132" number="2">
          <syllabic>single</syllabic>
          <text>bùn</text>
        </lyric>
        <lyric default-y="-167" number="3">
          <syllabic>single</syllabic>
          <text>bình</text>
        </lyric>
        <lyric default-y="-202" number="4">
          <syllabic>single</syllabic>
          <text>toàn</text>
        </lyric>
        <lyric default-y="-236" number="5">
          <syllabic>single</syllabic>
          <text>tình</text>
        </lyric>
      </note>
      <note default-x="225">
        <chord/>
        <pitch>
          <step>F</step>
          <alter>1</alter>
          <octave>4</octave>
        </pitch>
        <duration>2</duration>
        <voice>1</voice>
        <type>quarter</type>
        <stem>up</stem>
      </note>
    </measure>
    <!--=======================================================-->
    <measure number="15" width="150">
      <harmony default-y="33" font-family="VNI-Helve-Condense" font-size="13.7">
        <root>
          <root-step>G</root-step>
        </root>
        <kind halign="center" text="">major</kind>
      </harmony>
      <note default-x="14">
        <pitch>
          <step>D</step>
          <octave>4</octave>
        </pitch>
        <duration>6</duration>
        <voice>1</voice>
        <type>half</type>
        <dot/>
        <stem default-y="5">up</stem>
        <notations>
          <fermata default-x="-7" default-y="-60" type="inverted"/>
        </notations>
        <lyric default-y="-98" number="1">
          <syllabic>single</syllabic>
          <text>do.</text>
        </lyric>
        <lyric default-y="-132" number="2">
          <syllabic>single</syllabic>
          <text>nhơ.</text>
        </lyric>
        <lyric default-y="-167" number="3">
          <syllabic>single</syllabic>
          <text>an.</text>
        </lyric>
        <lyric default-y="-202" number="4" relative-x="5">
          <syllabic>single</syllabic>
          <text>năng.</text>
        </lyric>
        <lyric default-y="-236" number="5">
          <syllabic>single</syllabic>
          <text>yêu.</text>
        </lyric>
      </note>
      <note default-x="14">
        <chord/>
        <pitch>
          <step>G</step>
          <octave>4</octave>
        </pitch>
        <duration>6</duration>
        <voice>1</voice>
        <type>half</type>
        <dot/>
        <stem>up</stem>
      </note>
      <note default-x="100">
        <rest/>
        <duration>2</duration>
        <voice>1</voice>
        <type>quarter</type>
      </note>
      <barline location="right">
        <bar-style>light-heavy</bar-style>
      </barline>
    </measure>
  </part>
  <!--=========================================================-->
  <part id="P2">
    <?SmartMusic maxVoice=1?>
    <measure number="1" width="251">
      <print>
        <staff-layout number="1">
          <staff-distance>245</staff-distance>
        </staff-layout>
        <measure-numbering>none</measure-numbering>
      </print>
      <attributes>
        <divisions>2</divisions>
        <key>
          <fifths>1</fifths>
          <mode>major</mode>
        </key>
        <time symbol="cut">
          <beats>2</beats>
          <beat-type>2</beat-type>
        </time>
        <clef>
          <sign>F</sign>
          <line>4</line>
        </clef>
      </attributes>
      <sound tempo="104"/>
      <note default-x="89">
        <pitch>
          <step>G</step>
          <octave>2</octave>
        </pitch>
        <duration>6</duration>
        <voice>1</voice>
        <type>half</type>
        <dot/>
        <stem default-y="-68.5">down</stem>
      </note>
      <backup>
        <duration>6</duration>
      </backup>
      <note default-x="88">
        <pitch>
          <step>G</step>
          <octave>3</octave>
        </pitch>
        <duration>2</duration>
        <voice>2</voice>
        <type>quarter</type>
        <stem default-y="23">up</stem>
        <notations>
          <slur bezier-x="13" bezier-y="11" default-x="15" default-y="18" number="1" orientation="over" type="start"/>
        </notations>
      </note>
      <note default-x="127">
        <pitch>
          <step>F</step>
          <alter>1</alter>
          <octave>3</octave>
        </pitch>
        <duration>2</duration>
        <voice>2</voice>
        <type>quarter</type>
        <stem default-y="18.5">up</stem>
      </note>
      <note default-x="166">
        <pitch>
          <step>E</step>
          <octave>3</octave>
        </pitch>
        <duration>2</duration>
        <voice>2</voice>
        <type>quarter</type>
        <stem default-y="13.5">up</stem>
        <notations>
          <slur bezier-x="-10" bezier-y="14" default-x="8" default-y="11" number="1" type="stop"/>
        </notations>
      </note>
      <note default-x="205">
        <pitch>
          <step>D</step>
          <octave>3</octave>
        </pitch>
        <duration>2</duration>
        <voice>2</voice>
        <type>quarter</type>
        <stem default-y="15">up</stem>
      </note>
      <backup>
        <duration>2</duration>
      </backup>
      <note default-x="205">
        <pitch>
          <step>G</step>
          <octave>2</octave>
        </pitch>
        <duration>2</duration>
        <voice>1</voice>
        <type>quarter</type>
        <stem default-y="-68.5">down</stem>
      </note>
    </measure>
    <!--=======================================================-->
    <measure number="2" width="258">
      <note default-x="16">
        <pitch>
          <step>G</step>
          <octave>2</octave>
        </pitch>
        <duration>2</duration>
        <voice>1</voice>
        <type>quarter</type>
        <stem default-y="-68.5">down</stem>
      </note>
      <note default-x="16">
        <chord/>
        <pitch>
          <step>G</step>
          <octave>3</octave>
        </pitch>
        <duration>2</duration>
        <voice>1</voice>
        <type>quarter</type>
        <stem>down</stem>
      </note>
      <note default-x="86">
        <pitch>
          <step>B</step>
          <octave>2</octave>
        </pitch>
        <duration>2</duration>
        <voice>1</voice>
        <type>quarter</type>
        <stem default-y="-58">down</stem>
      </note>
      <note default-x="86">
        <chord/>
        <pitch>
          <step>G</step>
          <octave>3</octave>
        </pitch>
        <duration>2</duration>
        <voice>1</voice>
        <type>quarter</type>
        <stem>down</stem>
      </note>
      <note default-x="146">
        <pitch>
          <step>G</step>
          <octave>3</octave>
        </pitch>
        <duration>2</duration>
        <voice>1</voice>
        <type>quarter</type>
        <stem>double</stem>
      </note>
      <note default-x="206">
        <pitch>
          <step>G</step>
          <octave>3</octave>
        </pitch>
        <duration>2</duration>
        <voice>1</voice>
        <type>quarter</type>
        <stem default-y="-40">down</stem>
      </note>
      <note default-x="206">
        <chord/>
        <pitch>
          <step>B</step>
          <octave>3</octave>
        </pitch>
        <duration>2</duration>
        <voice>1</voice>
        <type>quarter</type>
        <stem>down</stem>
      </note>
    </measure>
    <!--=======================================================-->
    <measure number="3" width="177">
      <note default-x="16">
        <pitch>
          <step>D</step>
          <octave>3</octave>
        </pitch>
        <duration>6</duration>
        <voice>1</voice>
        <type>half</type>
        <dot/>
        <stem default-y="-55">down</stem>
      </note>
      <backup>
        <duration>6</duration>
      </backup>
      <note default-x="16">
        <pitch>
          <step>C</step>
          <octave>4</octave>
        </pitch>
        <duration>2</duration>
        <voice>2</voice>
        <type>quarter</type>
        <stem default-y="33.5">up</stem>
        <notations>
          <slur bezier-x="7" bezier-y="19" default-x="18" default-y="34" number="1" placement="above" type="start"/>
        </notations>
      </note>
      <note default-x="55">
        <pitch>
          <step>F</step>
          <alter>1</alter>
          <octave>4</octave>
        </pitch>
        <duration>2</duration>
        <voice>2</voice>
        <type>quarter</type>
        <stem default-y="49">up</stem>
      </note>
      <note default-x="94">
        <pitch>
          <step>E</step>
          <octave>4</octave>
        </pitch>
        <duration>2</duration>
        <voice>2</voice>
        <type>quarter</type>
        <stem default-y="43">up</stem>
        <notations>
          <slur bezier-x="-15" bezier-y="16" default-x="8" default-y="44" number="1" type="stop"/>
        </notations>
      </note>
      <note default-x="133">
        <pitch>
          <step>D</step>
          <octave>3</octave>
        </pitch>
        <duration>2</duration>
        <voice>1</voice>
        <type>quarter</type>
        <stem default-y="-55">down</stem>
      </note>
      <note default-x="133">
        <chord/>
        <pitch>
          <step>D</step>
          <octave>4</octave>
        </pitch>
        <duration>2</duration>
        <voice>1</voice>
        <type>quarter</type>
        <stem>down</stem>
      </note>
    </measure>
    <!--=======================================================-->
    <measure number="4" width="168">
      <note default-x="16">
        <pitch>
          <step>D</step>
          <octave>3</octave>
        </pitch>
        <duration>8</duration>
        <voice>1</voice>
        <type>whole</type>
      </note>
      <backup>
        <duration>8</duration>
      </backup>
      <note default-x="16">
        <pitch>
          <step>A</step>
          <octave>3</octave>
        </pitch>
        <duration>2</duration>
        <voice>2</voice>
        <type>quarter</type>
        <stem default-y="29">up</stem>
        <notations>
          <slur bezier-x="17" bezier-y="21" default-x="17" default-y="30" number="1" placement="above" type="start"/>
        </notations>
      </note>
      <note default-x="54">
        <pitch>
          <step>C</step>
          <octave>4</octave>
        </pitch>
        <duration>2</duration>
        <voice>2</voice>
        <type>quarter</type>
        <stem default-y="38.5">up</stem>
      </note>
      <note default-x="92">
        <pitch>
          <step>B</step>
          <octave>3</octave>
        </pitch>
        <duration>2</duration>
        <voice>2</voice>
        <type>quarter</type>
        <stem default-y="33.5">up</stem>
      </note>
      <note default-x="130">
        <pitch>
          <step>A</step>
          <octave>3</octave>
        </pitch>
        <duration>2</duration>
        <voice>2</voice>
        <type>quarter</type>
        <stem default-y="29">up</stem>
        <notations>
          <slur bezier-x="-17" bezier-y="21" default-x="5" default-y="30" number="1" type="stop"/>
        </notations>
      </note>
    </measure>
    <!--=======================================================-->
    <measure number="5" width="167">
      <note default-x="14">
        <pitch>
          <step>D</step>
          <octave>3</octave>
        </pitch>
        <duration>6</duration>
        <voice>1</voice>
        <type>half</type>
        <dot/>
        <stem default-y="-55">down</stem>
      </note>
      <backup>
        <duration>6</duration>
      </backup>
      <note default-x="14">
        <pitch>
          <step>F</step>
          <alter>1</alter>
          <octave>3</octave>
        </pitch>
        <duration>2</duration>
        <voice>2</voice>
        <type>quarter</type>
        <stem default-y="18.5">up</stem>
        <notations>
          <slur bezier-x="8" bezier-y="19" default-x="16" default-y="13" number="1" orientation="over" type="start"/>
        </notations>
      </note>
      <note default-x="52">
        <pitch>
          <step>G</step>
          <octave>3</octave>
        </pitch>
        <duration>2</duration>
        <voice>2</voice>
        <type>quarter</type>
        <stem default-y="23">up</stem>
      </note>
      <note default-x="90">
        <pitch>
          <step>A</step>
          <octave>3</octave>
        </pitch>
        <duration>2</duration>
        <voice>2</voice>
        <type>quarter</type>
        <stem default-y="29">up</stem>
        <notations>
          <slur bezier-x="-13" bezier-y="16" default-x="5" default-y="23" number="1" type="stop"/>
        </notations>
      </note>
      <note default-x="128">
        <pitch>
          <step>D</step>
          <octave>3</octave>
        </pitch>
        <duration>2</duration>
        <voice>1</voice>
        <type>quarter</type>
        <stem default-y="-55">down</stem>
      </note>
      <backup>
        <duration>2</duration>
      </backup>
      <note default-x="128">
        <pitch>
          <step>B</step>
          <octave>3</octave>
        </pitch>
        <duration>2</duration>
        <voice>2</voice>
        <type>quarter</type>
        <stem default-y="33.5">up</stem>
      </note>
    </measure>
    <!--=======================================================-->
    <measure number="6" width="305">
      <print new-system="yes">
        <staff-layout number="1">
          <staff-distance>239</staff-distance>
        </staff-layout>
      </print>
      <note default-x="64">
        <pitch>
          <step>D</step>
          <octave>3</octave>
        </pitch>
        <duration>2</duration>
        <voice>1</voice>
        <type>quarter</type>
        <stem default-y="-55">down</stem>
      </note>
      <note default-x="64">
        <chord/>
        <pitch>
          <step>C</step>
          <octave>4</octave>
        </pitch>
        <duration>2</duration>
        <voice>1</voice>
        <type>quarter</type>
        <stem>down</stem>
      </note>
      <note default-x="124">
        <pitch>
          <step>D</step>
          <octave>3</octave>
        </pitch>
        <duration>2</duration>
        <voice>1</voice>
        <type>quarter</type>
        <stem default-y="-55">down</stem>
      </note>
      <note default-x="124">
        <chord/>
        <pitch>
          <step>B</step>
          <octave>3</octave>
        </pitch>
        <duration>2</duration>
        <voice>1</voice>
        <type>quarter</type>
        <stem>down</stem>
      </note>
      <note default-x="187">
        <pitch>
          <step>D</step>
          <octave>3</octave>
        </pitch>
        <duration>2</duration>
        <voice>1</voice>
        <type>quarter</type>
        <stem default-y="-55">down</stem>
      </note>
      <note default-x="187">
        <chord/>
        <pitch>
          <step>C</step>
          <octave>4</octave>
        </pitch>
        <duration>2</duration>
        <voice>1</voice>
        <type>quarter</type>
        <stem>down</stem>
      </note>
      <note default-x="253">
        <pitch>
          <step>D</step>
          <octave>3</octave>
        </pitch>
        <duration>2</duration>
        <voice>1</voice>
        <type>quarter</type>
        <stem default-y="-55">down</stem>
      </note>
      <note default-x="253">
        <chord/>
        <pitch>
          <step>D</step>
          <octave>4</octave>
        </pitch>
        <duration>2</duration>
        <voice>1</voice>
        <type>quarter</type>
        <stem>down</stem>
      </note>
    </measure>
    <!--=======================================================-->
    <measure number="7" width="151">
      <note default-x="16">
        <pitch>
          <step>G</step>
          <octave>3</octave>
        </pitch>
        <duration>8</duration>
        <voice>1</voice>
        <type>whole</type>
        <notations>
          <slur bezier-x="40" bezier-y="-38" default-x="8" default-y="-15" number="1" placement="below" type="start"/>
        </notations>
      </note>
      <backup>
        <duration>8</duration>
      </backup>
      <note default-x="16">
        <pitch>
          <step>D</step>
          <octave>4</octave>
        </pitch>
        <duration>2</duration>
        <voice>2</voice>
        <type>quarter</type>
        <stem default-y="41">up</stem>
        <notations>
          <slur bezier-x="22" bezier-y="31" default-x="18" default-y="40" number="2" placement="above" type="start"/>
        </notations>
      </note>
      <note default-x="49">
        <pitch>
          <step>G</step>
          <octave>4</octave>
        </pitch>
        <duration>2</duration>
        <voice>2</voice>
        <type>quarter</type>
        <stem default-y="50.5">up</stem>
      </note>
      <note default-x="84">
        <pitch>
          <step>F</step>
          <alter>1</alter>
          <octave>4</octave>
        </pitch>
        <duration>2</duration>
        <voice>2</voice>
        <type>quarter</type>
        <stem default-y="51">up</stem>
      </note>
      <note default-x="117">
        <pitch>
          <step>E</step>
          <octave>4</octave>
        </pitch>
        <duration>2</duration>
        <voice>2</voice>
        <type>quarter</type>
        <stem default-y="46">up</stem>
      </note>
    </measure>
    <!--=======================================================-->
    <measure number="8" width="151">
      <note default-x="16">
        <pitch>
          <step>D</step>
          <octave>4</octave>
        </pitch>
        <duration>8</duration>
        <voice>1</voice>
        <type>whole</type>
        <notations>
          <slur bezier-x="-27" bezier-y="35" default-x="13" default-y="28" number="2" type="stop"/>
        </notations>
      </note>
      <backup>
        <duration>8</duration>
      </backup>
      <note default-x="16">
        <pitch>
          <step>G</step>
          <octave>3</octave>
        </pitch>
        <duration>2</duration>
        <voice>2</voice>
        <type>quarter</type>
        <stem default-y="-36">down</stem>
      </note>
      <note default-x="49">
        <pitch>
          <step>D</step>
          <octave>3</octave>
        </pitch>
        <duration>2</duration>
        <voice>2</voice>
        <type>quarter</type>
        <stem default-y="-42">down</stem>
      </note>
      <note default-x="84">
        <pitch>
          <step>B</step>
          <octave>3</octave>
        </pitch>
        <duration>2</duration>
        <voice>2</voice>
        <type>quarter</type>
        <stem default-y="-27.5">down</stem>
      </note>
      <note default-x="117">
        <pitch>
          <step>G</step>
          <octave>3</octave>
        </pitch>
        <duration>2</duration>
        <voice>2</voice>
        <type>quarter</type>
        <stem default-y="-35">down</stem>
        <notations>
          <slur bezier-x="-41" bezier-y="-33" default-x="-1" default-y="-30" number="1" type="stop"/>
        </notations>
      </note>
    </measure>
    <!--=======================================================-->
    <measure number="9" width="160">
      <note default-x="16">
        <pitch>
          <step>D</step>
          <octave>4</octave>
        </pitch>
        <duration>6</duration>
        <voice>1</voice>
        <type>half</type>
        <dot/>
        <stem default-y="43.5">up</stem>
      </note>
      <backup>
        <duration>6</duration>
      </backup>
      <note default-x="16">
        <pitch>
          <step>G</step>
          <octave>2</octave>
        </pitch>
        <duration>2</duration>
        <voice>2</voice>
        <type>quarter</type>
        <stem default-y="-68">down</stem>
        <notations>
          <slur bezier-x="17" bezier-y="-12" default-x="7" default-y="-55" number="1" placement="below" type="start"/>
        </notations>
      </note>
      <note default-x="49">
        <pitch>
          <step>D</step>
          <octave>3</octave>
        </pitch>
        <duration>2</duration>
        <voice>2</voice>
        <type>quarter</type>
        <stem default-y="-44">down</stem>
      </note>
      <note default-x="82">
        <pitch>
          <step>G</step>
          <octave>3</octave>
        </pitch>
        <duration>2</duration>
        <voice>2</voice>
        <type>quarter</type>
        <stem default-y="-40">down</stem>
        <notations>
          <slur bezier-x="-2" bezier-y="-20" default-x="-4" default-y="-30" number="1" type="stop"/>
        </notations>
      </note>
      <note default-x="115">
        <pitch>
          <step>G</step>
          <octave>3</octave>
        </pitch>
        <duration>2</duration>
        <voice>1</voice>
        <type>quarter</type>
        <stem default-y="-40">down</stem>
      </note>
      <note default-x="115">
        <chord/>
        <pitch>
          <step>B</step>
          <octave>3</octave>
        </pitch>
        <duration>2</duration>
        <voice>1</voice>
        <type>quarter</type>
        <stem>down</stem>
      </note>
    </measure>
    <!--=======================================================-->
    <measure number="10" width="254">
      <note default-x="16">
        <pitch>
          <step>B</step>
          <octave>3</octave>
        </pitch>
        <duration>2</duration>
        <voice>1</voice>
        <type>quarter</type>
        <stem default-y="-30">down</stem>
      </note>
      <note default-x="16">
        <chord/>
        <pitch>
          <step>D</step>
          <octave>4</octave>
        </pitch>
        <duration>2</duration>
        <voice>1</voice>
        <type>quarter</type>
        <stem>down</stem>
      </note>
      <note default-x="86">
        <pitch>
          <step>G</step>
          <octave>3</octave>
        </pitch>
        <duration>2</duration>
        <voice>1</voice>
        <type>quarter</type>
        <stem default-y="-40">down</stem>
      </note>
      <note default-x="86">
        <chord/>
        <pitch>
          <step>B</step>
          <octave>3</octave>
        </pitch>
        <duration>2</duration>
        <voice>1</voice>
        <type>quarter</type>
        <stem>down</stem>
      </note>
      <note default-x="150">
        <pitch>
          <step>E</step>
          <octave>3</octave>
        </pitch>
        <duration>2</duration>
        <voice>1</voice>
        <type>quarter</type>
        <stem default-y="-50">down</stem>
      </note>
      <note default-x="150">
        <chord/>
        <pitch>
          <step>B</step>
          <octave>3</octave>
        </pitch>
        <duration>2</duration>
        <voice>1</voice>
        <type>quarter</type>
        <stem>down</stem>
      </note>
      <note default-x="216">
        <pitch>
          <step>C</step>
          <alter>1</alter>
          <octave>3</octave>
        </pitch>
        <duration>2</duration>
        <voice>1</voice>
        <type>quarter</type>
        <accidental>sharp</accidental>
        <stem default-y="-53.5">down</stem>
      </note>
      <note default-x="216">
        <chord/>
        <pitch>
          <step>B</step>
          <alter>-1</alter>
          <octave>3</octave>
        </pitch>
        <duration>2</duration>
        <voice>1</voice>
        <type>quarter</type>
        <accidental>flat</accidental>
        <stem>down</stem>
      </note>
    </measure>
    <!--=======================================================-->
    <measure number="11" width="222">
      <print new-system="yes">
        <staff-layout number="1">
          <staff-distance>245</staff-distance>
        </staff-layout>
      </print>
      <note default-x="61">
        <pitch>
          <step>D</step>
          <octave>3</octave>
        </pitch>
        <duration>6</duration>
        <voice>1</voice>
        <type>half</type>
        <dot/>
        <stem default-y="-55">down</stem>
      </note>
      <backup>
        <duration>6</duration>
      </backup>
      <note default-x="61">
        <pitch>
          <step>A</step>
          <octave>3</octave>
        </pitch>
        <duration>2</duration>
        <voice>2</voice>
        <type>quarter</type>
        <stem default-y="23">up</stem>
        <notations>
          <slur bezier-x="8" bezier-y="24" default-x="17" default-y="25" number="1" placement="above" type="start"/>
        </notations>
      </note>
      <note default-x="101">
        <pitch>
          <step>F</step>
          <alter>1</alter>
          <octave>4</octave>
        </pitch>
        <duration>2</duration>
        <voice>2</voice>
        <type>quarter</type>
        <stem default-y="44">up</stem>
      </note>
      <note default-x="141">
        <pitch>
          <step>E</step>
          <octave>4</octave>
        </pitch>
        <duration>2</duration>
        <voice>2</voice>
        <type>quarter</type>
        <stem default-y="43">up</stem>
        <notations>
          <slur bezier-x="-15" bezier-y="19" default-x="6" default-y="40" number="1" type="stop"/>
        </notations>
      </note>
      <note default-x="181">
        <pitch>
          <step>D</step>
          <octave>4</octave>
        </pitch>
        <duration>2</duration>
        <voice>2</voice>
        <type>quarter</type>
        <stem default-y="38.5">up</stem>
      </note>
      <backup>
        <duration>2</duration>
      </backup>
      <note default-x="181">
        <pitch>
          <step>D</step>
          <octave>3</octave>
        </pitch>
        <duration>2</duration>
        <voice>1</voice>
        <type>quarter</type>
        <stem default-y="-55">down</stem>
      </note>
    </measure>
    <!--=======================================================-->
    <measure number="12" width="176">
      <note default-x="16">
        <pitch>
          <step>D</step>
          <octave>3</octave>
        </pitch>
        <duration>8</duration>
        <voice>1</voice>
        <type>whole</type>
      </note>
      <backup>
        <duration>8</duration>
      </backup>
      <note default-x="16">
        <pitch>
          <step>A</step>
          <octave>3</octave>
        </pitch>
        <duration>2</duration>
        <voice>2</voice>
        <type>quarter</type>
        <stem default-y="29">up</stem>
        <notations>
          <slur bezier-x="18" bezier-y="27" default-x="18" default-y="23" number="1" orientation="over" type="start"/>
        </notations>
      </note>
      <note default-x="56">
        <pitch>
          <step>C</step>
          <octave>4</octave>
        </pitch>
        <duration>2</duration>
        <voice>2</voice>
        <type>quarter</type>
        <stem default-y="34.5">up</stem>
      </note>
      <note default-x="96">
        <pitch>
          <step>B</step>
          <octave>3</octave>
        </pitch>
        <duration>2</duration>
        <voice>2</voice>
        <type>quarter</type>
        <stem default-y="33.5">up</stem>
      </note>
      <note default-x="135">
        <pitch>
          <step>A</step>
          <octave>3</octave>
        </pitch>
        <duration>2</duration>
        <voice>2</voice>
        <type>quarter</type>
        <stem default-y="29">up</stem>
        <notations>
          <slur bezier-x="-18" bezier-y="27" default-x="7" default-y="23" number="1" type="stop"/>
        </notations>
      </note>
    </measure>
    <!--=======================================================-->
    <measure number="13" width="186">
      <note default-x="16">
        <pitch>
          <step>D</step>
          <octave>3</octave>
        </pitch>
        <duration>2</duration>
        <voice>1</voice>
        <type>quarter</type>
        <stem default-y="-55">down</stem>
        <notations>
          <slur bezier-x="13" bezier-y="-14" default-x="6" default-y="-45" number="1" orientation="under" type="start"/>
          <slur bezier-x="13" bezier-y="15" default-x="6" default-y="3" number="2" placement="above" type="start"/>
        </notations>
      </note>
      <note default-x="16">
        <chord/>
        <pitch>
          <step>F</step>
          <alter>1</alter>
          <octave>3</octave>
        </pitch>
        <duration>2</duration>
        <voice>1</voice>
        <type>quarter</type>
        <stem>down</stem>
      </note>
      <note default-x="58">
        <pitch>
          <step>E</step>
          <octave>3</octave>
        </pitch>
        <duration>2</duration>
        <voice>1</voice>
        <type>quarter</type>
        <stem default-y="-48">down</stem>
      </note>
      <note default-x="58">
        <chord/>
        <pitch>
          <step>G</step>
          <octave>3</octave>
        </pitch>
        <duration>2</duration>
        <voice>1</voice>
        <type>quarter</type>
        <stem>down</stem>
      </note>
      <note default-x="100">
        <pitch>
          <step>E</step>
          <octave>3</octave>
        </pitch>
        <duration>2</duration>
        <voice>1</voice>
        <type>quarter</type>
        <stem default-y="-50">down</stem>
        <notations>
          <slur bezier-x="-12" bezier-y="-15" default-x="-3" default-y="-40" number="1" type="stop"/>
          <slur bezier-x="-15" bezier-y="13" default-x="6" default-y="10" number="2" type="stop"/>
        </notations>
      </note>
      <note default-x="100">
        <chord/>
        <pitch>
          <step>A</step>
          <octave>3</octave>
        </pitch>
        <duration>2</duration>
        <voice>1</voice>
        <type>quarter</type>
        <stem>down</stem>
      </note>
      <note default-x="142">
        <pitch>
          <step>G</step>
          <octave>3</octave>
        </pitch>
        <duration>2</duration>
        <voice>1</voice>
        <type>quarter</type>
        <stem>double</stem>
      </note>
    </measure>
    <!--=======================================================-->
    <measure number="14" width="287">
      <note default-x="16">
        <pitch>
          <step>D</step>
          <octave>3</octave>
        </pitch>
        <duration>2</duration>
        <voice>1</voice>
        <type>quarter</type>
        <stem default-y="-55">down</stem>
      </note>
      <note default-x="16">
        <chord/>
        <pitch>
          <step>D</step>
          <octave>4</octave>
        </pitch>
        <duration>2</duration>
        <voice>1</voice>
        <type>quarter</type>
        <stem>down</stem>
      </note>
      <note default-x="87">
        <pitch>
          <step>D</step>
          <octave>3</octave>
        </pitch>
        <duration>2</duration>
        <voice>1</voice>
        <type>quarter</type>
        <stem default-y="-55">down</stem>
      </note>
      <note default-x="87">
        <chord/>
        <pitch>
          <step>C</step>
          <octave>4</octave>
        </pitch>
        <duration>2</duration>
        <voice>1</voice>
        <type>quarter</type>
        <stem>down</stem>
      </note>
      <note default-x="159">
        <pitch>
          <step>D</step>
          <octave>3</octave>
        </pitch>
        <duration>2</duration>
        <voice>1</voice>
        <type>quarter</type>
        <stem default-y="-55">down</stem>
      </note>
      <note default-x="159">
        <chord/>
        <pitch>
          <step>A</step>
          <octave>3</octave>
        </pitch>
        <duration>2</duration>
        <voice>1</voice>
        <type>quarter</type>
        <stem>down</stem>
      </note>
      <note default-x="225">
        <pitch>
          <step>D</step>
          <octave>3</octave>
        </pitch>
        <duration>2</duration>
        <voice>1</voice>
        <type>quarter</type>
        <stem default-y="-55">down</stem>
      </note>
      <note default-x="225">
        <chord/>
        <pitch>
          <step>C</step>
          <octave>4</octave>
        </pitch>
        <duration>2</duration>
        <voice>1</voice>
        <type>quarter</type>
        <stem>down</stem>
      </note>
    </measure>
    <!--=======================================================-->
    <measure number="15" width="150">
      <note default-x="14">
        <pitch>
          <step>G</step>
          <octave>3</octave>
        </pitch>
        <duration>6</duration>
        <voice>1</voice>
        <type>half</type>
        <dot/>
        <stem default-y="-40">down</stem>
        <notations>
          <fermata default-x="-7" default-y="20" type="upright"/>
        </notations>
      </note>
      <note default-x="14">
        <chord/>
        <pitch>
          <step>B</step>
          <octave>3</octave>
        </pitch>
        <duration>6</duration>
        <voice>1</voice>
        <type>half</type>
        <dot/>
        <stem>down</stem>
      </note>
      <note default-x="100">
        <rest/>
        <duration>2</duration>
        <voice>1</voice>
        <type>quarter</type>
      </note>
      <barline location="right">
        <bar-style>light-heavy</bar-style>
      </barline>
    </measure>
  </part>
  <!--=========================================================-->
</score-partwise>
